<svg xmlns="http://www.w3.org/2000/svg" viewBox="0 0 835.32 447.34"><defs><style>.cls-1{fill:#0095cf;}</style></defs><g id="Layer_1" data-name="Layer 1"><path class="cls-1" d="M341.68,76.86a15.12,15.12,0,0,1,2.54,1.64Q355.67,89.65,367,100.86c2.17,2.15,2.21,3.37,0,5.37s-4.93,3.38-8.26,2.38a4.78,4.78,0,0,0-3.3.12c-4.75,2.58-9.43,5.29-14.06,8.08-2.23,1.35-2.39,3.39-.81,5.29,5.75,6.93,11.6,13.77,17.52,20.77L375.18,131q29.35-20.4,58.67-40.84c1.8-1.27,2.91-1.15,4.63,0q36.36,25.41,72.82,50.69l2.6,1.76c6.57-7,14.2-12.91,18.83-21.57.92-1.71.63-2.74-.71-4.14-4.06-4.25-9.73-5.57-14.57-8.38-1-.61-2.74-.3-4.1-.1a8.93,8.93,0,0,1-8.32-3.14c-1.21-1.31-1.33-2.56.05-3.93q17.73-17.64,35.42-35.33c4.3-4.3,8.53-8.68,12.92-12.89,1-1,2.53-1.35,4.15-2.17,0-4.35,4.49-6.08,7.39-9a2.24,2.24,0,0,1,2.15-.1c3,2,6,4.29,9,6.4.82.57,1.9.77,2.72,1.34,1.85,1.29,3.67,2.64,5.41,4.08a329.7,329.7,0,0,1,47.95,49.37,98.22,98.22,0,0,1,5.8,9,3.34,3.34,0,0,1-.72,4.77c-1.33,1.19-2.44,2.64-3.84,3.73a41.78,41.78,0,0,1-4.64,2.72c.6,3.21-2.71,4.62-5.13,6.65a14.27,14.27,0,0,0-1.9,1.74,28.6,28.6,0,0,1-2,2.72c-13.61,13-26.58,26.74-40,40-2.46,2.42-3.81,2.45-5.95-.23-1.82-2.27-2.92-4.77-2-7.86a4.84,4.84,0,0,0-.09-3.3c-2.51-4.89-5.22-9.67-7.85-14.48l5.48,4.93c.64-.53,1.16-.91,1.62-1.36q10.49-10.47,21-21c3-3,2.91-5.25-.06-8.19L556.71,88.32c-3.09-3-5.12-3.1-8.15-.08-6.13,6.11-12.21,12.27-18.39,18.34a38.55,38.55,0,0,1-4.25,3.22l.27,1.28a17.78,17.78,0,0,1,2.52,1.82q17,17.1,34,34.26c-1.6.33-3.58.17-4.74,1.07-5.49,4.25-10.76,8.78-16.62,13.64l11.71,8.28c-.1.28-.2.55-.31.82-6.15-1.2-12.57-1.7-18.38-3.84-4.73-1.74-8.79-5.36-13-8.3q-41.61-28.77-83.15-57.66c-1.62-1.13-2.62-1-4.17,0q-46.35,31.88-92.76,63.64a27.44,27.44,0,0,0-2.94,2.2,34.07,34.07,0,0,1-24.05,9.19,39.28,39.28,0,0,1-4.81.17l21.3-14.67c-1.5-1.46-2.71-2.86-4.13-4-4.33-3.45-8.72-6.82-13.12-10.17a2.53,2.53,0,0,0-4.09.73c-1.89,3-3.74,6-5.58,9a25.19,25.19,0,0,1-2.65,3.9c2.09-3.68-.79-5.19-2.67-7.06q-11-11-22.11-21.87c-3.06-3-3.1-4.1-.3-7.35a394.7,394.7,0,0,1,41.12-40.77c3-2.64,4.23-2.61,7.19.31,7.86,7.74,15.72,15.46,23.46,23.31,1.75,1.78,3,2,5,.4,3-2.4,6.4-3.56,10.29-2.1,2.24.84,2.91-1,4.27-3-2.71-2.51-5.55-5-8.21-7.63-5.33-5.32-10.58-10.74-15.82-16.16a16,16,0,0,1-1.63-2.52ZM566.31,59.58c1.3-1.31,2.25-2.88,4.57-1,21,17,39.28,36.51,56.2,57.43a42.29,42.29,0,0,1,3.07,5.1,10.22,10.22,0,0,1,1.08-1c2.53-1.79,2.64-3.64.66-6.07-4.94-6.05-9.2-12.74-14.64-18.27C604.39,82.68,591,70.09,577.79,57.35a35.38,35.38,0,0,0-4-3l.82-.78,1.29-2.22-.41-.36-2.73,1.61c-1.11-.78-2.1-1.49-3.12-2.17s-2-1.36-3.06-2c-4.33-2.74-4.46-2.71-7.31,1.25l8,6.12-1.11,3.68c-2-1.44-3.89-2.94-5.89-4.32-4.13-2.86-4.77-2.7-7.2,1.32,27.37,19.91,50.41,44,71.19,70.57,3.63-2.69,3.68-2.74.72-7-1.76-2.56-3.59-5.07-5.53-7.49-11.07-13.88-23.89-26.09-36.72-38.28C577.36,69.21,571.77,64.46,566.31,59.58ZM346.43,110.67c-8.18-7.94-15.92-15.5-23.72-23-2.23-2.15-4.31-2-6.86.61q-17.7,17.85-35.32,35.76c-2.72,2.76-2.65,4.73.08,7.5,6.34,6.44,12.72,12.84,19,19.32a19.73,19.73,0,0,1,2.23,3.34Zm205.35-29.2c1.53,1.07,2.88,1.86,4.07,2.85,14.85,12.43,28.11,26.45,40.78,41.05,2.17,2.51,2.11,3.83-.35,6.3q-11.58,11.6-23.21,23.15c-2.9,2.89-2.9,2.9-.59,6.22,2,2.83,3.1,5.88,1.84,9.29-.68,1.84,0,3.13,1.47,3.67.73.27,2.17-.46,2.88-1.16,11.05-10.93,22-22,33.06-32.87,2-1.93,2.3-3.3.66-5.73-8.58-12.63-19.11-23.53-30-34.14C570.9,88.82,559.6,77.26,546.35,67.88c-2.3-1.63-3.83-1.53-5.8.47C529.42,79.6,518.19,90.75,507,102c-.58.58-1.13,2.23-.89,2.43,1,.81,2.47,2,3.37,1.69,3.66-1.12,6.74-.18,9.56,2,2.38,1.8,4,1.33,6-.73,7.63-7.82,15.41-15.49,23.17-23.18A36.23,36.23,0,0,1,551.78,81.47Zm-5.69-18.25a21.63,21.63,0,0,1,2.61,1.51c4.61,3.59,9.26,7.13,13.75,10.86,17.09,14.19,32.07,30.49,46.6,47.21,3,3.49,5.56,7.41,8.32,11.13,3.87-2.91,3.9-2.93,1-7.17-1.59-2.33-3.26-4.61-5-6.84-10.95-14.14-23.92-26.36-36.95-38.49-7.33-6.83-14.12-14.34-22.8-19.63C549.27,59.13,549.31,59.06,546.09,63.22ZM537.2,159l9.66-10.05a6.63,6.63,0,0,0,1.48-1.68c.73-1.8,1.8-3.66,1.82-5.51.06-6.34-7.41-12.41-13.63-11.25a7.09,7.09,0,0,0-3.54,1.59c-4.68,4.61-9.21,9.37-13.94,14.23l4.21,2.87c3.8-3.87,7.37-7.61,11-11.24,3.16-3.13,6.84-3.3,9.44-.61s2.25,6.14-.83,9.22-6.42,6.24-9.82,9.53Zm-184-12.68c-4.62-4.89-8.92-9.63-13.45-14.14a7.45,7.45,0,0,0-7.4-1.71,13,13,0,0,0-9.32,9,8.31,8.31,0,0,0,2.06,8.87c2.49,2.57,5.05,5.08,7.52,7.67,2.67,2.8,2.65,2.83,5.82.6.38-.26.72-.58,1.52-1.22-3.27-3.17-6.47-6.2-9.57-9.33-3.25-3.26-3.43-6.68-.62-9.39,2.63-2.55,6.11-2.3,9.22.76,3.68,3.62,7.29,7.3,11,11.05ZM530.08,154c3.71-3.76,7.27-7.23,10.62-10.89.58-.64.24-2.1.33-3.17-1.07,0-2.57-.46-3.15.07-3.9,3.59-7.62,7.39-11.62,11.34Zm-183.39-3.29c-3.93-3.91-7.59-7.68-11.43-11.25a2.91,2.91,0,0,0-2.86,0,2.86,2.86,0,0,0-.16,2.83c3.51,3.73,7.22,7.29,11,11Zm232.7-69-.15.14L600,102.3l-.06.07Zm35.18,23.63.8-.65L602.92,91.53l-.53.49Z"/><path class="cls-1" d="M505.73,370.35c-1.81-.69-2-1.79-.84-3.24a9.8,9.8,0,0,1,2-2.34c3.93-2.38,3.78-6,3.07-9.73-1.41-7.25-5.09-13.33-10.17-18.57-4.53-4.67-9.17-9.23-13.74-13.85-.67-.69-1.23-1.49-2-2.45l-14.39,10c-10.36,7.21-20.76,14.36-31.06,21.67-1.82,1.29-3,1.35-4.87,0-14.41-10.13-28.91-20.13-43.38-30.18l-2-1.32c-6.47,6.85-13.11,13.51-19.29,20.56a29,29,0,0,0-6.76,15.63c-.4,3.09-.17,6,2.94,7.92a11.77,11.77,0,0,1,2.57,3c.28.35.65,1.12.53,1.23-2.5,2.4-.67,6.2-3.61,8.89-8.61,7.88-16.56,16.49-25,24.6-2.56,2.48-5.81,4.1-9.71,3.05a4.65,4.65,0,0,1-2.83-7,4.27,4.27,0,0,0-2.76-6.45c-12.64-3-20.6-10.77-23.67-23.45-.84-3.48-3.63-4.66-6.74-2.92a4.17,4.17,0,0,1-5.53-.88c-1.64-1.81-2.48-3.73-1.27-6.29,4.84-10.29,14.71-16.05,21.77-24.33,2-2.36,4.39-4.4,6.58-6.61,1.3-1.3,2.56-2.56,4.67-1.68a1.46,1.46,0,0,0,1.31-.18c2.76-2.78,4.72-.37,5.94,1.41,2.66,3.86,6.17,3.84,10,3.07,7.56-1.51,13.75-5.51,19.17-10.82,3.83-3.76,7.58-7.61,11.45-11.33a4.36,4.36,0,0,1,2.6-1.16c3.58-.14,7.17-.24,10.74,0a9.51,9.51,0,0,1,4.65,1.46q23.37,15.88,46.57,32c2.54,1.79,4.15,1.92,6.78.06,15.29-10.84,30.73-21.47,46.21-32.06a10.48,10.48,0,0,1,5.17-1.6c4-.21,8.52-1.08,12,.32s5.67,5.3,8.57,8a150.25,150.25,0,0,0,11.69,10.18,26.93,26.93,0,0,0,14.68,5.34c2.63.15,5-.3,6.6-2.86a12.3,12.3,0,0,1,2.93-2.6c.35-.28,1.1-.68,1.21-.56,2.34,2.32,6,.36,8.49,3,8.22,8.7,16.94,16.91,25.23,25.54,2.37,2.47,4,5.67,3.09,9.49-.61,2.67-4.49,4.74-7.12,3a4.21,4.21,0,0,0-6.47,2.68c-3,12.8-10.91,20.71-23.67,23.78-3.14.75-4.36,3.76-2.7,6.62a4.22,4.22,0,0,1-.82,5.54,5.73,5.73,0,0,1-6.3,1.37c-6.3-2-9.66-7.5-14.12-11.62-5-4.67-9.68-9.78-14.64-14.54-2.57-2.47-5-4.81-3.9-8.83l.95.24c1-2,1.78-3.61,2.56-5.2C508,367,503.85,366.7,505.73,370.35ZM311.57,339.78c.86-.32,1.74-.59,2.58-1,2.75-1.21,5.42-2.64,8.24-3.64,11.13-3.94,23,.87,28.42,7.61,8.93,11,10.62,21,3.41,34.27-.54,1-1.22,1.9-1.83,2.85l-1.12-.19c6.48-12.24,7-23.91-2.48-34.82-.65.58-1.15,1-1.6,1.46s-1,1.09-1.47,1.69c7.19,10,8.41,20.13.49,30.38l4.92,5.26c2.95-2.49,5.43-4.9,8.23-6.85,3.68-2.55,3.6-5.55,2.2-9.31-4.77-12.86-1.12-23.81,8.08-33.31,4.46-4.6,9.07-9,13.59-13.57.7-.7,1.33-1.45,2-2.22-1.42-1.32-2.35-2.68-4.14-.85-6.56,6.74-13.16,13.45-19.91,20a5.73,5.73,0,0,1-4.44,1.41c-1.11-.25-1.84-2.17-2.74-3.34,2.81,3.43,4.38,3.56,7.66.58.42-.38.81-.79,1.21-1.19q8.36-8.42,16.72-16.84c.7-.71,1.34-1.47,2.19-2.41L376.46,312c-.54.44-1,.76-1.4,1.14-6.48,6.45-13,12.87-19.38,19.38-.79.81-1.07,2.13-1.59,3.21.47-1.49.52-3.38,1.49-4.41,4.19-4.46,8.67-8.64,13-13,2.25-2.25,4.41-4.59,6.78-7.06L372.09,309c-.82.75-1.52,1.36-2.18,2-4.07,4.05-8.06,8.2-12.22,12.15-9.45,9-20.25,12.34-32.92,7.67a20,20,0,0,0-4.35-1.17c-2.1-.27-9.59,7.54-9.64,9.88l-2.75.3c0,.28,0,.57,0,.85l6,5.49c10.4-7.95,20.47-6.61,30.33.45l3.24-2.75c-8.21-8.49-22.06-9.63-31.72-4.15C314.34,340.61,313,341.18,311.57,339.78Zm250.21,23.37a20.26,20.26,0,0,0-20.41-20.5c-9.66,0-18.58,8.72-18.63,18.27-.06,11.6,8.72,20.68,20.11,20.79C552.83,381.81,561.72,373.1,561.78,363.15ZM349.71,361.3c.09-9.63-8.62-18.54-18.24-18.65a20.35,20.35,0,0,0-20.81,20.13c-.08,9.82,8.62,18.81,18.31,18.94A20.18,20.18,0,0,0,349.71,361.3Zm173.58-16.69c-1.85,3.27-4,6.11-5.14,9.29a26.85,26.85,0,0,0,1.92,23.18,11.32,11.32,0,0,1,.71,2.72c-10.81-14.7-7.86-27.44,1.58-37.84s27.13-10.57,37.59-1.49a5.74,5.74,0,0,1-2.84-.51,28.27,28.27,0,0,0-15.21-3.54c-6.46.48-12.24,2.45-16.83,7.41.59.62,1,1.11,1.5,1.56s1,.84,1.52,1.3c10.07-7.19,20.26-8.41,30.47-.51l5.94-5.61c-2.85-2.74-5.73-5-7.89-7.73-2.58-3.3-5.28-3.42-8.85-2.07-13.11,5-24.15,1.14-33.75-8.32-4-3.9-8-7.77-11.76-11.82-1.82-1.95-3.06-1.57-4.44.23.07.26.06.49.17.6,6.52,6.53,13,13.08,19.61,19.53,1.61,1.57,2.36,3.24,1.42,5.29s-3,2.61-5,2.19a6.1,6.1,0,0,1-2.81-1.74c-4.28-4.24-8.46-8.59-12.73-12.85-2.7-2.7-5.5-5.31-8.29-8L487,318.15c.59.73,1,1.33,1.52,1.84,4.8,4.8,9.68,9.51,14.4,14.38,7.58,7.79,11.61,16.87,9.45,27.95-.54,2.76-1.71,5.39-2.25,8.15-.24,1.21-.09,3.08.69,3.82,3.36,3.23,7,6.16,10.69,9.29,1-1.09,2.79-3.08,4.53-5-7.27-12.92-7.17-17.18.73-30.9Zm-31.7-29.48-.51.76Q502,326.5,512.92,337.08c1.18,1.14,2.59,1.54,4,.28s2-2.87.94-4.52a23.38,23.38,0,0,0-3.31-3.81c-4.61-4.57-9.33-9-13.87-13.66-4.25-4.34-4.18-4.42-9-.49A.68.68,0,0,0,491.59,315.13ZM308.91,382.2l3.54-3.31c-7.65-10.7-8.46-21.18.11-31.39l-5.31-6.06c-2.35.84-3,2.41-1.65,4.52a2.88,2.88,0,0,1,.06,3.53c-4.58,7.84-4.8,16.15-1.82,24.47C304.88,376.85,307.09,379.31,308.91,382.2Zm249.8-1.93c-4.78,3-9.75,5.65-15.61,5.78-6,.14-11-2.81-15.66-6.14-1.56,1.4-3,2.57-4.31,3.94a8.34,8.34,0,0,0-1.13,2.47c1.17.27,2.76,1.15,3.43.69,1.92-1.33,3.31-.82,5,.22a17.56,17.56,0,0,0,4.66,2c9.87,2.56,19,1.57,27-6.17Zm4.79,1.49,1.41-1.67c6.68-8.07,7.58-20.42,2.09-30.22-.81-1.44-1.14-2.49-.08-4,1.25-1.79.67-3.33-1.52-4.43l-5.54,6.08c8.77,10.41,7.65,20.81.36,31.15Zm-252.95,1.15c6,7.78,22.08,10.83,34.18,2.95,3.89,2.25,4.21,2.24,6.19-.53l-6-5.55c-10.46,8.81-20.95,7.65-31.25.36Zm262.6-21.15c2.07-1.81,4.34-3.36,5.85-5.45.34-.47-2-2.87-3.16-4.38a6.07,6.07,0,0,0-.71-.88l-6.91-6.46c-.28,2-.85,3.22-.51,4.12C569.26,352.82,571.06,356.83,573.15,361.76ZM525.58,387.6c-.15.44-.31.88-.47,1.32,3.43,3.36,6.84,6.73,10.3,10.05a1.3,1.3,0,0,0,1.25.07c1.85-2,4.4-3.53,4.48-6.34-4-1.6-7.64-3.19-11.39-4.56A18.46,18.46,0,0,0,525.58,387.6ZM347.5,389.5l-.47-1.33c-1-.26-2.18-1-3-.69-4.26,1.61-8.42,3.48-13.29,5.55,1.6,2,3.15,4,4.89,5.83.26.28,1.62,0,2.12-.49C341.08,395.48,344.28,392.47,347.5,389.5Zm-42.84-43.93-1.4-.45c-3.18,3.28-6.39,6.54-9.52,9.88-.34.37-.52,1.49-.28,1.71,1.94,1.73,4,3.33,6,4.91,1.95-4.68,3.68-8.61,5.19-12.61C305,348,304.66,346.72,304.66,345.57Zm-11,19.22-5.5-6C287.39,361,289.64,363.58,293.63,364.79Zm285.83-.49c.15.26.31.51.47.76,1.63-1.47,3.3-2.9,4.87-4.44.2-.21-.12-1-.19-1.45-.55.21-1.29.26-1.63.65C581.74,361.25,580.62,362.8,579.46,364.3Zm-251.4,34.87c.1,2.88,3.19,5.86,5.49,5.08Zm-4.53-74.65-2.66,3.28c2.75-2.45,4.31.65,6.52.93ZM538.7,404.44c2.73.42,5.86-2.79,5.58-5.15Zm12.12-77.89-2-1.92-3.73,4.19.33.21Zm-185,44c.24-.27,1.52-1.46,1.4-1.61a43.65,43.65,0,0,0-3.6-4l-.29.37Z"/><path class="cls-1" d="M366.3,357.77a29.86,29.86,0,0,1,5.4-13.53c1.1-1.63,2.12-.54,3.14-.05a134.93,134.93,0,0,0,37.35,11.6c29.68,4.52,58,.28,84.77-13.44l2.17-1.05c1.85,3.32,3.76,6.61,5.49,10,.26.52-.27,1.46-.45,2.2-.54,2.24-1.46,4.47-1.5,6.71a7.54,7.54,0,0,1-1.37,4.61c-.9,1.28-1.07,3-1.64,4.56a21.65,21.65,0,0,1-1.32,2.41,49.79,49.79,0,0,0-3.63-5.36,17.6,17.6,0,0,0-4.49-3.77c-4.06-2.23-8.35-.6-9.27,3.92-.69,3.38-.14,7-.14,11L474,379.5a72.89,72.89,0,0,0-3.95-7c-1.88-2.62-4.42-4.61-7.92-3.81s-4.87,3.73-5.5,6.87a58,58,0,0,0-.56,7.35l-7.23.9a69.64,69.64,0,0,0-2.62-7c-1.44-2.87-3.54-5.36-7.1-5.23s-5.58,2.88-6.75,6a62.93,62.93,0,0,0-1.72,6.8l-7.36-.44a35.42,35.42,0,0,0-.67-4.16,22.52,22.52,0,0,0-1.9-5.27c-2.75-4.7-7.75-5.14-11.13-.83-1.76,2.24-2.83,5-4.43,8l-6.68-1.36c-.22-2.55-.24-5-.69-7.36-.59-3.08-2-5.84-5.38-6.59s-5.85,1-7.83,3.47c-1.29,1.59-2.3,3.42-3.62,5.42L374.85,373c-.19-3.66,0-7.07-.64-10.27C373.42,359,370.45,357.54,366.3,357.77Zm12,.26c.58,2.94,2.18,4.18,4.61,4.13s4-1.31,4.4-4.13Zm109.57-3.2c.85,2.94,2.47,4.25,4.89,4.11,2.22-.14,3.72-1.41,4.24-4.11ZM432,366.29c.88,2.75,2.38,4.15,4.85,4,2.24-.13,3.66-1.42,4.18-4Zm64.79-13.22c-1-2.51-2.59-3.42-4.77-3.25a4,4,0,0,0-3.83,3.25ZM441,364.6c-1.32-2.62-2.95-3.64-5.22-3.21-1.66.31-3.1,1.1-3.12,3.21Zm-62.62-8.52h8.73C384.58,351.76,380.89,351.8,378.41,356.08Z"/><path class="cls-1" d="M508.29,76.05l5.3,2.86L494.3,98.77c-.19-.08-1-.34-1.71-.67q-55.77-25.21-112.41-2c-2.28.93-3.49.81-5.18-1.09-3.7-4.15-7.82-7.91-11.65-11.93-1.58-1.67-2.88-3.61-4.64-5.84l6.77-3.49a36.94,36.94,0,0,0,3.21,4.84,20.89,20.89,0,0,0,4.88,4.18c4,2.29,7.93.71,9.54-3.64,1.48-4,.76-8-.61-12.3l7.24-2.31a36.43,36.43,0,0,0,1.65,4.37,24.06,24.06,0,0,0,3.22,4.93c4.66,5.09,10.42,3.72,12.44-2.91a20.11,20.11,0,0,0,.76-5,46.79,46.79,0,0,0-.4-5.35l7.55-1.2a38.13,38.13,0,0,0,1.23,5.38,23.9,23.9,0,0,0,3,6c3.33,4.34,8.4,4.07,11.08-.72,1.33-2.38,1.79-5.28,2.47-8a16.14,16.14,0,0,0,0-3.57h7.61a106.08,106.08,0,0,0,1.93,10.44c.83,2.92,2.82,5.28,6.12,5.54s5.63-1.75,7-4.44a98.78,98.78,0,0,0,3.74-9.82l6.87,1.18A101.59,101.59,0,0,0,466.14,72c.34,3.09,1.86,5.82,5.18,6.76s6-.84,7.82-3.32c2-2.76,3.39-6,5.21-9.28L491,68.44a97.6,97.6,0,0,0-1.75,10.39c-.22,3.32.82,6.52,4.23,7.94s6.25,0,8.45-2.39A97.88,97.88,0,0,0,508.29,76.05ZM386.18,82.83h9.23c-.48-2.58-1.92-3.93-4.14-4.12C388.76,78.5,387,79.75,386.18,82.83Zm98.7,1.78c-.36-2.8-1.89-4-4.33-4.07s-3.84,1.42-4.08,4.07Zm-52.77-9H441c-.55-2.66-2-3.88-4.34-3.93S432.83,72.84,432.11,75.58ZM476.27,86.4c.93,2.42,2.59,3.55,4.67,3.12,1.46-.29,2.73-1.55,4.09-2.37l-.47-.75Zm-80.9-.93-.47-.73h-8.49c1.09,2.51,2.78,3.61,4.85,3.16C392.74,87.58,394,86.32,395.37,85.47Zm37-8a4.06,4.06,0,0,0,4.29,3.2,3.69,3.69,0,0,0,3.93-3.2Z"/><path class="cls-1" d="M341.75,76.79c-1.32-1-2.74-1.84-3.95-2.94A72,72,0,0,1,332,68.08c-1.81-2.09-3.36-1.59-5.35-.25C315,75.65,305,85.41,295.09,95.22a366.94,366.94,0,0,0-34.44,38.53c-2.45,3.22-2.44,3.48.38,6.35,6.86,7,13.72,14,20.15,21.47-1.38-1.16-2.84-2.23-4.12-3.49-6.07-5.91-12.1-11.88-18.14-17.83-4.34-4.28-8.73-8.52-13-12.89a23.7,23.7,0,0,1-2.65-4.26,43.69,43.69,0,0,1-4-2.27,22.65,22.65,0,0,1-2.63-2.56c-3.3-3.28-3.65-4.59-.91-8.26,5.3-7.08,10.69-14.1,16.4-20.85,3.38-4,7.69-7.2,11.15-11.15a224.53,224.53,0,0,1,31.53-29.42c3-2.3,6.3-4.11,9.48-6.13a3.45,3.45,0,0,1,5,.71c1.18,1.34,2.65,2.44,3.73,3.85a37.9,37.9,0,0,1,2.61,4.67c3.29-.66,4.7,2.66,6.66,5.16a20.19,20.19,0,0,0,1.26,1.63c1.74,1.76,3.52,3.49,5.3,5.22.51.5,1.12.91,1.61,1.42q5.58,5.86,11.14,11.74Zm-61.94,6.32c-.73,1-1.4,2-2.19,2.88-10,11.49-20.14,22.9-30.05,34.48-3,3.53-2.53,4.79,1.52,6.89a17.8,17.8,0,0,1,1.32-2.44c3.63-4.69,6.94-9.71,11-13.94q19.17-19.77,38.91-39c4.91-4.77,10.5-8.86,15.86-13.15a21.4,21.4,0,0,1,4-2,17,17,0,0,1-1.19-1.32c-1.72-2.33-3.52-2.62-5.87-.69-2.75,2.28-5.87,4.12-8.57,6.45-7.61,6.6-15.09,13.35-22.62,20q4.68-4.85,9.37-9.7l2.71-2.78-.74-.67L269.64,91.42l.59.61Zm-34.29,23.75c-.6-1.34-1.19-2.69-1.79-4l-1,.54c-.52,2.1.92,2.92,2.84,3.42-1.58,2.33-3.2,4.65-4.74,7-2.77,4.26-2.72,4.42,1.42,7.39.66-1.09,1.26-2.24,2-3.28,9.46-13.35,20.74-25.1,32.6-36.28,10.26-9.67,20.91-18.94,31.47-28.29,1.46-1.29,3.41-2,5.09-3-3.46-4.18-3.48-4.21-8-1.12A181.8,181.8,0,0,0,277.89,73C267,84.15,256.3,95.55,245.52,106.86Zm9.87,27.35c9.37-14.36,21-26.58,33.12-38.27s23.82-23.7,38.08-32.8C323.36,59.05,323.33,59,319,62a201.86,201.86,0,0,0-33,29.11c-10.76,11.6-21.16,23.53-31.47,35.52C251.2,130.51,251.56,130.82,255.39,134.21Zm46.77-60-.79-.8-28.58,28.41.45.45Zm-17.74,30.06h0L297.85,90.5l.11.1Zm14.84-15.49.54.58,7.09-6.69-.56-.57Z"/><path class="cls-1" d="M389,170.3a181.91,181.91,0,0,1,37-12c19.93-4.2,39.59-2.28,59.05,2.52,16.81,4.15,33.37,9.39,50.25,13.17A213.92,213.92,0,0,0,597,178.28c.65,0,1.3,0,2.23,0a8.27,8.27,0,0,1-1.08,2c-3.16,3.22-3.33,6.78-1.69,10.8a49.19,49.19,0,0,1,1.67,6.47c-11.89-9.62-26.14-10.79-40.22-11.43-23.33-1.06-46.7-1.26-70.06-1.82a12.74,12.74,0,0,1-4-.46l35.42-4V179C477.05,159.55,433.63,156.33,389,170.3Z"/><path class="cls-1" d="M356.37,278.61v18c-5.62,1-11.06,1.82-16.39,3.08a10.43,10.43,0,0,0-4.72,3.15,17.25,17.25,0,0,1-11.83,5.35c-5.18.37-10.45-.32-15.67-.71-1-.07-1.87-.91-3.63-1.83,1.84-.69,2.8-1.16,3.81-1.42,3.18-.83,6.41-1.48,9.56-2.39,6.74-2,9.61-7.29,7.63-14-.64-2.16-1.28-4.31-2-6.44a5.41,5.41,0,0,0-6.2-3.3c-4.09,1-8.07,2.48-12.1,3.76a14,14,0,0,1-5,.89,23.19,23.19,0,0,1,1.59-2.69,28.55,28.55,0,0,1,16-10.42c5.69-1.42,10.47.2,14.73,4.25,1.53,1.45,3.85,2.09,5.86,3,.26.12.83-.47,1.43-.84C344.29,279.74,350.4,277.73,356.37,278.61Z"/><path class="cls-1" d="M564.58,283.23c-1.31-.39-2.63-.76-3.93-1.18-4-1.28-8-2.74-12.09-3.83a6.18,6.18,0,0,0-7.51,4.31,52.78,52.78,0,0,0-1.66,7.68c-.79,5.46,1.81,9.68,7,11.32,3.4,1.06,6.92,1.75,10.37,2.65,1,.27,2.05.66,3.67,1.19-1,.84-1.47,1.5-2.07,1.68-9.09,2.62-18,2.68-26.42-2.29a4.77,4.77,0,0,1-1.52-1.25c-3.14-4.64-8.3-4.63-13-5.61a4.1,4.1,0,0,0-2.56.77c-1.6,1-3.1,2.11-5,3.43V278.52c1,0,2.08-.06,3.16-.15,4-.34,8.06-.57,12.06-1.1A13.82,13.82,0,0,0,534,272.9a11.84,11.84,0,0,1,10.29-3.7c9.1,1,15.82,5.72,20.75,13.12Z"/><path class="cls-1" d="M265.91,195.48c7-2.38,13.91-5.06,21-7.08,26.45-7.5,53.27-8.66,80.58-5.54,19.06,2.18,38.33,2.51,57.5,3.65a11.46,11.46,0,0,1,4.24.64c-7.05.32-14.12,1.11-21.16.86q-29.35-1-58.67-2.76c-24.7-1.44-48.84,1.71-72.64,8.14-3.52,1-7,2.06-10.51,3.09C266.15,196.14,266,195.81,265.91,195.48Z"/><path class="cls-1" d="M359.51,103.23c-2.8,1.35-5.36,2.4-7.73,3.79-1.69,1-2.41-.1-3.31-1q-11.19-11.16-22.34-22.35c-4.1-4.09-6.27-4.2-10.78-.34l-2.73-2.59c4.14-3.36,8.12-6.57,12.09-9.81,1.51-1.24,2.37-.08,3.3.84q10.86,10.89,21.71,21.78C353,96.86,356.38,100.14,359.51,103.23Z"/><path class="cls-1" d="M295.57,166.33l-32.93-33.05q4.92-6.18,10.44-13.11l2.83,2.66c-.53.69-.78,1.08-1.09,1.42-3.26,3.68-3.25,5.61.26,9.13,7.43,7.47,14.84,15,22.4,22.29,2,1.94,2.44,3.41.6,5.7C296.9,162.85,296.31,164.81,295.57,166.33Z"/><path class="cls-1" d="M288.57,294.56c-1.16-2.38-2.25-4.64-3.33-6.87,10.92-7.47,8.89-14.41,1.44-16.81h18.1a36.89,36.89,0,0,0-3.37,3.12c-1.69,2-3.62,3.94-4.71,6.26-.67,1.42-.61,4,.28,5.11s3.34,1.82,4.93,1.57c3.12-.48,6.11-1.83,9.21-2.62a2.84,2.84,0,0,1,2.45.72c2.19,3.5,4.17,7.12,6.39,11-5.11,3.19-11.12,3.15-16.51,5.12C302.83,293.59,298.59,291.67,288.57,294.56Z"/><path class="cls-1" d="M417.32,291.27c0,3.08-.08,6.17,0,9.25.07,1.93-1,2.21-2.46,2.09s-3.26.65-3.24-1.87c.08-8.37.11-16.74.33-25.1,0-.66,1.32-1.8,2.06-1.83,3.66-.17,7.33-.14,11,0,3.28.15,5.39,2,5.81,5.1a29.68,29.68,0,0,1,.09,6.46c-.26,3-2.35,4.55-5.16,5.49l6.18,11.2c-4.75,1.36-5.91.95-8.18-2.8-1.31-2.17-2.56-4.37-3.91-6.53a16.67,16.67,0,0,0-1.59-1.9Zm.15-6.2c1.77,0,3.17-.08,4.56,0,2.28.16,3.47-.53,3.5-3.1s-1.27-3.24-3.49-3.16c-1.47.05-2.94,0-4.57,0Z"/><path class="cls-1" d="M475,291.18l-3.74-.46v-5.51h9.38c0,4.09,0,8.09,0,12.1a3.18,3.18,0,0,1-.42,1.34c-3,5.79-8.41,3.85-13.08,3.76-3.53-.08-5.75-2.38-5.88-6.05a165.32,165.32,0,0,1,.23-16.66c.26-4,2.5-5.73,6.59-5.9,2-.08,4-.09,5.93,0,4.45.19,6.35,2.17,6.59,7-2.16-.23-4.19.92-6.4-1.23-1.13-1.09-4.11-.61-6.14-.23-.58.11-1,2.37-1,3.65-.1,3.68.13,7.35.06,11,0,2.21.83,3.15,3,2.95a6,6,0,0,1,1.41,0c2.77.37,3.83-.91,3.54-3.58C474.93,292.72,475,292.07,475,291.18Z"/><path class="cls-1" d="M381.55,285.24c0,3.83.22,7.41-.06,10.95-.33,4.12-2.5,6.07-6.58,6.31a49.33,49.33,0,0,1-6.77-.06c-3.63-.29-5.88-2.3-6-5.91-.21-5.73-.16-11.49.11-17.22.15-3.35,2.35-5.28,5.71-5.51a56,56,0,0,1,7.33,0c4,.25,5.89,2.42,5.93,6.89-2.17.05-4.11.8-6.33-1.15-1.22-1.07-4.14-.54-6.16-.12-.58.12-.94,2.4-1,3.7-.11,3.67.05,7.34,0,11,0,2.06.83,3,2.87,2.84a8.68,8.68,0,0,1,1.69,0c2.8.34,3.77-1,3.42-3.63a18.78,18.78,0,0,1,0-2.14l-3.78-.42v-5.53Z"/><path class="cls-1" d="M407.2,302.22c-4.95,1-5.13.95-6.49-3.48-.43-1.42-1-2.1-2.54-1.93a8.55,8.55,0,0,1-2.26,0c-2.9-.48-4.46.53-5,3.59-.71,3.94-3.78,1.6-6.42,2.35,1.8-6.73,3.44-12.87,5.11-19,.59-2.18,1.46-4.3,1.84-6.51.52-3,2.14-3.66,4.93-3.6,2.35.05,3.57.66,4.18,3,2.06,7.92,4.31,15.79,6.46,23.69A10.93,10.93,0,0,1,407.2,302.22ZM396.44,283l-.7-.09c-.65,2.55-1.31,5.1-2,7.88h4.71C397.72,288,397.08,285.47,396.44,283Z"/><path class="cls-1" d="M458.34,302.28c-5.53.87-5.46.84-7.19-3.72a3.5,3.5,0,0,0-2.32-1.66,34.71,34.71,0,0,0-4.22-.09c-1.46-.1-2.12.43-2.55,1.89-1.29,4.34-1.38,4.32-6.73,3.64.65-2.72,1.22-5.43,1.95-8.1,1.68-6.07,3.5-12.1,5.15-18.17.54-2,1.71-2.53,3.54-2.33s4-.77,4.83,2.08C453.24,284.59,455.78,293.33,458.34,302.28ZM447,282.71h-.61c-.66,2.63-1.33,5.26-2,8.05H449C448.29,287.88,447.63,285.29,447,282.71Z"/><path class="cls-1" d="M343.64,192.9c7.43.39,14.86.74,22.28,1.19,33.64,2.07,67.22,1.18,100.81-1.5,19.09-1.52,38.23-.81,57.32.71,3.45.28,6.89.55,10.31.65-10.16,0-20.34-.28-30.49.06-18.45.64-36.88,1.9-55.33,2.42-16.28.46-32.58.59-48.87.25-14.4-.31-28.78-1.43-43.17-2.29-4.31-.25-8.61-.81-12.91-1.23Z"/><path class="cls-1" d="M503.61,278.89H492.24V285H502v6h-9.56v5.91h11.46v5.62H486.41c0-3.81,0-7.45,0-11.1.05-5,.24-10,.18-15,0-2.31.86-2.88,3-2.76,3.28.18,6.58.05,9.88.05C504.06,273.7,504.09,273.74,503.61,278.89ZM502.47,275v-.44h-10V275Z"/><path class="cls-1" d="M317.19,321.38c-.26-9.11-8.11-9.38-15.57-5.26l-4.47-6.46,3.74-2.86c1.1,3.59,4.57,4.69,8.1,5.27,7.06,1.16,14.17,2.16,21.17-.6a2.47,2.47,0,0,1,2.12.53c3.64,3.67,7.18,7.43,11.4,11.85-3.55.83-6.64,1.68-9.78,2.19-.75.13-1.79-.74-2.52-1.36-1.42-1.21-2.68-2.62-4.09-3.86-2-1.78-4.19-1.7-6.52-.46A18.68,18.68,0,0,1,317.19,321.38Z"/><path class="cls-1" d="M557,286l10.12,1.75c1.41,5,5.71,8,10.82,10.49l-3.47,6.05L557,299.4Z"/><path class="cls-1" d="M525.82,322.47c3.67-3.65,6.57-6.58,9.56-9.42a2.88,2.88,0,0,1,2-.6c5.4.34,10.79.76,15.72,1.13-.33,1.45-.83,3.61-1.37,6-5.19-1-8.54,1.44-11.27,5.49-.52.77-2.45,1.16-3.52.9C533.43,325.07,530,323.82,525.82,322.47Z"/><path class="cls-1" d="M561.46,271c9.2.14,18.39-2.09,26.7,3.9-.75,2-1.62,4.39-2.58,7-5.38-2.05-10.69-3.53-15.86-.58Z"/><path class="cls-1" d="M300.19,162.82c.65,4.24,1.81,8.33-1.67,11.85-2,2.06-3.14,2.13-5.15.09q-4.55-4.63-9-9.33a20.2,20.2,0,0,1-1.5-2l.57-.48c3.49,3.36,6.93,6.77,10.51,10,.79.72,2.31,1.43,3.12,1.13,1.45-.54,2-1.9,1.44-3.73C297.51,166.94,298.09,164.86,300.19,162.82Z"/><path class="cls-1" d="M557.32,314.76l6.44,5.17-3.31,4.22C555.36,320.65,555.24,320.33,557.32,314.76Z"/><path class="cls-1" d="M427.47,147.8h17.16l.28.5a8.47,8.47,0,0,1-2.51,1.2C434.49,150.24,428.85,149.7,427.47,147.8Z"/><path class="cls-1" d="M436.31,138.15c1.6,0,3.21-.08,4.8,0,.47,0,.88.66,1.32,1-.41.29-.82.84-1.24.85q-5.08.09-10.17,0c-.4,0-.79-.59-1.18-.91.46-.32.9-.91,1.38-.94C432.91,138.07,434.61,138.15,436.31,138.15Z"/><path class="cls-1" d="M547.88,297l4.18-5.65.76.5c-.05.91-.11,1.82-.15,2.73C552.5,298.81,552.31,298.92,547.88,297Z"/><path class="cls-1" d="M307.85,90.5l-2.75-2.88,4.22-3.71,2.53,2.42Z"/><path class="cls-1" d="M279,120.07l-2.7-2.94,3.54-4.19,3.5,2.73Z"/><path class="cls-1" d="M440.73,130.93c-2.6,0-5.2,0-7.8,0-.48,0-.93-.6-1.4-.92.47-.33.92-.92,1.39-.94a50.93,50.93,0,0,1,6.42,0c.61,0,1.16.88,1.73,1.35Z"/><path class="cls-1" d="M431.39,314.58c8.28-.44,8.28-.44,8.78,2C437.29,315.7,433.86,318.21,431.39,314.58Z"/><path class="cls-1" d="M441.54,307.06h-12v-.4h12.12Z"/><path class="cls-1" d="M433.91,120.75c1.66-1.75,2.59-1.78,5.21.55l-5.11.38C434,121.37,433.94,121.06,433.91,120.75Z"/><path class="cls-1" d="M434.32,324.53a14.92,14.92,0,0,1,2.69-.84c.26,0,.63.81.94,1.25l-3.07,1Z"/><path class="cls-1" d="M538.12,194.43l11,.81c0,.12,0,.25,0,.37l-11-.84Z"/><path class="cls-1" d="M558.63,105.9c9.56-.16,15.76,7.45,16,16.15A10.17,10.17,0,0,1,563,132.45c-9.88-1.09-16-8.88-14.77-18.68C548.83,109,553.09,105.8,558.63,105.9Zm1,22.66c-6.47-2.24-9.06-7.14-8.81-14.23-1.87,3-1,7.06,1.89,10.64,3.54,4.41,7.91,6.37,11.64,5l-2.13-.87c1-.05,1.89,0,2.8-.17,5.17-.73,8.71-6.19,6.75-10.9a15.79,15.79,0,0,0-11-9.73,7.65,7.65,0,0,0-9.43,7.45C551.26,121.85,554.82,125.59,559.65,128.56Z"/><path class="cls-1" d="M559.33,134.21c9.91,3.7,18.9-2.42,18.89-12.88,0-11.85-12.68-21.82-23.66-18.64-5.33,1.55-8.34,5.18-9.52,10.82-.67-5.58,4.29-11.21,10.33-12.14,13.29-2.05,25.41,9.65,23.82,23-1.09,9.17-10.43,13.81-18.93,10.78-.37-.14-.62-.64-.92-1Z"/><path class="cls-1" d="M559.34,134.21a8.37,8.37,0,0,1-2.19-.12c-6.56-2.09-12.29-10-12.36-17.48,2,8.63,6.17,14.93,14.54,17.6Z"/><path class="cls-1" d="M324.9,117.21c0,7.78-9.21,16.12-16.92,15.36a11.07,11.07,0,0,1-10-12.2c.55-6.85,7.56-14,14.4-14.68C319.84,105,324.92,109.63,324.9,117.21Zm-7.73,9.18c1.16-2.37,3.1-5.13,3.88-8.19,1.65-6.42-4.21-11.54-10.55-9.49a13.84,13.84,0,0,0-8.42,7.07c-3.64,7.18.25,13.45,8.51,13.29l-3.59.46c3,1.8,7.34,1,10.36-1.58,4.11-3.53,6.23-8.66,4.67-12.41C322.18,120.66,320.13,124.15,317.17,126.39Z"/><path class="cls-1" d="M300.34,107.39a22.58,22.58,0,0,0-5.62,15.06c0,7.34,4.91,12.39,12.28,12.67,3.85.15,5.19-.24,12.7-3.69-5.78,6-16.78,6.37-22.31.65C291,125.47,292.28,114.09,300.34,107.39Z"/><path class="cls-1" d="M324.45,104.65a5.76,5.76,0,0,1-1.86-.29c-5.23-2.91-10.57-2.72-16-.72a9.53,9.53,0,0,1-1.25.29c4.07-3.78,12.2-3.93,17-.52.66.46,1.39.83,2.08,1.24Z"/><path class="cls-1" d="M324.45,104.65a7.86,7.86,0,0,0,.7,1.46c4.34,5.59,4.6,12.2.43,18.21.42-1.33.93-2.64,1.24-4,1.08-4.74.82-9.32-1.78-13.6a8.2,8.2,0,0,1-.59-2.08Z"/><path class="cls-1" d="M577.19,167.22c-1.39-2.87-2.44-5.45-3.83-7.81-1-1.7.09-2.41,1-3.31q11.26-11.29,22.54-22.55c3.93-3.94,4-6.11.2-10.49l2.73-2.65c3.09,3.85,6.12,7.66,9.2,11.42.85,1,1.45,1.93.25,3.14C598.52,145.74,587.8,156.54,577.19,167.22Z"/><path class="cls-1" d="M514.07,103.24l33-33,13.06,10.42-2.46,2.63c-.34-.08-.55-.06-.68-.16-5.28-4.22-6.18-4.18-11,.64-7.27,7.25-14.57,14.47-21.74,21.81-1.66,1.7-2.9,1.81-4.81.44A37.2,37.2,0,0,0,514.07,103.24Z"/><path class="cls-1" d="M594.21,118.81l-4.56-3,3.25-2.93,3.59,4.07Z"/><path class="cls-1" d="M560.37,86.58l2.9-2.69,4.21,3.57-2.78,3.4Z"/><path class="cls-1" d="M163.68,216.76h1.68a1,1,0,0,1,.26.17h7.32l.17.09c-.36.77-.6,1.15-.7,1.15h-1.76a10.74,10.74,0,0,1-1.06,3c0,.11-.06.17-.18.17a.08.08,0,0,0,.09.09,9.26,9.26,0,0,1-1.76,4,.08.08,0,0,0-.09.09h.17v.17a4.53,4.53,0,0,0-1.14.44h-.88c-1.74-.12-2.68-.17-2.82-.17h-14.9q-.12,0-.27-.27v-.26H148v-.09H145.7l-.36.62h-6.87a.54.54,0,0,1-.09.26l.26.18h.8a2.34,2.34,0,0,0,.44.35h1.06c0-.24.11-.35.26-.35h1.32c.12,0,.18.09.18.17a12.53,12.53,0,0,0-1.24,3c0,.12-.06.18-.17.18h-6.88c-.12,0-.18.09-.18.17v.27h2.65l.35-.27H141a1.63,1.63,0,0,1,1.06.27h3.17c.12,0,.18.09.18.17l-.09.18h2.21l-.09-.18v-.08q1-.09,1.5-.09h11.19c.47,0,.71.12.71.35h1.41q.18,0,.18.18c0,.1-.12.22-.36.35h-.88c-.1,0-.25.35-.44,1.06a4.12,4.12,0,0,0-.7,2.2v.35c0,.09-.18.33-.53.71v.18h.88a.8.8,0,0,0,.26-.18h1.68l.17.09a12.1,12.1,0,0,1-1.41,2.29h-2.64c-.1.47-.34.71-.71.71h-.17c-.72,0-1.6,0-2.65-.09a6.37,6.37,0,0,1-1.23.35h-1.24a6.51,6.51,0,0,0-1.58-.35H139c-.11,0-.17-.06-.17-.18v-.09l.09-.17h-2l-.18-.09V238c0,.12.36.21,1.06.27v.09c-.34.64-.54,1-.62,1h-.79a.54.54,0,0,1-.09.26l.18.09h8.11v-.44c0-.12.35-.21,1.06-.27,0-.05,0-.08.09-.08h3a3.85,3.85,0,0,1,1.59.44h4.23c.5,0,1.29,0,2.38.09l.18.35c-.53.07-.79.16-.79.26v1h3.35v.18h-7.76c-.12,0-.18-.12-.18-.35h-2.56a.59.59,0,0,1-.44-.62H134.5v.09l.44.09h1.67c.12,0,.18.08.18.17a2.66,2.66,0,0,0-.44,1.06l.62.09h.7v.17h-1.5a1.25,1.25,0,0,1-.35.88c-4.58,0-8.17-.08-10.75-.08h-2.83a2.55,2.55,0,0,0-.88-.36.8.8,0,0,1,.44-.7l-.08-.18a9.71,9.71,0,0,0,.35-1h-4.23l-.18-.08c.06-.59.15-.89.26-.89h4.24c.35,0,.58-.32.7-1H123l-.09-.17v-.09c.12,0,.32-.44.62-1.32a.08.08,0,0,0,.09-.09v-.09H123c0,.35-.09.53-.26.53H119.6c-.35-.19-.53-.4-.53-.62a5,5,0,0,1,1.06-1.41h2.2q.18,0,.18.18v1.06h1.14l1.5-3.62c-.54,0-.86-.06-1-.18-1-.05-1.74-.08-2.29-.08a.24.24,0,0,0-.26-.27v-.17c0-.09.11-.21.35-.36h1.23c.5,0,1.3,0,2.38-.09.21-.58.36-.88.44-.88h1.24q1.37,0,4.41.09l.09-.18v-.08c0-.08-.09-.16-.27-.27h-5.2l-.18-.09.89-2.11h-3l-.18-.09a4.42,4.42,0,0,1,.88-1.76h3l2.65-6.7a2.81,2.81,0,0,0,.61-1.24,3.66,3.66,0,0,1,2.65-1.32c0-.12.09-.18.17-.18h3.35c.3,0,.44.08.44.18L138,217h2.29c1.45,0,2.48,0,3.08-.09q.47,0,1.5.09,8.73-.09,14.11-.09h4.41Zm-41.44,26.18h13.41l.17.09c-.72,2.17-1.19,3.26-1.41,3.26h-1.32v.09a.91.91,0,0,1,.17.44L133,247h-.09l-.17-.09a.16.16,0,0,1-.18.18h-4.5l-.17-.09v.35h5.46c.5,0,1.3,0,2.38.09v.09c0,.08-.08.17-.26.26h-1.59a.69.69,0,0,1,.09.27q-.81,2.44-1.68,2.82a3.78,3.78,0,0,1-2.38.52h-5.55a1.12,1.12,0,0,1-.26.18h-4.59a2,2,0,0,1-1-.7v-.8a23.4,23.4,0,0,1,.88-2.38l-1.32-.26a1.11,1.11,0,0,1,.53-1h1.06a23.71,23.71,0,0,0,1.41-3.35A3.77,3.77,0,0,0,122.24,242.94Zm4.5-16V228h.18a4.16,4.16,0,0,0,.7-1.23l-.17-.09h-.53Q126.74,226.77,126.74,226.9Zm.53,13.13v.09H131V240Zm1.41,7.94v.09c0,.08.09.17.26.26h1v-.26h-1Zm.18-16.31v.08h1v-.08Zm5.11,0v.26h3.79v-.26a.16.16,0,0,0-.18-.18h-3.43Q134,231.52,134,231.66Zm1.5,14.37H138v.17h-.71a7,7,0,0,0-.26,1.06h-1.59c-.12,0-.18-.06-.18-.17v-.89C135.32,246.09,135.38,246,135.47,246Zm.35-19v.09a.6.6,0,0,1,.27.09v-.18Zm.62,7.58v.09h.26v-.09Zm2.47-14v.08h4.85v-.08Zm.61,17v.18h.27v-.18Zm.18,4.59h8.91c.08,0,.17.08.26.26v.71c.29,0,.44,0,.44.17v.09h-.44a1.21,1.21,0,0,1-.79.26h-2.74l-.44-.08v-.18h.44a.66.66,0,0,1,.36-.18v-.88h-6Zm1-23.19v.18c0,.11.09.17.18.17h4.76a.73.73,0,0,0,.7,0h1.33a.6.6,0,0,1,.08-.26h1.85v-.09Zm8.2,8.46h1.23l.27.18h.44v.18h-2.73v-.18h.53Zm-.71,5.82v.44h5.38c.19.08.37.37.53.88h4.23v-.08h-3.79a.78.78,0,0,1-.17-.27v-.09l.08-.61c-.06,0-.08,0-.08-.09s.17-.06.17-.18Zm.89-6.43h13.57c.12,0,.18.08.18.17l-.18.09H149.05Zm.7-5.65v.36h4v-.27Zm.62,20.28H152q.14,0,.27.27l-.18.08h-1.76l-.44-.08v-.18Zm-.27-16.4v.09h6v-.09Zm12.26-7.4c0,.29-.18.44-.53.44a2.75,2.75,0,0,0-.71.53h-6.87a1,1,0,0,0,.17.26c-.11,0-.17.09-.17.18h.09c4.81.06,7.87.09,9.16.09V218q0-.18.27-.18v-.08Zm-3.79,4.05h-2.12l-.17-.09v.18c0,.12.08.18.17.18H163l.44-.09v-.18c0-.11-.06-.17-.18-.17h-1.59Z"/><path class="cls-1" d="M202.3,222.49h3.35a6.87,6.87,0,0,1,.61,2.2.08.08,0,0,1,.09.09v.53h.71l.44-.09c0,.18.32.27,1,.27h2.64c.1,0,.22.11.35.35v1.59a.15.15,0,0,1-.17.17h-1a6.51,6.51,0,0,0-.71.18h-2.82v.35a6.79,6.79,0,0,1,.44,2.2l.18.09h2.47v.18l-.44.09h-2.12q.09,1,.09,1.5v.08c.16.36.28.53.35.53h3.62v.27h-3.62l-.18-.09v.09q.13,1.23.36,1.23h.53v.18h-.53c-.12,0-.18.07-.18.17l.18.27v.62h3.35a.16.16,0,0,1,.17.17v2c0,.12-.06.18-.17.18h-2.73c-.12,0-.18.07-.18.17a3.54,3.54,0,0,1,.35,1.24h.09l-.09.44v.17a4.84,4.84,0,0,1,.35,1.41c.06,0,.09.24.09.71l.18-.09h1.94c.11,0,.17.08.17.18v.26c0,.12-.06.18-.17.18h-2.65v.88c0,.12-.35.21-1.06.26,0,.12-.05.18-.17.18h-4.32l.09.18-.18.26h3.44c.17,0,.26.27.26.71v.17h.09l.27-.17h2.55c.18,0,.41.82.71,2.47-.06,0-.09,0-.09.08l-.18-.08H196.92c-.3,0-.47-.09-.53-.27v-.7h-1.76a.91.91,0,0,0-.27-.18H184.22a1.54,1.54,0,0,1-.7.62h-4l-.18-.09-.09.18v.08q.18,0,.18.09c.88-.06,1.53-.09,1.94-.09H193c.35,0,.53.12.53.27v.35a.16.16,0,0,1-.18.18H178.93q-.77,0-1.41,1.05a.7.7,0,0,1-.53.36v.09h10.93c0-.21.24-.36.71-.45,0-.11.09-.17.18-.17h1.94a.16.16,0,0,1,.17.17v.71h7c.11,0,.17-.06.17-.18v-.17c0-.09-.08-.18-.26-.27h-3v-.26l-.09-.44a.58.58,0,0,0,.36-.18h4.76a1.26,1.26,0,0,0,.79.27h.71q3.39,0,6.25-.09c.81.06,1.7.09,2.65.09.16,0,.34.2.53.61v.44a3.23,3.23,0,0,1-1.23,1.68,1,1,0,0,0-.53.26c-.27,0-.92,0-1.94.09a3.09,3.09,0,0,1-.8-.09c-.78.06-1.45.09-2,.09q-1.41,0-5.73-.09a.93.93,0,0,1-.17-.61h-1.41c-.18,0-.27-.18-.27-.53H194.8c-.35,0-.53-.12-.53-.36q-8.55-.08-13.22-.08H176.9c-.35,0-.52.11-.52.26V251c0,.12.08.18.17.18h1.32c.12,0,.18.07.18.18H174.7l-.26.17h-5.29l-.36-.26H167v.26c-.79.06-1.38.09-1.76.09h-3.71c-1.05,0-1.58-.29-1.58-.88v-.27a8.76,8.76,0,0,1,1.85-2.64h.09q1.52,0,7.31.09c0-.12,0-.18-.17-.18h-3.44a1.29,1.29,0,0,0-.26-.17h-3.18v-.09l1.5-1.68c0-.12-.06-.17-.18-.17l-.26.17H163c-.89-.13-1.33-.25-1.33-.35v-.09c0-.12.09-.17.18-.17h2.38c.06,0,.09,0,.09.08a1.16,1.16,0,0,1,.53-.17h3.35a1.64,1.64,0,0,0,1,.26h3.27c0-.41.08-.62.26-.62h4.76v-.17c-1.07.06-1.86.09-2.38.09H169.5l-.35.26h-2.21l-.35-.26h-1.68v-.18c.15,0,.3-.15.45-.44q-.27,0-.27-.18v-.17c0-.12.32-.21,1-.27l3.26-3.44h1.15l.44.09a.08.08,0,0,0-.09-.09l.09-.17a.16.16,0,0,0-.18-.18h-.79c-.41-.25-.62-.42-.62-.53V239c0-.08.09-.17.27-.26h.88a15.27,15.27,0,0,0,1.85-1.94v-.09h-.79c-.12,0-.18-.14-.18-.44h-2.12v-.09c0-.11.09-.17.27-.17.53,0,1.7,0,3.53.08l1.32-1.23h1.85l-.18-.26-.17.08H174.7v-.17c0-.09.18-.33.53-.71v-.7h-7.41v-.27h7.94l.18.09a20.36,20.36,0,0,0,1.67-1.67h3.7l.44-.09v-.71c0-.13.15-.22.44-.26H190v-.09H178.93v-.18a47.29,47.29,0,0,1,3.26-3.43h5.47v-.18c-2.13-.06-3.75-.09-4.85-.09h-.09l-.17-.09q.85-1,1.14-1.41h-4.23q-.93,0-2.82-.09l-.09-.17v-.53c0-.09.16-.21.44-.35h4.06c0-.3.06-.45.17-.45h4.15c.12,0,.2.27.26.8h7c.11,0,.17.09.17.26h4.68v-1.32s.08-.13.26-.26Q200.91,222.49,202.3,222.49Zm-40.47-1.85h3.08c.12,0,.18.07.18.17a.68.68,0,0,1-.35.09v.71c0,.11-.06.17-.18.17h-2.73c-.12,0-.18-.06-.18-.17v-.8C161.68,220.7,161.74,220.64,161.83,220.64Zm0,7.67h2.64c.12,0,.18.07.18.17a.16.16,0,0,1-.18.18h-2.64a.16.16,0,0,1-.18-.18C161.68,228.37,161.74,228.31,161.83,228.31Zm0,1.94h5c.08,0,.22.17.44.52h2.21V231h-4.67a1,1,0,0,0-.62-.26h-2.29c-.08,0-.16-.09-.27-.27S161.74,230.25,161.83,230.25Zm11.28-10.94h10q.18,0,.18.18v.44a.16.16,0,0,1-.18.18h-2.55a6.51,6.51,0,0,1-.71-.18h-5.38a.8.8,0,0,1-.26.18H169.5q-.1,0-.27-.27c0-.08.17-.2.45-.35h3.17A.8.8,0,0,0,173.11,219.31Zm3.35,2.38h4.59a2.36,2.36,0,0,0,1.14.27v.53c0,.09-.08.17-.26.26h-6.52c-.36,0-.53-.11-.53-.35h-5c-.12,0-.17-.06-.17-.18v-.17h.79l.18.09c0-.12.08-.18.17-.18h3.09c.51,0,1.3,0,2.38-.09C176.32,221.75,176.38,221.69,176.46,221.69Zm-5.37,3h1.76q.18,0,.18.18a4.26,4.26,0,0,1-1.33.17l-1-.08v-.18Zm-.36,15.52v.09h.18v-.09Zm2.74,2.38v.17h.26v-.17Zm5.81-7.49.09.17-.09.18h2.12v-.27h.53V235h-2.47Zm2.83,3.17v.44h.44v-.44Zm11.19-21.16h8.91c1.54,0,2.48.56,2.82,1.67a1.06,1.06,0,0,1,.09.53h2.38c.11,0,.17.08.17.18V220h3.62a.17.17,0,0,1,.17.18v.7c0,.12-.06.18-.17.18h-5c-.09,0-.2-.12-.35-.36v-1.05h-.26l-.45.09v.08a1.64,1.64,0,0,1,.27,1l-.18.09h-1.06c-.16,0-.27.32-.35,1a.7.7,0,0,0-.44.18h-10v.17h-7.32v-.08q3.85-4.24,4.23-4.24A7.12,7.12,0,0,1,193.3,217.11Zm-6.61,21.6a.76.76,0,0,1-.18.53v.26l.27.36.17-.09h5.65l.17.09.18-.27h-3c-.35,0-.53-.15-.53-.44h-1.67a1.45,1.45,0,0,1-.71-.35A.68.68,0,0,1,186.69,238.71Zm.18-16.05h8.64v.62c0,.07-.15.19-.44.35h-7.85c-.35-.16-.53-.28-.53-.35v-.44Q186.74,222.66,186.87,222.66ZM188,237.47v.18H193c-.25-1.82-.51-2.73-.79-2.73q-.09,0-.09-.18h-1.32a6.07,6.07,0,0,0-1.24,1.32C189.36,236.06,188.86,236.54,188,237.47Zm2.21-10.84v.18c0,.12.09.17.17.17h6.7c.09,0,.18-.08.27-.26a.16.16,0,0,0-.18-.18Q192.62,226.63,190.22,226.63Zm1.06,7.58h1.05v-.08l-.09-.62H192C191.91,233.51,191.67,233.74,191.28,234.21Zm3.35-3.44c-.08.42-.17.62-.27.62H193c-.08,0-.16.09-.27.27v.08h2.47v-1l-.17.09h-.27Zm-1.86,7.59v.44H193v-.62H193C192.83,238.2,192.77,238.25,192.77,238.36Zm2.56,7.84h1.06c0-.08-.09-.17-.27-.26h-.52C195.52,245.94,195.43,246,195.33,246.2ZM197,233.51V234h3.17v-.27c0-.11-.06-.17-.18-.17h-1.06c-1-.12-1.54-.18-1.67-.18A.54.54,0,0,1,197,233.51Zm3.43-7.67c0,.29-.38.44-1.14.44h-.71v.09h6.88a.16.16,0,0,0,.18-.18V226h-2.56a5.25,5.25,0,0,1-.71-.17Zm1.77,9.08v.18h.09l.44-.09v-.09a.16.16,0,0,0-.18-.18h-.18C202.27,234.76,202.21,234.82,202.21,234.92ZM204.5,244h1.23c.5,0,1.24,0,2.21.09v.17H204.5c-.12,0-.18,0-.18-.17Zm.53-2.82v.09h.53v-.09Zm4.85,3.44h1.5v.17h-1.5Z"/><path class="cls-1" d="M261.58,216.93a1.6,1.6,0,0,1,1.59.88v.09c0,.12-.06.18-.17.18h-6.09a3.5,3.5,0,0,0-.17-.79h-.45a4,4,0,0,0-.52.52H251v.45c0,.11-.12.17-.36.17v.09h1.24a.93.93,0,0,0,.26-.18H263l.26.18h2l.17.09-.08.62v.7a.16.16,0,0,1-.18.18h-1.59l-.26.17h-.71a11.5,11.5,0,0,0-.79,2.21c-.6,1.53-1.1,2.29-1.5,2.29l.09.18a3.2,3.2,0,0,1-1.68.79H234.08v.09h3.26l.09.17v.53c0,.09-.12.21-.35.36H232.4l-.17-.09a1.82,1.82,0,0,1-.36.79,10.11,10.11,0,0,1-.52,1.59v.44c0,.16.35.37,1.05.62h18c1.41,0,2.11.11,2.11.35V231c0,.18-.26.27-.7.27H242c0,.17-.06.26-.17.26h-8.29c-.09,0-.18.09-.27.26v.45h1.94q0-.27.18-.27h6.88c.11,0,.17.07.17.18v.35c0,.12-.06.18-.17.18h-1l-2.12.17h-3.26c-.47,0-.71-.12-.71-.35h-1.94v.44l-.17.27q-4.59.08-7.23.08h-2.73v.27h5l.27.17a.16.16,0,0,1,.17-.17H230a.16.16,0,0,0,.18-.18q4.5-.09,7.05-.09H241l.27.18H246a.08.08,0,0,0-.09-.09l.09-.44v-.44c-.24,0-.35-.09-.35-.26a1.74,1.74,0,0,1,1-.36h1.32l.26-.17h7.06a9.36,9.36,0,0,1,1.5,1.58h4.67a.62.62,0,0,0,.53-.61c0-.24.06-.36.17-.36h.09q.18,0,.18.18c-.15,1.06-.32,1.59-.53,1.59h-2.12v.61c0,.12-.06.18-.17.18h-2l-.18.09.09.18v.08l-.44.09h-5.38A1,1,0,0,1,251,235h-2c0,.35-.3.53-.88.53h-1v.08h10.22q.18,0,.18.18v.44q.18,0,.18.09l.61-.09h3.18c.11,0,.17.07.17.18l-.17.09h-.71c0,.23-.06.35-.18.35h-.79a4.63,4.63,0,0,1-.7.17h-1.77a6.29,6.29,0,0,1-.7,2.74l-1.24,3.08V243h4.32q.18,0,.18.18v.35c0,.17-.76.26-2.29.26h-2.47a14.82,14.82,0,0,0-1.41,1.94,4.6,4.6,0,0,1-1,.88v.09h.35v.18c-.48,0-1.13.44-1.94,1.32l-2,1.24a12.67,12.67,0,0,1-2.46,1.14h-.09l-.18-.09c0,.15-.79.39-2.38.71a.08.08,0,0,1-.09.09c-1.29.06-2.14.08-2.55.08a.16.16,0,0,1-.18.18h-1.68a.8.8,0,0,0-.26-.18h-3.44c-2.26,0-5.41,0-9.43-.08a1.52,1.52,0,0,1-.18-.53.08.08,0,0,0,.09-.09h-7.49c-.09,0-.21-.12-.36-.35v-.62q0-.18.27-.18v-.08q-.27,0-.27-.18a.08.08,0,0,0,.09-.09H214l.09.18a.54.54,0,0,0-.09.26l.26.18H216c.12,0,.18.07.18.17v.71l-.09.18c.18,0,.27.05.27.17v.18c0,.12-.06.17-.18.17h-4.49q-1.5,0-1.5-1.32a2.31,2.31,0,0,1,.35-1.14v-.09H209.3c-.11,0-.17-.06-.17-.18v-1.14c0-.12.07-.18.17-.18h.62q.18,0,.18.18V248h.79c.34-1,.57-1.56.71-1.59H214l.26-.18h2.38q.18,0,.18.18v.88l.17-.09h4.94l.18.09a.08.08,0,0,1,.09-.09c0-.06,0-.08-.09-.08l.09-.45v-.7c0-.09.17-.21.52-.35h7.5v-.44h-6.35c-.17-.06-.26-.24-.26-.53v-.09c0-.35.13-.53.26-.53h.88v-.53h-1.85c0,.24-.06.35-.18.35h-6.17l-.26.18h-3.35q-.13,0-.27-.27a2.78,2.78,0,0,1,1.86-1.14h8.19l.36.62c.82,0,1.53.08,2.11.08.09-.23.18-.35.27-.35h1.14c1.22,0,1.9-.12,2-.35h10.23v-.18h-2.47a.6.6,0,0,1-.44-.61H221.38l-2.11.17h-.53c-.12,0-.18-.06-.18-.17v-.27c0-.1.12-.22.35-.35h12.44l.44.09v-.44q0-.18,1.05-.27a.08.08,0,0,1,.09-.09h3.26a2.51,2.51,0,0,0,1.15.27.08.08,0,0,0,.09.09H243l.27.17h.26c.09,0,.18-.09.27-.26V240h-1l-.44-.09.08-.44v-.17h-5.11c0,.17-.06.26-.18.26h-2.55c-.12,0-.18-.06-.18-.17v-.36c0-.17.76-.26,2.29-.26h1.15v-.35H225.79c-.9,0-2.13,0-3.7-.09q0-.23-1.59-.36a6,6,0,0,0-1.67-.79c-1.71-1.48-2.56-2.81-2.56-4v-.17c0-.18.67-.27,2-.27h.26v-.26h1a.8.8,0,0,1,.09-.44h2.11V232h-5.28a.16.16,0,0,1-.18-.18v-.7h-.79c0,.23-.18.35-.53.35h-1.24c-.12,0-.17-.06-.17-.18l.7-1h2.12c.13,0,.33-.51.61-1.49H215.3a.16.16,0,0,1-.18-.18l.27-.18h1.67l.44-.61h2.21v-.62h-1.59c-.09,0-.21-.12-.35-.35a8.88,8.88,0,0,1,2.29-.18h1.23l.27-.18h1a2.38,2.38,0,0,0,.09-.35l-.18.09h-4l-.35-.27a1.24,1.24,0,0,1,.62-1l.17.09c0-.12.08-.17.18-.17h3.26v-.09h-.17v-.09l.08-.18-.44.09h-2.91a.69.69,0,0,0-.35-.62,6.85,6.85,0,0,0,1.68-.35h2.91a1.43,1.43,0,0,1,.7.18.91.91,0,0,0,.18-.27h-4.5v-.08a10.81,10.81,0,0,1,3.35-3.27v-1.23a.16.16,0,0,0-.18-.18h-1.76a.15.15,0,0,1-.17-.17c0-.12.07-.18.17-.18h3.53c.12,0,.18.15.18.44h.17a28.91,28.91,0,0,1,5.2-1.85,11.63,11.63,0,0,1,1.5-.09h25.75C258.32,217,259.76,217,261.58,216.93Zm-49.1,27.25h3.7c.09,0,.18.08.27.26v.79l-.18.27c1.09-.06,1.88-.09,2.38-.09h.88c.12,0,.18.07.18.18s-.41.2-1.24.35H213.8c-.5,0-1.29,0-2.38.09,0,.11-.06.17-.18.17H209.3a.15.15,0,0,1-.17-.17v-.36a.16.16,0,0,1,.17-.17h5.38v-.09c-.35,0-.53-.15-.53-.44s-.06-.35-.17-.35h-1.59a.16.16,0,0,1-.18-.18C212.21,244.35,212.3,244.26,212.48,244.18Zm1-4.41h2.73l.35.26h2q.18,0,.18.18l-.18.09h-4.49C213.65,240.3,213.45,240.12,213.45,239.77Zm4.67-19h1.41q.18,0,.18.18v.79a.16.16,0,0,1-.18.18h-1.67l-.18-.09C217.84,221.17,218,220.81,218.12,220.81Zm4.14,26.72.18.08h2.82v.18h-.79c-.06.71-.15,1.06-.27,1.06h-1.58l-.36-.27h-.08a.91.91,0,0,1-.27.18h-1.59c-.5,0-1.23,0-2.2.09v.09a3.83,3.83,0,0,1,1.24.08.64.64,0,0,0,.26-.08c2.6.06,4.63.08,6.08.08h5.65c.2,0,.35.33.44,1,0,.06-.31.09-.8.09v.09h2.91v-.09c-.29,0-.44-.06-.44-.17v-.53a2.37,2.37,0,0,0,.27-.88H226.5c-.14,0-.22-.39-.27-1.15h-3.79Q222.26,247.37,222.26,247.53Zm-1,1.76v.18h.44v-.18Zm1.23-20v.17q0,.18.18.18a5.69,5.69,0,0,0,1.14-.09,7.76,7.76,0,0,0,1.24.09h.17l.27-.18h1.23v-.17Zm3.53-8.82h-1.59v1.06h.79c.3.15.44.26.44.35v.44c0,.12-.2.18-.61.18l.09.17a.57.57,0,0,0-.09.27l.17.09h.89c.58,0,1.46,0,2.64.08,0-.23.12-.35.26-.35h2.3c0-.29.06-.44.17-.44h1v-.26h-5.73c-.12,0-.17-.06-.17-.18v-.53c0-.12.07-.17.17-.17h1.77l.44-.09v-.18h-1.33c-.35-.12-.52-.29-.52-.53Zm1.94,23.72-.09.44h2.11c0-.15.18-.24.53-.27v-.09l-.17-.08Zm1.94-18.52v.18h2.55v-.18Zm.53,9.61v.09h.52v-.09Zm.26,12.26V248h5.2c.41,0,.62.26.62.79a.08.08,0,0,1,.09.09c.06,0,.08,0,.08-.09l.53.09h3.53v-.09H237a2.15,2.15,0,0,1-.18-1v-.09l.09-.17Zm5-12.7h-3.79v.27c0,.11.08.17.18.17h4.85c.09,0,.18-.09.26-.26v-.44h-.44A1.63,1.63,0,0,0,235.66,234.83Zm-3.43-16.4.09.18c1.08.06,1.88.09,2.37.09h2a6.33,6.33,0,0,1,1.41-.18v-.09Zm2.64,17.11v.17h1.32v-.17ZM236,229.1h1.32a.9.9,0,0,0,.62.18v.17h-2.65v-.17h.44A.91.91,0,0,0,236,229.1Zm-.53-8.64v.09h.17v-.09Zm.7,8H250v.18H236.19Zm.18-7v.17h1.68v-.08h-1l-.09-.18-.18.09-.26-.18Q236.37,221.37,236.37,221.52Zm.71,28.83.08.17s-.08,0-.08.09h.35l.26-.18h1.68v-.08Zm1.58-14.46V236c0,.07.09.16.27.26h6.7c.11,0,.17-.06.17-.18v-.26Q240.21,235.89,238.66,235.89Zm7,6.87c-.06.71-.15,1.06-.27,1.06-.7,0-2,0-3.79-.09-.88.06-1.53.09-1.94.09a2.7,2.7,0,0,1-.09.36h1c.09,0,.18.08.27.26v.18l-.09.17h-1.06v.09h2.91l.62-.09a.61.61,0,0,1-.09-.26c.09-.24.18-.35.27-.35h7l.35.26h.09a.7.7,0,0,1,.44-.18v-.08c0-.12-.06-.18-.17-.18h-1.42c-.11,0-.2-.35-.26-1.06a.08.08,0,0,0,.09-.09h-1.15Q247.39,242.85,245.63,242.76Zm5.29-22.3v.44a.16.16,0,0,1-.18.18h-7.23a6.05,6.05,0,0,1-1.5.35c0,.06-.06.09-.17.09v.17h3.61a1.27,1.27,0,0,1,.79-.26h6.09c0-.24.23-.35.7-.35V221c-.41,0-.61-.09-.61-.27h-.62a1.19,1.19,0,0,1-.79-.26Zm0-.26v.17h.17A.15.15,0,0,0,250.92,220.2ZM253,250.52H258v.18h-.79a.08.08,0,0,1-.09-.09l-.18.09H253Zm3.18-23.62h.44l.26.17h.62v.18h-3.79v-.18h2.2Zm-1.06,1.85h6c.12,0,.18.07.18.17l.18-.08h.61c.17.29.28.44.36.44s.35.06.35.17l-.18.09h-4.76c-.06,0-.2-.18-.44-.53h-1.23c-.39,0-1,0-1.77.09v-.26h.36l.17.08C255,228.81,255.05,228.75,255.15,228.75Zm5.91-2.91h2.55c.12,0,.18.07.18.17-.19.65-.34,1-.44,1h-5.56v-.17l.62-.09h2.47V226A.17.17,0,0,1,261.06,225.84ZM260,245.23h1.5c.11,0,.17.08.17.18v.35c0,.12-.06.18-.17.18h-1.59l-.26-.18H258.5v-.17A7.3,7.3,0,0,0,260,245.23Zm-.62,4.59h1.23c.12,0,.18.09.18.26-.15.37-.29.58-.44.62H259a.08.08,0,0,1-.09-.09l-.18.09h-.17v-.18h.61V250C259.22,249.88,259.28,249.82,259.38,249.82Zm2.12-10.93.08.17v.36a.15.15,0,0,1-.17.17l-.18-.26v-.18C261.23,239.06,261.32,239,261.5,238.89Z"/><path class="cls-1" d="M286.34,234.48a.8.8,0,0,0,.44.09h.7c.12,0,.18.07.18.17s-.19.31-.53.44l-.18.27v.26q0,.18.18.18L285.9,239a.08.08,0,0,0-.09.09v.36h1.76c.12,0,.18.08.18.26h2.55c.36,0,.53.12.53.26s-.06.18-.17.18h-1.24c-.5,0-1.29,0-2.38.09,0,.12-.06.18-.17.18h-1.5a6.72,6.72,0,0,0-.36.88h2.47c.3,0,.44.07.44.17l.18-.09h1.59c.29.15.44.27.44.36v.44l-.09.17c-1.09.06-1.88.09-2.38.09h-1.15a.8.8,0,0,1-.26.18h-.44c-.94,0-1.41.12-1.41.35a1.62,1.62,0,0,1-.27.53c3.41.26,5.12.5,5.12.71v.52h4.85c1.36,0,3.33,0,5.9-.08l.09.17c0,.12-.32.21-1,.27a.08.08,0,0,1-.09.09h-4.85c-.19,0-1.45,0-3.79.17h-2.55c-.5,0-1.3,0-2.38-.09l-.09-.17v-.44H284a6.64,6.64,0,0,0-1.06,2h2.47c0-.29.06-.44.17-.44h2.21c.11,0,.17.12.17.36h2.38c.12,0,.18.07.18.17v.44h9.43v.18l-1.05.09h-3.27c0,.23-.06.35-.17.35h-1.24a.93.93,0,0,0-.61.27h-11.2q-.75,2.64-1.5,2.64c0,.12-.47.38-1.41.79-5.39.06-9.07.09-11,.09a1.59,1.59,0,0,1-1.5-.88v-.62c.28-1.35.63-2,1.06-2a.08.08,0,0,1,.09-.09h1.41v-1c0-.12.2-.18.61-.18v-.09h-1.76a.15.15,0,0,1-.17-.17,11.43,11.43,0,0,0,1-2.3.61.61,0,0,1-.09-.26h-.71c-.12,0-.17-.06-.17-.18v-.61H264c-.12,0-.17-.06-.17-.18V241.8c0-.12.07-.18.17-.18h.79v-1.23h-3.7c-.17,0-.26-.21-.26-.62h-.8c-.17-.06-.26-.24-.26-.53,0-.12.07-.18.18-.18h4.32c.11,0,.17.27.17.8l.18-.09h6l.18.09a2.83,2.83,0,0,0,.53-1.06h-2.56v-.18h2.65c.38-1,.61-1.5.7-1.5h1.33l-.09-.17v-.09l.09-.18h-1c-.12,0-.18-.06-.18-.17a5.44,5.44,0,0,1,.88-1.94h12.61ZM260,245.41h2.46l.27.18h.18c1.52,0,2.29.08,2.29.26a2.37,2.37,0,0,0-1.15.27h-4a.16.16,0,0,1-.18-.18v-.35C259.82,245.47,259.87,245.41,260,245.41Zm.26-9h.18q.43,0,1.32.09v.17h-1.5c-.12,0-.18-.06-.18-.17Zm.44-4h1.15c.12,0,.17.07.17.18l-.26.35v.7h8.64l.26.18h.53c.43,0,.66.09.71.27l-.18.08H260.33v-.08C260.33,233,260.45,232.45,260.68,232.45Zm1.5,16.4c.94,0,1.41.12,1.41.26v.09c0,.1-.26.19-.79.27,0,.05,0,.08-.09.08h-1.85v-.44C260.86,249,261.3,248.88,262.18,248.85Zm10.32-31.92h1.41l.26.18h13l.27-.18h1.41l.26.18q3.09,0,4.41.09,4.69-.09,9.52-.09h3c1.11,0,1.67.41,1.67,1.23q0,.87-2.11,5.91a3.55,3.55,0,0,1-2.83,1.68h-1.58c-1.59,0-2.79,0-3.62.08s-2.08-.08-3.7-.08h-1.32c-.94,0-1.41.23-1.41.7-.11,0-.25.35-.44,1.06h-.09l.09.18V228c-.36.53-.56.8-.62.8h-2.56c-.12,0-.2.32-.26,1h-4.85c-.12,0-.18.07-.18.17v.18H289c.35,0,.53.12.53.26v.09a11.67,11.67,0,0,0-.88,1.94h2.29c.35,0,.53.12.53.27v.08a.16.16,0,0,1-.18.18h-2.82c-.34.59-.54.88-.61.88H281.4c-.1,0-.19-.2-.26-.61-2.58.05-4.49.08-5.74.08H272c-.44,0-.68-.08-.71-.26v-.09c0-.18.77-.26,2.29-.26h2.56l.62-.18h2.38v-.09h-1.33c-1.33.06-2.6.09-3.79.09a.87.87,0,0,1-.08-.26,17.59,17.59,0,0,0,1.67-4.15c.06,0,.12-.09.18-.26h-3.88a1.23,1.23,0,0,0-.8-.27h-3.17c-.12,0-.18-.06-.18-.17v-.09h.89l.26-.18h7.05c.18,0,.27-.28.27-.7v-.27h7.32l.35-.35h3.44a8.78,8.78,0,0,0,1-.35h.88c0-.24.12-.36.26-.36h3.71c0-.23.05-.35.17-.35h4a.88.88,0,0,0,.26-.17h2.38V224l.09-.18h2.12v-.09h-5.73q-.18,0-.18.18l-.44-.09h-4l-.35.26h-5.2c-.12,0-.21.36-.27,1.06a.8.8,0,0,1-.26.18h-7.94c-.54,0-1.3,0-2.29-.09-.59.06-.88.12-.88.18s-.28.26-.7.26h-2.74l-.35.27H268v1c0,.17-.77.26-2.29.26h-4.23a.16.16,0,0,1-.18-.18c0-.64.13-1,.26-1h2.91v-.7c-.64,0-1-.09-1-.27v-1a17,17,0,0,0,1.32-3.71h-2.9l-.44.09c0-1.11.14-1.67.35-1.67H265c.12,0,.18.11.18.35h.26a3.54,3.54,0,0,1,1.24-1.5,1.84,1.84,0,0,1,1.41-.44h4.14A.91.91,0,0,0,272.5,216.93Zm-6.79,13.23h1.23l.44.09v.17h-1.85v-.09A.17.17,0,0,1,265.71,230.16ZM266.5,242v.88h3.26a5.88,5.88,0,0,1,.35-1h-3A1,1,0,0,1,266.5,242Zm4.06-1.76v.09h.17v-.09Zm.08-19.66v.09c0,.07.09.16.27.26h7.4l.09-.35Zm14.55.62a.68.68,0,0,1,.18.44H288a.78.78,0,0,1,.09-.44Zm4.32,8.37H293q2.55,0,7.05.09l.09.18v.08a.16.16,0,0,1-.18.18h-2.82a1.25,1.25,0,0,0-.79.26h-.44c0,.24-.18.36-.53.36h-1.94c-.31,0-.49-.09-.53-.27V230h-3.35c-.12,0-.18-.06-.18-.17v-.09Q289.36,229.54,289.51,229.54Zm2.56-11.9v.26h.44v-.26Zm1.58,2v.09h.45v-.09Zm.45,8h5.81q.18,0,.18.18c0,.11-.06.17-.18.17h-6.26v-.17A.72.72,0,0,0,294.1,227.69ZM293.83,239h2.73l.36.27h2.2v.09c0,.11-.06.17-.18.17h-4.58a1.56,1.56,0,0,0-.53-.35Zm2.38-20v.44c0,.12-.15.18-.44.18v.09h4.32V219Zm5.47,2.47v.18h.88v-.18Z"/><path class="cls-1" d="M338.24,215.79h19.13l.44.53a2.71,2.71,0,0,0-.26,1.05,4,4,0,0,1-1,.18v.09c.41,0,.73.44,1,1.32a3.69,3.69,0,0,1,.62,1.24l-.27.17h-8v.09q1,.09,1.5.09h3.26c.12,0,.18.07.18.17v1a.16.16,0,0,1-.18.18h-4.32v.18h4l.35.44h1.59q1.29-.18,1.41-.18h1.06a1,1,0,0,0,.61-.26h3.09a6.7,6.7,0,0,1,.7-.18h1.5a.08.08,0,0,1,.09.09,2.64,2.64,0,0,1,1.32-.35.08.08,0,0,1,.09-.09h1.32c0-.3.27-.44.8-.44a17,17,0,0,0,1-2.38c.8-1.24,1.63-1.85,2.47-1.85,0-.06.2-.12.61-.18q2.73.09,4.32.09h6.09a12.48,12.48,0,0,1,1.23.53,1.41,1.41,0,0,1,.26.7v.18a8.2,8.2,0,0,1-.52,2.38h6.08v.17H389l-.26.18H384c0,.24-.06.35-.18.35h-.62a2.25,2.25,0,0,1-.52,1.33c-5.71.06-10.11.08-13.23.08l-.17.27v.79a.16.16,0,0,1-.18.18h-1.76l-.18-.09.62-1.59H367c0,.3-.06.44-.17.44h-6.17q-.12,0-.27.27V224l-.18.26a.08.08,0,0,1,.09.09c1-.06,1.71-.09,2.21-.09H367l.27-.18h1.14l.27.18h4c.39,0,1,0,1.77.09v.18h-4.94v.08h9.08a.83.83,0,0,1,.53-.79v-1q0-.18.18-.18h3.17l.18.09-2.56,6.53h.44a6.54,6.54,0,0,1,.71.17h2.11c.3.16.44.28.44.36v.08c0,.12-.06.18-.17.18h-3.27l-.61-.09c-1.12,2.43-2,4.6-2.74,6.53l.18.08H380q.18,0,.18.27h2.47c.35,0,.52.13.52.26l-.17.09h-2.47c-.12,0-.18.07-.18.18-1.08.06-1.88.08-2.38.08h-1.41a1,1,0,0,1-.35.71v.27h1c1.2,0,2.85,0,4.94.08.23.09.35.18.35.27v.44c0,.12-.35.2-1.06.26a.08.08,0,0,1-.09.09h-.44c-.84,0-2,0-3.44.09a1,1,0,0,1-.53.18h-1.05l-.18-.09-.35.62v.08c0,.12.09.18.26.18a35.46,35.46,0,0,1,6,.53v.62h4.05c.12,0,.18.07.18.17,0,.33-1,.5-3,.53h-2.73c-1.53,0-2.29-.09-2.29-.26v-.44h-3c-.12.64-.26,1-.44,1q-6.28.09-8.11.09l-.09.18v.35q0,.18.18.18h3c.12,0,.18.09.18.26h.18v-.61c0-.12.08-.18.17-.18h4.41v.18a1,1,0,0,1-.26.61h3.61l.35-.53h2.12q.18,0,.18.36h2.38a.16.16,0,0,1,.17.17v.44h1.68l.17.09c-.22.53-.42.83-.61.88H371.92l-.44-.08v.26H369.8c-.11,0-.17-.15-.17-.44h-.71v.62h4.32c.12,0,.18.07.18.17s-.5,1.46-1.5,4a3.31,3.31,0,0,1-2.47,1.5c0,.12-.5.17-1.5.17h-4.14c-.72,0-1.6,0-2.65-.08a6.52,6.52,0,0,1-1.49.08.16.16,0,0,1-.18.18H357.9c-.51-.16-.81-.31-.88-.44l.18-.09h3.44v-.17l-.18.08h-3.53q-.54,0-1.5-2.55c-.13,0-.36-.56-.7-1.59a.91.91,0,0,0-.27-.18h-1.23v-.35c0-.12.35-.2,1.06-.26q-1.08-2.81-1.32-2.82h-.71c-.68,0-1.76,0-3.26-.09v-.18a7,7,0,0,1,2.73-.35h1q0-.19-2.2-4.85l-.18-.62.18-.09H353v-.17l-2.83-.09a9.87,9.87,0,0,1-1-1.85c0-.18.65-.27,1.94-.27v-.08h-2q0-.13-.27-.27h-.09c-.19.18-.33.27-.44.27q-1.32,0-6.26.08l-.09.18v.09l.18-.09h5.82c.1,0,.22.12.35.35a5.5,5.5,0,0,0-.61,1.59l-.71,1.32-.53.09h-2.56c0,.18-.05.27-.17.27h-9l.08.17-.17.09h-.53v.18h1.06a.93.93,0,0,0,.61-.27h10.85c.11,0,.17.08.17.18a4.82,4.82,0,0,1-.61,1.5l.17.09h4c.12,0,.18.07.18.17v.27c0,.1-.47.22-1.41.35h-3.27a6.31,6.31,0,0,1-.52,1.32,7.32,7.32,0,0,1-.62,1.85l-1.24,3.44h3.62V248h-3.7a7.34,7.34,0,0,1-1.15,2.38h-4.32v.08c.48,0,.78.06.88.18h.79l.27.18h1.59V251h-1.06l-.44.09.09.18a9.2,9.2,0,0,1-2.3.17h-8c-1,0-1.57-.38-1.76-1.14l.17-.09h4.41c.09,0,.18.09.27.26l.17-.08h1.33c.52,0,1.11,0,1.76.08h.17v-.08c-.52,0-.79-.06-.79-.18v-.62c.05-.17.28-.26.71-.26h1.58v-.18a.15.15,0,0,0-.17-.17H334.1c0,.35-.06.53-.18.53h-3.44a1.21,1.21,0,0,0-.79.26h-1.23c-.24-.12-.36-.21-.36-.26a22.28,22.28,0,0,1,1.06-2.65l.18.09-.09-.44v-.09a6.27,6.27,0,0,1,.79-1.76h1.33v-1.33c0-.08.08-.17.26-.26H338v-.18c-.3,0-.44,0-.44-.17V242c0-.12.08-.17.17-.17h2.82v-.27l-.08-.18-.18.09h-1.85l-.18-.09c0,.18-.26.27-.7.27h-5.91a1,1,0,0,1-.53-.18,12.84,12.84,0,0,1,.44-1.32l-.17-.09H329.6a.15.15,0,0,1-.17-.17v-.18c.17-1,.35-1.5.52-1.5h2.47l.62-1.59h-2.47c.6-1.41,1-2.11,1.15-2.11q1.36,0,4.23-.09V234h-.44c0,.23-.06.35-.18.35H334.1l-.18-.09q.61-1.28,2.73-6.7l.18-.08h.88c.08,0,.22-.18.44-.53h10.58c.12,0,.18.08.18.26.88-.06,1.53-.09,1.94-.09h10.4q.31,0,1.32,2.82c.05,0,.14.18.27.53q-.18,0-.18.18c.15.23.71.35,1.68.35.1-.29.25-.44.44-.44v-.09c-.66,0-1-.11-1.15-.35s.36-.21,1.06-.26a8.75,8.75,0,0,0,1-2l.62-.09h2.55a1,1,0,0,1,.89.44h1.85V227c0-.11.26-.17.79-.17a.68.68,0,0,1-.09-.35h-5.9a.16.16,0,0,1-.18-.18l.62-1.41h-2.47a6.51,6.51,0,0,1-.71-.18h-3.26a7.13,7.13,0,0,0,.88,1.94l-.44.27h-7.4q-2.85,0-7.59-.09c-.29,0-.44-.18-.44-.44H343l.09.17-.18.09h-5.64l-.17-.09.08-.44V226h-1.76v-.17H337c.41,0,.61-.3.61-.88l1-1.41a.71.71,0,0,1-.26-.09,1.48,1.48,0,0,1,.26-.71v-.17h-2.11v-.18q1-.09,1.5-.09h.79l.71-1.94c-.53,0-.8-.09-.8-.26V220a.61.61,0,0,1,.62-.35h2.82l.18.09c.09-.42.17-.62.26-.62h3c.12,0,.18.07.18.17l6.87-.17v-.09h-3.08a.16.16,0,0,1-.18-.18v-.7l-.44-.09h-1c-.1,0-.19.26-.26.79h-7.32l-.18-.09a3.26,3.26,0,0,1,2.82-1.85h.36a.91.91,0,0,0,.26-.17h3.61a.16.16,0,0,0,.18-.18h-7.32c0,.35-.08.53-.26.53h-2a.16.16,0,0,1-.18-.18C337.92,216.17,338.12,215.79,338.24,215.79Zm-8.9,24.6h.44c.09,0,.17.08.26.26a1,1,0,0,1-.53.18h-.17a.16.16,0,0,1-.18-.18v-.09C329.19,240.44,329.25,240.39,329.34,240.39Zm7.31-19.14h.27q.18,0,.18.18l-.18.09h-.27c-.11,0-.17-.06-.17-.18Zm10.5-1v.09h.44v-.09Zm2.73,26.81H352a.16.16,0,0,1,.17.17v.53c0,.12-.06.18-.17.18h-2.56v-.18h.26v-.53C349.73,247.14,349.79,247.09,349.88,247.09Zm13.31-15.7a8.69,8.69,0,0,1,.35.88h.27c.06,0,.21-.29.44-.88Zm.88,6.17v.27l.44.09h4.41a.16.16,0,0,0,.18-.18v-.18l-.18.09h-4.67Zm6.7,4.06v.09l1.06.09.09-.18Zm5.47-24v.09c.63,0,1,.06,1.06.17h.35c.12,0,.18-.05.18-.17l-.27-.18h-.7Zm5.64,9.08H386c1.36,0,3.33,0,5.9.09l.09.17c0,.09-.09.18-.26.27h-2.3a8.3,8.3,0,0,1-1,.18h-.26c0,.17-.12.32-.35.44h-2.21c-.28-.15-.42-.27-.44-.36v-.44h-3.35a.15.15,0,0,1-.17-.17C381.73,226.78,381.79,226.72,381.88,226.72Zm8.47-1.85h2c.12,0,.18.07.18.17l-.18.09h-8.64V225Q388.23,224.87,390.35,224.87Zm-4.15,11.19h1.85l.18.09c-.1.27-.22.41-.35.44h-1.24c-.2-.23-.35-.35-.44-.35Zm2.56-18.95h3.61q.18,0,.18.18v.88c0,.12-.06.17-.18.17h-3.43c-.09,0-.21-.11-.36-.35v-.7Q388.63,217.11,388.76,217.11Z"/><path class="cls-1" d="M454.64,216.76h1.67a1,1,0,0,1,.27.17h7.32l.17.09c-.37.77-.6,1.15-.7,1.15H461.6a10.58,10.58,0,0,1-1.05,3c0,.11-.06.17-.18.17a.08.08,0,0,0,.09.09,9.19,9.19,0,0,1-1.77,4c-.05,0-.08,0-.08.09h.17v.17a4.39,4.39,0,0,0-1.14.44h-.89c-1.73-.12-2.67-.17-2.82-.17H439c-.07,0-.16-.09-.26-.27v-.26H439v-.09h-2.3l-.35.62h-6.88a.63.63,0,0,1-.08.26l.26.18h.79a3.45,3.45,0,0,0,.44.35h1.06c0-.24.12-.35.27-.35h1.32c.12,0,.18.09.18.17a12.53,12.53,0,0,0-1.24,3c0,.12-.06.18-.17.18h-6.88c-.12,0-.18.09-.18.17v.27h2.65l.35-.27H432a1.63,1.63,0,0,1,1.06.27h3.17c.12,0,.18.09.18.17l-.09.18h2.2l-.08-.18v-.08q1-.09,1.5-.09h11.19c.47,0,.71.12.71.35h1.41c.12,0,.17.09.17.18s-.11.22-.35.35h-.88c-.1,0-.25.35-.44,1.06a4.14,4.14,0,0,0-.71,2.2v.35c0,.09-.17.33-.53.71v.18h.89a.93.93,0,0,0,.26-.18h1.68l.17.09a12.1,12.1,0,0,1-1.41,2.29h-2.64c-.11.47-.34.71-.71.71h-.17c-.72,0-1.61,0-2.65-.09a6.58,6.58,0,0,1-1.23.35h-1.24a6.61,6.61,0,0,0-1.58-.35H430c-.11,0-.17-.06-.17-.18v-.09l.08-.17h-2l-.18-.09V238c0,.12.35.21,1.06.27v.09c-.34.64-.54,1-.62,1h-.79a.54.54,0,0,1-.09.26l.18.09h8.11v-.44c0-.12.35-.21,1.06-.27,0-.05,0-.08.08-.08h3a3.85,3.85,0,0,1,1.59.44h4.23c.5,0,1.29,0,2.38.09l.18.35c-.53.07-.8.16-.8.26v1h3.35v.18h-7.76c-.11,0-.17-.12-.17-.35h-2.56a.59.59,0,0,1-.44-.62H425.46v.09l.44.09h1.67c.12,0,.18.08.18.17a2.52,2.52,0,0,0-.44,1.06l.62.09h.7v.17h-1.5a1.29,1.29,0,0,1-.35.88c-4.59,0-8.17-.08-10.76-.08H413.2a2.55,2.55,0,0,0-.88-.36.8.8,0,0,1,.44-.7l-.09-.18a8.62,8.62,0,0,0,.36-1h-4.24l-.17-.08c.06-.59.15-.89.26-.89h4.23c.36,0,.59-.32.71-1h.09l-.09-.17v-.09c.12,0,.32-.44.62-1.32a.08.08,0,0,0,.09-.09v-.09h-.62c0,.35-.09.53-.27.53h-3.08c-.36-.19-.53-.4-.53-.62a5,5,0,0,1,1.06-1.41h2.2q.18,0,.18.18v1.06h1.14l1.5-3.62c-.54,0-.87-.06-1-.18-1-.05-1.75-.08-2.29-.08a.24.24,0,0,0-.26-.27v-.17c0-.09.11-.21.35-.36h1.23c.5,0,1.29,0,2.38-.09.21-.58.35-.88.44-.88h1.24q1.36,0,4.41.09l.08-.18v-.08c0-.08-.08-.16-.26-.27h-5.2l-.18-.09.88-2.11h-3l-.18-.09a4.42,4.42,0,0,1,.88-1.76h3l2.64-6.7a2.87,2.87,0,0,0,.62-1.24,3.66,3.66,0,0,1,2.64-1.32q0-.18.18-.18h3.35c.3,0,.44.08.44.18L429,217h2.3c1.45,0,2.48,0,3.08-.09q.47,0,1.5.09,8.73-.09,14.11-.09h4.4ZM413.2,242.94h13.4l.18.09c-.72,2.17-1.19,3.26-1.41,3.26h-1.32v.09a1,1,0,0,1,.17.44L424,247h-.09l-.18-.09c0,.12-.06.18-.17.18H419l-.18-.09v.35h5.47c.5,0,1.29,0,2.38.09v.09c0,.08-.09.17-.26.26h-1.59a.69.69,0,0,1,.09.27c-.55,1.63-1.1,2.57-1.68,2.82a3.78,3.78,0,0,1-2.38.52h-5.55a.91.91,0,0,1-.27.18h-4.58a2,2,0,0,1-1-.7v-.8a21.22,21.22,0,0,1,.88-2.38l-1.32-.26a1.09,1.09,0,0,1,.53-1h1.06a23.71,23.71,0,0,0,1.41-3.35A3.77,3.77,0,0,0,413.2,242.94Zm4.5-16V228h.17c.08,0,.31-.41.71-1.23l-.18-.09h-.53C417.76,226.75,417.7,226.81,417.7,226.9Zm.53,13.13v.09h3.7V240Zm1.41,7.94v.09c0,.08.09.17.26.26h1v-.26h-1.06Zm.17-16.31v.08h1.06v-.08Zm5.12,0v.26h3.79v-.26a.16.16,0,0,0-.18-.18H425.1C425,231.51,424.93,231.57,424.93,231.66Zm1.5,14.37H429v.17h-.7a7.82,7.82,0,0,0-.27,1.06h-1.58c-.12,0-.18-.06-.18-.17v-.89C426.28,246.09,426.34,246,426.43,246Zm.35-19v.09a.54.54,0,0,1,.26.09v-.18Zm.62,7.58v.09h.26v-.09Zm2.46-14v.08h4.85v-.08Zm.62,17v.18h.27v-.18Zm.18,4.59h8.9c.09,0,.18.08.27.26v.71c.29,0,.44,0,.44.17v.09h-.44a1.22,1.22,0,0,1-.8.26H436.3l-.44-.08v-.18h.44a.67.67,0,0,1,.35-.18v-.88h-6Zm1-23.19v.18c0,.11.09.17.17.17h4.77a.73.73,0,0,0,.7,0h1.32a.66.66,0,0,1,.09-.26h1.85v-.09Zm8.2,8.46h1.23l.27.18h.44v.18H439v-.18h.53Zm-.71,5.82v.44h5.38c.19.08.37.37.53.88h4.23v-.08h-3.79a.91.91,0,0,1-.18-.27v-.09l.09-.61a.08.08,0,0,1-.09-.09.16.16,0,0,0,.18-.18Zm.88-6.43h13.58c.12,0,.18.08.18.17l-.18.09H440Zm.71-5.65v.36h4v-.27Zm.62,20.28H443q.13,0,.27.27l-.18.08h-1.76l-.44-.08v-.18Zm-.27-16.4v.09h6v-.09Zm12.26-7.4c0,.29-.18.44-.53.44a2.75,2.75,0,0,0-.71.53h-6.87a.79.79,0,0,0,.17.26c-.12,0-.17.09-.17.18h.08q7.23.09,9.17.09V218q0-.18.27-.18v-.08Zm-3.79,4.05h-2.12l-.18-.09v.18q0,.18.18.18h6.52l.44-.09v-.18a.15.15,0,0,0-.17-.17h-1.59Z"/><path class="cls-1" d="M500.44,216.91q5.12.09,8,.09h3.35a.72.72,0,0,0,.44.18v.17H507a2,2,0,0,0-1.23.27h-.79l-.18-.09v1.06c0,.11-.3.2-.88.26a.08.08,0,0,1-.09.09H489.51v.7a.16.16,0,0,1-.18.18h-1.94a2.74,2.74,0,0,0-.79-.44.68.68,0,0,1-.09-.35h-3.35c-.38,0-.62.32-.71,1a4.88,4.88,0,0,1-.7,1.41h-1.24l-.17-.09a.82.82,0,0,1-.88.62h-3.88c-.12,0-.18.08-.18.17s.18.09.18.18c.88-.06,1.53-.09,1.94-.09H481l.44.09a7.59,7.59,0,0,1-.7,1.85c.23,0,.35.15.35.44h1.23a.92.92,0,0,0,.62.18v.17h-1v.53c0,.12-.06.18-.17.18h-1.41a7.23,7.23,0,0,0-1.15,2.47.61.61,0,0,1-.35.17H475.4v.09H479v.09c-.14.65-.31,1-.53,1h-1.86v.09c1.3,0,1.94.06,1.94.17-.14.71-.47,1.06-1,1.06h-3.52v.09H478a.08.08,0,0,0,.09.09c0,.07-.56,1.31-1.68,3.7h4.85c.35.05.53.13.53.27v.7a.16.16,0,0,1-.18.18H481c-.09,0-.41.06-1,.17h-4.58c-.59-.11-.91-.17-1-.17H467v.44h8.55l.17.09q-.57,1.5-1.23,2.91l-.79,2.38V242c0,.32.29.59.88.79h13c.88-.36,1.32-.6,1.32-.7.38-1,.76-1.5,1.15-1.5v-.88l-.53-.09v-.09l.61-.35a7.79,7.79,0,0,1,1.15-2.38h1.94v-.09a.56.56,0,0,1-.35-.18h-1.41c-.12,0-.18,0-.18-.17l.71-1.85h-4.24c-.14,0-.23-.12-.26-.36H482.1v-.17h8.55q0-.27.18-.27h1.23a1.78,1.78,0,0,0,.62-1.06,4,4,0,0,1,.62-1.23h2.2l.09-.35h-1.85q-.14,0-.27-.27a1.39,1.39,0,0,1,.27-.79v-.18h-2.38v1.06a.16.16,0,0,1-.18.18h-6c-.08,0-.22.2-.44.62-.77.05-1.39.08-1.86.08h-1.41c-1.52,0-2.29-.08-2.29-.26v-.53c0-.12.07-.18.18-.18h1.76v-.7c0-.12.07-.18.18-.18h4.41c0-.23.17-.35.52-.35h1.59c.27-.35.44-.53.53-.53h3.17c.18,0,.27.18.27.53,1.48.06,2.57.09,3.26.09h1.68l.44-.09v-.09l-.44-.09h-1.59l-1.06-.35c.32-1,.59-1.59.79-1.68h1.5c.12,0,.18-.05.18-.17h-1.41a.91.91,0,0,0-.27-.18h-.79c-.12,0-.18-.09-.18-.26l-.17.09h-9.26c-.12,0-.17-.06-.17-.18V226c0-.12.07-.17.17-.17h6.79c.12,0,.18.11.18.35h3.61a8.08,8.08,0,0,0,1.15-2.56l.88-.09h10.05l-.09-.17c0-.12.07-.18.18-.18h4a2,2,0,0,1-.17.71h1.14v.17h-1.32a7.81,7.81,0,0,1-.7,2h1.58q.18,0,.18.18c-.09.23-.18.35-.26.35h-1.77a10.68,10.68,0,0,1-.7,1.94,9.63,9.63,0,0,1-.89,1.85v.35h2.83c.11,0,.17.09.17.18v.18c-.06,1.32-.2,2-.44,2h-3.52c-.11,0-.31.31-.62.88v.09c.23,0,.35.06.35.18l-.18.09v-.09c-.23.09-.5.5-.79,1.23v.09H510v.18h-3.79c-.27.12-.56.85-.88,2.2l.17-.09h2.65a.56.56,0,0,0,.35.18v.18q-1.92,0-5.64.09c-2.95-.06-5.19-.09-6.7-.09,0,.58-.18.88-.53.88v.18h2.64l.27-.18h5.82c.09,0,.2.12.35.35-.1,0-.31.47-.62,1.41h4.32c.08,0,.16.09.27.27a5.27,5.27,0,0,0-.71,1.94h-1.32a1.7,1.7,0,0,1-1.06.26h-1.41c-.09,0-.17-.09-.26-.26l.35-.36v-1.23c0-.07-.09-.16-.26-.27a7,7,0,0,0-.89,2.21c.53.07.8.16.8.26a.16.16,0,0,1-.18.18h-.62c-.35,0-.58.23-.7.7-1.31,1.81-2.19,2.75-2.65,2.83h-7v.08q.89.09,1.32.09h3.35q.18,0,.18.18v.88a.16.16,0,0,1-.18.18H493.3c-.12,0-.18.08-.18.17l.18.09h3.79c.12,0,.17.09.17.18a9.31,9.31,0,0,1-4,1.76c-.94.21-1.41.35-1.41.44-1.09.06-1.88.09-2.38.09H464.64a13.28,13.28,0,0,1-2-.35V251h1.76c.07,0,.16-.09.26-.26v-.09l-.44-.09h-2.38l-1.05-.35a5.23,5.23,0,0,1-1.86-2.38.08.08,0,0,0,.09-.09c-.64-.18-1-.74-1-1.68v-1.32a.08.08,0,0,1,.09-.09l-.09-.17a34.24,34.24,0,0,0,2.56-6.09v-.08c-.24,0-.35-.06-.35-.18s.08-.16.26-.27h.09l.18.09c.47-1.09.88-2.17,1.23-3.26a.92.92,0,0,1,1-.79h1.67c.43,0,.67.08.71.26a.08.08,0,0,0-.09.09h4.85a.08.08,0,0,0-.09-.09l.09-.44v-.18h-4.32q0,.27-.18.27h-3l-.18-.09a8,8,0,0,1,.62-2.2,4.24,4.24,0,0,1,.79-.09h6.08a1.28,1.28,0,0,1,.8.26H471c.08,0,.16-.08.27-.26V231h-7.94l-.17-.09c.45-1.68,1-2.73,1.67-3.17h4.58a.16.16,0,0,0,.18-.18l-.18-.09h-4.23c-.11,0-.17-.09-.17-.26,0-.41.19-.62.44-.62h.88v-.09h-1a.08.08,0,0,0-.09-.09,5.65,5.65,0,0,0,.44-1.23c-.12,0-.17,0-.17-.09l-.18.09h-1.5a.16.16,0,0,1-.18-.18v-.26q0-.18.18-.18h1.59l.44-.09v-.44c-.35,0-.53-.06-.53-.17.53,0,.88-.44,1.06-1.33a5.91,5.91,0,0,1,1.32-2.2h.88c0-.41.09-.62.27-.62h4.76v-.53h-1.32c-.17,0-.25-.14-.27-.44h-2.91c-.09,0-.18-.08-.26-.26v-.35c0-.21.35-.36,1.05-.44v-.09h-.17v-.09c0-.18.35-.32,1.06-.44,0-.06,0-.09.08-.09h10.94a1.91,1.91,0,0,1,1.05.88v.62l-.17.26h4.76a.88.88,0,0,0,.26-.17h5l.44-.36h5.2A4.49,4.49,0,0,1,500.44,216.91Zm-38.88,6c.94,0,1.41.13,1.41.26v.09a.16.16,0,0,1-.18.18h-2.38c-.11,0-.17-.06-.17-.18v-.09C460.24,223,460.68,223,461.56,222.91Zm-.09-2.3h1.41l1.06.09v.18h-3.53v-.18Zm2.2,27.16c0,.17-.05.26-.17.26h-1.77v.09q0,.18.18.18h1.94c.12,0,.18.09.18.26h2V248h-.53c-.12,0-.18-.09-.18-.26Zm1.86-3.18c0,.12.07.18.17.18l-.09.18v.53h5.29l.18.08v-1Zm5.82-9.25-.18-.09a.16.16,0,0,1-.18.18h-4a.16.16,0,0,0,.17.17h6.26v-.53c0-.07-.09-.16-.26-.26h-1.5ZM471,249.09v.35l.44.09h1.41c.12,0,.21.3.27.88h4.32c.12,0,.17.09.17.27h1.59c.43,0,.66.09.71.26l-.09.18h1.32a.88.88,0,0,1,.09-.44c-.41,0-.62-.12-.62-.27v-.88c0-.12-.06-.18-.17-.18h-8.82c-.12,0-.18-.08-.18-.26Zm13.14-3.17a1,1,0,0,1-.27.17h-3.08v.18h1.06c.44,0,.7.12.79.35,1.48.06,2.57.09,3.26.09H487c.17,0,.26.21.26.62h3.18v-.09c-.3,0-.44-.06-.44-.18v-.61c0-.12.07-.18.17-.18H494a6.51,6.51,0,0,0,.71-.18h.53l.17.09V246c-1.17.05-2.05.08-2.64.08h-.44c-.12,0-.21-.32-.27-1l-.17-.08h-1.06c-.16,0-.28.29-.35.88Zm-2.91-19.22h2.11c.08,0,.17.09.27.26v.09c0,.15-.41.24-1.24.26a9,9,0,0,0-1.23-.08.16.16,0,0,1-.18-.18V227C481,226.89,481,226.8,481.22,226.7ZM493.3,222h1.5c.11,0,.17.09.17.18s-.09.18-.26.27h-1.06c-.31,0-.49-.09-.53-.27S493.19,222,493.3,222Zm.17,20.11v.08h4.41v-.08Zm2.3-4.85v.09c.23,0,.35.2.35.61a.08.08,0,0,0-.09.09h4.14v-.18l-.08-.44a.07.07,0,0,0,.08-.08h-2.91q-.5,0-1.41-.09Zm.52-5.38v.53l.09.17.18-.08h6.17l.27.17h2.55c.08,0,.16-.09.27-.26l-.09-.44a.08.08,0,0,0,.09-.09ZM504.23,219h1.59c.13,0,.22.35.26,1.06h3.35a1.63,1.63,0,0,0,1.06-.27h1.59l.35.27a7.55,7.55,0,0,1-1.06,2.46H497.18a1,1,0,0,1-.53-.17,30.26,30.26,0,0,1,1.32-3h4.58c.18,0,.27.29.27.88a.88.88,0,0,0,.26-.17H504C504,219.38,504.1,219,504.23,219Zm.53,28.56h2.82q.18,0,.18.18v.7a.16.16,0,0,1-.18.18h-1.32v.53c0,.12-.06.17-.18.17h-3.53a.15.15,0,0,1-.17-.17v-.09c0-.12.07-.18.17-.18h1.94v-1Q504.49,247.74,504.76,247.59Zm3.08-28.83h4.94c0,.59-.26.88-.79.88h-3.62c-.44,0-.67-.08-.7-.26v-.44C507.68,218.82,507.74,218.76,507.84,218.76Z"/><path class="cls-1" d="M532.22,222.11c.59,0,.88.09.88.27v.09h7.06c.11,0,.17.11.17.35.8-.06,1.38-.09,1.77-.09h8.63c.12,0,.18.12.18.35H557c0-.23.18-.35.53-.35h7.41c.35,0,.53.12.53.35s0,.5-.09,1.24h2v.17c-.8.06-1.38.09-1.77.09h-.26l-.35.35h-2.21c-.08,0-.17.09-.26.27v.18a.17.17,0,0,0,.18.17h2.11q.18,0,.18.18c-.24.53-.38.79-.44.79h-9.7a.08.08,0,0,0,.09.09l-.09.44v.79h-.27V228l.62.09h1.06l.44-.09v-.18l-.18.09a.15.15,0,0,1-.17-.17v-.18c0-.07.09-.16.26-.27H564q.18,0,.18.18v.27c0,.11-.12.17-.36.17v.18H564a1.92,1.92,0,0,1-.18.61H564a.69.69,0,0,0,.26-.17h1c.12,0,.18.09.18.17a.16.16,0,0,1-.18.18h-1.14c-.43,0-.72.5-.88,1.5h1.41v.09a1.3,1.3,0,0,1-.44,1.06h-.62a.61.61,0,0,1-.62-.44c-.16,0-.34.32-.53,1l-.17.08h-8.82c-.12,0-.18-.08-.18-.26h-2.64l.09.18-.09.17h5.2v.18H555V233h3.26a1.05,1.05,0,0,1,.62.26H561c.47,0,.71.12.71.35-1,2.12-1.72,3.18-2.21,3.18a.08.08,0,0,1-.09.09h-1.23l.09.17-.18.09h-.61v.79a.16.16,0,0,1-.18.18H552.5q-.18,0-.18.18v.09h5.2c.09,0,.21.11.36.35l-2.12,1.58v.09l.18-.09h1.76q.18,0,.18.27h2.64c.28.16.43.28.44.35l-.17.09h-1.24c-.51,0-1.31,0-2.38.09,0,.12-.06.17-.18.17h-3a7.6,7.6,0,0,1-2.38.44c-.3,0-.44-.13-.44-.26l-.18.09h-4.23c-.12,0-.18-.15-.18-.44h-5.91v1.32c0,.18-.23.26-.52.26H539.1l-.36.62h-.17v.09h3.88c0-.29.06-.44.17-.44h7.15c.05,0,.2-.21.44-.62h2l.27-.17h5.11a6,6,0,0,0,.71.17h1.41c.35,0,.53.13.53.27v.08c0,.36-.24.53-.71.53a10.48,10.48,0,0,1-1.67.09h-1.24l-.26.18q-2,.09-3.18.09h-.08v.08a1.17,1.17,0,0,1,.26.71h1.41a20.73,20.73,0,0,0,3.53.35q0,.18,1,.27v.61c.36,0,.53.06.53.18V246c0,.08-.08.17-.26.26h-2.73c-.94-.13-1.41-.25-1.41-.35v-.44h-1.41v.26a15.9,15.9,0,0,1,.88,1.76h.53c0-.29,0-.44.17-.44h2.12c.17,0,.26.12.26.36h1.5l.18.08c-.11.94-.22,1.41-.36,1.41h-3.7a4.34,4.34,0,0,1,.53,1.77q0,.62-1.41,1.32-6.9.09-8.64.09c0,.12-.06.17-.18.17h-1.32l-.26-.17h-.09a.78.78,0,0,1-.27.17h-3a.76.76,0,0,0-.44-.17v-.18h6.87c.08,0,.16-.09.27-.26h-.88l-.18-.09c0,.18-.06.26-.18.26h-6.43c-.33-.07-.8-1.07-1.41-3,0-.06.31-.09.88-.09v-.09c-.88,0-1.32-.35-1.32-1.06a1.27,1.27,0,0,1-.27-.88l.18-.09h.53l.17.09a3,3,0,0,0,.27-1.15l.17-.08h4.24v-.09a.54.54,0,0,1-.09-.27c.06,0,.09,0,.09-.08h-6c-.12,0-.35-.33-.7-1h-2.65a.16.16,0,0,1-.18-.18v-1.24h-2.73l-.26.18h-1.33c-.64.06-1,.32-1,.79a.73.73,0,0,0-.52.18H519.7a1,1,0,0,0-.62-.26h-1.85l.09.17c0,.06-.2.18-.62.36l-.44-.09h-.88v.17c1.47-.05,2.65-.08,3.53-.08h9.34c.12,0,.18.08.18.17a18.31,18.31,0,0,1-.79,2l.26.18H528l.26-.18h4.06a5.55,5.55,0,0,0,.7.18c1.53,0,2.3.08,2.3.26a.16.16,0,0,1-.18.18h-.62l-.17-.09c0,.12-.06.17-.18.17h-6c-.12,0-.18-.05-.18-.17l-.18.09-.17-.09c-.28,0-.69.91-1.24,2.73a.69.69,0,0,1,.09.27q-.18,0-1.23,1a4.38,4.38,0,0,1-2.56.62h-2.12a1.84,1.84,0,0,1-1.23.35h-1.5c-.09,0-.18-.08-.26-.26l.08-.18h-2.46a2.17,2.17,0,0,0-1.24-.26l-.35.26h-1.5c-.09,0-.29-.2-.62-.61v-1a.52.52,0,0,1,.53-.36v-1.05a5.11,5.11,0,0,0,.62-1.68,6.26,6.26,0,0,0,.53-1.41.84.84,0,0,1,.88-.71.67.67,0,0,1,.18-.35,1.23,1.23,0,0,1-.62-.09l.09-.17v-.18h-2.38a.16.16,0,0,1-.18-.18c.18-1.05.35-1.58.53-1.58h.62c.11,0,.17.09.17.17v.27h-.61c-.12,0-.18.09-.18.17v1h2.2c.59-1.94,1.06-3,1.41-3.17v-.09h-2.47v-.09l2.65-2.2.18.09c.3,0,1-1.5,2-4.5h-1c-.12,0-.18-.06-.18-.17v-.18q0-.18.18-.18h1.14q.32,0,1.32-2.91a1,1,0,0,1,.62-.26h.88c0-.24.24-.35.71-.35v-.18l-.18.09h-.26q-.18,0-.18-.27h-.79c-.15,0-.24-.11-.27-.35a6.23,6.23,0,0,1,1-2h11.2v-.17a.16.16,0,0,0-.18-.18h-6.34c-.12,0-.21-.23-.27-.7h-.53c-.23.35-.38.53-.44.53h-4.49a.16.16,0,0,1-.18-.18l.26-.18h.53l.27.18c.33,0,.66-.62,1-1.85.11,0,.17-.06.17-.18h-1.41l-.17-.09c.32-.82.56-1.23.7-1.23H522c.24-.47.5-.71.8-.71Zm-15.07,7.41h1.05v.17h-1.05Zm3.52,9.26.09.17V239a.08.08,0,0,1-.09.09l.09.18v.17c0,.18-.28.27-.71.27h-1.23l.09.17-.09.18.18.09c6,.06,9.44.08,10.4.08a.08.08,0,0,0,.09.09c0-.29.1-.44.26-.44h4.59a.61.61,0,0,1,.09-.26l-.27-.18h-1.67c-.12,0-.18-.15-.18-.44H531l-.36-.35h-9.52ZM527.11,217H544c.64,0,1,.09,1,.26v.45h11.72c.12,0,.18.08.18.26H562v.18h-1.23l-.36.35h-1.32a6.36,6.36,0,0,0-1.32.18v.17l.44-.09H563c.82,0,1.53.77,2.12,2.3-.34,0-.52.29-.53.88-1.27.06-2.21.08-2.82.08H551.09c-.53,0-.8-.29-.8-.88H549a.15.15,0,0,1-.17-.17v-.88h-5.56V221c0,.11.08.17.18.17h.88q.18,0,.18.18v.53c-.06.17-.24.26-.53.26h-9.08c-.47,0-.71-.11-.71-.35h-6.79l-.44-.35H522.7a1.63,1.63,0,0,1,.35-.88v-.18h-1.58a.16.16,0,0,1-.18-.18v-.08c0-.36.12-.53.26-.53h1.85a2.67,2.67,0,0,1,1-1.59c0-.32.65-.59,1.94-.79h.09l.88.08v-.17l-.17.09h-.18C527,217.06,527,217,527.11,217Zm-5.82,34.56h5v.18h-.88a.08.08,0,0,1-.09-.09l-.17.09h-3.88Zm6.35-.71h2.11q.18,0,.18.18v.53a.16.16,0,0,1-.18.18h-2.91v-.18h.62l-.09-.35Q527.51,250.85,527.64,250.85Zm-.53-25.65v.18h9.61v-.18Zm1.67,8.11.09.44a.08.08,0,0,0-.09.09h1.41v-.18h-.26a10.2,10.2,0,0,0-1.06-.35Zm3.26,16.4h.36c.88.14,1.32.26,1.32.35s-.26.21-.79.27c0,0,0,.08-.09.08H531v-.35c0-.12.32-.21,1-.26C532,249.74,532,249.71,532,249.71Zm12.7-23.81c0,.36-.06.53-.18.53H538.3c-.11,0-.17.09-.17.18v1.15c0,.17-.77.26-2.29.26H535l-2.38,5.47c-.47.14-.7.26-.7.35a1.77,1.77,0,0,1,1.06.35h8a1,1,0,0,0,1,.62H542v.09l-.09.17h.53v-.44c0-.12.07-.17.17-.17h11.11q0-.36.27-.36h3.61a.84.84,0,0,1,.44-.26v-.09l-.88-.09h-8.11a.77.77,0,0,1-.62.44h-6.17c-.65,0-1-.09-1-.26v-.09l.09-.18c1.07,0,1.87-.08,2.38-.08h2.47a3.79,3.79,0,0,0,1.41-2.38l1.15-2.83h-1.5c0,.12-.15.24-.44.36H542a1.29,1.29,0,0,0-.8-.27H538c-.12,0-.18-.06-.18-.17v-.09h.88l.27-.18h9.79c.23,0,.35-.44.35-1.32a.79.79,0,0,0-.44-.71Zm-11.28,15.34v.44H535v-.44Zm1-1v.27q0,.18.18.18H540a.16.16,0,0,0,.18-.18v-.27Zm1.33-9.25h1.23l.44.09v.17h-1.85v-.09A.17.17,0,0,1,535.84,231Zm4.32-5.29h-3.44a3.66,3.66,0,0,0-.8.17V226h.62a4.33,4.33,0,0,1,.71-.17h3.08v-.18Zm15.07-5.91a.74.74,0,0,1-.17.44h.26c.12,0,.18-.06.18-.17v-.27Zm.18,9.7a.88.88,0,0,1,.09.44h2.55a.7.7,0,0,1,.18-.44Zm.26-10.32v.09h.71v-.09Zm2.38-2.11h1.41a4.4,4.4,0,0,1,1.41.26v.18h-2.82c-.11,0-.17-.06-.17-.18v-.09A.16.16,0,0,1,558.05,217.09Zm4.15,8.81v.36h.44v-.18a.16.16,0,0,0-.18-.18Zm.35,4.94v.09H563v-.09Zm3.88-10h1.76q.18,0,.18.18v.44c0,.31-.09.48-.27.52h-1.5c-.08,0-.2-.14-.35-.44v-.52C566.27,220.94,566.32,220.88,566.43,220.88Z"/><path class="cls-1" d="M564.82,247.44h.53v.17a.66.66,0,0,0-.36.18h-.26a.16.16,0,0,1-.18-.18Zm15.78-30.68h9.34l.27.17h6.44c.11,0,.17.08.17.18v.44c0,.12-.06.18-.17.18h-3.88l-.18-.09v.09a5.32,5.32,0,0,1,.09.53c0,.76-.27,1.14-.8,1.14v.09a.84.84,0,0,1,.45.09l-.45,1.23h2.39v-.44c0-.12.08-.17.17-.17h1.15l.17.08c-.29.83-.5,1.24-.61,1.24H591.8l-.18-.09-.71,1.94h2.83l1,.09v.26h-3.7l-.18-.09-.7,1.41h-1v.18h.7c.12,0,.18.07.18.18l-.62,1.41.18.09h2.65v.17h-2.74c-.17,0-.67,1.15-1.5,3.44h3.79c.12,0,.18.07.18.18s-.12.2-.35.35h-2.29a2.54,2.54,0,0,0-1.5-.27h-.09l-1.94,4.68v.09l.18.08H589l.26-.17h.88l.18-.09.09.18a5.89,5.89,0,0,1-1.33,2.2h-4a4.2,4.2,0,0,0-.71,1.5h.79c1,.13,1.46.28,1.5.44v.09l-.17.09h-.09l-.44-.09-.09.17V241h.44v.18h-2.64c-.14,0-.4.67-.8,2a9.91,9.91,0,0,1-1.14,2.46.71.71,0,0,1-.36.09h-1.76c0,.09.09.18.26.27h1.68c.12,0,.18.07.18.17a7.38,7.38,0,0,0-.62,1.59H581q-2.79,0-10.58.09v.7h3.09q.18,0,.18.18v.79c0,.18-.24.27-.71.27l.09.17v.62h6.26v.09c0,.21-.38.38-1.15.53a.08.08,0,0,1-.09.09c-.89.06-1.69.08-2.38.08-.11,0-.17,0-.17-.08l-.62.08H568.7l-.27.18H567a2.28,2.28,0,0,1-1.5-1.15v-.08a31.91,31.91,0,0,1,1-3.09h-1.41a.15.15,0,0,1-.17-.17,6.48,6.48,0,0,1,.88-1.06h1.59v-.09h-.27v-.18c.63-1.88,1-2.82,1.24-2.82H573c.12,0,.17-.06.17-.18v-.17H568.7c-.08,0-.16-.09-.27-.27l.89-2.11h-1.86c-.11,0-.17-.06-.17-.18v-.17c0-.09.09-.18.26-.27h1.77l.17.09a16.25,16.25,0,0,1,.88-2.12,12,12,0,0,1,.62-1.41l.26-.53-.17-.08H568.7l-.18-.09a3.81,3.81,0,0,1,1.06-2.29h.88a6.8,6.8,0,0,0,1-.09.08.08,0,0,1,.09.09l.7-.09c1.74.06,2.88.09,3.44.09V232q0-.18.18-.18h.53v-.35H573l-.18-.09a8,8,0,0,0,.71-1.76h9.17a.86.86,0,0,1,.52-.79v-1q0-.18.18-.18h4.23v-.09h-5.2a4.21,4.21,0,0,0-2,.27h-2.73l-.26-.18h-2.91l-.18-.09a12.18,12.18,0,0,0,1-2.38l-.44.09h-1.23v-.09c.17-.65.35-1,.52-1h1.33a23.1,23.1,0,0,0,1.76-3.88c.15-.82.35-1.23.62-1.23h.88v-.09h-1a.16.16,0,0,0-.18-.18h-1.41l-.17-.09c.05-.76.14-1.14.26-1.14h2.47a2.76,2.76,0,0,1,1.76-.79A.08.08,0,0,1,580.6,216.76ZM574,248.06h6.79l.17.08a1.2,1.2,0,0,1-.53,1h-6.34c-.08,0-.17-.09-.27-.26v-.62C573.84,248.11,573.9,248.06,574,248.06Zm.88-1.42v.09a5.44,5.44,0,0,1,1.06.09l.09-.18Zm5.47-24v.09h.88a.93.93,0,0,1,.26.18h.27c.11,0,.17-.06.17-.18l-.26-.17H581Z"/><path class="cls-1" d="M639.21,216.85c3.88,0,6.34,1.23,7.4,3.7a4.49,4.49,0,0,1,.62,2.38q-.09,1.5-.27,1.5v.35c.44,0,.68.09.71.26-.19.83-.34,1.24-.44,1.24h-5.91v.09c.24,0,.35.09.35.26h4.59v.09a9.94,9.94,0,0,1-.62,1.5v.09h1v.08c-.23.77-.41,1.15-.53,1.15H645l-.62,1.68a7.49,7.49,0,0,0-.71,1.76h.62l.18.09c-.36,1-.62,1.58-.8,1.67h-.88a5.34,5.34,0,0,1-.44,1.24c-.38,1.17-.73,1.76-1.06,1.76H638.5a1.61,1.61,0,0,1-1-.35h-.17v.44h2.73V238h-.44v.09h1.67q.18,0,.18.18c-.32.72-.74,1.72-1.24,3a4.94,4.94,0,0,0-.61,1.41l-.18.08H631.1l-.27.18h-1.59v.62c0,.09-.17.2-.53.35h-9.87l-.26.18H610.2l-.09.44v1a.58.58,0,0,1-.61.35H601v.09h.8v.18h3a.73.73,0,0,1,.36.08.67.67,0,0,1,.35-.08h1.23l.27-.18h7.84c0-.24.27-.35.8-.35v-.09h-3.18c-.35-.15-.53-.27-.53-.35v-.45c0-.11.08-.17.18-.17h8.64v.62c0,.08-.15.2-.44.35H618l.09.44a.08.08,0,0,0-.09.09h4.76a.08.08,0,0,0-.09-.09l.09-.44v-.8s.09-.13.26-.26q3.19-.09,4.59-.09h2.64c.91,0,2.3,0,4.15.09a.08.08,0,0,0-.09-.09l.09-.44v-.18l-.18-.26c-1.17-.06-2.06-.09-2.64-.09h-.89a.15.15,0,0,1-.17-.17l.17-.09h2.83q2.65,0,8.55.09s0,.08.09.08c-.06.65-.18,1-.36,1H641v.8c0,.12-.06.17-.18.17-1,.06-1.75.09-2.29.09h-.44c0,.35-.76,1.18-2.29,2.47a4.33,4.33,0,0,1-.8.09h-6.61a5.12,5.12,0,0,1-.7-.18h-1.94c0,.3-.39.44-1.15.44h-.7v.09h11.19v.09a9.88,9.88,0,0,1-2.38,1.59l-.17-.09a4.94,4.94,0,0,1-1.41.7l-.18-.09a5.54,5.54,0,0,1-1.76.8q-1.95.09-2.91.09c0,.11-.09.17-.27.17q-7.69,0-24.33.09l-.09-.18-.18.09h-2.29l-.26-.17h-.53a7.35,7.35,0,0,1-3.18-1.06,5.55,5.55,0,0,1-2.29-4.14c-.11,0-.17-.06-.17-.18v-1a9.17,9.17,0,0,0,.44-1.85.08.08,0,0,0,.09-.09v-.53h-2.65a.16.16,0,0,1-.18-.18l.18-.08h2.82a6.8,6.8,0,0,0,.53-1.59v-.09h-3.35c-.12,0-.18-.06-.18-.17s.09-.17.27-.27h2.2c.59-.12.91-.18,1-.18h.44c0-.17.15-.35.44-.52h6.18v-.53h-5.74l-.35-.27a8.34,8.34,0,0,0,.8-2.2h4.84a.08.08,0,0,1,.09.09.71.71,0,0,1,.36-.09v-.18l-.18.09h-4.76a.16.16,0,0,1-.18-.18,42.73,42.73,0,0,1,2.21-5.38h2.55v-1.23c0-.18.5-.26,1.5-.26v-.09h-3.26a.16.16,0,0,1-.18-.18,3.9,3.9,0,0,0,.18-.88h-.62c-.94-.13-1.41-.25-1.41-.35v-.44H594a.16.16,0,0,1-.18-.18V227c0-.11.08-.17.18-.17h2.82v-.53h-1.15c-.11,0-.17-.06-.17-.18l.17-.09h2.21a.8.8,0,0,1,.26.18h1.24c.33,0,.57-.32.7-1q.33-1.31,2.82-3.79v-.09l-.17.09h-.27c-.17-.06-.26-.24-.26-.53v-.26h-.8c-.11,0-.17-.06-.17-.18v-.79c0-.12.07-.18.17-.18h3.71a13.94,13.94,0,0,0,2.73-1.23,4.82,4.82,0,0,1,1.32-.45h.18c0-.29,1.12-.58,3.35-.88h14.46Q631.66,216.93,639.21,216.85Zm-47.52,8.28c.94.05,1.41.13,1.41.27v.09c0,.11-.06.17-.18.17h-2.38c-.12,0-.18-.06-.18-.17v-.09C590.36,225.26,590.81,225.18,591.69,225.13Zm-1.15,24h2.73q.18,0,.18.18v.62c.24,0,.35.06.35.17s-.06.18-.17.18h-3.09a.16.16,0,0,1-.18-.18v-.79Q590.39,249.11,590.54,249.11Zm.71-26.27h1.94l.88.09v.17h-3.26v-.17Zm6.87,24.6v.09H603v-.09Zm1.06-5.38a6.67,6.67,0,0,0,1.76.18c1.34-.06,2.16-.09,2.47-.09v-.27h-4Q599.18,241.93,599.18,242.06Zm4-8.9h-2c0,.05,0,.08.09.08l-.09.44v.09a.72.72,0,0,1,.18.44l.17-.08h.62l.18.08c.11-.26.23-.41.35-.44h2.82c.12,0,.18-.06.18-.17v-.09h-1.33c-.1,0-.31-.18-.61-.53h-.27ZM601.65,246v.17h.09V246Zm3.79-11.11h-2.82c-.09,0-.18.09-.27.26h3.35l.27.18h2.11c0-.29.06-.44.18-.44h.88v-.18h-2.29Q605.58,234.92,605.44,234.92Zm-.35-15V220h2v-.09Zm23.18,5.82H616.11c-1.47.57-2.21,1.31-2.21,2.2-.06,0-.23.3-.53.89v.08q.36,0,.36.18v.18c-.47.26-.71.44-.71.53l-1,2.2.18.09h3.7q0-.36.27-.36h1.94a.52.52,0,0,1,.35-.52h3.17c.18,0,.27.17.27.52h.53q.43,0,1.32.09V232h-2.29v1.06c0,.11-.06.17-.18.17h-6l-.35.62c-.82.06-1.53.09-2.11.09h-1.68a24.41,24.41,0,0,0-1.06,2.82v.09h1.5c.09,0,.18.09.27.26v.71c0,.17-.77.26-2.3.26l-1.32,3.09a.77.77,0,0,1-.18.53c.21.53.5.79.89.79,0,.06.17.09.53.09h6.25c1.27,0,3,0,5.12-.09l.44.09a11.41,11.41,0,0,1,1.5-.09h1.41a1,1,0,0,1,.62-.26v-.09H623.6a1,1,0,0,1-.62-.27h-2.91l-.44-.08v-.09q0-.18.18-.18h2.56v-1c.06-.17.23-.26.53-.26h3l1.33-3.53h-.09q-5.73-.09-8.91-.09h-.35c-.15,0-.23-.12-.26-.35h-5.38v-.18h8.55c0-.17.06-.26.18-.26h1.23a.91.91,0,0,0,.27-.18H623a.08.08,0,0,1,.09.09,1,1,0,0,1,.53-.18h1.94c0-.41.18-.61.53-.61H628c0-.53.35-.88,1.06-1.06,0-.18.26-.27.79-.27v-.08a1.48,1.48,0,0,1-1.15-.53V233a11,11,0,0,1,1-2h10.67v-.09a.15.15,0,0,0-.17-.17h-6.35c-.06,0-.18-.27-.35-.8a1.19,1.19,0,0,0-.89.53H630c-.12,0-.18-.06-.18-.17a5,5,0,0,0,.44-1.41h-1.23c0,.23-.06.35-.18.35h-.79a.78.78,0,0,1-.27.17h-2.29a5.33,5.33,0,0,1-.7-.17h-.62q-.18,0-.18-.27h-9.61v-.7q0-.18.18-.18h6.79c.12,0,.17.12.17.35H630c0-.23.2-.35.62-.35.17,0,.38-.41.61-1.23a.67.67,0,0,1-.08-.35l.35-.27h.79q3.43,0,10.49-.09h.09V226l-.44-.08h-6.52l-.36-.36h-6.26A9.69,9.69,0,0,1,628.27,225.75ZM609,248.06v.08h1.85c0,.12.07.18.17.18h1.94v-.18c-.86,0-1.86,0-3-.08Zm.88-26.72v.09a.66.66,0,0,1,.26.09v-.18Zm7-1h-5.64v.35c2.57-.05,4.48-.08,5.73-.08h.44v-.18l-.09-.18Zm-4.58,1.24.09.17a.57.57,0,0,1-.09.27l.09.53h6.08c.35,0,.53.2.53.61h4.41c.09,0,.2-.11.35-.35h-.88c-.12,0-.18-.12-.18-.35h-9.34c-.12,0-.21-.27-.27-.8.06,0,.09,0,.09-.08Zm3.26,26.89v.17q0,.18.18.18h6.7c.09,0,.17-.09.26-.27a.15.15,0,0,0-.17-.17Q617.08,248.5,615.49,248.5Zm7.14-30.42-.09.18-.44-.09h-5.9v.09h1.23c.23.17.35.32.35.44-.06.61-.09,1-.09,1.06h4.5l-.09-.18v-.27c0-.11.08-.17.18-.17H627c.09,0,.18-.09.26-.27v-.53a.15.15,0,0,0-.17-.17h-3.88Zm-6.17,7v.36h1.15v-.36l-.18.09h-.79Zm.62-7.93v.09h.44v-.09Zm5.29,7.32h-3.62v.08h4.59l-.09-.17c0-.12.12-.18.35-.18,0-.12-.06-.18-.17-.18h-.71Zm8.9-5.38a.88.88,0,0,1-.17.26V220h4.76c.44,0,.67.09.7.26V221h2.73l-.08-.18v-.88c-.24,0-.36-.06-.36-.17l-.17.08h-6.09a1.18,1.18,0,0,1-.7-.7l-.18.09h-.26Zm.44,2.38v.26c.47.11.71.34.71.71v.09c.17,0,.29-.36.35-1.06Zm.09-4.32v.09h1.68v-.09Zm3.09,32.62h4.58l.18.09c-.28.64-.46,1-.53,1h-2.73v.52a.16.16,0,0,1-.18.18h-3.53c-.12,0-.17-.06-.17-.18v-.08c0-.12.07-.18.17-.18h1.94v-1.06C634.62,250,634.71,249.92,634.89,249.82Zm.7-30.42v.09h8.55v-.09Zm0,10v.18h8.82v-.09c-1-.06-1.71-.09-2.21-.09Zm5,1.68v.09h1V231Z"/><path class="cls-1" d="M689.39,216.91q5.11.09,8,.09h3.35a.68.68,0,0,0,.44.18v.17h-5.29a2,2,0,0,0-1.24.27h-.79l-.18-.09v1.06c0,.11-.29.2-.88.26a.08.08,0,0,1-.09.09H678.46v.7a.16.16,0,0,1-.18.18h-1.94a2.74,2.74,0,0,0-.79-.44.68.68,0,0,1-.09-.35h-3.35c-.38,0-.61.32-.7,1a4.92,4.92,0,0,1-.71,1.41h-1.23l-.18-.09a.82.82,0,0,1-.88.62h-3.88c-.12,0-.18.08-.18.17s.18.09.18.18c.88-.06,1.53-.09,1.94-.09H670l.44.09a8.1,8.1,0,0,1-.71,1.85c.24,0,.35.15.35.44h1.24a.9.9,0,0,0,.62.18v.17h-1v.53a.16.16,0,0,1-.18.18h-1.41a7.23,7.23,0,0,0-1.15,2.47.58.58,0,0,1-.35.17h-3.53v.09H668v.09c-.13.65-.31,1-.53,1h-1.85v.09c1.29,0,1.94.06,1.94.17-.15.71-.47,1.06-1,1.06H663v.09h3.88a.08.08,0,0,0,.09.09c0,.07-.56,1.31-1.68,3.7h4.85c.36.05.53.13.53.27v.7c0,.12-.06.18-.17.18H670c-.09,0-.41.06-1,.17h-4.59c-.58-.11-.91-.17-1-.17H656v.44h8.55l.18.09c-.39,1-.8,2-1.24,2.91l-.79,2.38V242c0,.32.29.59.88.79h13c.88-.36,1.32-.6,1.32-.7.39-1,.77-1.5,1.15-1.5v-.88l-.53-.09v-.09l.62-.35a7.87,7.87,0,0,1,1.14-2.38h1.94v-.09a.56.56,0,0,1-.35-.18H680.4c-.12,0-.18,0-.18-.17l.71-1.85H676.7q-.23,0-.27-.36h-5.37v-.17h8.55c0-.18.06-.27.17-.27H681a1.77,1.77,0,0,0,.61-1.06,4.29,4.29,0,0,1,.62-1.23h2.21l.08-.35h-1.85c-.09,0-.17-.09-.26-.27a1.45,1.45,0,0,1,.26-.79v-.18h-2.38v1.06c0,.12-.06.18-.17.18h-6c-.07,0-.22.2-.44.62-.76.05-1.38.08-1.85.08h-1.41c-1.53,0-2.29-.08-2.29-.26v-.53c0-.12.07-.18.17-.18h1.76v-.7q0-.18.18-.18h4.41c0-.23.18-.35.53-.35h1.59c.26-.35.44-.53.52-.53h3.18c.17,0,.26.18.26.53,1.49.06,2.57.09,3.26.09h1.68l.44-.09v-.09l-.44-.09H684.1L683,229c.33-1,.59-1.59.8-1.68h1.5a.15.15,0,0,0,.17-.17H684.1a.8.8,0,0,0-.26-.18H683c-.11,0-.17-.09-.17-.26l-.18.09h-9.25a.16.16,0,0,1-.18-.18V226a.16.16,0,0,1,.18-.17h6.78c.12,0,.18.11.18.35H684a7.6,7.6,0,0,0,1.15-2.56l.88-.09h10.05l-.09-.17q0-.18.18-.18h4a2,2,0,0,1-.18.71h1.15v.17H699.8a8,8,0,0,1-.71,2h1.59c.11,0,.17.09.17.18s-.17.35-.26.35h-1.76a11.2,11.2,0,0,1-.71,1.94,9.62,9.62,0,0,1-.88,1.85v.35h2.82q.18,0,.18.18v.18c-.06,1.32-.21,2-.44,2h-3.53c-.1,0-.31.31-.62.88v.09c.24,0,.35.06.35.18l-.17.09v-.09c-.24.09-.5.5-.8,1.23v.09h3.88v.18h-3.79c-.26.12-.55.85-.88,2.2l.18-.09h2.64a.56.56,0,0,0,.36.18v.18c-1.28,0-3.16,0-5.65.09q-4.42-.09-6.7-.09c0,.58-.17.88-.53.88v.18h2.65l.26-.18h5.82c.09,0,.21.12.35.35-.1,0-.3.47-.61,1.41h4.32c.07,0,.16.09.26.27a5.29,5.29,0,0,0-.7,1.94h-1.33a1.64,1.64,0,0,1-1,.26H693.1c-.09,0-.18-.09-.27-.26l.35-.36v-1.23c0-.07-.08-.16-.26-.27a6.79,6.79,0,0,0-.88,2.21c.53.07.79.16.79.26a.16.16,0,0,1-.18.18H692c-.35,0-.59.23-.71.7-1.31,1.81-2.19,2.75-2.64,2.83h-7v.08q.88.09,1.32.09h3.36c.11,0,.17.09.17.18v.88c0,.12-.06.18-.17.18h-4.15c-.12,0-.18.08-.18.17l.18.09H686q.18,0,.18.18a9.43,9.43,0,0,1-4,1.76c-.94.21-1.41.35-1.41.44-1.09.06-1.88.09-2.38.09H653.6a13.33,13.33,0,0,1-2-.35V251h1.76c.08,0,.17-.09.27-.26v-.09l-.44-.09h-2.38l-1.06-.35a5.18,5.18,0,0,1-1.85-2.38.08.08,0,0,0,.09-.09c-.65-.18-1-.74-1-1.68v-1.32c0-.06,0-.09.08-.09l-.08-.17a35.09,35.09,0,0,0,2.55-6.09v-.08c-.23,0-.35-.06-.35-.18s.09-.16.26-.27h.09l.18.09c.47-1.09.88-2.17,1.23-3.26a.93.93,0,0,1,1-.79h1.68c.43,0,.66.08.7.26-.06,0-.08,0-.08.09h4.85a.08.08,0,0,0-.09-.09l.09-.44v-.18h-4.33c0,.18,0,.27-.17.27h-3l-.17-.09a8.29,8.29,0,0,1,.61-2.2,4.24,4.24,0,0,1,.8-.09h6.08a1.25,1.25,0,0,1,.79.26H660c.07,0,.16-.08.26-.26V231h-7.93l-.18-.09c.46-1.68,1-2.73,1.68-3.17h4.58a.16.16,0,0,0,.18-.18l-.18-.09h-4.23c-.12,0-.18-.09-.18-.26,0-.41.19-.62.44-.62h.88v-.09h-1c0-.06,0-.09-.08-.09a6.34,6.34,0,0,0,.44-1.23q-.18,0-.18-.09l-.18.09h-1.49a.16.16,0,0,1-.18-.18v-.26q0-.18.18-.18h1.58l.44-.09v-.44c-.35,0-.53-.06-.53-.17.53,0,.89-.44,1.06-1.33a6.19,6.19,0,0,1,1.32-2.2h.89c0-.41.08-.62.26-.62h4.76v-.53h-1.32c-.16,0-.25-.14-.27-.44h-2.9c-.09,0-.18-.08-.27-.26v-.35c0-.21.35-.36,1.06-.44v-.09h-.18v-.09c0-.18.36-.32,1.06-.44a.08.08,0,0,1,.09-.09h10.93a1.94,1.94,0,0,1,1.06.88v.62l-.18.26h4.76a1,1,0,0,0,.27-.17h5l.44-.36h5.2A4.49,4.49,0,0,1,689.39,216.91Zm-38.88,6c.94,0,1.41.13,1.41.26v.09c0,.12-.06.18-.17.18h-2.38a.16.16,0,0,1-.18-.18v-.09C649.19,223,649.63,223,650.51,222.91Zm-.09-2.3h1.42l1,.09v.18h-3.52v-.18Zm2.21,27.16c0,.17-.06.26-.18.26h-1.76v.09q0,.18.18.18h1.94c.11,0,.17.09.17.26h2V248h-.53c-.12,0-.18-.09-.18-.26Zm1.85-3.18q0,.18.18.18l-.09.18v.53h5.29l.17.08v-1Zm5.82-9.25-.18-.09c0,.12-.06.18-.17.18h-4a.17.17,0,0,0,.18.17h6.25v-.53c0-.07-.08-.16-.26-.26h-1.5ZM660,249.09v.35l.44.09h1.41c.12,0,.2.3.26.88h4.32q.18,0,.18.27h1.59c.42,0,.66.09.7.26l-.09.18h1.32a.88.88,0,0,1,.09-.44c-.41,0-.61-.12-.61-.27v-.88a.16.16,0,0,0-.18-.18h-8.82c-.11,0-.17-.08-.17-.26Zm13.13-3.17a.88.88,0,0,1-.26.17h-3.09v.18h1.06c.44,0,.71.12.79.35,1.49.06,2.57.09,3.27.09H676c.18,0,.27.21.27.62h3.17v-.09c-.29,0-.44-.06-.44-.18v-.61q0-.18.18-.18H683a6.7,6.7,0,0,0,.7-.18h.53l.18.09V246c-1.18.05-2.06.08-2.65.08h-.44c-.12,0-.2-.32-.26-1l-.18-.08h-1.06c-.16,0-.28.29-.35.88Zm-2.91-19.22h2.12c.07,0,.16.09.26.26v.09c0,.15-.41.24-1.23.26a9.23,9.23,0,0,0-1.24-.08c-.11,0-.17-.06-.17-.18V227C669.91,226.89,670,226.8,670.17,226.7ZM682.25,222h1.5c.12,0,.18.09.18.18s-.09.18-.27.27H682.6c-.3,0-.48-.09-.53-.27S682.15,222,682.25,222Zm.18,20.11v.08h4.41v-.08Zm2.29-4.85v.09c.23,0,.35.2.35.61a.08.08,0,0,0-.09.09h4.15v-.18l-.09-.44c.06,0,.09,0,.09-.08h-2.91q-.51,0-1.41-.09Zm.53-5.38v.53l.09.17.17-.08h6.18l.26.17h2.56c.07,0,.16-.09.26-.26l-.09-.44a.08.08,0,0,0,.09-.09ZM693.18,219h1.59c.13,0,.22.35.26,1.06h3.36a1.6,1.6,0,0,0,1.05-.27H701l.35.27a7.09,7.09,0,0,1-1.06,2.46H686.13a1,1,0,0,1-.53-.17q1.06-2.58,1.32-3h4.59c.18,0,.26.29.26.88a1,1,0,0,0,.27-.17h.88C693,219.38,693.05,219,693.18,219Zm.53,28.56h2.82q.18,0,.18.18v.7a.16.16,0,0,1-.18.18h-1.32v.53c0,.12-.06.17-.18.17h-3.52c-.12,0-.18,0-.18-.17v-.09q0-.18.18-.18h1.94v-1C693.45,247.78,693.54,247.69,693.71,247.59Zm3.09-28.83h4.93c0,.59-.26.88-.79.88h-3.61c-.44,0-.68-.08-.71-.26v-.44C696.64,218.82,696.69,218.76,696.8,218.76Z"/><path class="cls-1" d="M751.11,216.93a1.6,1.6,0,0,1,1.58.88v.09c0,.12-.06.18-.17.18h-6.09a3.5,3.5,0,0,0-.17-.79h-.44a3.13,3.13,0,0,0-.53.52h-4.76v.45c0,.11-.12.17-.36.17v.09h1.24a.8.8,0,0,0,.26-.18h10.85l.26.18h2l.17.09-.08.62v.7a.16.16,0,0,1-.18.18h-1.59l-.26.17h-.71a11.5,11.5,0,0,0-.79,2.21c-.6,1.53-1.1,2.29-1.5,2.29l.09.18a3.17,3.17,0,0,1-1.68.79H723.6v.09h3.26l.09.17v.53c0,.09-.12.21-.35.36h-4.68l-.17-.09a1.89,1.89,0,0,1-.35.79,10.86,10.86,0,0,1-.53,1.59v.44c0,.16.35.37,1,.62h18c1.41,0,2.12.11,2.12.35V231c0,.18-.27.27-.71.27h-9.79c0,.17,0,.26-.17.26h-8.29c-.09,0-.18.09-.26.26v.45h1.94c0-.18,0-.27.17-.27h6.88c.12,0,.18.07.18.18v.35a.16.16,0,0,1-.18.18h-1l-2.12.17h-3.26c-.47,0-.7-.12-.7-.35h-1.94v.44l-.18.27q-4.59.08-7.23.08h-2.73v.27h5l.27.17a.16.16,0,0,1,.17-.17h1.41a.16.16,0,0,0,.18-.18q4.5-.09,7-.09h3.71l.26.18h4.76a.08.08,0,0,0-.09-.09l.09-.44v-.44c-.23,0-.35-.09-.35-.26a1.74,1.74,0,0,1,1-.36h1.32l.27-.17h7a9.36,9.36,0,0,1,1.5,1.58h4.67a.62.62,0,0,0,.53-.61q0-.36.18-.36h.08q.18,0,.18.18c-.15,1.06-.32,1.59-.53,1.59h-2.12v.61c0,.12,0,.18-.17.18h-2l-.18.09.09.18v.08l-.44.09h-5.38a1,1,0,0,1-.61-.26h-2c0,.35-.3.53-.88.53h-1v.08h10.22q.18,0,.18.18v.44q.18,0,.18.09l.61-.09H751c.12,0,.17.07.17.18l-.17.09h-.71c0,.23-.06.35-.17.35h-.8a4.35,4.35,0,0,1-.7.17h-1.77a6.29,6.29,0,0,1-.7,2.74l-1.23,3.08V243h4.31q.18,0,.18.18v.35c0,.17-.76.26-2.29.26h-2.47a16.06,16.06,0,0,0-1.41,1.94,4.6,4.6,0,0,1-1,.88v.09h.35v.18c-.48,0-1.13.44-1.94,1.32l-2,1.24a12.82,12.82,0,0,1-2.47,1.14h-.09l-.18-.09c0,.15-.79.39-2.38.71a.08.08,0,0,1-.09.09c-1.29.06-2.14.08-2.55.08a.16.16,0,0,1-.18.18h-1.67a.91.91,0,0,0-.27-.18h-3.44c-2.26,0-5.4,0-9.43-.08a1.52,1.52,0,0,1-.18-.53.08.08,0,0,0,.09-.09h-7.49c-.09,0-.21-.12-.36-.35v-.62q0-.18.27-.18v-.08q-.27,0-.27-.18a.08.08,0,0,0,.09-.09H703.5l.09.18a.54.54,0,0,0-.09.26l.26.18h1.77a.16.16,0,0,1,.17.17v.71l-.09.18c.18,0,.27.05.27.17v.18c0,.12-.06.17-.18.17h-4.49q-1.5,0-1.5-1.32a2.42,2.42,0,0,1,.35-1.14v-.09h-1.23a.16.16,0,0,1-.18-.18v-1.14q0-.18.18-.18h.61q.18,0,.18.18V248h.79c.34-1,.58-1.56.71-1.59h2.38l.26-.18h2.38q.18,0,.18.18v.88l.18-.09h4.93l.18.09a.08.08,0,0,1,.09-.09c0-.06,0-.08-.09-.08l.09-.45v-.7c0-.09.17-.21.53-.35h7.49v-.44h-6.35c-.17-.06-.26-.24-.26-.53v-.09c0-.35.13-.53.26-.53h.88v-.53H712.4c0,.24-.06.35-.17.35h-6.17l-.27.18h-3.35c-.09,0-.18-.09-.26-.27a2.74,2.74,0,0,1,1.85-1.14h8.2l.35.62c.82,0,1.53.08,2.11.08.09-.23.18-.35.27-.35h1.15c1.21,0,1.89-.12,2-.35h10.23v-.18h-2.47a.6.6,0,0,1-.44-.61H710.9l-2.11.17h-.53c-.12,0-.18-.06-.18-.17v-.27c0-.1.12-.22.36-.35h12.43l.44.09v-.44q0-.18,1.05-.27a.08.08,0,0,1,.09-.09h3.27c.08.11.47.19,1.14.27a.08.08,0,0,0,.09.09h5.55l.27.17H733c.09,0,.18-.09.27-.26V240h-1l-.44-.09.09-.44v-.17h-5.12c0,.17-.06.26-.17.26h-2.56c-.12,0-.18-.06-.18-.17v-.36c0-.17.77-.26,2.29-.26h1.15v-.35H715.31c-.89,0-2.13,0-3.7-.09q0-.23-1.59-.36a6,6,0,0,0-1.67-.79c-1.71-1.48-2.56-2.81-2.56-4v-.17c0-.18.68-.27,2-.27h.26v-.26h1a.8.8,0,0,1,.09-.44h2.12V232H706a.16.16,0,0,1-.18-.18v-.7H705c0,.23-.18.35-.53.35h-1.24c-.11,0-.17-.06-.17-.18l.7-1h2.12c.13,0,.34-.51.62-1.49h-1.68c-.12,0-.17-.06-.17-.18l.26-.18h1.67l.45-.61h2.2v-.62h-1.59c-.09,0-.2-.12-.35-.35a8.94,8.94,0,0,1,2.29-.18h1.24l.26-.18h1a2.38,2.38,0,0,0,.09-.35l-.18.09h-4l-.35-.27a1.24,1.24,0,0,1,.62-1l.18.09c0-.12.07-.17.17-.17h3.26v-.09h-.17v-.09l.09-.18-.44.09h-2.91a.7.7,0,0,0-.36-.62,6.72,6.72,0,0,0,1.68-.35h2.91a1.43,1.43,0,0,1,.7.18.91.91,0,0,0,.18-.27h-4.5v-.08a10.81,10.81,0,0,1,3.35-3.27v-1.23c0-.12-.06-.18-.17-.18h-1.77a.15.15,0,0,1-.17-.17c0-.12.07-.18.17-.18H714c.12,0,.18.15.18.44h.17a28.91,28.91,0,0,1,5.2-1.85A11.63,11.63,0,0,1,721,217h25.75Q748.37,217,751.11,216.93ZM702,244.18h3.7c.09,0,.18.08.27.26v.79l-.18.27c1.09-.06,1.88-.09,2.38-.09h.88c.12,0,.18.07.18.18s-.41.2-1.24.35h-4.67c-.5,0-1.29,0-2.38.09a.15.15,0,0,1-.17.17h-1.94c-.12,0-.18-.06-.18-.17v-.36a.17.17,0,0,1,.18-.17h5.37v-.09c-.35,0-.53-.15-.53-.44s0-.35-.17-.35h-1.59a.16.16,0,0,1-.18-.18C701.73,244.35,701.82,244.26,702,244.18Zm1-4.41h2.73l.36.26h2q.18,0,.18.18l-.18.09h-4.49C703.18,240.3,703,240.12,703,239.77Zm4.67-19h1.41q.18,0,.18.18v.79a.16.16,0,0,1-.18.18h-1.67l-.18-.09C707.36,221.17,707.51,220.81,707.64,220.81Zm4.15,26.72.17.08h2.82v.18H714c-.06.71-.15,1.06-.26,1.06h-1.59l-.35-.27h-.09a.91.91,0,0,1-.27.18h-1.58c-.5,0-1.24,0-2.21.09v.09a3.83,3.83,0,0,1,1.24.08.6.6,0,0,0,.26-.08c2.6.06,4.63.08,6.08.08h5.65c.2,0,.35.33.44,1,0,.06-.31.09-.8.09v.09h2.91v-.09c-.29,0-.44-.06-.44-.17v-.53a2.37,2.37,0,0,0,.27-.88H716c-.13,0-.22-.39-.27-1.15H712A.16.16,0,0,0,711.79,247.53Zm-1.06,1.76v.18h.44v-.18Zm1.23-20v.17q0,.18.18.18a5.62,5.62,0,0,0,1.14-.09,7.76,7.76,0,0,0,1.24.09h.17l.27-.18h1.23v-.17Zm3.53-8.82H713.9v1.06h.79c.3.15.45.26.45.35v.44c0,.12-.21.18-.62.18l.09.17a.57.57,0,0,0-.09.27l.17.09h.89c.58,0,1.47,0,2.64.08,0-.23.12-.35.27-.35h2.29c0-.29.06-.44.17-.44h1v-.26h-5.73c-.11,0-.17-.06-.17-.18v-.53c0-.12.07-.17.17-.17H718l.44-.09v-.18h-1.32c-.36-.12-.53-.29-.53-.53Zm1.94,23.72-.09.44h2.12c0-.15.17-.24.52-.27v-.09l-.17-.08Zm1.94-18.52v.18h2.55v-.18Zm.53,9.61v.09h.53v-.09Zm.26,12.26V248h5.2c.41,0,.62.26.62.79a.08.08,0,0,1,.09.09.08.08,0,0,0,.09-.09l.53.09h3.52v-.09h-3.7a2.15,2.15,0,0,1-.18-1v-.09l.09-.17Zm5-12.7H721.4v.27a.16.16,0,0,0,.17.17h4.85c.09,0,.18-.09.27-.26v-.44h-.45A1.58,1.58,0,0,0,725.19,234.83Zm-3.44-16.4.09.18c1.08.06,1.88.09,2.38.09h2a6.33,6.33,0,0,1,1.41-.18v-.09Zm2.64,17.11v.17h1.33v-.17Zm1.15-6.44h1.32a.9.9,0,0,0,.62.18v.17h-2.65v-.17h.45A1.12,1.12,0,0,0,725.54,229.1Zm-.53-8.64v.09h.18v-.09Zm.71,8h13.75v.18H725.72Zm.17-7v.17h1.68v-.08h-1l-.09-.18-.18.09-.26-.18Q725.89,221.37,725.89,221.52Zm.71,28.83.09.17a.08.08,0,0,0-.09.09H727l.26-.18h1.68v-.08Zm1.58-14.46V236c0,.07.09.16.27.26h6.7c.12,0,.17-.06.17-.18v-.26Q729.73,235.89,728.18,235.89Zm7,6.87c-.06.71-.15,1.06-.27,1.06-.7,0-2,0-3.79-.09-.88.06-1.52.09-1.94.09,0,0,0,.15-.08.36h1c.08,0,.17.08.26.26v.18l-.09.17h-1.06v.09h2.91l.62-.09a.61.61,0,0,1-.09-.26c.09-.24.18-.35.27-.35h7l.35.26h.09a.72.72,0,0,1,.44-.18v-.08c0-.12-.06-.18-.17-.18h-1.41c-.12,0-.21-.35-.27-1.06a.08.08,0,0,0,.09-.09h-1.15C737.21,242.85,736.32,242.82,735.15,242.76Zm5.29-22.3v.44a.16.16,0,0,1-.18.18H733a6.05,6.05,0,0,1-1.5.35c0,.06,0,.09-.17.09v.17H735a1.28,1.28,0,0,1,.8-.26h6.08c0-.24.23-.35.7-.35V221c-.41,0-.61-.09-.61-.27h-.62a1.19,1.19,0,0,1-.79-.26Zm0-.26v.17h.17C740.61,220.25,740.56,220.2,740.44,220.2Zm2.11,30.32h4.94v.18h-.79a.08.08,0,0,1-.09-.09l-.18.09h-3.88Zm3.18-23.62h.44l.26.17h.62v.18h-3.79v-.18h2.2Zm-1.06,1.85h6a.16.16,0,0,1,.17.17l.18-.08h.62c.16.29.27.44.35.44s.35.06.35.17l-.18.09H747.4c-.06,0-.2-.18-.44-.53h-1.23c-.38,0-1,0-1.76.09v-.26h.35l.17.08C744.51,228.81,744.57,228.75,744.67,228.75Zm5.91-2.91h2.55c.12,0,.18.07.18.17-.19.65-.34,1-.44,1h-5.55v-.17l.61-.09h2.47V226C750.42,225.9,750.47,225.84,750.58,225.84Zm-1.06,19.39H751c.12,0,.17.08.17.18v.35c0,.12-.05.18-.17.18h-1.59l-.26-.18H748v-.17A7.3,7.3,0,0,0,749.52,245.23Zm-.62,4.59h1.24c.11,0,.17.09.17.26-.14.37-.29.58-.44.62h-1.32a.08.08,0,0,1-.09-.09l-.18.09h-.17v-.18h.62V250A.16.16,0,0,1,748.9,249.82ZM751,238.89l.09.17v.36c0,.11-.06.17-.18.17l-.18-.26v-.18C750.75,239.06,750.84,239,751,238.89Z"/></g></svg>