<svg xmlns="http://www.w3.org/2000/svg" viewBox="0 0 931.3 447.34"><defs><style>.cls-1{fill:#fff;}</style></defs><g id="Layer_1" data-name="Layer 1"><path class="cls-1" d="M371,76.86a14.64,14.64,0,0,1,2.53,1.64Q385,89.65,396.35,100.86c2.18,2.15,2.22,3.37,0,5.37s-4.93,3.38-8.26,2.38a4.78,4.78,0,0,0-3.3.12c-4.75,2.58-9.43,5.29-14.06,8.08-2.23,1.35-2.39,3.39-.81,5.29,5.74,6.93,11.59,13.77,17.52,20.77L404.51,131q29.36-20.4,58.67-40.84c1.8-1.27,2.91-1.15,4.63,0q36.36,25.41,72.82,50.69l2.59,1.76c6.57-7,14.21-12.91,18.84-21.57.92-1.71.62-2.74-.72-4.14-4.05-4.25-9.72-5.57-14.56-8.38-1-.61-2.75-.3-4.1-.1a9,9,0,0,1-8.33-3.14c-1.2-1.31-1.32-2.56,0-3.93q17.75-17.64,35.42-35.33c4.31-4.3,8.54-8.68,12.93-12.89,1-1,2.53-1.35,4.15-2.17,0-4.35,4.48-6.08,7.39-9a2.22,2.22,0,0,1,2.14-.1c3.06,2,6,4.29,9,6.4.82.57,1.9.77,2.71,1.34,1.86,1.29,3.67,2.64,5.42,4.08a329.7,329.7,0,0,1,48,49.37,96.07,96.07,0,0,1,5.79,9,3.34,3.34,0,0,1-.71,4.77c-1.33,1.19-2.45,2.64-3.85,3.73a40.88,40.88,0,0,1-4.64,2.72c.61,3.21-2.7,4.62-5.12,6.65a14.27,14.27,0,0,0-1.9,1.74,30.48,30.48,0,0,1-2,2.72c-13.62,13-26.58,26.74-40,40-2.46,2.42-3.81,2.45-6-.23-1.82-2.27-2.92-4.77-2-7.86a4.84,4.84,0,0,0-.09-3.3c-2.51-4.89-5.22-9.67-7.85-14.48l5.48,4.93c.64-.53,1.16-.91,1.62-1.36q10.48-10.47,21-21c3-3,2.91-5.25-.06-8.19L586,88.32c-3.1-3-5.12-3.1-8.15-.08-6.13,6.11-12.22,12.27-18.39,18.34a39.52,39.52,0,0,1-4.25,3.22l.27,1.28A18.37,18.37,0,0,1,558,112.9q17,17.1,34,34.26c-1.6.33-3.58.17-4.74,1.07-5.49,4.25-10.76,8.78-16.63,13.64l11.71,8.28-.3.82c-6.15-1.2-12.57-1.7-18.38-3.84-4.73-1.74-8.79-5.36-13.05-8.3Q509,130.06,467.51,101.17c-1.62-1.13-2.62-1-4.17,0Q417,133.1,370.58,164.86a27.56,27.56,0,0,0-2.95,2.2,34,34,0,0,1-24,9.19,39.36,39.36,0,0,1-4.81.17l21.3-14.67c-1.5-1.46-2.72-2.86-4.13-4-4.33-3.45-8.72-6.82-13.13-10.17a2.52,2.52,0,0,0-4.08.73c-1.89,3-3.74,6-5.58,9a25.92,25.92,0,0,1-2.65,3.9c2.09-3.68-.79-5.19-2.68-7.06q-11-11-22.1-21.87c-3.06-3-3.1-4.1-.3-7.35a394.7,394.7,0,0,1,41.12-40.77c3.05-2.64,4.23-2.61,7.19.31,7.86,7.74,15.72,15.46,23.46,23.31,1.74,1.78,3,2,5,.4,3-2.4,6.4-3.56,10.29-2.1,2.24.84,2.9-1,4.26-3-2.7-2.51-5.54-5-8.2-7.63C383.2,90.15,378,84.73,372.71,79.31a16,16,0,0,1-1.63-2.52ZM595.64,59.58c1.3-1.31,2.25-2.88,4.56-1,21,17,39.29,36.51,56.21,57.43a42.29,42.29,0,0,1,3.07,5.1,10.22,10.22,0,0,1,1.08-1c2.53-1.79,2.64-3.64.66-6.07-4.94-6.05-9.2-12.74-14.64-18.27-12.86-13.09-26.25-25.68-39.46-38.42a36.29,36.29,0,0,0-4-3l.82-.78,1.29-2.22-.41-.36-2.73,1.61c-1.11-.78-2.11-1.49-3.12-2.17s-2-1.36-3.07-2c-4.32-2.74-4.45-2.71-7.3,1.25l8,6.12-1.11,3.68c-2-1.44-3.89-2.94-5.89-4.32-4.13-2.86-4.77-2.7-7.2,1.32,27.37,19.91,50.4,44,71.19,70.57,3.63-2.69,3.67-2.74.72-7-1.76-2.56-3.6-5.07-5.53-7.49C637.65,98.66,624.83,86.45,612,74.26,606.69,69.21,601.1,64.46,595.64,59.58ZM375.76,110.67c-8.18-7.94-15.92-15.5-23.72-23-2.23-2.15-4.32-2-6.87.61q-17.69,17.85-35.32,35.76c-2.71,2.76-2.64,4.73.09,7.5,6.33,6.44,12.72,12.84,19,19.32a19.26,19.26,0,0,1,2.24,3.34Zm205.35-29.2c1.53,1.07,2.88,1.86,4.06,2.85C600,96.75,613.28,110.77,626,125.37c2.18,2.51,2.12,3.83-.35,6.3q-11.57,11.6-23.2,23.15c-2.9,2.89-2.91,2.9-.6,6.22,2,2.83,3.11,5.88,1.85,9.29-.69,1.84,0,3.13,1.47,3.67.73.27,2.17-.46,2.87-1.16,11-10.93,22-22,33.07-32.87,2-1.93,2.3-3.3.65-5.73-8.57-12.63-19.1-23.53-30-34.14-11.54-11.28-22.83-22.84-36.08-32.22-2.3-1.63-3.83-1.53-5.81.47-11.12,11.25-22.36,22.4-33.5,33.64-.58.58-1.13,2.23-.89,2.43,1,.81,2.47,2,3.37,1.69,3.66-1.12,6.74-.18,9.56,2,2.38,1.8,4,1.33,6-.73,7.63-7.82,15.41-15.49,23.17-23.18A35,35,0,0,1,581.11,81.47Zm-5.69-18.25A22.43,22.43,0,0,1,578,64.73c4.61,3.59,9.25,7.13,13.75,10.86,17.09,14.19,32.07,30.49,46.6,47.21,3,3.49,5.56,7.41,8.32,11.13,3.87-2.91,3.9-2.93,1-7.17-1.59-2.33-3.26-4.61-5-6.84-11-14.14-23.93-26.36-37-38.49C598.44,74.6,591.65,67.09,583,61.8,578.6,59.13,578.64,59.06,575.42,63.22ZM566.52,159c3.29-3.42,6.48-6.73,9.66-10.05a6.67,6.67,0,0,0,1.49-1.68c.73-1.8,1.8-3.66,1.82-5.51.06-6.34-7.41-12.41-13.64-11.25a7.06,7.06,0,0,0-3.53,1.59c-4.68,4.61-9.21,9.37-13.94,14.23l4.21,2.87c3.79-3.87,7.37-7.61,11-11.24,3.16-3.13,6.84-3.3,9.43-.61s2.26,6.14-.82,9.22-6.42,6.24-9.82,9.53Zm-184-12.68c-4.62-4.89-8.92-9.63-13.45-14.14a7.46,7.46,0,0,0-7.4-1.71,12.94,12.94,0,0,0-9.32,9,8.31,8.31,0,0,0,2.06,8.87c2.49,2.57,5.05,5.08,7.52,7.67,2.67,2.8,2.64,2.83,5.82.6.38-.26.72-.58,1.52-1.22-3.27-3.17-6.47-6.2-9.58-9.33s-3.42-6.68-.61-9.39c2.63-2.55,6.11-2.3,9.22.76,3.67,3.62,7.29,7.3,11,11.05ZM559.41,154c3.71-3.76,7.27-7.23,10.62-10.89.57-.64.24-2.1.33-3.17-1.07,0-2.57-.46-3.15.07-3.91,3.59-7.62,7.39-11.62,11.34C557,152.36,558.08,153.08,559.41,154ZM376,150.71c-3.93-3.91-7.58-7.68-11.42-11.25a2.91,2.91,0,0,0-2.86,0,2.84,2.84,0,0,0-.16,2.83c3.51,3.73,7.22,7.29,11,11C373.73,152.41,374.76,151.65,376,150.71Zm232.71-69-.15.14,20.79,20.48-.06.07Zm35.18,23.63.8-.65L632.25,91.53l-.53.49Z"/><path class="cls-1" d="M535.06,370.35c-1.81-.69-2-1.79-.84-3.24a9.8,9.8,0,0,1,2-2.34c3.93-2.38,3.78-6,3.06-9.73-1.4-7.25-5.08-13.33-10.17-18.57-4.52-4.67-9.16-9.23-13.73-13.85-.67-.69-1.23-1.49-2-2.45l-14.39,10c-10.37,7.21-20.77,14.36-31.06,21.67-1.83,1.29-3,1.35-4.87,0-14.41-10.13-28.91-20.13-43.39-30.18-.53-.36-1.08-.71-2-1.32-6.47,6.85-13.11,13.51-19.3,20.56a29.08,29.08,0,0,0-6.75,15.63c-.4,3.09-.17,6,2.94,7.92a11.77,11.77,0,0,1,2.57,3c.28.35.65,1.12.53,1.23-2.5,2.4-.67,6.2-3.61,8.89-8.62,7.88-16.56,16.49-25,24.6-2.56,2.48-5.81,4.1-9.71,3.05a4.64,4.64,0,0,1-2.83-7,4.27,4.27,0,0,0-2.77-6.45c-12.64-3-20.6-10.77-23.66-23.45-.84-3.48-3.63-4.66-6.74-2.92a4.17,4.17,0,0,1-5.53-.88c-1.64-1.81-2.48-3.73-1.28-6.29,4.85-10.29,14.72-16.05,21.78-24.33,2-2.36,4.39-4.4,6.58-6.61,1.29-1.3,2.55-2.56,4.66-1.68a1.48,1.48,0,0,0,1.32-.18c2.76-2.78,4.71-.37,5.94,1.41,2.66,3.86,6.17,3.84,10,3.07,7.56-1.51,13.75-5.51,19.17-10.82,3.83-3.76,7.58-7.61,11.44-11.33a4.39,4.39,0,0,1,2.61-1.16c3.57-.14,7.17-.24,10.73,0a9.51,9.51,0,0,1,4.66,1.46q23.37,15.88,46.56,32c2.55,1.79,4.16,1.92,6.78.06C484.09,329.23,499.53,318.6,515,308a10.55,10.55,0,0,1,5.18-1.6c4-.21,8.52-1.08,12,.32s5.67,5.3,8.58,8a150.25,150.25,0,0,0,11.69,10.18,26.9,26.9,0,0,0,14.67,5.34c2.63.15,5-.3,6.61-2.86a12.11,12.11,0,0,1,2.93-2.6c.35-.28,1.1-.68,1.21-.56,2.34,2.32,5.94.36,8.48,3,8.22,8.7,17,16.91,25.24,25.54,2.36,2.47,3.95,5.67,3.08,9.49-.6,2.67-4.48,4.74-7.11,3a4.21,4.21,0,0,0-6.47,2.68c-3,12.8-10.91,20.71-23.68,23.78-3.13.75-4.36,3.76-2.69,6.62a4.22,4.22,0,0,1-.82,5.54,5.74,5.74,0,0,1-6.31,1.37c-6.3-2-9.65-7.5-14.11-11.62-5-4.67-9.69-9.78-14.64-14.54-2.58-2.47-5-4.81-3.9-8.83l.95.24c1-2,1.78-3.61,2.56-5.2C537.34,367,533.18,366.7,535.06,370.35ZM340.9,339.78c.86-.32,1.74-.59,2.57-1,2.76-1.21,5.42-2.64,8.25-3.64,11.12-3.94,23,.87,28.42,7.61,8.93,11,10.62,21,3.4,34.27-.53,1-1.21,1.9-1.82,2.85l-1.13-.19c6.49-12.24,7-23.91-2.47-34.82-.65.58-1.16,1-1.61,1.46s-.95,1.09-1.46,1.69c7.19,10,8.41,20.13.48,30.38l4.93,5.26c3-2.49,5.43-4.9,8.23-6.85,3.68-2.55,3.59-5.55,2.2-9.31-4.77-12.86-1.12-23.81,8.08-33.31,4.46-4.6,9.06-9,13.59-13.57.7-.7,1.33-1.45,2-2.22-1.42-1.32-2.35-2.68-4.14-.85-6.57,6.74-13.16,13.45-19.91,20A5.73,5.73,0,0,1,386.1,339c-1.11-.25-1.84-2.17-2.74-3.34,2.81,3.43,4.37,3.56,7.65.58.42-.38.81-.79,1.21-1.19q8.37-8.42,16.72-16.84c.7-.71,1.35-1.47,2.2-2.41L405.79,312c-.55.44-1,.76-1.4,1.14-6.48,6.45-13,12.87-19.38,19.38-.8.81-1.08,2.13-1.59,3.21.47-1.49.52-3.38,1.48-4.41,4.19-4.46,8.67-8.64,13-13,2.25-2.25,4.41-4.59,6.77-7.06L401.42,309c-.82.75-1.52,1.36-2.18,2-4.08,4.05-8.06,8.2-12.22,12.15-9.45,9-20.25,12.34-32.92,7.67a20,20,0,0,0-4.35-1.17c-2.1-.27-9.59,7.54-9.64,9.88l-2.75.3c0,.28,0,.57-.05.85l6,5.49c10.39-7.95,20.47-6.61,30.33.45l3.24-2.75c-8.22-8.49-22.07-9.63-31.72-4.15C343.67,340.61,342.34,341.18,340.9,339.78Zm250.21,23.37a20.26,20.26,0,0,0-20.41-20.5c-9.67,0-18.59,8.72-18.63,18.27-.07,11.6,8.72,20.68,20.11,20.79C582.16,381.81,591.05,373.1,591.11,363.15ZM379,361.3c.09-9.63-8.62-18.54-18.24-18.65A20.36,20.36,0,0,0,340,362.78c-.07,9.82,8.62,18.81,18.32,18.94A20.18,20.18,0,0,0,379,361.3Zm173.58-16.69c-1.85,3.27-4,6.11-5.14,9.29a26.85,26.85,0,0,0,1.92,23.18,11.32,11.32,0,0,1,.71,2.72c-10.81-14.7-7.87-27.44,1.57-37.84s27.14-10.57,37.6-1.49a5.7,5.7,0,0,1-2.84-.51,28.28,28.28,0,0,0-15.22-3.54c-6.45.48-12.24,2.45-16.82,7.41.59.62,1,1.11,1.49,1.56s1,.84,1.53,1.3c10.07-7.19,20.26-8.41,30.46-.51l6-5.61c-2.85-2.74-5.73-5-7.9-7.73-2.57-3.3-5.27-3.42-8.84-2.07-13.11,5-24.16,1.14-33.75-8.32-4-3.9-8-7.77-11.76-11.82-1.83-1.95-3.07-1.57-4.44.23.07.26.06.49.17.6,6.52,6.53,13,13.08,19.61,19.53,1.61,1.57,2.36,3.24,1.41,5.29s-3,2.61-5,2.19a6.1,6.1,0,0,1-2.81-1.74c-4.28-4.24-8.46-8.59-12.73-12.85-2.71-2.7-5.51-5.31-8.29-8l-3.11,2.25a22,22,0,0,0,1.52,1.84c4.79,4.8,9.67,9.51,14.4,14.38,7.58,7.79,11.61,16.87,9.44,27.95-.53,2.76-1.71,5.39-2.25,8.15-.23,1.21-.08,3.08.69,3.82,3.37,3.23,7,6.16,10.7,9.29l4.53-5c-7.27-12.92-7.18-17.18.72-30.9Zm-31.71-29.48-.51.76q10.92,10.61,21.84,21.19c1.19,1.14,2.6,1.54,4,.28s2-2.87.94-4.52A23,23,0,0,0,543.9,329c-4.6-4.57-9.32-9-13.86-13.66-4.26-4.34-4.18-4.42-9-.49A1.17,1.17,0,0,0,520.91,315.13ZM338.24,382.2l3.53-3.31c-7.64-10.7-8.45-21.18.12-31.39l-5.31-6.06c-2.35.84-3,2.41-1.66,4.52a2.88,2.88,0,0,1,.07,3.53c-4.58,7.84-4.81,16.15-1.82,24.47C334.21,376.85,336.42,379.31,338.24,382.2ZM588,380.27c-4.78,3-9.75,5.65-15.61,5.78-6,.14-10.95-2.81-15.66-6.14-1.56,1.4-3,2.57-4.31,3.94a8.34,8.34,0,0,0-1.13,2.47c1.17.27,2.76,1.15,3.43.69,1.92-1.33,3.31-.82,5,.22a17.56,17.56,0,0,0,4.66,2c9.86,2.56,19,1.57,27-6.17Zm4.78,1.49c.45-.53.94-1.1,1.41-1.67,6.69-8.07,7.59-20.42,2.1-30.22-.81-1.44-1.14-2.49-.09-4,1.26-1.79.68-3.33-1.51-4.43l-5.55,6.08c8.77,10.41,7.65,20.81.37,31.15Zm-252.94,1.15c6,7.78,22.08,10.83,34.18,2.95,3.89,2.25,4.21,2.24,6.19-.53l-6-5.55c-10.45,8.81-20.95,7.65-31.24.36Zm262.6-21.15c2.07-1.81,4.34-3.36,5.85-5.45.33-.47-2-2.87-3.16-4.38a6.83,6.83,0,0,0-.71-.88l-6.91-6.46c-.28,2-.85,3.22-.51,4.12C598.59,352.82,600.39,356.83,602.48,361.76ZM554.91,387.6l-.47,1.32c3.42,3.36,6.83,6.73,10.29,10.05A1.32,1.32,0,0,0,566,399c1.85-2,4.39-3.53,4.48-6.34-4-1.6-7.64-3.19-11.4-4.56A18.3,18.3,0,0,0,554.91,387.6Zm-178.08,1.9-.48-1.33c-1-.26-2.17-1-3-.69-4.25,1.61-8.41,3.48-13.28,5.55,1.6,2,3.15,4,4.88,5.83.27.28,1.62,0,2.13-.49C370.41,395.48,373.61,392.47,376.83,389.5ZM334,345.57l-1.4-.45c-3.18,3.28-6.39,6.54-9.52,9.88-.34.37-.52,1.49-.28,1.71,1.94,1.73,4,3.33,5.95,4.91,1.95-4.68,3.68-8.61,5.19-12.61C334.31,348,334,346.72,334,345.57Zm-11,19.22-5.51-6C316.71,361,319,363.58,323,364.79Zm285.83-.49c.15.26.31.51.46.76,1.64-1.47,3.31-2.9,4.87-4.44.21-.21-.11-1-.19-1.45-.55.21-1.28.26-1.62.65C611.07,361.25,610,362.8,608.79,364.3Zm-251.4,34.87c.1,2.88,3.19,5.86,5.49,5.08Zm-4.53-74.65-2.67,3.28c2.75-2.45,4.31.65,6.52.93ZM568,404.44c2.73.42,5.86-2.79,5.58-5.15Zm12.12-77.89-2-1.92-3.73,4.19.32.21Zm-185,44c.24-.27,1.53-1.46,1.41-1.61a45.17,45.17,0,0,0-3.6-4l-.29.37Z"/><path class="cls-1" d="M395.63,357.77a29.86,29.86,0,0,1,5.4-13.53c1.09-1.63,2.12-.54,3.14-.05a134.82,134.82,0,0,0,37.35,11.6c29.68,4.52,58,.28,84.77-13.44l2.17-1.05c1.85,3.32,3.76,6.61,5.48,10,.27.52-.26,1.46-.44,2.2C533,355.73,532,358,532,360.2a7.55,7.55,0,0,1-1.38,4.61c-.89,1.28-1.06,3-1.63,4.56a21.65,21.65,0,0,1-1.32,2.41,49.79,49.79,0,0,0-3.63-5.36,17.78,17.78,0,0,0-4.49-3.77c-4.06-2.23-8.36-.6-9.28,3.92-.69,3.38-.13,7-.13,11l-6.78,1.95a72.92,72.92,0,0,0-4-7c-1.88-2.62-4.41-4.61-7.91-3.81s-4.88,3.73-5.51,6.87a62,62,0,0,0-.56,7.35l-7.22.9a69.64,69.64,0,0,0-2.62-7c-1.44-2.87-3.54-5.36-7.1-5.23s-5.59,2.88-6.75,6a58.58,58.58,0,0,0-1.72,6.8l-7.36-.44a35.42,35.42,0,0,0-.67-4.16,22.54,22.54,0,0,0-1.91-5.27c-2.74-4.7-7.74-5.14-11.13-.83-1.75,2.24-2.82,5-4.43,8l-6.67-1.36c-.22-2.55-.24-5-.69-7.36-.59-3.08-2-5.84-5.38-6.59s-5.85,1-7.83,3.47c-1.3,1.59-2.3,3.42-3.62,5.42L404.17,373c-.19-3.66.05-7.07-.63-10.27C402.75,359,399.77,357.54,395.63,357.77Zm12,.26c.58,2.94,2.18,4.18,4.61,4.13s4-1.31,4.4-4.13Zm109.57-3.2c.85,2.94,2.46,4.25,4.89,4.11,2.22-.14,3.72-1.41,4.24-4.11Zm-55.82,11.46c.88,2.75,2.37,4.15,4.84,4,2.25-.13,3.67-1.42,4.19-4Zm64.79-13.22c-1-2.51-2.59-3.42-4.77-3.25a4,4,0,0,0-3.83,3.25ZM470.36,364.6c-1.33-2.62-2.95-3.64-5.22-3.21-1.66.31-3.1,1.1-3.12,3.21Zm-62.62-8.52h8.73C413.9,351.76,410.21,351.8,407.74,356.08Z"/><path class="cls-1" d="M537.61,76.05l5.31,2.86L523.63,98.77c-.19-.08-1-.34-1.71-.67q-55.77-25.21-112.41-2c-2.28.93-3.49.81-5.19-1.09-3.69-4.15-7.81-7.91-11.64-11.93-1.59-1.67-2.88-3.61-4.64-5.84l6.77-3.49A36.94,36.94,0,0,0,398,78.54a20.89,20.89,0,0,0,4.88,4.18c4,2.29,7.93.71,9.54-3.64,1.48-4,.76-8-.61-12.3l7.23-2.31a36.4,36.4,0,0,0,1.66,4.37,23.65,23.65,0,0,0,3.22,4.93c4.66,5.09,10.41,3.72,12.44-2.91a20.11,20.11,0,0,0,.76-5,51.83,51.83,0,0,0-.4-5.35l7.55-1.2a38.13,38.13,0,0,0,1.23,5.38,23.9,23.9,0,0,0,3,6c3.32,4.34,8.39,4.07,11.08-.72,1.33-2.38,1.79-5.28,2.47-8a16.14,16.14,0,0,0,0-3.57h7.61a106.13,106.13,0,0,0,1.92,10.44c.84,2.92,2.83,5.28,6.12,5.54s5.64-1.75,7-4.44a98.78,98.78,0,0,0,3.74-9.82l6.87,1.18A101.59,101.59,0,0,0,495.47,72c.33,3.09,1.85,5.82,5.18,6.76s6-.84,7.82-3.32c2-2.76,3.39-6,5.21-9.28l6.64,2.31a100.2,100.2,0,0,0-1.75,10.39c-.21,3.32.83,6.52,4.24,7.94s6.25,0,8.45-2.39A95.82,95.82,0,0,0,537.61,76.05ZM415.5,82.83h9.24c-.48-2.58-1.92-3.93-4.15-4.12C418.08,78.5,416.35,79.75,415.5,82.83Zm98.71,1.78c-.37-2.8-1.9-4-4.34-4.07S506,82,505.8,84.61Zm-52.77-9h8.88c-.55-2.66-2-3.88-4.34-3.93S462.15,72.84,461.44,75.58ZM505.6,86.4c.92,2.42,2.59,3.55,4.67,3.12,1.46-.29,2.73-1.55,4.08-2.37-.15-.25-.3-.5-.46-.75Zm-80.9-.93-.48-.73h-8.49c1.1,2.51,2.79,3.61,4.86,3.16C422.06,87.58,423.34,86.32,424.7,85.47Zm37-8a4.06,4.06,0,0,0,4.28,3.2,3.7,3.7,0,0,0,3.94-3.2Z"/><path class="cls-1" d="M371.08,76.79c-1.32-1-2.74-1.84-3.95-2.94a72,72,0,0,1-5.82-5.77C359.49,66,358,66.49,356,67.83c-11.66,7.82-21.62,17.58-31.54,27.39A366.94,366.94,0,0,0,290,133.75c-2.45,3.22-2.44,3.48.38,6.35,6.86,7,13.71,14,20.15,21.47-1.38-1.16-2.84-2.23-4.12-3.49-6.08-5.91-12.11-11.88-18.14-17.83-4.34-4.28-8.73-8.52-13-12.89a23.7,23.7,0,0,1-2.65-4.26,42.37,42.37,0,0,1-3.95-2.27,21.89,21.89,0,0,1-2.63-2.56c-3.3-3.28-3.65-4.59-.91-8.26,5.3-7.08,10.69-14.1,16.4-20.85,3.38-4,7.69-7.2,11.14-11.15a224.6,224.6,0,0,1,31.54-29.42c3-2.3,6.3-4.11,9.47-6.13a3.46,3.46,0,0,1,5,.71c1.18,1.34,2.65,2.44,3.73,3.85A37.9,37.9,0,0,1,345,51.69c3.29-.66,4.69,2.66,6.66,5.16A20.08,20.08,0,0,0,353,58.48c1.75,1.76,3.52,3.49,5.3,5.22.52.5,1.12.91,1.62,1.42Q365.45,71,371,76.86Zm-61.95,6.32c-.72,1-1.39,2-2.19,2.88-10,11.49-20.13,22.9-30,34.48-3,3.53-2.53,4.79,1.52,6.89a16.78,16.78,0,0,1,1.32-2.44c3.63-4.69,6.94-9.71,11.05-13.94Q310,91.21,329.7,72c4.91-4.77,10.5-8.86,15.86-13.15a21.1,21.1,0,0,1,4-2,15.14,15.14,0,0,1-1.19-1.32c-1.73-2.33-3.53-2.62-5.87-.69-2.76,2.28-5.87,4.12-8.57,6.45-7.61,6.6-15.09,13.35-22.62,20q4.68-4.85,9.37-9.7l2.71-2.78-.74-.67L299,91.42l.6.61Zm-34.28,23.75-1.8-4-1,.54c-.53,2.1.92,2.92,2.84,3.42-1.58,2.33-3.2,4.65-4.74,7-2.78,4.26-2.73,4.42,1.42,7.39.66-1.09,1.25-2.24,2-3.28,9.47-13.35,20.75-25.1,32.61-36.28,10.26-9.67,20.91-18.94,31.47-28.29,1.46-1.29,3.41-2,5.09-3-3.46-4.18-3.49-4.21-8-1.12A181.88,181.88,0,0,0,307.21,73C296.32,84.15,285.63,95.55,274.85,106.86Zm9.87,27.35c9.37-14.36,21-26.58,33.12-38.27s23.82-23.7,38.08-32.8c-3.23-4.09-3.26-4.13-7.59-1.14a201.86,201.86,0,0,0-33,29.11c-10.76,11.6-21.16,23.53-31.47,35.52C280.53,130.51,280.89,130.82,284.72,134.21Zm46.77-60-.79-.8-28.58,28.41.45.45Zm-17.74,30.06h0L327.18,90.5l.1.1Zm14.83-15.49.55.58,7.08-6.69-.55-.57Z"/><path class="cls-1" d="M418.28,170.3a181.91,181.91,0,0,1,37-12c19.93-4.2,39.58-2.28,59.05,2.52,16.81,4.15,33.36,9.39,50.25,13.17a213.88,213.88,0,0,0,61.79,4.24c.65,0,1.3,0,2.23,0a8.63,8.63,0,0,1-1.08,2c-3.17,3.22-3.33,6.78-1.69,10.8a49.19,49.19,0,0,1,1.67,6.47c-11.89-9.62-26.14-10.79-40.22-11.43-23.33-1.06-46.7-1.26-70.06-1.82a12.74,12.74,0,0,1-4-.46l35.42-4V179C506.38,159.55,463,156.33,418.28,170.3Z"/><path class="cls-1" d="M385.7,278.61v18c-5.62,1-11.06,1.82-16.4,3.08a10.46,10.46,0,0,0-4.71,3.15,17.25,17.25,0,0,1-11.83,5.35c-5.18.37-10.45-.32-15.67-.71-1-.07-1.88-.91-3.63-1.83,1.84-.69,2.8-1.16,3.81-1.42,3.18-.83,6.41-1.48,9.56-2.39,6.74-2,9.6-7.29,7.63-14-.64-2.16-1.29-4.31-2-6.44a5.41,5.41,0,0,0-6.2-3.3c-4.09,1-8.08,2.48-12.1,3.76a14,14,0,0,1-5,.89,21.86,21.86,0,0,1,1.59-2.69,28.52,28.52,0,0,1,16-10.42c5.69-1.42,10.48.2,14.74,4.25,1.53,1.45,3.85,2.09,5.86,3,.26.12.83-.47,1.43-.84C373.62,279.74,379.73,277.73,385.7,278.61Z"/><path class="cls-1" d="M593.91,283.23c-1.31-.39-2.63-.76-3.93-1.18-4-1.28-8-2.74-12.09-3.83a6.2,6.2,0,0,0-7.52,4.31,55.56,55.56,0,0,0-1.66,7.68c-.78,5.46,1.82,9.68,7,11.32,3.4,1.06,6.92,1.75,10.37,2.65,1,.27,2,.66,3.67,1.19-1,.84-1.47,1.5-2.07,1.68-9.09,2.62-18,2.68-26.42-2.29a4.56,4.56,0,0,1-1.52-1.25c-3.15-4.64-8.31-4.63-13-5.61a4.08,4.08,0,0,0-2.56.77c-1.6,1-3.1,2.11-5,3.43V278.52c1,0,2.08-.06,3.16-.15,4-.34,8.06-.57,12.06-1.1a13.84,13.84,0,0,0,8.89-4.37,11.84,11.84,0,0,1,10.29-3.7c9.1,1,15.82,5.72,20.75,13.12Z"/><path class="cls-1" d="M295.24,195.48c7-2.38,13.9-5.06,21-7.08,26.45-7.5,53.26-8.66,80.58-5.54,19.06,2.18,38.32,2.51,57.5,3.65a11.46,11.46,0,0,1,4.24.64c-7.06.32-14.13,1.11-21.16.86q-29.36-1-58.67-2.76c-24.7-1.44-48.85,1.71-72.64,8.14-3.52,1-7,2.06-10.51,3.09C295.47,196.14,295.36,195.81,295.24,195.48Z"/><path class="cls-1" d="M388.83,103.23c-2.79,1.35-5.36,2.4-7.72,3.79-1.7,1-2.41-.1-3.32-1q-11.18-11.16-22.34-22.35c-4.09-4.09-6.26-4.2-10.77-.34L342,80.74c4.14-3.36,8.12-6.57,12.08-9.81,1.52-1.24,2.38-.08,3.31.84q10.85,10.89,21.71,21.78C382.36,96.86,385.71,100.14,388.83,103.23Z"/><path class="cls-1" d="M324.9,166.33,292,133.28l10.45-13.11,2.83,2.66c-.53.69-.78,1.08-1.09,1.42-3.27,3.68-3.25,5.61.26,9.13,7.43,7.47,14.84,15,22.4,22.29,2,1.94,2.43,3.41.6,5.7C326.22,162.85,325.64,164.81,324.9,166.33Z"/><path class="cls-1" d="M317.89,294.56l-3.32-6.87c10.92-7.47,8.88-14.41,1.43-16.81h18.11a36.89,36.89,0,0,0-3.37,3.12c-1.69,2-3.62,3.94-4.71,6.26-.68,1.42-.61,4,.28,5.11s3.33,1.82,4.92,1.57c3.13-.48,6.12-1.83,9.21-2.62a2.83,2.83,0,0,1,2.45.72c2.2,3.5,4.18,7.12,6.4,11-5.11,3.19-11.12,3.15-16.51,5.12C332.16,293.59,327.92,291.67,317.89,294.56Z"/><path class="cls-1" d="M446.65,291.27c0,3.08-.09,6.17,0,9.25.07,1.93-1,2.21-2.46,2.09s-3.26.65-3.24-1.87c.08-8.37.11-16.74.33-25.1,0-.66,1.31-1.8,2.06-1.83,3.66-.17,7.33-.14,11,0,3.28.15,5.39,2,5.81,5.1a29.68,29.68,0,0,1,.09,6.46c-.27,3-2.35,4.55-5.17,5.49,2.11,3.81,4.14,7.48,6.19,11.2-4.75,1.36-5.91.95-8.18-2.8-1.32-2.17-2.57-4.37-3.91-6.53a16.67,16.67,0,0,0-1.59-1.9Zm.15-6.2c1.77,0,3.17-.08,4.56,0,2.28.16,3.47-.53,3.5-3.1s-1.27-3.24-3.49-3.16c-1.47.05-2.94,0-4.57,0Z"/><path class="cls-1" d="M504.31,291.18l-3.74-.46v-5.51H510c0,4.09,0,8.09,0,12.1a3.19,3.19,0,0,1-.43,1.34c-3,5.79-8.41,3.85-13.07,3.76-3.54-.08-5.76-2.38-5.88-6.05a165.32,165.32,0,0,1,.23-16.66c.26-4,2.5-5.73,6.58-5.9,2-.08,4-.09,5.94,0,4.45.19,6.35,2.17,6.59,7-2.16-.23-4.19.92-6.41-1.23-1.12-1.09-4.1-.61-6.13-.23-.58.11-1,2.37-1.05,3.65-.1,3.68.13,7.35.06,11-.05,2.21.83,3.15,3,2.95a6.13,6.13,0,0,1,1.42,0c2.77.37,3.83-.91,3.54-3.58C504.25,292.72,504.31,292.07,504.31,291.18Z"/><path class="cls-1" d="M410.87,285.24c0,3.83.23,7.41-.05,10.95-.33,4.12-2.5,6.07-6.59,6.31a49.35,49.35,0,0,1-6.77-.06c-3.62-.29-5.87-2.3-6-5.91-.21-5.73-.16-11.49.1-17.22.16-3.35,2.36-5.28,5.71-5.51a56.18,56.18,0,0,1,7.34,0c4,.25,5.89,2.42,5.93,6.89-2.18.05-4.11.8-6.34-1.15-1.21-1.07-4.13-.54-6.16-.12-.57.12-.93,2.4-1,3.7-.11,3.67.05,7.34,0,11,0,2.06.84,3,2.87,2.84a8.77,8.77,0,0,1,1.7,0c2.8.34,3.77-1,3.42-3.63a18.78,18.78,0,0,1,0-2.14l-3.79-.42v-5.53Z"/><path class="cls-1" d="M436.53,302.22c-4.95,1-5.13.95-6.49-3.48-.44-1.42-1-2.1-2.54-1.93a8.55,8.55,0,0,1-2.26,0c-2.9-.48-4.46.53-5,3.59-.71,3.94-3.78,1.6-6.43,2.35,1.81-6.73,3.45-12.87,5.12-19,.59-2.18,1.46-4.3,1.84-6.51.51-3,2.14-3.66,4.93-3.6,2.34.05,3.56.66,4.18,3,2.06,7.92,4.31,15.79,6.46,23.69A10.93,10.93,0,0,1,436.53,302.22ZM425.77,283l-.7-.09c-.65,2.55-1.31,5.1-2,7.88h4.71C427.05,288,426.41,285.47,425.77,283Z"/><path class="cls-1" d="M487.66,302.28c-5.52.87-5.45.84-7.18-3.72a3.5,3.5,0,0,0-2.32-1.66,34.75,34.75,0,0,0-4.22-.09c-1.46-.1-2.12.43-2.56,1.89-1.29,4.34-1.37,4.32-6.72,3.64.65-2.72,1.22-5.43,1.95-8.1,1.68-6.07,3.49-12.1,5.15-18.17.53-2,1.71-2.53,3.54-2.33s4-.77,4.83,2.08C482.57,284.59,485.11,293.33,487.66,302.28Zm-11.37-19.57h-.6l-2.05,8.05h4.71C477.61,287.88,477,285.29,476.29,282.71Z"/><path class="cls-1" d="M373,192.9c7.42.39,14.85.74,22.28,1.19,33.64,2.07,67.22,1.18,100.81-1.5,19.09-1.52,38.23-.81,57.32.71,3.44.28,6.88.55,10.31.65-10.17,0-20.34-.28-30.5.06-18.44.64-36.87,1.9-55.32,2.42-16.28.46-32.59.59-48.87.25-14.4-.31-28.78-1.43-43.17-2.29-4.31-.25-8.61-.81-12.92-1.23Z"/><path class="cls-1" d="M532.94,278.89H521.57V285h9.73v6h-9.55v5.91H533.2v5.62H515.74c0-3.81,0-7.45,0-11.1,0-5,.24-10,.18-15,0-2.31.86-2.88,3-2.76,3.29.18,6.59.05,9.89.05C533.39,273.7,533.42,273.74,532.94,278.89ZM531.8,275v-.44h-10V275Z"/><path class="cls-1" d="M346.52,321.38c-.26-9.11-8.11-9.38-15.57-5.26l-4.47-6.46,3.74-2.86c1.1,3.59,4.57,4.69,8.09,5.27,7.07,1.16,14.18,2.16,21.18-.6a2.47,2.47,0,0,1,2.12.53c3.63,3.67,7.18,7.43,11.4,11.85-3.55.83-6.64,1.68-9.78,2.19-.75.13-1.79-.74-2.52-1.36-1.42-1.21-2.68-2.62-4.09-3.86-2-1.78-4.19-1.7-6.53-.46A18.36,18.36,0,0,1,346.52,321.38Z"/><path class="cls-1" d="M586.33,286l10.12,1.75c1.41,5,5.71,8,10.82,10.49l-3.47,6.05-17.47-4.86Z"/><path class="cls-1" d="M555.15,322.47c3.67-3.65,6.57-6.58,9.56-9.42a2.86,2.86,0,0,1,2-.6c5.4.34,10.79.76,15.72,1.13-.34,1.45-.83,3.61-1.37,6-5.2-1-8.54,1.44-11.27,5.49-.52.77-2.45,1.16-3.52.9C562.75,325.07,559.34,323.82,555.15,322.47Z"/><path class="cls-1" d="M590.78,271c9.21.14,18.4-2.09,26.71,3.9-.75,2-1.63,4.39-2.58,7-5.39-2.05-10.69-3.53-15.86-.58Z"/><path class="cls-1" d="M329.52,162.82c.65,4.24,1.81,8.33-1.68,11.85-2,2.06-3.13,2.13-5.14.09q-4.54-4.63-9-9.33a18.77,18.77,0,0,1-1.5-2l.57-.48c3.49,3.36,6.92,6.77,10.51,10,.78.72,2.3,1.43,3.11,1.13,1.46-.54,2-1.9,1.44-3.73C326.84,166.94,327.42,164.86,329.52,162.82Z"/><path class="cls-1" d="M586.64,314.76l6.45,5.17-3.31,4.22C584.69,320.65,584.57,320.33,586.64,314.76Z"/><path class="cls-1" d="M456.79,147.8H474l.28.5a8.4,8.4,0,0,1-2.52,1.2C463.82,150.24,458.18,149.7,456.79,147.8Z"/><path class="cls-1" d="M465.64,138.15c1.6,0,3.21-.08,4.8,0,.46,0,.88.66,1.32,1-.41.29-.82.84-1.24.85q-5.08.09-10.17,0c-.4,0-.79-.59-1.18-.91.46-.32.9-.91,1.38-.94C462.24,138.07,463.94,138.15,465.64,138.15Z"/><path class="cls-1" d="M577.2,297l4.19-5.65.76.5c0,.91-.11,1.82-.15,2.73C581.83,298.81,581.64,298.92,577.2,297Z"/><path class="cls-1" d="M337.18,90.5l-2.75-2.88,4.21-3.71,2.54,2.42Z"/><path class="cls-1" d="M308.32,120.07l-2.7-2.94,3.54-4.19,3.5,2.73Z"/><path class="cls-1" d="M470.06,130.93c-2.6,0-5.21,0-7.8,0-.48,0-.94-.6-1.4-.92.46-.33.91-.92,1.39-.94a50.93,50.93,0,0,1,6.42,0c.61,0,1.15.88,1.73,1.35Z"/><path class="cls-1" d="M460.72,314.58c8.28-.44,8.28-.44,8.77,2C466.61,315.7,463.19,318.21,460.72,314.58Z"/><path class="cls-1" d="M470.86,307.06h-12v-.4H471Z"/><path class="cls-1" d="M463.24,120.75c1.66-1.75,2.59-1.78,5.21.55l-5.12.38Z"/><path class="cls-1" d="M463.65,324.53a14.68,14.68,0,0,1,2.69-.84c.25,0,.62.81.94,1.25l-3.08,1C464,325.48,463.83,325,463.65,324.53Z"/><path class="cls-1" d="M567.44,194.43l11,.81,0,.37-11-.84Z"/><path class="cls-1" d="M588,105.9c9.57-.16,15.77,7.45,16,16.15a10.17,10.17,0,0,1-11.64,10.4c-9.88-1.09-16-8.88-14.77-18.68C578.16,109,582.42,105.8,588,105.9Zm1,22.66c-6.46-2.24-9.05-7.14-8.8-14.23-1.88,3-1,7.06,1.89,10.64,3.54,4.41,7.91,6.37,11.64,5l-2.13-.87c1-.05,1.89,0,2.8-.17,5.17-.73,8.71-6.19,6.75-10.9a15.79,15.79,0,0,0-11-9.73,7.65,7.65,0,0,0-9.42,7.45C580.59,121.85,584.15,125.59,589,128.56Z"/><path class="cls-1" d="M588.66,134.21c9.91,3.7,18.89-2.42,18.89-12.88,0-11.85-12.68-21.82-23.66-18.64-5.34,1.55-8.34,5.18-9.53,10.82-.66-5.58,4.3-11.21,10.34-12.14,13.29-2.05,25.41,9.65,23.82,23-1.09,9.17-10.43,13.81-18.93,10.78-.38-.14-.62-.64-.92-1Z"/><path class="cls-1" d="M588.67,134.21a8.34,8.34,0,0,1-2.19-.12c-6.56-2.09-12.29-10-12.36-17.48,2,8.63,6.17,14.93,14.54,17.6Z"/><path class="cls-1" d="M354.23,117.21c0,7.78-9.21,16.12-16.92,15.36a11.07,11.07,0,0,1-10-12.2c.54-6.85,7.55-14,14.4-14.68C349.17,105,354.25,109.63,354.23,117.21Zm-7.73,9.18c1.16-2.37,3.09-5.13,3.88-8.19,1.64-6.42-4.21-11.54-10.55-9.49a13.82,13.82,0,0,0-8.42,7.07c-3.64,7.18.25,13.45,8.51,13.29l-3.59.46c3,1.8,7.34,1,10.36-1.58,4.1-3.53,6.23-8.66,4.67-12.41C351.5,120.66,349.45,124.15,346.5,126.39Z"/><path class="cls-1" d="M329.67,107.39a22.58,22.58,0,0,0-5.62,15.06c0,7.34,4.9,12.39,12.28,12.67,3.84.15,5.19-.24,12.69-3.69-5.78,6-16.77,6.37-22.3.65C320.32,125.47,321.61,114.09,329.67,107.39Z"/><path class="cls-1" d="M353.78,104.65a5.76,5.76,0,0,1-1.86-.29c-5.23-2.91-10.57-2.72-16-.72a9.75,9.75,0,0,1-1.26.29c4.08-3.78,12.21-3.93,17.05-.52.66.46,1.38.83,2.08,1.24Z"/><path class="cls-1" d="M353.78,104.65a7.86,7.86,0,0,0,.7,1.46c4.34,5.59,4.59,12.2.42,18.21.42-1.33.93-2.64,1.24-4,1.09-4.74.83-9.32-1.77-13.6a8.2,8.2,0,0,1-.59-2.08Z"/><path class="cls-1" d="M606.51,167.22c-1.38-2.87-2.43-5.45-3.82-7.81-1-1.7.09-2.41,1-3.31q11.25-11.29,22.53-22.55c3.94-3.94,4-6.11.21-10.49l2.72-2.65c3.1,3.85,6.12,7.66,9.21,11.42.85,1,1.45,1.93.25,3.14C627.85,145.74,617.13,156.54,606.51,167.22Z"/><path class="cls-1" d="M543.4,103.24q16.14-16.18,33-33l13.06,10.42c-.92,1-1.72,1.83-2.46,2.63-.34-.08-.56-.06-.68-.16-5.29-4.22-6.18-4.18-11,.64C568,91,560.71,98.21,553.53,105.55c-1.66,1.7-2.9,1.81-4.81.44A36.61,36.61,0,0,0,543.4,103.24Z"/><path class="cls-1" d="M623.53,118.81l-4.55-3,3.25-2.93,3.59,4.07Z"/><path class="cls-1" d="M589.7,86.58l2.89-2.69,4.21,3.57c-.88,1.08-1.58,2-2.77,3.4Z"/><path class="cls-1" d="M193,216.76h1.67a1,1,0,0,1,.27.17h7.32l.17.09c-.36.77-.6,1.15-.7,1.15H200a10.58,10.58,0,0,1-1.05,3c0,.11-.06.17-.18.17a.08.08,0,0,0,.09.09,9.19,9.19,0,0,1-1.77,4c-.05,0-.08,0-.08.09h.17v.17a4.39,4.39,0,0,0-1.14.44h-.88c-1.74-.12-2.68-.17-2.83-.17H177.4c-.07,0-.16-.09-.26-.27v-.26h.18v-.09H175l-.35.62H167.8a.67.67,0,0,1-.09.26l.26.18h.79a2.58,2.58,0,0,0,.45.35h1c0-.24.12-.35.27-.35h1.32c.12,0,.18.09.18.17a12.53,12.53,0,0,0-1.24,3c0,.12-.06.18-.17.18h-6.88c-.12,0-.18.09-.18.17v.27h2.65l.35-.27h3.79a1.63,1.63,0,0,1,1.06.27h3.17c.12,0,.18.09.18.17l-.09.18h2.21l-.09-.18v-.08q1-.09,1.5-.09h11.19c.47,0,.71.12.71.35h1.41c.12,0,.17.09.17.18s-.11.22-.35.35h-.88c-.1,0-.25.35-.44,1.06a4.14,4.14,0,0,0-.71,2.2v.35c0,.09-.17.33-.52.71v.18h.88a.93.93,0,0,0,.26-.18h1.68l.17.09a12.1,12.1,0,0,1-1.41,2.29h-2.64c-.11.47-.34.71-.71.71h-.17c-.72,0-1.61,0-2.65-.09a6.37,6.37,0,0,1-1.23.35h-1.24a6.51,6.51,0,0,0-1.58-.35H168.32c-.11,0-.17-.06-.17-.18v-.09l.09-.17h-2l-.18-.09V238c0,.12.35.21,1.06.27v.09c-.34.64-.54,1-.62,1h-.79a.54.54,0,0,1-.09.26l.18.09h8.11v-.44c0-.12.35-.21,1.06-.27a.07.07,0,0,1,.08-.08h3a3.85,3.85,0,0,1,1.59.44h4.23c.5,0,1.29,0,2.38.09l.18.35c-.53.07-.8.16-.8.26v1H189v.18H181.2c-.12,0-.18-.12-.18-.35h-2.56a.59.59,0,0,1-.44-.62H163.83v.09l.44.09h1.67c.12,0,.18.08.18.17a2.66,2.66,0,0,0-.44,1.06l.62.09h.7v.17h-1.5a1.25,1.25,0,0,1-.35.88q-6.87-.07-10.76-.08h-2.82a2.55,2.55,0,0,0-.88-.36.8.8,0,0,1,.44-.7l-.09-.18a8.62,8.62,0,0,0,.36-1h-4.23l-.18-.08c.06-.59.15-.89.26-.89h4.23c.36,0,.59-.32.71-1h.09l-.09-.17v-.09c.12,0,.32-.44.62-1.32a.08.08,0,0,0,.09-.09v-.09h-.62c0,.35-.09.53-.27.53h-3.08c-.35-.19-.53-.4-.53-.62a5,5,0,0,1,1.06-1.41h2.2q.18,0,.18.18v1.06H153l1.5-3.62c-.54,0-.86-.06-1-.18-1-.05-1.75-.08-2.29-.08a.24.24,0,0,0-.26-.27v-.17c0-.09.11-.21.35-.36h1.23c.5,0,1.3,0,2.38-.09.21-.58.36-.88.44-.88h1.24q1.36,0,4.41.09l.09-.18v-.08c0-.08-.09-.16-.27-.27h-5.2l-.18-.09.88-2.11h-3l-.18-.09a4.42,4.42,0,0,1,.88-1.76h3l2.64-6.7a2.76,2.76,0,0,0,.62-1.24,3.66,3.66,0,0,1,2.65-1.32c0-.12.08-.18.17-.18h3.35c.3,0,.44.08.44.18l.44-.09h2.3c1.45,0,2.48,0,3.08-.09q.47,0,1.5.09,8.73-.09,14.11-.09h4.4Zm-41.44,26.18H165l.18.09c-.72,2.17-1.19,3.26-1.41,3.26h-1.32v.09a1,1,0,0,1,.17.44l-.26.18h-.09l-.18-.09c0,.12-.05.18-.17.18h-4.5l-.17-.09v.35h5.46c.5,0,1.29,0,2.38.09v.09c0,.08-.09.17-.26.26h-1.59a.69.69,0,0,1,.09.27q-.81,2.44-1.68,2.82a3.78,3.78,0,0,1-2.38.52h-5.55a.91.91,0,0,1-.27.18h-4.58a2,2,0,0,1-1-.7v-.8a21.22,21.22,0,0,1,.88-2.38l-1.32-.26a1.11,1.11,0,0,1,.53-1H149a23.71,23.71,0,0,0,1.41-3.35A3.77,3.77,0,0,0,151.57,242.94Zm4.5-16V228h.18a4.44,4.44,0,0,0,.7-1.23l-.18-.09h-.52Q156.07,226.77,156.07,226.9ZM156.6,240v.09h3.7V240ZM158,248v.09c0,.08.09.17.26.26h1v-.26h-1.06Zm.17-16.31v.08h1.06v-.08Zm5.12,0v.26h3.79v-.26a.16.16,0,0,0-.18-.18h-3.44C163.36,231.51,163.3,231.57,163.3,231.66ZM164.8,246h2.55v.17h-.7a7.82,7.82,0,0,0-.27,1.06H164.8c-.12,0-.18-.06-.18-.17v-.89C164.65,246.09,164.71,246,164.8,246Zm.35-19v.09a.54.54,0,0,1,.26.09v-.18Zm.62,7.58v.09H166v-.09Zm2.47-14v.08h4.84v-.08Zm.61,17v.18h.27v-.18Zm.18,4.59h8.9c.09,0,.18.08.27.26v.71c.29,0,.44,0,.44.17v.09h-.44a1.22,1.22,0,0,1-.8.26h-2.73l-.44-.08v-.18h.44a.67.67,0,0,1,.35-.18v-.88h-6Zm1-23.19v.18c0,.11.09.17.18.17h4.76a.73.73,0,0,0,.7,0H177a.66.66,0,0,1,.09-.26h1.85v-.09Zm8.2,8.46h1.23l.27.18h.44v.18H177.4v-.18h.53Zm-.71,5.82v.44h5.38c.19.08.37.37.53.88h4.23v-.08h-3.79a.91.91,0,0,1-.18-.27v-.09l.09-.61a.08.08,0,0,1-.09-.09.16.16,0,0,0,.18-.18Zm.88-6.43H192c.12,0,.18.08.18.17l-.18.09H178.37Zm.71-5.65v.36h4v-.27Zm.62,20.28h1.67q.13,0,.27.27l-.18.08H179.7l-.44-.08v-.18Zm-.27-16.4v.09h6v-.09Zm12.26-7.4c0,.29-.18.44-.53.44a2.75,2.75,0,0,0-.71.53h-6.87a.79.79,0,0,0,.17.26c-.12,0-.17.09-.17.18h.08q7.23.09,9.17.09V218q0-.18.27-.18v-.08Zm-3.79,4.05h-2.12l-.18-.09v.18q0,.18.18.18h6.52l.44-.09v-.18a.15.15,0,0,0-.17-.17H191Z"/><path class="cls-1" d="M231.62,222.49H235a6.53,6.53,0,0,1,.62,2.2.08.08,0,0,1,.09.09v.53h.71l.44-.09c0,.18.32.27,1,.27h2.64c.1,0,.22.11.35.35v1.59a.15.15,0,0,1-.17.17h-1a6.51,6.51,0,0,0-.71.18h-2.82v.35a6.79,6.79,0,0,1,.44,2.2l.18.09h2.47v.18l-.45.09h-2.11q.09,1,.09,1.5v.08c.16.36.28.53.35.53h3.61v.27h-3.61l-.18-.09v.09q.14,1.23.36,1.23h.53v.18h-.53c-.12,0-.18.07-.18.17l.18.27v.62h3.35a.16.16,0,0,1,.17.17v2c0,.12-.06.18-.17.18h-2.74a.16.16,0,0,0-.17.17,3.78,3.78,0,0,1,.35,1.24h.09l-.09.44v.17a4.84,4.84,0,0,1,.35,1.41c.06,0,.09.24.09.71l.18-.09h1.94c.11,0,.17.08.17.18v.26c0,.12-.06.18-.17.18H238v.88c0,.12-.35.21-1.06.26,0,.12-.06.18-.17.18h-4.32l.09.18-.18.26h3.44c.17,0,.26.27.26.71v.17h.09l.27-.17h2.55c.18,0,.41.82.71,2.47-.06,0-.09,0-.09.08l-.18-.08H226.25c-.3,0-.47-.09-.53-.27v-.7H224a.8.8,0,0,0-.26-.18H213.55a1.54,1.54,0,0,1-.7.62h-4l-.18-.09-.09.18v.08q.18,0,.18.09c.88-.06,1.53-.09,1.94-.09h11.55c.35,0,.53.12.53.27v.35a.16.16,0,0,1-.18.18H208.26q-.76,0-1.41,1.05c-.18.24-.35.36-.53.36v.09h10.93c0-.21.24-.36.71-.45,0-.11.09-.17.18-.17h1.93c.12,0,.18.07.18.17v.71h7c.11,0,.17-.06.17-.18v-.17c0-.09-.09-.18-.26-.27h-3v-.26l-.09-.44a.56.56,0,0,0,.35-.18h4.77a1.24,1.24,0,0,0,.79.27h.7c2.27,0,4.35,0,6.26-.09.81.06,1.69.09,2.65.09.16,0,.34.2.53.61v.44a3.19,3.19,0,0,1-1.24,1.68,1,1,0,0,0-.53.26c-.26,0-.91,0-1.93.09a3.09,3.09,0,0,1-.8-.09c-.78.06-1.45.09-2,.09q-1.41,0-5.73-.09a.93.93,0,0,1-.17-.61h-1.41c-.18,0-.27-.18-.27-.53h-1.85c-.35,0-.53-.12-.53-.36q-8.55-.08-13.22-.08h-4.15c-.35,0-.53.11-.53.26V251q0,.18.18.18h1.32c.12,0,.18.07.18.18H204l-.27.17h-5.29l-.35-.26h-1.76v.26c-.79.06-1.38.09-1.76.09h-3.71c-1,0-1.58-.29-1.58-.88v-.27a8.76,8.76,0,0,1,1.85-2.64h.09q1.51,0,7.31.09c0-.12-.06-.18-.17-.18H195a1,1,0,0,0-.27-.17h-3.17v-.09l1.5-1.68c0-.12-.06-.17-.18-.17l-.26.17h-.27c-.88-.13-1.32-.25-1.32-.35v-.09c0-.12.09-.17.18-.17h2.38c.06,0,.09,0,.09.08a1.16,1.16,0,0,1,.53-.17h3.35a1.64,1.64,0,0,0,1.05.26h3.27c0-.41.08-.62.26-.62h4.76v-.17c-1.07.06-1.87.09-2.38.09h-5.64l-.36.26h-2.2l-.35-.26h-1.68v-.18c.15,0,.3-.15.44-.44-.17,0-.26-.06-.26-.18v-.17c0-.12.32-.21,1-.27l3.26-3.44h1.15l.44.09a.08.08,0,0,0-.09-.09l.09-.17a.16.16,0,0,0-.18-.18h-.79c-.41-.25-.62-.42-.62-.53V239c0-.08.09-.17.27-.26h.88a15.27,15.27,0,0,0,1.85-1.94v-.09h-.79c-.12,0-.18-.14-.18-.44h-2.12v-.09c0-.11.09-.17.27-.17.53,0,1.7,0,3.52.08l1.33-1.23h1.85l-.18-.26-.17.08H204v-.17c0-.09.18-.33.53-.71v-.7h-7.41v-.27h7.94l.17.09a19.74,19.74,0,0,0,1.68-1.67h3.7l.44-.09v-.71c0-.13.15-.22.44-.26h7.85v-.09H208.26v-.18a47.29,47.29,0,0,1,3.26-3.43H217v-.18c-2.13-.06-3.75-.09-4.85-.09h-.09l-.17-.09q.85-1,1.14-1.41h-4.23q-.93,0-2.82-.09l-.09-.17v-.53c0-.09.16-.21.44-.35h4.06c0-.3.06-.45.17-.45h4.15c.11,0,.2.27.26.8h7c.11,0,.17.09.17.26h4.67v-1.32s.09-.13.27-.26C229.17,222.52,230.7,222.49,231.62,222.49Zm-40.46-1.85h3.08c.12,0,.18.07.18.17a.68.68,0,0,1-.35.09v.71c0,.11-.06.17-.18.17h-2.73c-.12,0-.18-.06-.18-.17v-.8C191,220.7,191.07,220.64,191.16,220.64Zm0,7.67h2.64c.12,0,.18.07.18.17a.16.16,0,0,1-.18.18h-2.64a.16.16,0,0,1-.18-.18C191,228.37,191.07,228.31,191.16,228.31Zm0,1.94h5c.08,0,.22.17.44.52h2.21V231h-4.67a1,1,0,0,0-.62-.26h-2.29q-.12,0-.27-.27C191,230.31,191.07,230.25,191.16,230.25Zm11.28-10.94h10.05q.18,0,.18.18v.44a.16.16,0,0,1-.18.18h-2.55a6.51,6.51,0,0,1-.71-.18h-5.38a.8.8,0,0,1-.26.18h-4.76c-.08,0-.16-.09-.27-.27s.16-.2.44-.35h3.18A.8.8,0,0,0,202.44,219.31Zm3.35,2.38h4.59a2.36,2.36,0,0,0,1.14.27v.53c0,.09-.09.17-.26.26h-6.53c-.35,0-.52-.11-.52-.35h-5a.16.16,0,0,1-.18-.18v-.17h.8l.17.09q0-.18.18-.18h3.09c.51,0,1.3,0,2.38-.09C205.65,221.75,205.7,221.69,205.79,221.69Zm-5.38,3h1.77c.12,0,.17.08.17.18A4.15,4.15,0,0,1,201,225L200,225v-.18Zm-.35,15.52v.09h.18v-.09Zm2.74,2.38v.17h.26v-.17Zm5.81-7.49.09.17-.09.18h2.12v-.27h.53V235h-2.47Zm2.82,3.17v.44h.45v-.44Zm11.2-21.16h8.91c1.54,0,2.48.56,2.82,1.67a1.06,1.06,0,0,1,.09.53h2.38c.11,0,.17.08.17.18V220h3.62a.17.17,0,0,1,.17.18v.7c0,.12-.06.18-.17.18h-5c-.09,0-.2-.12-.35-.36v-1.05H235l-.44.09v.08a1.72,1.72,0,0,1,.27,1l-.18.09h-1.06c-.16,0-.28.32-.35,1a.7.7,0,0,0-.44.18h-10v.17h-7.32v-.08q3.85-4.24,4.23-4.24A7.08,7.08,0,0,1,222.63,217.11ZM216,238.71a.76.76,0,0,1-.18.53v.26l.27.36.17-.09h5.65l.17.09.18-.27h-3c-.35,0-.53-.15-.53-.44h-1.67a1.45,1.45,0,0,1-.71-.35A.68.68,0,0,1,216,238.71Zm.18-16.05h8.64v.62c0,.07-.15.19-.45.35h-7.84c-.35-.16-.53-.28-.53-.35v-.44Q216.07,222.66,216.2,222.66Zm1.14,14.81v.18h4.94c-.25-1.82-.52-2.73-.79-2.73q-.09,0-.09-.18h-1.33a6,6,0,0,0-1.23,1.32C218.69,236.06,218.19,236.54,217.34,237.47Zm2.21-10.84v.18c0,.12.08.17.17.17h6.7c.09,0,.18-.08.27-.26a.16.16,0,0,0-.18-.18Q222,226.63,219.55,226.63Zm1,7.58h1.06v-.08l-.09-.62h-.26C221.24,233.51,221,233.74,220.6,234.21Zm3.35-3.44c-.07.42-.16.62-.26.62h-1.32c-.08,0-.16.09-.27.27v.08h2.47v-1l-.18.09h-.26Zm-1.85,7.59v.44h.27v-.62h-.09C222.16,238.2,222.1,238.25,222.1,238.36Zm2.56,7.84h1.06c0-.08-.09-.17-.27-.26h-.53C224.85,245.94,224.76,246,224.66,246.2Zm1.67-12.69V234h3.18v-.27c0-.11-.06-.17-.18-.17h-1.06c-1-.12-1.54-.18-1.67-.18A.54.54,0,0,1,226.33,233.51Zm3.44-7.67c0,.29-.38.44-1.14.44h-.71v.09h6.88c.12,0,.17-.06.17-.18V226h-2.55a5.25,5.25,0,0,1-.71-.17Zm1.77,9.08v.18h.08l.44-.09v-.09c0-.12-.05-.18-.17-.18h-.18C231.59,234.76,231.54,234.82,231.54,234.92Zm2.29,9.08h1.23c.5,0,1.24,0,2.21.09v.17h-3.44c-.12,0-.18,0-.18-.17Zm.53-2.82v.09h.53v-.09Zm4.85,3.44h1.49v.17h-1.49Z"/><path class="cls-1" d="M290.91,216.93a1.6,1.6,0,0,1,1.59.88v.09a.16.16,0,0,1-.18.18h-6.08a3.16,3.16,0,0,0-.18-.79h-.44a3.36,3.36,0,0,0-.52.52h-4.77v.45c0,.11-.11.17-.35.17v.09h1.24a.93.93,0,0,0,.26-.18h10.84l.27.18h2l.17.09-.09.62v.7c0,.12-.05.18-.17.18h-1.59l-.26.17H292a10.86,10.86,0,0,0-.79,2.21c-.6,1.53-1.1,2.29-1.5,2.29l.09.18a3.2,3.2,0,0,1-1.68.79H263.41v.09h3.26l.09.17v.53q0,.14-.36.36h-4.67l-.17-.09a1.82,1.82,0,0,1-.36.79,9.6,9.6,0,0,1-.53,1.59v.44c0,.16.36.37,1.06.62h18c1.41,0,2.11.11,2.11.35V231c0,.18-.26.27-.7.27h-9.79c0,.17-.06.26-.17.26h-8.29c-.09,0-.18.09-.27.26v.45h1.94q0-.27.18-.27h6.88c.11,0,.17.07.17.18v.35c0,.12-.06.18-.17.18h-1l-2.12.17h-3.26c-.47,0-.71-.12-.71-.35h-1.94v.44l-.17.27q-4.59.08-7.23.08h-2.74v.27h5l.26.17c0-.11.08-.17.18-.17h1.41a.16.16,0,0,0,.18-.18q4.5-.09,7.05-.09h3.7l.27.18h4.76a.08.08,0,0,0-.09-.09l.09-.44v-.44c-.24,0-.35-.09-.35-.26a1.74,1.74,0,0,1,1-.36h1.32l.26-.17h7.06a9,9,0,0,1,1.49,1.58h4.68a.62.62,0,0,0,.53-.61c0-.24.05-.36.17-.36h.09q.18,0,.18.18c-.15,1.06-.33,1.59-.53,1.59h-2.12v.61c0,.12-.06.18-.17.18h-2l-.18.09.09.18v.08l-.44.09H281a1.05,1.05,0,0,1-.62-.26h-2c0,.35-.3.53-.88.53h-1v.08h10.22q.18,0,.18.18v.44c.12,0,.17,0,.17.09l.62-.09h3.18c.11,0,.17.07.17.18l-.17.09h-.71c0,.23-.06.35-.18.35h-.79a4.33,4.33,0,0,1-.71.17h-1.76a6.29,6.29,0,0,1-.7,2.74l-1.24,3.08V243h4.32q.18,0,.18.18v.35c0,.17-.77.26-2.29.26h-2.47a13.76,13.76,0,0,0-1.41,1.94,4.9,4.9,0,0,1-1,.88v.09h.35v.18c-.48,0-1.13.44-1.94,1.32l-2,1.24a12.53,12.53,0,0,1-2.47,1.14h-.08l-.18-.09c0,.15-.79.39-2.38.71a.08.08,0,0,1-.09.09c-1.29.06-2.14.08-2.56.08,0,.12-.05.18-.17.18h-1.68a.8.8,0,0,0-.26-.18h-3.44c-2.26,0-5.41,0-9.43-.08a1.52,1.52,0,0,1-.18-.53.08.08,0,0,0,.09-.09h-7.5c-.08,0-.2-.12-.35-.35v-.62q0-.18.27-.18v-.08q-.27,0-.27-.18a.08.08,0,0,0,.09-.09h-4.58l.08.18a.63.63,0,0,0-.08.26l.26.18h1.76c.12,0,.18.07.18.17v.71l-.09.18c.18,0,.27.05.27.17v.18c0,.12-.06.17-.18.17H241q-1.5,0-1.5-1.32a2.39,2.39,0,0,1,.36-1.14v-.09h-1.24c-.11,0-.17-.06-.17-.18v-1.14c0-.12.07-.18.17-.18h.62q.18,0,.18.18V248h.79c.34-1,.57-1.56.71-1.59h2.38l.26-.18H246q.18,0,.18.18v.88l.17-.09h4.94l.18.09a.08.08,0,0,1,.09-.09c0-.06,0-.08-.09-.08l.09-.45v-.7c0-.09.17-.21.52-.35h7.5v-.44h-6.35c-.18-.06-.26-.24-.26-.53v-.09c0-.35.13-.53.26-.53h.88v-.53h-1.85c0,.24-.06.35-.18.35h-6.17l-.26.18h-3.35q-.13,0-.27-.27a2.78,2.78,0,0,1,1.86-1.14H252l.36.62c.82,0,1.52.08,2.11.08.09-.23.18-.35.27-.35h1.14c1.22,0,1.9-.12,2-.35h10.23v-.18H265.7a.59.59,0,0,1-.44-.61H250.71l-2.11.17h-.53c-.12,0-.18-.06-.18-.17v-.27c0-.1.12-.22.35-.35h12.43l.44.09v-.44c0-.12.36-.21,1.06-.27a.08.08,0,0,1,.09-.09h3.26a2.51,2.51,0,0,0,1.15.27.08.08,0,0,0,.09.09h5.55l.27.17h.26c.09,0,.18-.09.26-.26V240h-1l-.45-.09.09-.44v-.17h-5.11c0,.17-.06.26-.18.26h-2.55c-.12,0-.18-.06-.18-.17v-.36c0-.17.76-.26,2.29-.26h1.15v-.35H255.12c-.9,0-2.13,0-3.7-.09q0-.23-1.59-.36a6,6,0,0,0-1.68-.79c-1.7-1.48-2.55-2.81-2.55-4v-.17c0-.18.67-.27,2-.27h.26v-.26h1a.8.8,0,0,1,.09-.44h2.11V232h-5.29c-.11,0-.17-.06-.17-.18v-.7h-.8c0,.23-.17.35-.52.35H243c-.12,0-.17-.06-.17-.18l.7-1h2.12c.13,0,.33-.51.61-1.49h-1.67a.16.16,0,0,1-.18-.18l.27-.18h1.67l.44-.61H249v-.62h-1.59c-.09,0-.21-.12-.35-.35a8.88,8.88,0,0,1,2.29-.18h1.23l.27-.18h1a2.38,2.38,0,0,0,.09-.35l-.18.09h-4l-.35-.27a1.24,1.24,0,0,1,.62-1l.17.09c0-.12.08-.17.18-.17h3.26v-.09h-.17v-.09l.08-.18-.44.09h-2.91a.69.69,0,0,0-.35-.62,7,7,0,0,0,1.68-.35h2.9a1.47,1.47,0,0,1,.71.18.91.91,0,0,0,.18-.27h-4.5v-.08a10.7,10.7,0,0,1,3.35-3.27v-1.23a.16.16,0,0,0-.18-.18h-1.76c-.12,0-.18-.06-.18-.17s.08-.18.18-.18h3.53c.11,0,.17.15.17.44h.18a28.91,28.91,0,0,1,5.2-1.85,11.63,11.63,0,0,1,1.5-.09h25.74Q288.18,217,290.91,216.93Zm-49.1,27.25h3.7c.09,0,.18.08.26.26v.79l-.17.27c1.08-.06,1.88-.09,2.38-.09h.88c.12,0,.18.07.18.18s-.41.2-1.24.35h-4.67c-.5,0-1.29,0-2.38.09,0,.11-.06.17-.18.17h-1.94a.15.15,0,0,1-.17-.17v-.36a.16.16,0,0,1,.17-.17H244v-.09c-.35,0-.53-.15-.53-.44s-.06-.35-.17-.35h-1.59a.16.16,0,0,1-.18-.18C241.54,244.35,241.63,244.26,241.81,244.18Zm1-4.41h2.73l.35.26h2q.18,0,.18.18l-.18.09h-4.5C243,240.3,242.78,240.12,242.78,239.77Zm4.67-19h1.41q.18,0,.18.18v.79a.16.16,0,0,1-.18.18h-1.68l-.17-.09C247.17,221.17,247.32,220.81,247.45,220.81Zm4.14,26.72.18.08h2.82v.18h-.79c-.06.71-.15,1.06-.27,1.06H252l-.36-.27h-.08a.91.91,0,0,1-.27.18h-1.59c-.5,0-1.23,0-2.2.09v.09a3.74,3.74,0,0,1,1.23.08.64.64,0,0,0,.27-.08c2.6.06,4.63.08,6.08.08h5.64c.21,0,.36.33.44,1,0,.06-.3.09-.79.09v.09h2.91v-.09c-.29,0-.44-.06-.44-.17v-.53a2.24,2.24,0,0,0,.26-.88h-7.23c-.13,0-.22-.39-.26-1.15h-3.79Q251.59,247.37,251.59,247.53Zm-1.05,1.76v.18H251v-.18Zm1.23-20v.17q0,.18.18.18a5.69,5.69,0,0,0,1.14-.09,7.76,7.76,0,0,0,1.24.09h.17l.27-.18H256v-.17Zm3.53-8.82h-1.59v1.06h.79c.3.15.44.26.44.35v.44c0,.12-.2.18-.61.18l.08.17a.67.67,0,0,0-.08.27l.17.09h.88c.59,0,1.47,0,2.65.08,0-.23.12-.35.26-.35h2.3c0-.29.05-.44.17-.44h1v-.26H256a.16.16,0,0,1-.18-.18v-.53c0-.12.08-.17.18-.17h1.76l.45-.09v-.18h-1.33c-.35-.12-.53-.29-.53-.53Zm1.94,23.72-.09.44h2.11c0-.15.18-.24.53-.27v-.09l-.17-.08Zm1.94-18.52v.18h2.55v-.18Zm.52,9.61v.09h.53v-.09Zm.27,12.26V248h5.2c.41,0,.62.26.62.79a.08.08,0,0,1,.09.09c.05,0,.08,0,.08-.09l.53.09H270v-.09h-3.7a2.15,2.15,0,0,1-.18-1v-.09l.09-.17Zm5-12.7H261.2v.27c0,.11.08.17.18.17h4.85c.09,0,.17-.09.26-.26v-.44h-.44A1.63,1.63,0,0,0,265,234.83Zm-3.43-16.4.08.18c1.09.06,1.88.09,2.38.09h2a6.33,6.33,0,0,1,1.41-.18v-.09Zm2.64,17.11v.17h1.32v-.17Zm1.15-6.44h1.32a.9.9,0,0,0,.62.18v.17h-2.65v-.17h.44A.91.91,0,0,0,265.35,229.1Zm-.53-8.64v.09H265v-.09Zm.7,8h13.76v.18H265.52Zm.18-7v.17h1.67v-.08h-1l-.08-.18-.18.09-.26-.18Q265.7,221.37,265.7,221.52Zm.7,28.83.09.17a.08.08,0,0,0-.09.09h.36l.26-.18h1.68v-.08ZM268,235.89V236c0,.07.09.16.27.26H275c.11,0,.17-.06.17-.18v-.26Q269.53,235.89,268,235.89Zm7,6.87c-.06.71-.15,1.06-.27,1.06-.7,0-2,0-3.79-.09-.88.06-1.53.09-1.94.09a2.7,2.7,0,0,1-.09.36h1c.09,0,.18.08.27.26v.18l-.09.17H269v.09h2.91l.62-.09a.61.61,0,0,1-.09-.26c.09-.24.18-.35.26-.35h7l.35.26h.09a.7.7,0,0,1,.44-.18v-.08a.16.16,0,0,0-.18-.18h-1.41c-.11,0-.2-.35-.26-1.06a.08.08,0,0,0,.09-.09H277.6Q276.71,242.85,275,242.76Zm5.29-22.3v.44a.16.16,0,0,1-.18.18h-7.23a6.05,6.05,0,0,1-1.5.35c0,.06-.06.09-.17.09v.17h3.61a1.25,1.25,0,0,1,.79-.26h6.09c0-.24.23-.35.7-.35V221c-.41,0-.62-.09-.62-.27h-.61a1.22,1.22,0,0,1-.8-.26Zm0-.26v.17h.17A.15.15,0,0,0,280.25,220.2Zm2.11,30.32h4.94v.18h-.79a.08.08,0,0,1-.09-.09l-.18.09h-3.88Zm3.18-23.62H286l.26.17h.62v.18h-3.79v-.18h2.2Zm-1.06,1.85h6c.12,0,.18.07.18.17l.18-.08h.61c.16.29.28.44.36.44s.35.06.35.17l-.18.09h-4.76c-.06,0-.2-.18-.44-.53h-1.23c-.39,0-1,0-1.77.09v-.26h.36l.17.08C284.32,228.81,284.37,228.75,284.48,228.75Zm5.9-2.91h2.56c.12,0,.18.07.18.17-.19.65-.34,1-.44,1h-5.56v-.17l.62-.09h2.47V226A.16.16,0,0,1,290.38,225.84Zm-1.05,19.39h1.5c.11,0,.17.08.17.18v.35c0,.12-.06.18-.17.18h-1.59l-.27-.18h-1.14v-.17A7.74,7.74,0,0,0,289.33,245.23Zm-.62,4.59h1.23c.12,0,.18.09.18.26-.15.37-.29.58-.44.62h-1.32a.08.08,0,0,1-.09-.09l-.18.09h-.17v-.18h.61V250C288.55,249.88,288.61,249.82,288.71,249.82Zm2.12-10.93.08.17v.36a.15.15,0,0,1-.17.17l-.18-.26v-.18C290.56,239.06,290.65,239,290.83,238.89Z"/><path class="cls-1" d="M315.67,234.48a.78.78,0,0,0,.44.09h.7c.12,0,.18.07.18.17s-.19.31-.53.44l-.18.27v.26q0,.18.18.18L315.22,239c-.05,0-.08,0-.08.09v.36h1.76c.12,0,.18.08.18.26h2.55c.36,0,.53.12.53.26s-.06.18-.17.18h-1.24c-.5,0-1.29,0-2.38.09a.16.16,0,0,1-.18.18H314.7a6.72,6.72,0,0,0-.36.88h2.47c.3,0,.44.07.44.17l.18-.09H319c.29.15.44.27.44.36v.44l-.09.17c-1.09.06-1.88.09-2.38.09h-1.15a.93.93,0,0,1-.26.18h-.44c-.94,0-1.41.12-1.41.35a1.62,1.62,0,0,1-.27.53c3.41.26,5.12.5,5.12.71v.52h4.84c1.37,0,3.34,0,5.91-.08l.09.17c0,.12-.32.21-1,.27a.08.08,0,0,1-.09.09h-4.85c-.19,0-1.45,0-3.79.17h-2.56c-.5,0-1.29,0-2.38-.09l-.08-.17v-.44h-1.41a6.41,6.41,0,0,0-1.06,2h2.47c0-.29.05-.44.17-.44h2.21c.11,0,.17.12.17.36h2.38c.12,0,.18.07.18.17v.44h9.43v.18l-1.06.09h-3.26c0,.23-.06.35-.17.35h-1.24a1,1,0,0,0-.62.27H311.7q-.75,2.64-1.5,2.64c0,.12-.47.38-1.41.79-5.39.06-9.07.09-11,.09a1.59,1.59,0,0,1-1.5-.88v-.62c.28-1.35.63-2,1.06-2a.08.08,0,0,1,.09-.09h1.41v-1c0-.12.2-.18.61-.18v-.09h-1.76c-.12,0-.18-.06-.18-.17a10.83,10.83,0,0,0,1-2.3.73.73,0,0,1-.08-.26h-.71a.16.16,0,0,1-.18-.18v-.61h-4.14a.16.16,0,0,1-.18-.18V241.8q0-.18.18-.18h.79v-1.23h-3.7c-.18,0-.26-.21-.26-.62h-.8c-.17-.06-.26-.24-.26-.53,0-.12.07-.18.17-.18h4.33c.11,0,.17.27.17.8l.18-.09h6l.18.09a2.83,2.83,0,0,0,.53-1.06h-2.56v-.18h2.65c.38-1,.61-1.5.7-1.5h1.32l-.08-.17v-.09l.08-.18h-1a.15.15,0,0,1-.17-.17,5.44,5.44,0,0,1,.88-1.94h12.61ZM289.3,245.41h2.47l.27.18h.17c1.53,0,2.3.08,2.3.26a2.37,2.37,0,0,0-1.15.27H289.3c-.11,0-.17-.06-.17-.18v-.35C289.14,245.47,289.2,245.41,289.3,245.41Zm.27-9h.18q.44,0,1.32.09v.17h-1.5c-.12,0-.18-.06-.18-.17Zm.44-4h1.15c.11,0,.17.07.17.18l-.26.35v.7h8.64l.26.18h.53c.43,0,.66.09.71.27l-.18.08H289.66v-.08C289.66,233,289.78,232.45,290,232.45Zm1.5,16.4c.94,0,1.41.12,1.41.26v.09c0,.1-.26.19-.79.27,0,.05,0,.08-.09.08h-1.85v-.44C290.19,249,290.63,248.88,291.51,248.85Zm10.31-31.92h1.41l.27.18h13l.26-.18h1.41l.27.18q3.09,0,4.41.09,4.69-.09,9.52-.09h3c1.11,0,1.67.41,1.67,1.23q0,.87-2.11,5.91a3.55,3.55,0,0,1-2.83,1.68h-1.58c-1.59,0-2.8,0-3.62.08s-2.08-.08-3.7-.08h-1.32c-.94,0-1.41.23-1.41.7-.11,0-.25.35-.44,1.06h-.09l.09.18V228c-.36.53-.56.8-.62.8h-2.56c-.12,0-.2.32-.26,1H311.7c-.12,0-.18.07-.18.17v.18h6.79c.35,0,.53.12.53.26v.09a11.67,11.67,0,0,0-.88,1.94h2.29c.35,0,.53.12.53.27v.08a.16.16,0,0,1-.18.18h-2.82c-.34.59-.54.88-.62.88h-6.43c-.1,0-.19-.2-.27-.61-2.57.05-4.48.08-5.73.08H301.3c-.45,0-.68-.08-.71-.26v-.09c0-.18.76-.26,2.29-.26h2.56l.62-.18h2.38v-.09h-1.33c-1.33.06-2.6.09-3.79.09a.71.71,0,0,1-.09-.26,17.21,17.21,0,0,0,1.68-4.15c.06,0,.12-.09.18-.26h-3.88a1.23,1.23,0,0,0-.8-.27h-3.17c-.12,0-.18-.06-.18-.17v-.09h.88l.27-.18h7.05c.18,0,.27-.28.27-.7v-.27h7.31l.36-.35h3.44a8.28,8.28,0,0,0,1-.35h.89c0-.24.11-.36.26-.36h3.7c0-.23.06-.35.18-.35h4a.88.88,0,0,0,.26-.17h2.38V224l.09-.18h2.12v-.09h-5.73q-.18,0-.18.18l-.44-.09h-4l-.35.26h-5.2c-.12,0-.21.36-.27,1.06a.8.8,0,0,1-.26.18h-7.94c-.54,0-1.3,0-2.29-.09-.59.06-.88.12-.88.18s-.28.26-.71.26H300.5l-.35.27h-2.82v1c0,.17-.77.26-2.29.26H290.8c-.11,0-.17-.06-.17-.18,0-.64.13-1,.26-1h2.91v-.7c-.65,0-1-.09-1-.27v-1a17,17,0,0,0,1.32-3.71h-2.91l-.44.09c0-1.11.15-1.67.36-1.67h3.17c.12,0,.18.11.18.35h.26a3.54,3.54,0,0,1,1.24-1.5,1.84,1.84,0,0,1,1.41-.44h4.14A.8.8,0,0,0,301.82,216.93ZM295,230.16h1.23l.44.09v.17h-1.85v-.09A.17.17,0,0,1,295,230.16Zm.79,11.81v.88h3.26a5.88,5.88,0,0,1,.35-1h-3A1,1,0,0,1,295.83,242Zm4.06-1.76v.09h.17v-.09Zm.08-19.66v.09c0,.07.09.16.27.26h7.4l.09-.35Zm14.55.62a.68.68,0,0,1,.18.44h2.64a.78.78,0,0,1,.09-.44Zm4.32,8.37h3.44q2.55,0,7.05.09l.09.18v.08a.16.16,0,0,1-.18.18h-2.82a1.25,1.25,0,0,0-.79.26h-.44c0,.24-.18.36-.53.36h-1.94c-.31,0-.49-.09-.53-.27V230h-3.35c-.12,0-.18-.06-.18-.17v-.09Q318.69,229.54,318.84,229.54Zm2.56-11.9v.26h.44v-.26Zm1.58,2v.09h.44v-.09Zm.44,8h5.82q.18,0,.18.18c0,.11-.06.17-.18.17H323v-.17A.68.68,0,0,0,323.42,227.69ZM323.16,239h2.73l.36.27h2.2v.09c0,.11-.06.17-.18.17h-4.58a1.56,1.56,0,0,0-.53-.35Zm2.38-20v.44c0,.12-.15.18-.44.18v.09h4.32V219Zm5.47,2.47v.18h.88v-.18Z"/><path class="cls-1" d="M367.57,215.79H386.7l.44.53a2.52,2.52,0,0,0-.26,1.05,4,4,0,0,1-1,.18v.09c.41,0,.73.44,1,1.32a3.69,3.69,0,0,1,.62,1.24l-.27.17h-8v.09q1,.09,1.5.09H384c.12,0,.18.07.18.17v1a.16.16,0,0,1-.18.18h-4.32v.18h4l.35.44h1.59q1.29-.18,1.41-.18h1a1,1,0,0,0,.62-.26h3.09a6.7,6.7,0,0,1,.7-.18h1.5a.08.08,0,0,1,.09.09,2.64,2.64,0,0,1,1.32-.35.08.08,0,0,1,.09-.09h1.32c0-.3.27-.44.8-.44a17,17,0,0,0,1-2.38c.8-1.24,1.63-1.85,2.46-1.85,0-.06.21-.12.62-.18q2.73.09,4.32.09H412a12.48,12.48,0,0,1,1.23.53,1.41,1.41,0,0,1,.26.7v.18a8,8,0,0,1-.53,2.38h6.09v.17h-.71l-.26.18h-4.76c0,.24-.06.35-.18.35h-.62a2.25,2.25,0,0,1-.52,1.33c-5.71.06-10.11.08-13.23.08l-.18.27v.79c0,.12-.05.18-.17.18h-1.77l-.17-.09.62-1.59h-.8c0,.3-.06.44-.17.44H390c-.07,0-.16.09-.26.27V224l-.18.26a.08.08,0,0,1,.09.09c1-.06,1.71-.09,2.21-.09h4.49l.27-.18h1.14l.27.18H402q.57,0,1.77.09v.18h-4.94v.08H408a.83.83,0,0,1,.53-.79v-1c0-.12.09-.18.17-.18h3.18l.18.09-2.56,6.53h.44a6.09,6.09,0,0,1,.7.17h2.12c.29.16.44.28.44.36v.08a.16.16,0,0,1-.18.18h-3.26l-.61-.09c-1.12,2.43-2,4.6-2.74,6.53l.18.08h2.82q.18,0,.18.27H412c.35,0,.52.13.52.26l-.17.09h-2.47c-.12,0-.18.07-.18.18-1.08.06-1.88.08-2.38.08h-1.41a1.08,1.08,0,0,1-.35.71v.27h1c1.2,0,2.85,0,4.94.08.23.09.35.18.35.27v.44c0,.12-.35.2-1.06.26a.08.08,0,0,1-.09.09h-.44c-.84,0-2,0-3.44.09a1,1,0,0,1-.53.18h-1l-.18-.09-.35.62v.08c0,.12.09.18.26.18a35.55,35.55,0,0,1,6,.53v.62H415c.12,0,.18.07.18.17,0,.33-1,.5-3,.53h-2.73c-1.53,0-2.29-.09-2.29-.26v-.44h-3c-.12.64-.27,1-.44,1q-6.29.09-8.11.09l-.09.18v.35c0,.12.09.18.17.18h3c.12,0,.18.09.18.26h.18v-.61c0-.12.08-.18.17-.18h4.41v.18a.93.93,0,0,1-.27.61H407l.35-.53h2.12c.12,0,.17.12.17.36H412a.16.16,0,0,1,.17.17v.44h1.68l.17.09c-.22.53-.42.83-.61.88H401.25l-.44-.08v.26h-1.68c-.12,0-.17-.15-.17-.44h-.71v.62h4.32c.12,0,.18.07.18.17s-.5,1.46-1.5,4a3.31,3.31,0,0,1-2.47,1.5c0,.12-.5.17-1.5.17h-4.14c-.72,0-1.6,0-2.65-.08a6.57,6.57,0,0,1-1.5.08c0,.12-.05.18-.17.18h-1.59c-.51-.16-.81-.31-.88-.44l.18-.09H390v-.17l-.17.08h-3.53q-.56,0-1.5-2.55c-.13,0-.37-.56-.7-1.59a.91.91,0,0,0-.27-.18h-1.23v-.35c0-.12.35-.2,1.06-.26-.72-1.87-1.16-2.81-1.33-2.82h-.7c-.68,0-1.76,0-3.26-.09v-.18a7,7,0,0,1,2.73-.35h1c0-.13-.74-1.75-2.2-4.85l-.18-.62.18-.09h2.46v-.17l-2.82-.09a9.87,9.87,0,0,1-1-1.85c0-.18.65-.27,1.94-.27v-.08h-2q0-.13-.27-.27h-.09a.81.81,0,0,1-.44.27q-1.32,0-6.26.08l-.09.18v.09l.18-.09h5.82c.1,0,.22.12.35.35a5.65,5.65,0,0,0-.62,1.59l-.7,1.32-.53.09h-2.56c0,.18-.06.27-.17.27h-9l.09.17-.17.09h-.53v.18h1.06a.93.93,0,0,0,.61-.27H376c.11,0,.17.08.17.18a4.82,4.82,0,0,1-.61,1.5l.17.09h4c.12,0,.18.07.18.17v.27c0,.1-.48.22-1.41.35h-3.27a6,6,0,0,1-.53,1.32,7.12,7.12,0,0,1-.61,1.85l-1.24,3.44h3.62V248h-3.71a7.17,7.17,0,0,1-1.14,2.38h-4.32v.08c.48,0,.78.06.88.18h.79l.27.18h1.58V251h-1.05l-.44.09.08.18a9,9,0,0,1-2.29.17h-8c-1,0-1.57-.38-1.76-1.14l.17-.09h4.41c.09,0,.18.09.26.26l.18-.08h1.32c.53,0,1.12,0,1.77.08h.17v-.08c-.53,0-.79-.06-.79-.18v-.62c0-.17.28-.26.71-.26H367v-.18a.15.15,0,0,0-.17-.17h-3.44c0,.35-.06.53-.18.53h-3.44a1.19,1.19,0,0,0-.79.26h-1.24c-.23-.12-.35-.21-.35-.26a22.28,22.28,0,0,1,1.06-2.65l.18.09-.09-.44v-.09a6,6,0,0,1,.79-1.76h1.32v-1.33c0-.08.09-.17.27-.26h6.35v-.18c-.3,0-.44,0-.44-.17V242c0-.12.08-.17.17-.17h2.82v-.27l-.09-.18-.17.09h-1.85l-.18-.09c0,.18-.26.27-.7.27H361a1,1,0,0,1-.53-.18,12.84,12.84,0,0,1,.44-1.32l-.18-.09h-1.76c-.12,0-.18-.06-.18-.17v-.18c.18-1,.36-1.5.53-1.5h2.47l.62-1.59H359.9c.6-1.41,1-2.11,1.15-2.11q1.36,0,4.23-.09V234h-.44c0,.23-.06.35-.18.35h-1.23l-.18-.09q.62-1.28,2.73-6.7l.18-.08H367c.08,0,.22-.18.44-.53h10.58c.12,0,.18.08.18.26.88-.06,1.53-.09,1.94-.09h10.4q.32,0,1.32,2.82c.05,0,.14.18.27.53q-.18,0-.18.18c.15.23.71.35,1.68.35.1-.29.25-.44.44-.44v-.09c-.66,0-1.05-.11-1.15-.35s.35-.21,1.06-.26a8.75,8.75,0,0,0,1-2l.62-.09h2.55a1,1,0,0,1,.89.44h1.85V227c0-.11.26-.17.79-.17a.68.68,0,0,1-.09-.35h-5.91c-.11,0-.17-.06-.17-.18l.62-1.41h-2.47a6.51,6.51,0,0,1-.71-.18H389.7a7.13,7.13,0,0,0,.88,1.94l-.44.27h-7.41q-2.84,0-7.58-.09c-.29,0-.44-.18-.44-.44h-2.38l.09.17-.18.09H366.6l-.17-.09.08-.44V226h-1.76v-.17h1.59c.41,0,.61-.3.61-.88l1-1.41a.66.66,0,0,1-.26-.09,1.48,1.48,0,0,1,.26-.71v-.17h-2.11v-.18q1-.09,1.5-.09h.79l.7-1.94c-.52,0-.79-.09-.79-.26V220a.6.6,0,0,1,.62-.35h2.82l.18.09c.08-.42.17-.62.26-.62h3c.12,0,.17.07.17.17l6.88-.17v-.09h-3.08a.16.16,0,0,1-.18-.18v-.7l-.44-.09h-1c-.1,0-.19.26-.27.79h-7.31l-.18-.09a3.26,3.26,0,0,1,2.82-1.85h.35a.78.78,0,0,0,.27-.17h3.61a.16.16,0,0,0,.18-.18h-7.32c0,.35-.09.53-.26.53h-2a.16.16,0,0,1-.18-.18C367.25,216.17,367.45,215.79,367.57,215.79Zm-8.9,24.6h.44c.09,0,.17.08.26.26a1,1,0,0,1-.53.18h-.17a.16.16,0,0,1-.18-.18v-.09C358.52,240.44,358.58,240.39,358.67,240.39ZM366,221.25h.27q.18,0,.18.18l-.18.09H366c-.11,0-.17-.06-.17-.18Zm10.49-1v.09h.45v-.09Zm2.74,26.81h2.11c.12,0,.18.07.18.17v.53a.16.16,0,0,1-.18.18h-2.55v-.18H379v-.53C379.06,247.14,379.12,247.09,379.21,247.09Zm13.31-15.7a8.69,8.69,0,0,1,.35.88h.27c.06,0,.2-.29.44-.88Zm.88,6.17v.27l.44.09h4.41a.16.16,0,0,0,.18-.18v-.18l-.18.09h-4.67Zm6.7,4.06v.09l1.06.09.09-.18Zm5.47-24v.09c.63,0,1,.06,1.06.17H407c.12,0,.18-.05.18-.17l-.27-.18h-.7Zm5.64,9.08h4.14q2.06,0,5.91.09l.09.17c0,.09-.09.18-.26.27h-2.3a8.71,8.71,0,0,1-1,.18h-.26c0,.17-.12.32-.35.44H415c-.28-.15-.42-.27-.44-.36v-.44h-3.35c-.12,0-.18-.06-.18-.17S411.12,226.72,411.21,226.72Zm8.47-1.85h2c.12,0,.18.07.18.17l-.18.09h-8.64V225C416.06,224.9,418.26,224.87,419.68,224.87Zm-4.15,11.19h1.85l.18.09c-.1.27-.22.41-.35.44H416c-.2-.23-.35-.35-.44-.35Zm2.56-18.95h3.61q.18,0,.18.18v.88c0,.12-.06.17-.18.17h-3.44c-.08,0-.2-.11-.35-.35v-.7Q418,217.11,418.09,217.11Z"/><path class="cls-1" d="M484,216.76h1.67a1,1,0,0,1,.27.17h7.31l.18.09c-.37.77-.6,1.15-.7,1.15h-1.77a10.4,10.4,0,0,1-1.06,3,.15.15,0,0,1-.17.17.08.08,0,0,0,.09.09,9.19,9.19,0,0,1-1.77,4,.08.08,0,0,0-.09.09h.18v.17a4.26,4.26,0,0,0-1.14.44h-.89c-1.73-.12-2.67-.17-2.82-.17h-14.9c-.07,0-.16-.09-.26-.27v-.26h.17v-.09H466l-.35.62h-6.88a.54.54,0,0,1-.09.26l.27.18h.79a2.78,2.78,0,0,0,.44.35h1.06c0-.24.12-.35.27-.35h1.32c.12,0,.17.09.17.17a12.52,12.52,0,0,0-1.23,3,.16.16,0,0,1-.18.18H454.7c-.12,0-.18.09-.18.17v.27h2.65l.35-.27h3.79a1.63,1.63,0,0,1,1.06.27h3.17c.12,0,.18.09.18.17l-.09.18h2.2l-.08-.18v-.08c.69-.06,1.19-.09,1.49-.09h11.2c.47,0,.71.12.71.35h1.41c.11,0,.17.09.17.18s-.11.22-.35.35h-.88c-.1,0-.25.35-.44,1.06a4.14,4.14,0,0,0-.71,2.2v.35c0,.09-.17.33-.53.71v.18h.89a1.12,1.12,0,0,0,.26-.18h1.67l.18.09a12.1,12.1,0,0,1-1.41,2.29h-2.64c-.11.47-.34.71-.71.71h-.18q-1.08,0-2.64-.09a6.58,6.58,0,0,1-1.23.35h-1.24a6.56,6.56,0,0,0-1.59-.35h-11.9c-.12,0-.17-.06-.17-.18v-.09l.08-.17h-2l-.18-.09V238c0,.12.35.21,1.06.27v.09c-.34.64-.55,1-.62,1h-.79a.54.54,0,0,1-.09.26l.17.09h8.12v-.44q0-.18,1.05-.27c0-.05,0-.08.09-.08h3a3.85,3.85,0,0,1,1.59.44h4.23c.5,0,1.29,0,2.38.09l.17.35c-.52.07-.79.16-.79.26v1h3.35v.18h-7.76c-.11,0-.17-.12-.17-.35h-2.56a.59.59,0,0,1-.44-.62H454.79v.09l.44.09h1.67c.12,0,.18.08.18.17a2.52,2.52,0,0,0-.44,1.06l.61.09H458v.17h-1.5a1.29,1.29,0,0,1-.35.88c-4.59,0-8.17-.08-10.76-.08h-2.82a2.64,2.64,0,0,0-.88-.36.8.8,0,0,1,.44-.7l-.09-.18a7.36,7.36,0,0,0,.35-1h-4.23l-.17-.08c.06-.59.14-.89.26-.89h4.23c.36,0,.59-.32.71-1h.09l-.09-.17v-.09c.12,0,.32-.44.61-1.32a.08.08,0,0,0,.09-.09v-.09h-.61c0,.35-.09.53-.27.53h-3.08c-.36-.19-.53-.4-.53-.62a5,5,0,0,1,1.06-1.41h2.2q.18,0,.18.18v1.06h1.14l1.5-3.62c-.54,0-.87-.06-1-.18-1-.05-1.75-.08-2.29-.08a.24.24,0,0,0-.27-.27v-.17q0-.13.36-.36h1.23c.5,0,1.29,0,2.38-.09.21-.58.35-.88.44-.88h1.24c.91,0,2.38,0,4.4.09l.09-.18v-.08c0-.08-.09-.16-.26-.27h-5.2l-.18-.09.88-2.11h-3l-.17-.09a4.29,4.29,0,0,1,.88-1.76h3l2.64-6.7a2.87,2.87,0,0,0,.62-1.24,3.66,3.66,0,0,1,2.64-1.32q0-.18.18-.18h3.35c.29,0,.44.08.44.18l.44-.09h2.29q2.19,0,3.09-.09.46,0,1.5.09,8.73-.09,14.11-.09h4.4Zm-41.44,26.18h13.4l.18.09c-.72,2.17-1.19,3.26-1.41,3.26h-1.32v.09a1,1,0,0,1,.17.44l-.26.18h-.09l-.18-.09c0,.12-.06.18-.17.18h-4.5l-.18-.09v.35h5.47c.5,0,1.29,0,2.38.09v.09c0,.08-.09.17-.26.26h-1.59a.69.69,0,0,1,.09.27q-.83,2.44-1.68,2.82a3.8,3.8,0,0,1-2.38.52h-5.55a.91.91,0,0,1-.27.18H439.8a2,2,0,0,1-1-.7v-.8a21.22,21.22,0,0,1,.88-2.38l-1.32-.26a1.09,1.09,0,0,1,.53-1H440a23.17,23.17,0,0,0,1.42-3.35A3.77,3.77,0,0,0,442.53,242.94Zm4.5-16V228h.17c.08,0,.31-.41.71-1.23l-.18-.09h-.53C447.09,226.75,447,226.81,447,226.9Zm.53,13.13v.09h3.7V240ZM449,248v.09c0,.08.08.17.26.26h1v-.26h-1.06Zm.17-16.31v.08h1.06v-.08Zm5.12,0v.26h3.79v-.26a.16.16,0,0,0-.18-.18h-3.44C454.31,231.51,454.26,231.57,454.26,231.66Zm1.5,14.37h2.55v.17h-.7a7.82,7.82,0,0,0-.27,1.06h-1.58c-.12,0-.18-.06-.18-.17v-.89C455.61,246.09,455.67,246,455.76,246Zm.35-19v.09a.54.54,0,0,1,.26.09v-.18Zm.61,7.58v.09H457v-.09Zm2.47-14v.08H464v-.08Zm.62,17v.18h.27v-.18Zm.18,4.59h8.9c.09,0,.18.08.27.26v.71c.29,0,.44,0,.44.17v.09h-.44a1.22,1.22,0,0,1-.8.26h-2.73l-.44-.08v-.18h.44a.64.64,0,0,1,.35-.18v-.88h-6Zm1-23.19v.18c0,.11.09.17.17.17h4.76a.71.71,0,0,1,.36.09.68.68,0,0,1,.35-.09h1.32a.66.66,0,0,1,.09-.26h1.85v-.09Zm8.2,8.46h1.23l.26.18h.45v.18h-2.74v-.18h.53Zm-.71,5.82v.44h5.38c.19.08.37.37.53.88h4.23v-.08H474.8a.91.91,0,0,1-.18-.27v-.09l.09-.61a.08.08,0,0,1-.09-.09.16.16,0,0,0,.18-.18Zm.88-6.43h13.58c.12,0,.18.08.18.17l-.18.09H469.33Zm.71-5.65v.36h4v-.27Zm.61,20.28h1.68c.09,0,.18.09.26.27l-.17.08h-1.77l-.44-.08v-.18Zm-.26-16.4v.09h6v-.09Zm12.25-7.4c0,.29-.17.44-.52.44a2.75,2.75,0,0,0-.71.53h-6.88a.93.93,0,0,0,.18.26q-.18,0-.18.18h.09q7.23.09,9.17.09V218q0-.18.27-.18v-.08Zm-3.79,4.05h-2.11l-.18-.09v.18q0,.18.18.18h6.52l.44-.09v-.18a.15.15,0,0,0-.17-.17h-1.59Z"/><path class="cls-1" d="M529.77,216.91q5.12.09,8,.09h3.35a.7.7,0,0,0,.44.18v.17h-5.29a2,2,0,0,0-1.23.27h-.8l-.17-.09v1.06c0,.11-.3.2-.88.26a.08.08,0,0,1-.09.09H518.84v.7a.16.16,0,0,1-.18.18h-1.94a2.88,2.88,0,0,0-.79-.44.68.68,0,0,1-.09-.35h-3.35c-.39,0-.62.32-.71,1a4.88,4.88,0,0,1-.7,1.41h-1.24l-.17-.09a.82.82,0,0,1-.89.62h-3.87c-.12,0-.18.08-.18.17s.18.09.18.18c.88-.06,1.52-.09,1.94-.09h3.52l.44.09a8,8,0,0,1-.7,1.85c.23,0,.35.15.35.44h1.23a.92.92,0,0,0,.62.18v.17h-1v.53c0,.12-.06.18-.17.18h-1.42a7.55,7.55,0,0,0-1.14,2.47.64.64,0,0,1-.35.17h-3.53v.09h3.61v.09c-.13.65-.3,1-.53,1H506v.09c1.3,0,1.94.06,1.94.17-.14.71-.47,1.06-1,1.06h-3.52v.09h3.88c0,.06,0,.09.08.09s-.55,1.31-1.67,3.7h4.85c.35.05.53.13.53.27v.7a.16.16,0,0,1-.18.18h-.53c-.09,0-.41.06-1,.17h-4.58c-.59-.11-.91-.17-1-.17h-7.5v.44h8.56l.17.09q-.57,1.5-1.23,2.91l-.8,2.38V242c0,.32.3.59.89.79h13c.88-.36,1.32-.6,1.32-.7q.57-1.5,1.14-1.5v-.88l-.52-.09v-.09l.61-.35a7.55,7.55,0,0,1,1.15-2.38h1.94v-.09a.54.54,0,0,1-.35-.18h-1.42a.15.15,0,0,1-.17-.17l.7-1.85h-4.23c-.14,0-.23-.12-.26-.36h-5.38v-.17H520q0-.27.18-.27h1.23a1.78,1.78,0,0,0,.62-1.06,3.83,3.83,0,0,1,.62-1.23h2.2l.09-.35h-1.85q-.14,0-.27-.27a1.39,1.39,0,0,1,.27-.79v-.18h-2.38v1.06a.16.16,0,0,1-.18.18h-6c-.07,0-.21.2-.44.62-.76.05-1.38.08-1.85.08h-1.41c-1.53,0-2.29-.08-2.29-.26v-.53q0-.18.18-.18h1.76v-.7q0-.18.18-.18H515c0-.23.18-.35.53-.35h1.59c.26-.35.44-.53.53-.53h3.17c.18,0,.27.18.27.53,1.48.06,2.57.09,3.26.09h1.67l.45-.09v-.09l-.45-.09h-1.58l-1.06-.35c.32-1,.59-1.59.79-1.68h1.5c.12,0,.18-.05.18-.17h-1.41a.91.91,0,0,0-.27-.18h-.79c-.12,0-.18-.09-.18-.26l-.17.09h-9.26a.16.16,0,0,1-.18-.18V226c0-.12.08-.17.18-.17h6.79c.12,0,.17.11.17.35h3.62a8.08,8.08,0,0,0,1.15-2.56l.88-.09h10.05l-.09-.17q0-.18.18-.18h4a2.22,2.22,0,0,1-.17.71h1.14v.17h-1.32a8.25,8.25,0,0,1-.7,2h1.58q.18,0,.18.18c-.09.23-.18.35-.27.35H539.2a10.68,10.68,0,0,1-.7,1.94,9.63,9.63,0,0,1-.89,1.85v.35h2.82q.18,0,.18.18v.18c-.06,1.32-.2,2-.44,2h-3.53c-.1,0-.3.31-.61.88v.09c.23,0,.35.06.35.18l-.18.09v-.09c-.23.09-.5.5-.79,1.23v.09h3.88v.18H535.5c-.27.12-.56.85-.88,2.2l.17-.09h2.65a.56.56,0,0,0,.35.18v.18q-1.92,0-5.64.09-4.44-.09-6.7-.09c0,.58-.18.88-.53.88v.18h2.64l.27-.18h5.82c.08,0,.2.12.35.35-.1,0-.31.47-.62,1.41h4.32c.08,0,.16.09.27.27a5.27,5.27,0,0,0-.71,1.94h-1.32a1.7,1.7,0,0,1-1.06.26h-1.41c-.09,0-.18-.09-.26-.26l.35-.36v-1.23q0-.1-.27-.27a7.28,7.28,0,0,0-.88,2.21c.53.07.8.16.8.26a.16.16,0,0,1-.18.18h-.62c-.35,0-.59.23-.7.7-1.31,1.81-2.19,2.75-2.65,2.83h-7v.08c.58.06,1,.09,1.32.09h3.35q.18,0,.18.18v.88a.16.16,0,0,1-.18.18h-4.14c-.12,0-.18.08-.18.17l.18.09h3.79c.11,0,.17.09.17.18a9.37,9.37,0,0,1-4,1.76c-.94.21-1.41.35-1.41.44-1.09.06-1.89.09-2.38.09H494a13.28,13.28,0,0,1-2-.35V251h1.76c.07,0,.16-.09.26-.26v-.09l-.44-.09h-2.38l-1.06-.35a5.26,5.26,0,0,1-1.85-2.38.08.08,0,0,0,.09-.09c-.65-.18-1-.74-1-1.68v-1.32a.08.08,0,0,1,.09-.09l-.09-.17a35,35,0,0,0,2.56-6.09v-.08c-.24,0-.35-.06-.35-.18s.08-.16.26-.27h.09l.17.09c.47-1.09.89-2.17,1.24-3.26a.92.92,0,0,1,1-.79H494c.43,0,.67.08.71.26a.08.08,0,0,0-.09.09h4.85a.08.08,0,0,0-.09-.09l.09-.44v-.18h-4.32q0,.27-.18.27h-3l-.18-.09a8,8,0,0,1,.62-2.2,4.15,4.15,0,0,1,.79-.09h6.08a1.28,1.28,0,0,1,.8.26h.26c.07,0,.16-.08.27-.26V231h-7.94l-.18-.09c.46-1.68,1-2.73,1.68-3.17h4.58a.16.16,0,0,0,.18-.18l-.18-.09H494.5c-.11,0-.17-.09-.17-.26,0-.41.19-.62.44-.62h.88v-.09h-1a.08.08,0,0,0-.09-.09,6.34,6.34,0,0,0,.44-1.23q-.18,0-.18-.09l-.17.09h-1.5A.16.16,0,0,1,493,225v-.26q0-.18.18-.18h1.59l.44-.09v-.44c-.36,0-.53-.06-.53-.17.53,0,.88-.44,1.06-1.33a5.91,5.91,0,0,1,1.32-2.2h.88c0-.41.09-.62.27-.62H503v-.53h-1.33c-.16,0-.25-.14-.26-.44h-2.91c-.09,0-.18-.08-.26-.26v-.35c0-.21.35-.36,1.05-.44v-.09h-.17v-.09c0-.18.35-.32,1.05-.44a.08.08,0,0,1,.09-.09h10.94a1.91,1.91,0,0,1,1.05.88v.62l-.17.26h4.76a.88.88,0,0,0,.26-.17h5l.44-.36h5.2A4.49,4.49,0,0,1,529.77,216.91Zm-38.88,6c.94,0,1.41.13,1.41.26v.09a.16.16,0,0,1-.18.18h-2.38c-.12,0-.17-.06-.17-.18v-.09C489.57,223,490,223,490.89,222.91Zm-.09-2.3h1.41l1.06.09v.18h-3.53v-.18Zm2.2,27.16c0,.17-.06.26-.17.26h-1.77v.09q0,.18.18.18h1.94c.12,0,.18.09.18.26h2V248h-.53c-.11,0-.17-.09-.17-.26Zm1.85-3.18q0,.18.18.18l-.09.18v.53h5.29l.18.08v-1Zm5.82-9.25-.17-.09a.16.16,0,0,1-.18.18h-4c0,.11.08.17.18.17h6.26v-.53c0-.07-.09-.16-.27-.26H501Zm-.35,13.75v.35l.44.09h1.41c.12,0,.21.3.27.88h4.32c.11,0,.17.09.17.27h1.59c.43,0,.66.09.71.26l-.09.18h1.32a.88.88,0,0,1,.09-.44c-.41,0-.62-.12-.62-.27v-.88a.16.16,0,0,0-.18-.18h-8.81c-.12,0-.18-.08-.18-.26Zm13.14-3.17a1,1,0,0,1-.27.17h-3.08v.18h1.06c.44,0,.7.12.79.35,1.48.06,2.57.09,3.26.09h1.15c.17,0,.26.21.26.62h3.17v-.09c-.29,0-.44-.06-.44-.18v-.61q0-.18.18-.18h3.79a6.51,6.51,0,0,0,.71-.18h.53l.17.09V246c-1.17.05-2.06.08-2.64.08h-.44c-.12,0-.21-.32-.27-1l-.17-.08h-1.06c-.16,0-.28.29-.36.88Zm-2.91-19.22h2.11c.08,0,.17.09.27.26v.09c0,.15-.41.24-1.24.26a9,9,0,0,0-1.23-.08.16.16,0,0,1-.18-.18V227C510.28,226.89,510.37,226.8,510.55,226.7ZM522.63,222h1.5c.11,0,.17.09.17.18s-.09.18-.26.27H523c-.31,0-.49-.09-.53-.27S522.52,222,522.63,222Zm.17,20.11v.08h4.41v-.08Zm2.3-4.85v.09c.23,0,.35.2.35.61a.08.08,0,0,0-.09.09h4.14v-.18l-.09-.44c.06,0,.09,0,.09-.08h-2.91q-.5,0-1.41-.09Zm.52-5.38v.53l.09.17.18-.08h6.17l.26.17h2.56c.07,0,.16-.09.26-.26l-.08-.44c.06,0,.08,0,.08-.09ZM533.56,219h1.58c.14,0,.23.35.27,1.06h3.35a1.63,1.63,0,0,0,1.06-.27h1.58l.36.27a7.55,7.55,0,0,1-1.06,2.46H526.51a1,1,0,0,1-.53-.17,30.26,30.26,0,0,1,1.32-3h4.58c.18,0,.27.29.27.88a1,1,0,0,0,.26-.17h.88C533.34,219.38,533.43,219,533.56,219Zm.53,28.56h2.82q.18,0,.18.18v.7a.16.16,0,0,1-.18.18h-1.32v.53c0,.12-.06.17-.18.17h-3.53a.15.15,0,0,1-.17-.17v-.09c0-.12.07-.18.17-.18h1.94v-1Q533.82,247.74,534.09,247.59Zm3.08-28.83h4.94c0,.59-.26.88-.79.88H537.7c-.44,0-.67-.08-.7-.26v-.44C537,218.82,537.07,218.76,537.17,218.76Z"/><path class="cls-1" d="M561.55,222.11c.59,0,.88.09.88.27v.09h7.05c.12,0,.18.11.18.35.79-.06,1.38-.09,1.76-.09h8.64c.12,0,.18.12.18.35h6.08c0-.23.18-.35.53-.35h7.41c.35,0,.53.12.53.35s0,.5-.09,1.24h2v.17c-.8.06-1.38.09-1.77.09h-.26l-.35.35h-2.21c-.09,0-.17.09-.26.27v.18a.16.16,0,0,0,.17.17h2.12q.18,0,.18.18c-.24.53-.39.79-.44.79h-9.7a.08.08,0,0,0,.09.09l-.09.44v.79h-.27V228l.62.09h1.06l.44-.09v-.18l-.18.09a.15.15,0,0,1-.17-.17v-.18c0-.07.08-.16.26-.27h7.32c.12,0,.17.09.17.18v.27c0,.11-.11.17-.35.17v.18h.18a1.92,1.92,0,0,1-.18.61h.18a.69.69,0,0,0,.26-.17h1c.12,0,.18.09.18.17a.16.16,0,0,1-.18.18h-1.14c-.43,0-.72.5-.89,1.5h1.42v.09a1.27,1.27,0,0,1-.45,1.06h-.61a.61.61,0,0,1-.62-.44c-.16,0-.34.32-.53,1l-.18.08h-8.81c-.12,0-.18-.08-.18-.26h-2.64l.09.18-.09.17h5.2v.18h-.79V233h3.26a1.08,1.08,0,0,1,.62.26h2.11c.47,0,.71.12.71.35-1,2.12-1.72,3.18-2.21,3.18a.08.08,0,0,1-.09.09h-1.23l.09.17-.18.09h-.62v.79c0,.12,0,.18-.17.18h-4.76q-.18,0-.18.18v.09h5.2c.09,0,.21.11.36.35l-2.12,1.58v.09l.18-.09H587q.18,0,.18.27h2.64c.28.16.43.28.44.35l-.18.09h-1.23c-.51,0-1.31,0-2.38.09,0,.12-.06.17-.18.17h-3a7.6,7.6,0,0,1-2.38.44c-.3,0-.44-.13-.44-.26l-.18.09H576.1c-.12,0-.18-.15-.18-.44H570v1.32c-.06.18-.23.26-.53.26h-1.05l-.36.62h-.17v.09h3.88c0-.29.06-.44.17-.44h7.14c.06,0,.21-.21.44-.62h2l.27-.17h5.11a6,6,0,0,0,.71.17h1.41c.35,0,.53.13.53.27v.08c0,.36-.24.53-.71.53a10.48,10.48,0,0,1-1.67.09H586l-.26.18c-1.33.06-2.38.09-3.18.09h-.09v.08a1.13,1.13,0,0,1,.27.71h1.41a20.73,20.73,0,0,0,3.53.35q0,.18,1.05.27v.61c.36,0,.53.06.53.18V246c0,.08-.09.17-.26.26h-2.73c-.94-.13-1.42-.25-1.42-.35v-.44h-1.41v.26a15.07,15.07,0,0,1,.89,1.76h.52c0-.29.06-.44.18-.44h2.12c.17,0,.26.12.26.36h1.5l.18.08c-.11.94-.22,1.41-.36,1.41H585a4.5,4.5,0,0,1,.53,1.77q0,.62-1.41,1.32-6.9.09-8.64.09c0,.12-.06.17-.18.17H574l-.26-.17h-.09a.78.78,0,0,1-.27.17h-3a.76.76,0,0,0-.44-.17v-.18h6.87c.08,0,.16-.09.27-.26h-.89l-.17-.09c0,.18-.06.26-.18.26H569.4c-.33-.07-.8-1.07-1.41-3,0-.06.3-.09.88-.09v-.09c-.88,0-1.32-.35-1.32-1.06a1.27,1.27,0,0,1-.27-.88l.18-.09H568l.17.09a3,3,0,0,0,.27-1.15l.17-.08h4.23v-.09a.63.63,0,0,1-.08-.27.07.07,0,0,0,.08-.08h-6c-.12,0-.35-.33-.71-1h-2.64a.16.16,0,0,1-.18-.18v-1.24h-2.73l-.26.18H559c-.64.06-1,.32-1,.79a.77.77,0,0,0-.53.18H549a1,1,0,0,0-.62-.26h-1.85l.09.17c0,.06-.21.18-.62.36l-.44-.09h-.88v.17c1.47-.05,2.65-.08,3.53-.08h9.34c.12,0,.18.08.18.17a21.17,21.17,0,0,1-.79,2l.26.18h.09l.26-.18h4.06a5.12,5.12,0,0,0,.7.18c1.53,0,2.3.08,2.3.26a.16.16,0,0,1-.18.18h-.62l-.17-.09c0,.12-.06.17-.18.17h-6a.15.15,0,0,1-.17-.17l-.18.09-.17-.09c-.28,0-.7.91-1.24,2.73a.69.69,0,0,1,.09.27q-.18,0-1.23,1a4.4,4.4,0,0,1-2.56.62h-2.12a1.84,1.84,0,0,1-1.23.35h-1.5c-.09,0-.18-.08-.26-.26l.08-.18h-2.47a2.11,2.11,0,0,0-1.23-.26l-.35.26h-1.5c-.09,0-.3-.2-.62-.61v-1a.52.52,0,0,1,.53-.36v-1.05a5.11,5.11,0,0,0,.62-1.68,6.26,6.26,0,0,0,.53-1.41.83.83,0,0,1,.88-.71.72.72,0,0,1,.17-.35,1.21,1.21,0,0,1-.61-.09L543,244v-.18h-2.38a.16.16,0,0,1-.18-.18c.18-1.05.35-1.58.53-1.58h.62c.11,0,.17.09.17.17v.27h-.62c-.11,0-.17.09-.17.17v1h2.2c.59-1.94,1.06-3,1.41-3.17v-.09h-2.47v-.09l2.65-2.2.17.09q.46,0,2-4.5h-1.06a.15.15,0,0,1-.17-.17v-.18c0-.12.07-.18.17-.18h1.15q.31,0,1.32-2.91A1,1,0,0,1,549,230h.88c0-.24.24-.35.71-.35v-.18l-.18.09h-.26q-.18,0-.18-.27h-.79c-.15,0-.24-.11-.27-.35a6.23,6.23,0,0,1,1-2h11.2v-.17a.16.16,0,0,0-.18-.18h-6.34c-.12,0-.21-.23-.27-.7h-.53c-.23.35-.38.53-.44.53h-4.5c-.11,0-.17-.06-.17-.18l.26-.18h.53l.27.18c.33,0,.66-.62,1-1.85.11,0,.17-.06.17-.18h-1.41l-.17-.09c.32-.82.55-1.23.7-1.23h1.32c.24-.47.5-.71.8-.71Zm-15.08,7.41h1.06v.17h-1.06Zm3.53,9.26.09.17V239a.08.08,0,0,1-.09.09l.09.18v.17c-.05.18-.28.27-.71.27h-1.23l.09.17-.09.18.18.09c6,.06,9.44.08,10.4.08a.08.08,0,0,0,.09.09c0-.29.1-.44.26-.44h4.59a.57.57,0,0,1,.08-.26l-.26-.18h-1.68c-.11,0-.17-.15-.17-.44h-1.32l-.36-.35h-9.52ZM556.44,217h16.84c.64,0,1,.09,1,.26v.45H586c.12,0,.18.08.18.26h5.2v.18h-1.24l-.35.35h-1.32a6.36,6.36,0,0,0-1.32.18v.17l.44-.09h4.76c.82,0,1.53.77,2.11,2.3-.33,0-.51.29-.52.88-1.27.06-2.21.08-2.83.08H580.42c-.53,0-.8-.29-.8-.88H578.3c-.12,0-.18-.06-.18-.17v-.88h-5.55V221a.17.17,0,0,0,.18.17h.88c.12,0,.17.09.17.18v.53c0,.17-.23.26-.52.26h-9.09c-.47,0-.7-.11-.7-.35H556.7l-.44-.35H552a1.63,1.63,0,0,1,.35-.88v-.18h-1.59c-.11,0-.17-.06-.17-.18v-.08c0-.36.11-.53.26-.53h1.85a2.67,2.67,0,0,1,1-1.59c0-.32.65-.59,1.94-.79h.09l.88.08v-.17l-.17.09h-.18Q556.28,217,556.44,217Zm-5.82,34.56h5v.18h-.88a.08.08,0,0,1-.09-.09l-.17.09h-3.88Zm6.35-.71h2.11q.18,0,.18.18v.53a.16.16,0,0,1-.18.18h-2.91v-.18h.62l-.09-.35Q556.83,250.85,557,250.85Zm-.53-25.65v.18h9.61v-.18Zm1.67,8.11.09.44a.08.08,0,0,0-.09.09h1.41v-.18h-.26a10.2,10.2,0,0,0-1.06-.35Zm3.26,16.4h.36c.88.14,1.32.26,1.32.35s-.27.21-.79.27c0,0,0,.08-.09.08h-1.85v-.35c0-.12.32-.21,1-.26C561.29,249.74,561.31,249.71,561.37,249.71Zm12.7-23.81c0,.36-.06.53-.18.53h-6.26c-.12,0-.17.09-.17.18v1.15c0,.17-.77.26-2.3.26h-.88l-2.38,5.47c-.47.14-.7.26-.7.35a1.77,1.77,0,0,1,1.06.35h8a1,1,0,0,0,1,.62h.09v.09l-.09.17h.53v-.44c0-.12.07-.17.17-.17h11.11q0-.36.27-.36h3.61a.84.84,0,0,1,.44-.26v-.09l-.88-.09h-8.11a.77.77,0,0,1-.62.44H571.6c-.65,0-1-.09-1-.26v-.09l.09-.18c1.07,0,1.86-.08,2.38-.08h2.47a3.79,3.79,0,0,0,1.41-2.38l1.14-2.83h-1.49q0,.18-.45.36h-4.84a1.29,1.29,0,0,0-.8-.27h-3.17c-.12,0-.18-.06-.18-.17v-.09h.88l.27-.18h9.78q.36,0,.36-1.32a.79.79,0,0,0-.44-.71Zm-11.29,15.34v.44h1.5v-.44Zm1.06-1v.27q0,.18.18.18h5.29c.12,0,.17-.06.17-.18v-.27Zm1.32-9.25h1.24l.44.09v.17H565v-.09A.16.16,0,0,1,565.16,231Zm4.32-5.29h-3.43a3.55,3.55,0,0,0-.8.17V226h.62a4.33,4.33,0,0,1,.71-.17h3.08v-.18Zm15.08-5.91a.7.7,0,0,1-.18.44h.27a.15.15,0,0,0,.17-.17v-.27Zm.18,9.7a.89.89,0,0,1,.08.44h2.56a.7.7,0,0,1,.18-.44ZM585,219.2v.09h.71v-.09Zm2.38-2.11h1.41a4.4,4.4,0,0,1,1.41.26v.18h-2.82c-.12,0-.17-.06-.17-.18v-.09A.16.16,0,0,1,587.38,217.09Zm4.14,8.81v.36H592v-.18a.16.16,0,0,0-.18-.18Zm.36,4.94v.09h.44v-.09Zm3.88-10h1.76q.18,0,.18.18v.44c0,.31-.09.48-.27.52h-1.5c-.08,0-.2-.14-.35-.44v-.52C595.6,220.94,595.65,220.88,595.76,220.88Z"/><path class="cls-1" d="M594.15,247.44h.53v.17a.66.66,0,0,0-.36.18h-.26a.16.16,0,0,1-.18-.18Zm15.78-30.68h9.34l.27.17H626q.18,0,.18.18v.44a.16.16,0,0,1-.18.18H622.1l-.18-.09v.09a5.32,5.32,0,0,1,.09.53c0,.76-.27,1.14-.8,1.14v.09a.78.78,0,0,1,.44.09l-.44,1.23h2.38v-.44c0-.12.09-.17.18-.17h1.15l.17.08c-.29.83-.5,1.24-.61,1.24h-3.35l-.18-.09-.71,1.94h2.82l1.06.09v.26h-3.7l-.18-.09-.7,1.41h-1v.18h.7c.12,0,.18.07.18.18l-.62,1.41.18.09h2.64v.17h-2.73c-.17,0-.67,1.15-1.5,3.44h3.79c.12,0,.18.07.18.18s-.12.2-.35.35h-2.29a2.59,2.59,0,0,0-1.5-.27h-.09l-1.94,4.68v.09l.17.08h2.91l.27-.17h.88l.18-.09.09.18a5.89,5.89,0,0,1-1.33,2.2h-4a4.2,4.2,0,0,0-.71,1.5h.79c1,.13,1.46.28,1.5.44v.09l-.17.09h-.09l-.44-.09-.09.17V241h.44v.18H613c-.13,0-.39.67-.79,2a9.34,9.34,0,0,1-1.15,2.46.68.68,0,0,1-.35.09H609c0,.09.09.18.26.27h1.68c.12,0,.17.07.17.17a7.85,7.85,0,0,0-.61,1.59h-.18q-2.79,0-10.58.09v.7h3.09c.11,0,.17.08.17.18v.79c0,.18-.23.27-.7.27l.09.17v.62h6.26v.09c0,.21-.39.38-1.15.53a.08.08,0,0,1-.09.09c-.89.06-1.69.08-2.38.08-.12,0-.17,0-.17-.08l-.62.08H598l-.27.18h-1.41a2.28,2.28,0,0,1-1.5-1.15v-.08a31.91,31.91,0,0,1,1-3.09h-1.41a.15.15,0,0,1-.17-.17,6.48,6.48,0,0,1,.88-1.06h1.58v-.09h-.26v-.18q.94-2.82,1.23-2.82h4.68c.11,0,.17-.06.17-.18v-.17H598q-.12,0-.27-.27l.88-2.11h-1.85c-.11,0-.17-.06-.17-.18v-.17c0-.09.08-.18.26-.27h1.76l.18.09a16.25,16.25,0,0,1,.88-2.12,12,12,0,0,1,.62-1.41l.26-.53-.17-.08H598l-.18-.09a3.75,3.75,0,0,1,1.06-2.29h.88a6.8,6.8,0,0,0,1-.09.08.08,0,0,1,.09.09l.7-.09c1.74.06,2.88.09,3.44.09V232q0-.18.18-.18h.53v-.35h-3.35l-.18-.09a8,8,0,0,0,.71-1.76H612a.87.87,0,0,1,.53-.79v-1q0-.18.18-.18H617v-.09h-5.2a4.18,4.18,0,0,0-2,.27H607l-.26-.18h-2.91l-.18-.09a12.18,12.18,0,0,0,1-2.38l-.44.09H603v-.09c.18-.65.36-1,.53-1h1.33a23.1,23.1,0,0,0,1.76-3.88c.14-.82.35-1.23.62-1.23h.88v-.09h-1a.16.16,0,0,0-.18-.18h-1.41l-.18-.09q.09-1.14.27-1.14h2.47a2.74,2.74,0,0,1,1.76-.79A.08.08,0,0,1,609.93,216.76Zm-6.61,31.3h6.78l.18.08a1.22,1.22,0,0,1-.53,1H603.4c-.07,0-.16-.09-.26-.26v-.62C603.17,248.11,603.23,248.06,603.32,248.06Zm.88-1.42v.09a5.44,5.44,0,0,1,1.06.09l.08-.18Zm5.46-24v.09h.89a.93.93,0,0,1,.26.18h.26a.16.16,0,0,0,.18-.18l-.26-.17h-.71Z"/><path class="cls-1" d="M668.54,216.85q5.81,0,7.4,3.7a4.49,4.49,0,0,1,.62,2.38q-.09,1.5-.27,1.5v.35c.44,0,.68.09.71.26-.19.83-.34,1.24-.44,1.24h-5.91v.09c.24,0,.35.09.35.26h4.59v.09a9.94,9.94,0,0,1-.62,1.5v.09h1v.08c-.23.77-.41,1.15-.53,1.15h-1.06l-.61,1.68A7.49,7.49,0,0,0,673,233h.62l.17.09c-.35,1-.61,1.58-.79,1.67h-.88a5.34,5.34,0,0,1-.44,1.24c-.38,1.17-.74,1.76-1.06,1.76h-2.82a1.61,1.61,0,0,1-1-.35h-.18v.44h2.74V238H669v.09h1.67q.18,0,.18.18c-.33.72-.74,1.72-1.24,3a4.94,4.94,0,0,0-.61,1.41l-.18.08h-8.38l-.26.18h-1.59v.62c0,.09-.17.2-.53.35h-9.87l-.27.18h-8.37l-.09.44v1a.59.59,0,0,1-.62.35h-8.46v.09h.79v.18h3a.67.67,0,0,1,.35.08.71.71,0,0,1,.36-.08h1.23l.27-.18h7.84c0-.24.27-.35.8-.35v-.09h-3.18c-.35-.15-.53-.27-.53-.35v-.45c0-.11.08-.17.18-.17h8.64v.62c0,.08-.15.2-.44.35h-2.38l.09.44a.08.08,0,0,0-.09.09h4.76a.08.08,0,0,0-.09-.09l.09-.44v-.8s.09-.13.26-.26q3.2-.09,4.59-.09h2.64c.91,0,2.29,0,4.15.09a.08.08,0,0,0-.09-.09l.09-.44v-.18l-.18-.26c-1.18-.06-2.06-.09-2.65-.09H660a.15.15,0,0,1-.17-.17l.17-.09h2.82q2.67,0,8.56.09a.07.07,0,0,0,.08.08c-.05.65-.17,1-.35,1h-.79v.8c0,.12-.06.17-.18.17-1,.06-1.75.09-2.29.09h-.44c0,.35-.77,1.18-2.29,2.47a4.33,4.33,0,0,1-.8.09h-6.61a5.12,5.12,0,0,1-.7-.18h-1.94c0,.3-.39.44-1.15.44h-.71v.09h11.2v.09a9.88,9.88,0,0,1-2.38,1.59l-.18-.09a4.94,4.94,0,0,1-1.41.7l-.17-.09a5.67,5.67,0,0,1-1.77.8c-1.29.06-2.26.09-2.9.09,0,.11-.09.17-.27.17q-7.69,0-24.33.09l-.09-.18-.18.09h-2.29l-.26-.17h-.53a7.31,7.31,0,0,1-3.18-1.06,5.55,5.55,0,0,1-2.29-4.14c-.12,0-.17-.06-.17-.18v-1a10,10,0,0,0,.44-1.85c.05,0,.08,0,.08-.09v-.53h-2.64a.16.16,0,0,1-.18-.18l.18-.08h2.82a6.8,6.8,0,0,0,.53-1.59v-.09h-3.35c-.12,0-.18-.06-.18-.17s.09-.17.27-.27h2.2c.59-.12.91-.18,1-.18h.44c0-.17.15-.35.44-.52h6.17v-.53h-5.73l-.35-.27a8.15,8.15,0,0,0,.79-2.2h4.85a.08.08,0,0,1,.09.09.68.68,0,0,1,.35-.09v-.18l-.17.09h-4.76a.16.16,0,0,1-.18-.18,44.72,44.72,0,0,1,2.2-5.38h2.56v-1.23c0-.18.5-.26,1.5-.26v-.09h-3.26a.16.16,0,0,1-.18-.18,3.9,3.9,0,0,0,.18-.88h-.62c-.94-.13-1.41-.25-1.41-.35v-.44h-2.73a.16.16,0,0,1-.18-.18V227c0-.11.07-.17.18-.17h2.82v-.53H625c-.12,0-.17-.06-.17-.18L625,226h2.21a.93.93,0,0,1,.26.18h1.24c.33,0,.57-.32.7-1q.33-1.31,2.82-3.79v-.09l-.17.09h-.27c-.17-.06-.26-.24-.26-.53v-.26h-.8c-.11,0-.17-.06-.17-.18v-.79c0-.12.07-.18.17-.18h3.71a13.94,13.94,0,0,0,2.73-1.23,4.82,4.82,0,0,1,1.32-.45h.18c0-.29,1.11-.58,3.35-.88h14.46Q661,216.93,668.54,216.85ZM621,225.13c.94.05,1.41.13,1.41.27v.09c0,.11-.06.17-.18.17h-2.38c-.12,0-.18-.06-.18-.17v-.09C619.69,225.26,620.13,225.18,621,225.13Zm-1.15,24h2.73q.18,0,.18.18v.62c.23,0,.35.06.35.17s-.06.18-.17.18h-3.09a.16.16,0,0,1-.18-.18v-.79Q619.72,249.11,619.87,249.11Zm.7-26.27h1.94l.89.09v.17h-3.27v-.17Zm6.88,24.6v.09h4.85v-.09Zm1.06-5.38a6.67,6.67,0,0,0,1.76.18c1.34-.06,2.16-.09,2.47-.09v-.27h-4Q628.51,241.93,628.51,242.06Zm4-8.9h-2c0,.05,0,.08.09.08l-.09.44v.09a.72.72,0,0,1,.18.44l.17-.08h.62l.18.08c.11-.26.23-.41.35-.44h2.82a.15.15,0,0,0,.17-.17v-.09h-1.32c-.1,0-.31-.18-.61-.53h-.27ZM631,246v.17h.09V246Zm3.79-11.11H632c-.09,0-.18.09-.27.26H635l.27.18h2.11c0-.29.06-.44.18-.44h.88v-.18h-2.29Q634.91,234.92,634.77,234.92Zm-.35-15V220h2v-.09Zm23.18,5.82H645.44c-1.47.57-2.21,1.31-2.21,2.2-.06,0-.23.3-.53.89v.08q.36,0,.36.18v.18c-.47.26-.71.44-.71.53l-1,2.2.18.09h3.7c0-.24.12-.36.26-.36h1.94a.53.53,0,0,1,.36-.52H651c.18,0,.27.17.27.52h.52c.3,0,.74,0,1.33.09V232h-2.3v1.06a.15.15,0,0,1-.17.17h-6l-.35.62c-.82.06-1.53.09-2.12.09H640.5a22.7,22.7,0,0,0-1.06,2.82v.09h1.5c.09,0,.18.09.26.26v.71c0,.17-.76.26-2.29.26l-1.32,3.09a.77.77,0,0,1-.18.53c.21.53.5.79.89.79,0,.06.17.09.52.09h6.26c1.27,0,3,0,5.12-.09l.44.09a11.41,11.41,0,0,1,1.5-.09h1.41a1,1,0,0,1,.61-.26v-.09h-1.23a1,1,0,0,1-.62-.27H649.4l-.44-.08v-.09q0-.18.18-.18h2.56v-1c0-.17.23-.26.52-.26h3l1.33-3.53h-.09q-5.73-.09-8.91-.09h-.35c-.15,0-.24-.12-.27-.35h-5.37v-.18h8.55c0-.17.06-.26.18-.26h1.23a.8.8,0,0,0,.26-.18h.53a.08.08,0,0,1,.09.09,1,1,0,0,1,.53-.18h1.94c0-.41.18-.61.53-.61h1.94c0-.53.35-.88,1.06-1.06,0-.18.26-.27.79-.27v-.08a1.48,1.48,0,0,1-1.15-.53V233a10.34,10.34,0,0,1,1-2h10.67v-.09a.15.15,0,0,0-.17-.17h-6.35c-.06,0-.18-.27-.36-.8a1.19,1.19,0,0,0-.88.53h-2.55c-.12,0-.18-.06-.18-.17a5,5,0,0,0,.44-1.41H658.4c0,.23-.06.35-.18.35h-.79a.78.78,0,0,1-.27.17h-2.29a5.67,5.67,0,0,1-.71-.17h-.61q-.18,0-.18-.27h-9.61v-.7c0-.12.07-.18.18-.18h6.79c.11,0,.17.12.17.35h8.38c0-.23.2-.35.61-.35.18,0,.39-.41.62-1.23a.68.68,0,0,1-.09-.35l.36-.27h.79q3.43,0,10.49-.09h.09V226l-.44-.08h-6.53l-.35-.36h-6.26A9.69,9.69,0,0,1,657.6,225.75Zm-19.3,22.31v.08h1.85c0,.12.07.18.17.18h1.94v-.18c-.86,0-1.86,0-3-.08Zm.88-26.72v.09a.66.66,0,0,1,.26.09v-.18Zm7-1H640.5v.35c2.57-.05,4.48-.08,5.73-.08h.44v-.18l-.09-.18Zm-4.58,1.24.09.17a.57.57,0,0,1-.09.27l.09.53h6.08c.35,0,.53.2.53.61h4.41c.08,0,.2-.11.35-.35h-.88c-.12,0-.18-.12-.18-.35h-9.34c-.12,0-.21-.27-.27-.8.06,0,.09,0,.09-.08Zm3.26,26.89v.17q0,.18.18.18h6.7c.08,0,.17-.09.26-.27s-.06-.17-.18-.17Q646.41,248.5,644.82,248.5ZM652,218.08l-.09.18-.44-.09h-5.91v.09h1.24c.23.17.35.32.35.44-.06.61-.09,1-.09,1.06h4.5l-.09-.18v-.27c0-.11.08-.17.18-.17h4.76c.09,0,.18-.09.26-.27v-.53a.15.15,0,0,0-.17-.17h-3.88Zm-6.17,7v.36h1.14v-.36l-.17.09H646Zm.62-7.93v.09h.44v-.09Zm5.29,7.32h-3.62v.08h4.59l-.09-.17c0-.12.11-.18.35-.18a.16.16,0,0,0-.18-.18h-.7Zm8.9-5.38a.8.8,0,0,1-.18.26V220h4.76c.45,0,.68.09.71.26V221h2.73l-.08-.18v-.88c-.24,0-.36-.06-.36-.17l-.17.08h-6.09a1.16,1.16,0,0,1-.7-.7l-.18.09h-.26Zm.44,2.38v.26c.47.11.71.34.71.71v.09c.17,0,.29-.36.35-1.06Zm.09-4.32v.09h1.67v-.09Zm3.09,32.62h4.58l.18.09c-.28.64-.46,1-.53,1h-2.74v.52c0,.12-.06.18-.17.18H662a.16.16,0,0,1-.18-.18v-.08q0-.18.18-.18H664v-1.06C664,250,664,249.92,664.22,249.82Zm.7-30.42v.09h8.55v-.09Zm0,10v.18h8.82v-.09c-1-.06-1.71-.09-2.21-.09Zm5,1.68v.09h1V231Z"/><path class="cls-1" d="M718.72,216.91q5.12.09,8,.09h3.35a.72.72,0,0,0,.45.18v.17h-5.29a2,2,0,0,0-1.24.27h-.79l-.18-.09v1.06c0,.11-.29.2-.88.26a.08.08,0,0,1-.09.09H707.79v.7a.16.16,0,0,1-.18.18h-1.94a2.74,2.74,0,0,0-.79-.44.68.68,0,0,1-.09-.35h-3.35c-.38,0-.62.32-.7,1a5.19,5.19,0,0,1-.71,1.41H698.8l-.18-.09a.82.82,0,0,1-.88.62h-3.88c-.12,0-.18.08-.18.17s.18.09.18.18c.88-.06,1.53-.09,1.94-.09h3.53l.44.09a8.1,8.1,0,0,1-.71,1.85c.24,0,.35.15.35.44h1.24a.89.89,0,0,0,.61.18v.17h-1v.53a.16.16,0,0,1-.18.18h-1.41a7.23,7.23,0,0,0-1.15,2.47.58.58,0,0,1-.35.17h-3.53v.09h3.62v.09c-.13.65-.31,1-.53,1h-1.85v.09c1.29,0,1.94.06,1.94.17-.15.71-.47,1.06-1,1.06h-3.53v.09h3.88a.08.08,0,0,0,.09.09c0,.07-.56,1.31-1.68,3.7h4.85c.35.05.53.13.53.27v.7a.16.16,0,0,1-.18.18h-.52a9.73,9.73,0,0,0-1,.17h-4.59c-.59-.11-.91-.17-1-.17h-7.49v.44h8.55l.18.09c-.39,1-.8,2-1.24,2.91L692,241.6V242c0,.32.29.59.88.79h13c.88-.36,1.32-.6,1.32-.7.38-1,.77-1.5,1.15-1.5v-.88l-.53-.09v-.09l.62-.35a7.87,7.87,0,0,1,1.14-2.38h1.94v-.09a.56.56,0,0,1-.35-.18h-1.41c-.12,0-.18,0-.18-.17l.71-1.85H706q-.22,0-.27-.36h-5.38v-.17h8.56c0-.18,0-.27.17-.27h1.24a1.77,1.77,0,0,0,.61-1.06,4,4,0,0,1,.62-1.23h2.2l.09-.35H712c-.09,0-.17-.09-.26-.27A1.45,1.45,0,0,1,712,230v-.18h-2.38v1.06a.16.16,0,0,1-.18.18h-6c-.07,0-.22.2-.44.62-.77.05-1.38.08-1.85.08h-1.41c-1.53,0-2.3-.08-2.3-.26v-.53q0-.18.18-.18h1.76v-.7q0-.18.18-.18H704c0-.23.18-.35.53-.35h1.58c.27-.35.44-.53.53-.53h3.18c.17,0,.26.18.26.53,1.49.06,2.57.09,3.26.09H715l.44-.09v-.09l-.44-.09h-1.59l-1.06-.35c.33-1,.59-1.59.8-1.68h1.5a.15.15,0,0,0,.17-.17h-1.41a.93.93,0,0,0-.26-.18h-.8c-.11,0-.17-.09-.17-.26l-.18.09h-9.26c-.11,0-.17-.06-.17-.18V226c0-.12.07-.17.17-.17h6.79c.12,0,.18.11.18.35h3.61a7.83,7.83,0,0,0,1.15-2.56l.88-.09h10l-.09-.17q0-.18.18-.18h4a2,2,0,0,1-.18.71h1.15v.17h-1.33a7.81,7.81,0,0,1-.7,2H730c.11,0,.17.09.17.18s-.17.35-.26.35h-1.77a10.68,10.68,0,0,1-.7,1.94,9.62,9.62,0,0,1-.88,1.85v.35h2.82q.18,0,.18.18v.18c-.06,1.32-.21,2-.45,2H725.6c-.1,0-.31.31-.62.88v.09c.24,0,.35.06.35.18l-.17.09v-.09c-.24.09-.5.5-.8,1.23v.09h3.88v.18h-3.79c-.26.12-.56.85-.88,2.2l.18-.09h2.64a.56.56,0,0,0,.35.18v.18q-1.9,0-5.64.09c-3-.06-5.19-.09-6.7-.09,0,.58-.18.88-.53.88v.18h2.65l.26-.18h5.82c.09,0,.21.12.35.35-.1,0-.31.47-.61,1.41h4.32c.07,0,.16.09.26.27a5.29,5.29,0,0,0-.7,1.94h-1.33a1.66,1.66,0,0,1-1,.26h-1.42c-.08,0-.17-.09-.26-.26l.35-.36v-1.23c0-.07-.09-.16-.26-.27a6.79,6.79,0,0,0-.88,2.21c.52.07.79.16.79.26a.16.16,0,0,1-.18.18h-.61c-.36,0-.59.23-.71.7-1.31,1.81-2.19,2.75-2.64,2.83h-7v.08q.88.09,1.32.09h3.35q.18,0,.18.18v.88a.16.16,0,0,1-.18.18h-4.14c-.12,0-.18.08-.18.17l.18.09h3.79q.18,0,.18.18a9.43,9.43,0,0,1-4,1.76c-.94.21-1.41.35-1.41.44-1.09.06-1.88.09-2.38.09H682.93a13.33,13.33,0,0,1-2-.35V251h1.76c.08,0,.16-.09.27-.26v-.09l-.44-.09h-2.38l-1.06-.35a5.18,5.18,0,0,1-1.85-2.38.08.08,0,0,0,.09-.09c-.65-.18-1-.74-1-1.68v-1.32c0-.06,0-.09.08-.09l-.08-.17a35.09,35.09,0,0,0,2.55-6.09v-.08c-.23,0-.35-.06-.35-.18s.09-.16.26-.27h.09l.18.09c.47-1.09.88-2.17,1.23-3.26a.93.93,0,0,1,1-.79h1.68c.42,0,.66.08.7.26a.08.08,0,0,0-.09.09h4.85a.08.08,0,0,0-.09-.09l.09-.44v-.18h-4.32c0,.18-.06.27-.17.27h-3l-.18-.09a8.48,8.48,0,0,1,.62-2.2,4.24,4.24,0,0,1,.79-.09h6.09a1.25,1.25,0,0,1,.79.26h.26c.08,0,.17-.08.27-.26V231H681.6l-.17-.09c.45-1.68,1-2.73,1.67-3.17h4.59c.12,0,.17-.06.17-.18l-.17-.09h-4.23c-.12,0-.18-.09-.18-.26,0-.41.19-.62.44-.62h.88v-.09h-1a.08.08,0,0,0-.09-.09,6,6,0,0,0,.45-1.23q-.18,0-.18-.09l-.18.09h-1.5c-.11,0-.17-.06-.17-.18v-.26c0-.12.07-.18.17-.18h1.59l.44-.09v-.44c-.35,0-.53-.06-.53-.17.53,0,.88-.44,1.06-1.33a6,6,0,0,1,1.32-2.2h.88c0-.41.09-.62.27-.62h4.76v-.53H690.6c-.16,0-.25-.14-.27-.44h-2.91c-.08,0-.17-.08-.26-.26v-.35c0-.21.35-.36,1.06-.44v-.09H688v-.09c0-.18.35-.32,1.06-.44a.08.08,0,0,1,.09-.09h10.93a1.94,1.94,0,0,1,1.06.88v.62l-.18.26h4.76a1,1,0,0,0,.27-.17h5l.44-.36h5.2A4.49,4.49,0,0,1,718.72,216.91Zm-38.88,6c.94,0,1.41.13,1.41.26v.09c0,.12-.06.18-.17.18H678.7a.16.16,0,0,1-.18-.18v-.09C678.52,223,679,223,679.84,222.91Zm-.09-2.3h1.41l1.06.09v.18H678.7v-.18ZM682,247.77c0,.17-.06.26-.18.26H680v.09c0,.12.07.18.17.18h1.94c.12,0,.18.09.18.26h2V248h-.53c-.12,0-.18-.09-.18-.26Zm1.85-3.18q0,.18.18.18l-.09.18v.53h5.29l.17.08v-1Zm5.82-9.25-.18-.09a.16.16,0,0,1-.18.18h-4a.16.16,0,0,0,.17.17h6.26v-.53c0-.07-.08-.16-.26-.26H690Zm-.36,13.75v.35l.45.09h1.41c.11,0,.2.3.26.88h4.32q.18,0,.18.27h1.58c.43,0,.67.09.71.26l-.09.18h1.32a.88.88,0,0,1,.09-.44c-.41,0-.61-.12-.61-.27v-.88a.16.16,0,0,0-.18-.18h-8.82c-.12,0-.17-.08-.17-.26Zm13.14-3.17a1,1,0,0,1-.26.17h-3.09v.18h1.06c.44,0,.7.12.79.35,1.49.06,2.57.09,3.27.09h1.14c.18,0,.27.21.27.62h3.17v-.09c-.29,0-.44-.06-.44-.18v-.61c0-.12.07-.18.17-.18h3.8s.27-.06.7-.18h.53l.18.09V246c-1.18.05-2.06.08-2.65.08h-.44c-.12,0-.21-.32-.26-1l-.18-.08h-1.06c-.16,0-.28.29-.35.88ZM699.5,226.7h2.12c.07,0,.16.09.26.26v.09c0,.15-.41.24-1.23.26a9.23,9.23,0,0,0-1.24-.08c-.11,0-.17-.06-.17-.18V227C699.24,226.89,699.33,226.8,699.5,226.7ZM711.58,222h1.5c.12,0,.18.09.18.18s-.09.18-.27.27h-1.06c-.31,0-.48-.09-.53-.27S711.48,222,711.58,222Zm.18,20.11v.08h4.4v-.08Zm2.29-4.85v.09c.23,0,.35.2.35.61a.08.08,0,0,0-.09.09h4.15v-.18l-.09-.44c.06,0,.09,0,.09-.08h-2.91q-.51,0-1.41-.09Zm.53-5.38v.53l.09.17.17-.08H721l.27.17h2.56c.07,0,.16-.09.26-.26L724,232a.08.08,0,0,0,.09-.09ZM722.51,219h1.59c.13,0,.22.35.26,1.06h3.35a1.61,1.61,0,0,0,1.06-.27h1.59l.35.27a7.31,7.31,0,0,1-1.06,2.46H715.46a1,1,0,0,1-.53-.17q1.07-2.58,1.32-3h4.59c.17,0,.26.29.26.88a1,1,0,0,0,.27-.17h.88C722.29,219.38,722.38,219,722.51,219Zm.53,28.56h2.82q.18,0,.18.18v.7a.16.16,0,0,1-.18.18h-1.32v.53c0,.12-.06.17-.18.17h-3.52c-.12,0-.18,0-.18-.17v-.09c0-.12.07-.18.18-.18h1.94v-1C722.78,247.78,722.87,247.69,723,247.59Zm3.09-28.83h4.93c0,.59-.26.88-.79.88h-3.61c-.44,0-.68-.08-.71-.26v-.44C726,218.82,726,218.76,726.13,218.76Z"/><path class="cls-1" d="M780.43,216.93a1.6,1.6,0,0,1,1.59.88v.09c0,.12-.06.18-.17.18h-6.09a3.5,3.5,0,0,0-.17-.79h-.45a4,4,0,0,0-.52.52h-4.76v.45c0,.11-.12.17-.36.17v.09h1.24a.93.93,0,0,0,.26-.18h10.85l.26.18h2l.17.09-.08.62v.7a.16.16,0,0,1-.18.18h-1.59l-.26.17h-.71a11.5,11.5,0,0,0-.79,2.21c-.6,1.53-1.1,2.29-1.5,2.29l.09.18a3.2,3.2,0,0,1-1.68.79H752.93v.09h3.26l.09.17v.53c0,.09-.12.21-.35.36h-4.68l-.17-.09a1.82,1.82,0,0,1-.36.79,10.11,10.11,0,0,1-.52,1.59v.44c0,.16.35.37,1,.62h18c1.41,0,2.11.11,2.11.35V231c0,.18-.26.27-.7.27h-9.79c0,.17-.06.26-.17.26H752.4c-.09,0-.18.09-.26.26v.45h1.93q0-.27.18-.27h6.88c.11,0,.17.07.17.18v.35c0,.12-.06.18-.17.18h-1l-2.12.17h-3.26c-.47,0-.71-.12-.71-.35h-1.93v.44l-.18.27q-4.59.08-7.23.08H742v.27h5l.27.17a.16.16,0,0,1,.17-.17h1.41a.16.16,0,0,0,.18-.18q4.5-.09,7.05-.09h3.7l.27.18h4.76a.08.08,0,0,0-.09-.09l.09-.44v-.44c-.23,0-.35-.09-.35-.26a1.74,1.74,0,0,1,1-.36h1.32l.26-.17h7.06a9.36,9.36,0,0,1,1.5,1.58h4.67a.62.62,0,0,0,.53-.61c0-.24.06-.36.17-.36h.09q.18,0,.18.18c-.15,1.06-.32,1.59-.53,1.59h-2.12v.61c0,.12-.06.18-.17.18h-2l-.18.09.09.18v.08l-.44.09h-5.38a1,1,0,0,1-.61-.26h-2c0,.35-.3.53-.88.53h-1v.08H776.2q.18,0,.18.18v.44q.18,0,.18.09l.61-.09h3.18c.11,0,.17.07.17.18l-.17.09h-.71c0,.23-.06.35-.17.35h-.8a4.63,4.63,0,0,1-.7.17H776.2a6.29,6.29,0,0,1-.7,2.74l-1.24,3.08V243h4.32q.18,0,.18.18v.35c0,.17-.76.26-2.29.26H774a16.06,16.06,0,0,0-1.41,1.94,4.6,4.6,0,0,1-1,.88v.09H772v.18c-.48,0-1.13.44-1.94,1.32l-2,1.24a12.67,12.67,0,0,1-2.46,1.14h-.09l-.18-.09c0,.15-.79.39-2.38.71a.08.08,0,0,1-.09.09c-1.29.06-2.14.08-2.55.08a.16.16,0,0,1-.18.18h-1.68a.8.8,0,0,0-.26-.18h-3.44c-2.26,0-5.41,0-9.43-.08a1.52,1.52,0,0,1-.18-.53.08.08,0,0,0,.09-.09h-7.49c-.09,0-.21-.12-.36-.35v-.62q0-.18.27-.18v-.08q-.27,0-.27-.18a.08.08,0,0,0,.09-.09h-4.58l.09.18a.54.54,0,0,0-.09.26l.26.18h1.76c.12,0,.18.07.18.17v.71l-.09.18c.18,0,.27.05.27.17v.18c0,.12-.06.17-.18.17h-4.49q-1.5,0-1.5-1.32a2.31,2.31,0,0,1,.35-1.14v-.09h-1.24c-.11,0-.17-.06-.17-.18v-1.14c0-.12.07-.18.17-.18h.62q.18,0,.18.18V248h.79c.34-1,.57-1.56.71-1.59h2.38l.26-.18h2.38q.18,0,.18.18v.88l.17-.09h4.94l.18.09a.08.08,0,0,1,.09-.09c0-.06,0-.08-.09-.08l.09-.45v-.7c0-.09.17-.21.52-.35h7.5v-.44H742.7c-.17-.06-.26-.24-.26-.53v-.09c0-.35.13-.53.26-.53h.88v-.53h-1.85c0,.24-.06.35-.18.35h-6.17l-.26.18h-3.35c-.09,0-.18-.09-.26-.27a2.74,2.74,0,0,1,1.85-1.14h8.19l.36.62c.82,0,1.53.08,2.11.08.09-.23.18-.35.27-.35h1.14c1.22,0,1.9-.12,2-.35h10.23v-.18h-2.47a.6.6,0,0,1-.44-.61H740.23l-2.11.17h-.53c-.12,0-.18-.06-.18-.17v-.27c0-.1.12-.22.35-.35H750.2l.44.09v-.44q0-.18,1.05-.27a.08.08,0,0,1,.09-.09H755a2.51,2.51,0,0,0,1.15.27.08.08,0,0,0,.09.09h5.55l.27.17h.26c.09,0,.18-.09.27-.26V240h-1l-.44-.09.08-.44v-.17h-5.11c0,.17-.06.26-.18.26h-2.55c-.12,0-.18-.06-.18-.17v-.36c0-.17.77-.26,2.29-.26h1.15v-.35H744.64c-.9,0-2.13,0-3.7-.09q0-.23-1.59-.36a6,6,0,0,0-1.67-.79c-1.71-1.48-2.56-2.81-2.56-4v-.17c0-.18.68-.27,2-.27h.26v-.26h1a.8.8,0,0,1,.09-.44h2.12V232H735.3a.16.16,0,0,1-.18-.18v-.7h-.79c0,.23-.18.35-.53.35h-1.24c-.12,0-.17-.06-.17-.18l.7-1h2.12c.13,0,.34-.51.61-1.49h-1.67a.16.16,0,0,1-.18-.18l.27-.18h1.67l.44-.61h2.21v-.62H737c-.09,0-.21-.12-.35-.35a8.88,8.88,0,0,1,2.29-.18h1.23l.27-.18h1a2.38,2.38,0,0,0,.09-.35l-.18.09h-4L737,226a1.24,1.24,0,0,1,.62-1l.17.09c0-.12.08-.17.18-.17h3.26v-.09H741v-.09l.08-.18-.44.09h-2.91a.69.69,0,0,0-.35-.62,6.85,6.85,0,0,0,1.68-.35H742a1.43,1.43,0,0,1,.7.18.91.91,0,0,0,.18-.27h-4.5v-.08a10.81,10.81,0,0,1,3.35-3.27v-1.23a.16.16,0,0,0-.18-.18h-1.76a.15.15,0,0,1-.17-.17c0-.12.07-.18.17-.18h3.53c.12,0,.18.15.18.44h.17a28.91,28.91,0,0,1,5.2-1.85,11.63,11.63,0,0,1,1.5-.09h25.75C777.17,217,778.61,217,780.43,216.93Zm-49.1,27.25H735c.09,0,.18.08.27.26v.79l-.18.27c1.09-.06,1.88-.09,2.38-.09h.88c.12,0,.18.07.18.18s-.41.2-1.24.35h-4.67c-.5,0-1.29,0-2.38.09,0,.11-.06.17-.18.17h-1.94A.15.15,0,0,1,728,246v-.36a.16.16,0,0,1,.17-.17h5.38v-.09c-.35,0-.53-.15-.53-.44s-.06-.35-.17-.35h-1.59a.16.16,0,0,1-.18-.18C731.06,244.35,731.15,244.26,731.33,244.18Zm1-4.41H735l.35.26h2q.18,0,.18.18l-.18.09h-4.49C732.5,240.3,732.3,240.12,732.3,239.77Zm4.67-19h1.41q.18,0,.18.18v.79a.16.16,0,0,1-.18.18h-1.67l-.18-.09C736.69,221.17,736.84,220.81,737,220.81Zm4.14,26.72.18.08h2.82v.18h-.79c-.06.71-.15,1.06-.27,1.06h-1.58l-.36-.27H741a.91.91,0,0,1-.27.18h-1.58c-.5,0-1.24,0-2.21.09v.09a3.83,3.83,0,0,1,1.24.08.64.64,0,0,0,.26-.08c2.6.06,4.63.08,6.08.08h5.65c.2,0,.35.33.44,1,0,.06-.31.09-.8.09v.09h2.91v-.09c-.29,0-.44-.06-.44-.17v-.53a2.37,2.37,0,0,0,.27-.88h-7.23c-.14,0-.22-.39-.27-1.15h-3.79Q741.11,247.37,741.11,247.53Zm-1.05,1.76v.18h.44v-.18Zm1.23-20v.17q0,.18.18.18a5.69,5.69,0,0,0,1.14-.09,7.76,7.76,0,0,0,1.24.09H744l.27-.18h1.23v-.17Zm3.53-8.82h-1.59v1.06H744c.3.15.45.26.45.35v.44c0,.12-.21.18-.62.18l.09.17a.57.57,0,0,0-.09.27l.17.09h.89c.58,0,1.46,0,2.64.08,0-.23.12-.35.26-.35h2.3c0-.29.06-.44.17-.44h1v-.26h-5.73c-.12,0-.17-.06-.17-.18v-.53c0-.12.07-.17.17-.17h1.77l.44-.09v-.18H746.4c-.35-.12-.52-.29-.52-.53Zm1.94,23.72-.09.44h2.11c0-.15.18-.24.53-.27v-.09l-.17-.08Zm1.94-18.52v.18h2.55v-.18Zm.53,9.61v.09h.52v-.09Zm.26,12.26V248h5.2c.41,0,.62.26.62.79a.08.08,0,0,1,.09.09c.06,0,.08,0,.08-.09l.53.09h3.53v-.09h-3.7a2.15,2.15,0,0,1-.18-1v-.09l.09-.17Zm5-12.7h-3.79v.27c0,.11.08.17.18.17h4.85c.09,0,.18-.09.26-.26v-.44h-.44A1.63,1.63,0,0,0,754.51,234.83Zm-3.43-16.4.09.18c1.08.06,1.88.09,2.38.09h2a6.33,6.33,0,0,1,1.41-.18v-.09Zm2.64,17.11v.17H755v-.17Zm1.15-6.44h1.32a.9.9,0,0,0,.62.18v.17h-2.65v-.17h.44A.91.91,0,0,0,754.87,229.1Zm-.53-8.64v.09h.17v-.09Zm.7,8H768.8v.18H755Zm.18-7v.17h1.68v-.08h-1l-.09-.18-.18.09-.26-.18Q755.22,221.37,755.22,221.52Zm.71,28.83.08.17s-.08,0-.08.09h.35l.26-.18h1.68v-.08Zm1.58-14.46V236c0,.07.09.16.27.26h6.7c.12,0,.17-.06.17-.18v-.26Q759.06,235.89,757.51,235.89Zm7,6.87c-.06.71-.15,1.06-.27,1.06-.7,0-2,0-3.79-.09-.88.06-1.53.09-1.94.09a2.7,2.7,0,0,1-.09.36h1c.09,0,.18.08.27.26v.18l-.09.17h-1.06v.09h2.91l.62-.09a.61.61,0,0,1-.09-.26c.09-.24.18-.35.27-.35h7l.35.26h.09a.72.72,0,0,1,.44-.18v-.08c0-.12-.06-.18-.17-.18h-1.42c-.11,0-.2-.35-.26-1.06a.08.08,0,0,0,.09-.09h-1.15Q766.23,242.85,764.48,242.76Zm5.29-22.3v.44a.16.16,0,0,1-.18.18h-7.23a6.05,6.05,0,0,1-1.5.35c0,.06-.06.09-.17.09v.17h3.61a1.28,1.28,0,0,1,.8-.26h6.08c0-.24.23-.35.7-.35V221c-.41,0-.61-.09-.61-.27h-.62a1.19,1.19,0,0,1-.79-.26Zm0-.26v.17h.17C769.94,220.25,769.89,220.2,769.77,220.2Zm2.11,30.32h4.94v.18H776a.08.08,0,0,1-.09-.09l-.18.09h-3.88Zm3.18-23.62h.44l.26.17h.62v.18h-3.79v-.18h2.2ZM774,228.75h6c.12,0,.18.07.18.17l.18-.08H781c.17.29.28.44.36.44s.35.06.35.17l-.18.09h-4.76c-.06,0-.2-.18-.44-.53h-1.23q-.57,0-1.77.09v-.26h.36l.17.08C773.84,228.81,773.9,228.75,774,228.75Zm5.91-2.91h2.55c.12,0,.18.07.18.17-.19.65-.34,1-.44,1h-5.56v-.17l.62-.09h2.47V226A.17.17,0,0,1,779.91,225.84Zm-1.06,19.39h1.5c.11,0,.17.08.17.18v.35c0,.12-.06.18-.17.18h-1.59l-.26-.18h-1.15v-.17A7.3,7.3,0,0,0,778.85,245.23Zm-.62,4.59h1.24c.11,0,.17.09.17.26-.15.37-.29.58-.44.62h-1.32a.08.08,0,0,1-.09-.09l-.18.09h-.17v-.18h.61V250C778.07,249.88,778.13,249.82,778.23,249.82Zm2.12-10.93.08.17v.36a.15.15,0,0,1-.17.17l-.18-.26v-.18C780.08,239.06,780.17,239,780.35,238.89Z"/></g></svg>