<svg xmlns="http://www.w3.org/2000/svg" viewBox="0 0 916.62 447.34"><g id="Layer_1" data-name="Layer 1"><path d="M372.66,76.86a15,15,0,0,1,2.53,1.64Q386.64,89.65,398,100.86c2.18,2.15,2.22,3.37,0,5.37s-4.93,3.38-8.26,2.38a4.78,4.78,0,0,0-3.3.12c-4.75,2.58-9.43,5.29-14.07,8.08-2.22,1.35-2.39,3.39-.81,5.29,5.75,6.93,11.6,13.77,17.53,20.77L406.15,131q29.36-20.4,58.68-40.84c1.8-1.27,2.91-1.15,4.63,0q36.36,25.41,72.82,50.69l2.59,1.76c6.57-7,14.21-12.91,18.84-21.57.91-1.71.62-2.74-.72-4.14-4-4.25-9.73-5.57-14.56-8.38-1-.61-2.75-.3-4.1-.1a9,9,0,0,1-8.33-3.14c-1.2-1.31-1.32-2.56,0-3.93q17.73-17.64,35.42-35.33c4.31-4.3,8.53-8.68,12.93-12.89,1-1,2.53-1.35,4.15-2.17,0-4.35,4.48-6.08,7.39-9a2.22,2.22,0,0,1,2.14-.1c3,2,6,4.29,9,6.4.81.57,1.89.77,2.71,1.34,1.86,1.29,3.67,2.64,5.41,4.08a329.28,329.28,0,0,1,48,49.37,98.13,98.13,0,0,1,5.79,9,3.34,3.34,0,0,1-.71,4.77c-1.33,1.19-2.45,2.64-3.85,3.73a40.88,40.88,0,0,1-4.64,2.72c.61,3.21-2.71,4.62-5.13,6.65a14.83,14.83,0,0,0-1.89,1.74,30.48,30.48,0,0,1-2,2.72c-13.62,13-26.58,26.74-40,40-2.45,2.42-3.8,2.45-5.94-.23-1.82-2.27-2.93-4.77-2-7.86a4.84,4.84,0,0,0-.09-3.3c-2.51-4.89-5.22-9.67-7.85-14.48l5.48,4.93c.63-.53,1.16-.91,1.61-1.36q10.5-10.47,21-21c3-3,2.92-5.25-.06-8.19L587.68,88.32c-3.09-3-5.11-3.1-8.14-.08-6.14,6.11-12.22,12.27-18.39,18.34a39.52,39.52,0,0,1-4.25,3.22l.27,1.28a18.37,18.37,0,0,1,2.52,1.82q17,17.1,34,34.26c-1.61.33-3.58.17-4.74,1.07-5.5,4.25-10.77,8.78-16.63,13.64L584,170.15l-.3.82c-6.15-1.2-12.57-1.7-18.38-3.84-4.73-1.74-8.8-5.36-13.05-8.3q-41.61-28.77-83.14-57.66c-1.62-1.13-2.62-1-4.18,0q-46.34,31.88-92.75,63.64a27.56,27.56,0,0,0-3,2.2,34,34,0,0,1-24,9.19,39.36,39.36,0,0,1-4.81.17l21.29-14.67c-1.5-1.46-2.71-2.86-4.13-4-4.32-3.45-8.71-6.82-13.12-10.17a2.52,2.52,0,0,0-4.08.73c-1.9,3-3.74,6-5.58,9a25.3,25.3,0,0,1-2.66,3.9c2.1-3.68-.78-5.19-2.67-7.06q-11-11-22.1-21.87c-3.06-3-3.1-4.1-.3-7.35a395.58,395.58,0,0,1,41.11-40.77c3.06-2.64,4.23-2.61,7.2.31,7.85,7.74,15.72,15.46,23.46,23.31,1.74,1.78,3,2,5,.4,3-2.4,6.4-3.56,10.28-2.1,2.25.84,2.91-1,4.27-3-2.71-2.51-5.55-5-8.2-7.63-5.34-5.32-10.59-10.74-15.82-16.16a15.31,15.31,0,0,1-1.63-2.52ZM597.28,59.58c1.3-1.31,2.26-2.88,4.57-1,21,17,39.29,36.51,56.2,57.43a42.34,42.34,0,0,1,3.08,5.1,10,10,0,0,1,1.07-1c2.54-1.79,2.65-3.64.67-6.07-4.94-6.05-9.2-12.74-14.64-18.27C635.36,82.68,622,70.09,608.77,57.35a37.24,37.24,0,0,0-4-3l.82-.78,1.29-2.22-.41-.36-2.73,1.61c-1.11-.78-2.11-1.49-3.12-2.17s-2-1.36-3.07-2c-4.32-2.74-4.45-2.71-7.31,1.25l8,6.12c-.47,1.55-.79,2.62-1.12,3.68-2-1.44-3.88-2.94-5.88-4.32-4.14-2.86-4.77-2.7-7.2,1.32,27.36,19.91,50.4,44,71.19,70.57,3.63-2.69,3.67-2.74.72-7-1.76-2.56-3.6-5.07-5.53-7.49-11.08-13.88-23.89-26.09-36.72-38.28C608.34,69.21,602.75,64.46,597.28,59.58ZM377.41,110.67c-8.18-7.94-15.92-15.5-23.72-23-2.23-2.15-4.32-2-6.87.61q-17.7,17.85-35.32,35.76c-2.71,2.76-2.65,4.73.08,7.5,6.34,6.44,12.73,12.84,19,19.32a19.14,19.14,0,0,1,2.23,3.34Zm205.34-29.2c1.54,1.07,2.89,1.86,4.07,2.85,14.85,12.43,28.11,26.45,40.78,41.05,2.18,2.51,2.11,3.83-.35,6.3q-11.58,11.6-23.2,23.15c-2.9,2.89-2.91,2.9-.6,6.22,2,2.83,3.11,5.88,1.84,9.29-.68,1.84,0,3.13,1.47,3.67.74.27,2.18-.46,2.88-1.16,11.05-10.93,22-22,33.07-32.87,1.95-1.93,2.3-3.3.65-5.73-8.57-12.63-19.1-23.53-30-34.14-11.54-11.28-22.83-22.84-36.08-32.22-2.3-1.63-3.83-1.53-5.81.47C560.4,79.6,549.16,90.75,538,102c-.59.58-1.13,2.23-.89,2.43,1,.81,2.46,2,3.37,1.69a10.07,10.07,0,0,1,9.55,2c2.38,1.8,4,1.33,6.05-.73,7.62-7.82,15.41-15.49,23.17-23.18A36,36,0,0,1,582.75,81.47Zm-5.69-18.25a21.76,21.76,0,0,1,2.62,1.51c4.61,3.59,9.25,7.13,13.74,10.86,17.1,14.19,32.08,30.49,46.61,47.21,3,3.49,5.56,7.41,8.32,11.13,3.86-2.91,3.9-2.93,1-7.17q-2.4-3.49-5-6.84c-11-14.14-23.93-26.36-37-38.49-7.33-6.83-14.12-14.34-22.8-19.63C580.25,59.13,580.29,59.06,577.06,63.22ZM568.17,159c3.29-3.42,6.48-6.73,9.66-10.05a6.44,6.44,0,0,0,1.48-1.68c.74-1.8,1.8-3.66,1.82-5.51.07-6.34-7.4-12.41-13.63-11.25a7.13,7.13,0,0,0-3.54,1.59c-4.68,4.61-9.21,9.37-13.93,14.23l4.2,2.87c3.8-3.87,7.38-7.61,11.06-11.24,3.16-3.13,6.84-3.3,9.43-.61s2.26,6.14-.82,9.22-6.43,6.24-9.82,9.53Zm-184-12.68c-4.63-4.89-8.92-9.63-13.45-14.14a7.48,7.48,0,0,0-7.41-1.71,12.94,12.94,0,0,0-9.31,9,8.31,8.31,0,0,0,2.06,8.87c2.49,2.57,5,5.08,7.52,7.67,2.67,2.8,2.64,2.83,5.82.6.38-.26.72-.58,1.51-1.22-3.26-3.17-6.46-6.2-9.57-9.33s-3.42-6.68-.62-9.39c2.64-2.55,6.11-2.3,9.23.76,3.67,3.62,7.29,7.3,11,11.05ZM561.05,154c3.72-3.76,7.28-7.23,10.63-10.89.57-.64.24-2.1.33-3.17-1.08,0-2.57-.46-3.15.07-3.91,3.59-7.62,7.39-11.62,11.34Zm-183.39-3.29c-3.93-3.91-7.59-7.68-11.42-11.25a2.93,2.93,0,0,0-2.87,0,2.86,2.86,0,0,0-.16,2.83c3.52,3.73,7.23,7.29,11,11Zm232.71-69-.15.14L631,102.3l-.06.07Q620.67,92,610.37,81.68Zm35.18,23.63.8-.65L633.9,91.53l-.53.49Z"/><path d="M536.71,370.35c-1.81-.69-2-1.79-.84-3.24a9.58,9.58,0,0,1,2-2.34c3.92-2.38,3.78-6,3.06-9.73-1.4-7.25-5.08-13.33-10.17-18.57-4.52-4.67-9.16-9.23-13.73-13.85-.68-.69-1.23-1.49-2-2.45l-14.39,10c-10.37,7.21-20.77,14.36-31.07,21.67-1.82,1.29-3,1.35-4.86,0-14.41-10.13-28.91-20.13-43.39-30.18-.53-.36-1.08-.71-2-1.32-6.46,6.85-13.1,13.51-19.29,20.56a29,29,0,0,0-6.75,15.63c-.41,3.09-.18,6,2.93,7.92a11.81,11.81,0,0,1,2.58,3c.28.35.65,1.12.53,1.23-2.5,2.4-.67,6.2-3.62,8.89-8.61,7.88-16.55,16.49-24.95,24.6-2.57,2.48-5.81,4.1-9.71,3.05a4.64,4.64,0,0,1-2.83-7,4.27,4.27,0,0,0-2.77-6.45c-12.64-3-20.6-10.77-23.66-23.45-.85-3.48-3.64-4.66-6.74-2.92a4.17,4.17,0,0,1-5.53-.88c-1.64-1.81-2.48-3.73-1.28-6.29,4.85-10.29,14.71-16.05,21.78-24.33,2-2.36,4.39-4.4,6.58-6.61,1.29-1.3,2.55-2.56,4.66-1.68a1.48,1.48,0,0,0,1.32-.18c2.76-2.78,4.71-.37,5.93,1.41,2.66,3.86,6.18,3.84,10,3.07,7.56-1.51,13.75-5.51,19.16-10.82,3.84-3.76,7.58-7.61,11.45-11.33a4.36,4.36,0,0,1,2.61-1.16c3.57-.14,7.16-.24,10.73,0A9.51,9.51,0,0,1,417.1,308q23.37,15.88,46.56,32c2.55,1.79,4.16,1.92,6.78.06,15.3-10.84,30.74-21.47,46.21-32.06a10.54,10.54,0,0,1,5.17-1.6c4-.21,8.53-1.08,12,.32s5.67,5.3,8.57,8a150.25,150.25,0,0,0,11.69,10.18,26.93,26.93,0,0,0,14.68,5.34c2.63.15,5-.3,6.6-2.86a12.35,12.35,0,0,1,2.94-2.6c.35-.28,1.1-.68,1.21-.56,2.33,2.32,5.94.36,8.48,3,8.22,8.7,17,16.91,25.23,25.54,2.37,2.47,4,5.67,3.09,9.49-.6,2.67-4.48,4.74-7.11,3a4.21,4.21,0,0,0-6.47,2.68c-3,12.8-10.91,20.71-23.68,23.78-3.13.75-4.36,3.76-2.69,6.62a4.23,4.23,0,0,1-.82,5.54,5.74,5.74,0,0,1-6.31,1.37c-6.3-2-9.65-7.5-14.11-11.62-5-4.67-9.69-9.78-14.65-14.54-2.57-2.47-5-4.81-3.89-8.83l.95.24,2.55-5.2C539,367,534.83,366.7,536.71,370.35ZM342.54,339.78c.86-.32,1.74-.59,2.58-1,2.75-1.21,5.42-2.64,8.25-3.64,11.12-3.94,23,.87,28.42,7.61,8.92,11,10.62,21,3.4,34.27-.54,1-1.21,1.9-1.83,2.85l-1.12-.19c6.48-12.24,7-23.91-2.47-34.82-.65.58-1.16,1-1.61,1.46s-1,1.09-1.47,1.69c7.2,10,8.42,20.13.49,30.38l4.93,5.26c2.95-2.49,5.43-4.9,8.23-6.85,3.68-2.55,3.59-5.55,2.2-9.31-4.77-12.86-1.13-23.81,8.08-33.31,4.45-4.6,9.06-9,13.59-13.57.69-.7,1.33-1.45,2-2.22-1.42-1.32-2.36-2.68-4.14-.85-6.57,6.74-13.16,13.45-19.92,20a5.71,5.71,0,0,1-4.44,1.41c-1.1-.25-1.84-2.17-2.73-3.34,2.81,3.43,4.37,3.56,7.65.58.42-.38.81-.79,1.21-1.19q8.37-8.42,16.72-16.84c.7-.71,1.34-1.47,2.19-2.41L407.43,312c-.54.44-1,.76-1.39,1.14-6.48,6.45-13,12.87-19.38,19.38-.8.81-1.08,2.13-1.6,3.21.48-1.49.53-3.38,1.49-4.41,4.19-4.46,8.67-8.64,13-13,2.25-2.25,4.42-4.59,6.78-7.06L403.06,309c-.82.75-1.52,1.36-2.17,2-4.08,4.05-8.06,8.2-12.23,12.15-9.44,9-20.25,12.34-32.91,7.67a20.3,20.3,0,0,0-4.35-1.17c-2.1-.27-9.6,7.54-9.64,9.88l-2.76.3c0,.28,0,.57,0,.85l6,5.49c10.4-7.95,20.48-6.61,30.34.45l3.23-2.75c-8.21-8.49-22.06-9.63-31.71-4.15C345.32,340.61,344,341.18,342.54,339.78Zm250.22,23.37a20.27,20.27,0,0,0-20.41-20.5c-9.67,0-18.59,8.72-18.64,18.27-.06,11.6,8.73,20.68,20.12,20.79C583.81,381.81,592.69,373.1,592.76,363.15ZM380.68,361.3c.1-9.63-8.61-18.54-18.24-18.65a20.36,20.36,0,0,0-20.81,20.13c-.07,9.82,8.62,18.81,18.32,18.94A20.17,20.17,0,0,0,380.68,361.3Zm173.59-16.69c-1.85,3.27-4,6.11-5.14,9.29a26.85,26.85,0,0,0,1.92,23.18,11.32,11.32,0,0,1,.71,2.72c-10.81-14.7-7.87-27.44,1.57-37.84s27.13-10.57,37.6-1.49a5.7,5.7,0,0,1-2.84-.51c-4.79-2.46-9.78-3.94-15.22-3.54-6.45.48-12.24,2.45-16.82,7.41.58.62,1,1.11,1.49,1.56s1,.84,1.53,1.3c10.07-7.19,20.25-8.41,30.46-.51l5.94-5.61c-2.84-2.74-5.72-5-7.89-7.73-2.57-3.3-5.28-3.42-8.84-2.07-13.11,5-24.16,1.14-33.76-8.32-4-3.9-8-7.77-11.75-11.82-1.83-1.95-3.07-1.57-4.44.23.07.26.05.49.17.6,6.52,6.53,13,13.08,19.61,19.53,1.6,1.57,2.36,3.24,1.41,5.29s-3,2.61-5,2.19a6.18,6.18,0,0,1-2.82-1.74c-4.28-4.24-8.45-8.59-12.72-12.85-2.71-2.7-5.51-5.31-8.29-8L518,318.15c.59.73,1,1.33,1.52,1.84,4.8,4.8,9.68,9.51,14.41,14.38,7.57,7.79,11.61,16.87,9.44,27.95-.54,2.76-1.71,5.39-2.25,8.15-.24,1.21-.08,3.08.69,3.82,3.37,3.23,7,6.16,10.7,9.29l4.53-5c-7.27-12.92-7.18-17.18.72-30.9Zm-31.71-29.48-.51.76Q533,326.5,543.89,337.08c1.19,1.14,2.59,1.54,4,.28s2-2.87.94-4.52a23,23,0,0,0-3.32-3.81c-4.6-4.57-9.33-9-13.87-13.66-4.25-4.34-4.17-4.42-9-.49A.86.86,0,0,0,522.56,315.13ZM339.89,382.2l3.53-3.31c-7.64-10.7-8.46-21.18.12-31.39l-5.31-6.06c-2.35.84-3,2.41-1.66,4.52a2.88,2.88,0,0,1,.07,3.53c-4.59,7.84-4.81,16.15-1.82,24.47C335.85,376.85,338.07,379.31,339.89,382.2Zm249.79-1.93c-4.77,3-9.74,5.65-15.6,5.78-6,.14-11-2.81-15.66-6.14-1.56,1.4-3,2.57-4.32,3.94a8.88,8.88,0,0,0-1.13,2.47c1.17.27,2.77,1.15,3.43.69,1.92-1.33,3.32-.82,5,.22a17.56,17.56,0,0,0,4.66,2c9.86,2.56,19,1.57,27-6.17Zm4.79,1.49c.45-.53.94-1.1,1.41-1.67,6.68-8.07,7.59-20.42,2.1-30.22-.81-1.44-1.15-2.49-.09-4,1.26-1.79.68-3.33-1.52-4.43-1.83,2-3.64,4-5.54,6.08,8.77,10.41,7.65,20.81.37,31.15Zm-252.94,1.15c6,7.78,22.08,10.83,34.18,2.95,3.88,2.25,4.21,2.24,6.19-.53l-6-5.55c-10.45,8.81-20.95,7.65-31.24.36C343.43,381.21,342.47,382.08,341.53,382.91Zm262.59-21.15c2.08-1.81,4.35-3.36,5.86-5.45.33-.47-2-2.87-3.16-4.38a6.89,6.89,0,0,0-.72-.88c-2.07-1.95-4.16-3.89-6.91-6.46-.27,2-.84,3.22-.5,4.12C600.24,352.82,602,356.83,604.12,361.76ZM556.56,387.6c-.16.44-.32.88-.47,1.32,3.42,3.36,6.83,6.73,10.29,10.05a1.3,1.3,0,0,0,1.25.07c1.85-2,4.4-3.53,4.48-6.34-4-1.6-7.63-3.19-11.39-4.56A18.3,18.3,0,0,0,556.56,387.6Zm-178.08,1.9-.48-1.33c-1-.26-2.17-1-3-.69-4.26,1.61-8.42,3.48-13.29,5.55,1.61,2,3.15,4,4.89,5.83.26.28,1.62,0,2.13-.49C372.06,395.48,375.25,392.47,378.48,389.5Zm-42.85-43.93-1.39-.45c-3.19,3.28-6.39,6.54-9.52,9.88-.35.37-.53,1.49-.28,1.71,1.94,1.73,4,3.33,5.95,4.91,1.95-4.68,3.68-8.61,5.19-12.61C336,348,335.63,346.72,335.63,345.57Zm-11,19.22-5.51-6C318.36,361,320.61,363.58,324.61,364.79Zm285.82-.49.47.76c1.64-1.47,3.31-2.9,4.87-4.44.21-.21-.11-1-.19-1.45-.55.21-1.28.26-1.62.65C612.71,361.25,611.6,362.8,610.43,364.3ZM359,399.17c.1,2.88,3.19,5.86,5.5,5.08Zm-4.53-74.65-2.66,3.28c2.75-2.45,4.31.65,6.52.93C357.2,327.47,356.05,326.2,354.5,324.52Zm215.18,79.92c2.73.42,5.86-2.79,5.58-5.15Zm12.12-77.89-2-1.92L576,328.82l.32.21Zm-185,44c.24-.27,1.52-1.46,1.41-1.61a46.8,46.8,0,0,0-3.6-4l-.3.37Z"/><path d="M397.27,357.77a29.87,29.87,0,0,1,5.41-13.53c1.09-1.63,2.12-.54,3.14-.05a134.82,134.82,0,0,0,37.35,11.6c29.67,4.52,58,.28,84.77-13.44l2.17-1.05c1.85,3.32,3.75,6.61,5.48,10,.27.52-.27,1.46-.44,2.2-.54,2.24-1.46,4.47-1.5,6.71a7.55,7.55,0,0,1-1.38,4.61c-.89,1.28-1.06,3-1.64,4.56a21.34,21.34,0,0,1-1.31,2.41,49.79,49.79,0,0,0-3.63-5.36,18,18,0,0,0-4.49-3.77c-4.06-2.23-8.36-.6-9.28,3.92-.69,3.38-.13,7-.13,11L505,379.5a72.92,72.92,0,0,0-4-7c-1.88-2.62-4.42-4.61-7.91-3.81s-4.88,3.73-5.51,6.87a62,62,0,0,0-.56,7.35l-7.22.9a69.63,69.63,0,0,0-2.63-7c-1.44-2.87-3.53-5.36-7.09-5.23s-5.59,2.88-6.76,6a60.74,60.74,0,0,0-1.71,6.8L454.3,384a37.62,37.62,0,0,0-.68-4.16,22.08,22.08,0,0,0-1.9-5.27c-2.74-4.7-7.74-5.14-11.13-.83-1.76,2.24-2.82,5-4.43,8l-6.67-1.36c-.22-2.55-.24-5-.69-7.36-.59-3.08-2-5.84-5.38-6.59s-5.85,1-7.83,3.47c-1.3,1.59-2.31,3.42-3.63,5.42L405.82,373c-.19-3.66.05-7.07-.64-10.27C404.39,359,401.42,357.54,397.27,357.77Zm12,.26c.58,2.94,2.18,4.18,4.6,4.13s4-1.31,4.4-4.13Zm109.56-3.2c.86,2.94,2.47,4.25,4.9,4.11,2.21-.14,3.72-1.41,4.23-4.11ZM463,366.29c.87,2.75,2.37,4.15,4.84,4,2.25-.13,3.67-1.42,4.19-4Zm64.78-13.22c-1-2.51-2.59-3.42-4.76-3.25a4,4,0,0,0-3.83,3.25ZM472,364.6c-1.32-2.62-2.95-3.64-5.22-3.21-1.65.31-3.1,1.1-3.11,3.21Zm-62.61-8.52h8.72C415.55,351.76,411.86,351.8,409.39,356.08Z"/><path d="M539.26,76.05l5.3,2.86L525.27,98.77c-.19-.08-1-.34-1.7-.67q-55.77-25.21-112.41-2c-2.28.93-3.5.81-5.19-1.09-3.69-4.15-7.81-7.91-11.64-11.93-1.59-1.67-2.88-3.61-4.64-5.84l6.77-3.49a36.92,36.92,0,0,0,3.2,4.84,20.94,20.94,0,0,0,4.89,4.18c4,2.29,7.93.71,9.54-3.64,1.48-4,.76-8-.61-12.3l7.23-2.31a34.78,34.78,0,0,0,1.66,4.37,23.61,23.61,0,0,0,3.21,4.93c4.67,5.09,10.42,3.72,12.44-2.91a19.65,19.65,0,0,0,.76-5,49,49,0,0,0-.39-5.35l7.55-1.2a38.16,38.16,0,0,0,1.22,5.38,23.93,23.93,0,0,0,3,6c3.32,4.34,8.39,4.07,11.07-.72,1.34-2.38,1.8-5.28,2.47-8a15.51,15.51,0,0,0,0-3.57h7.61a106.13,106.13,0,0,0,1.92,10.44c.83,2.92,2.83,5.28,6.12,5.54s5.64-1.75,7-4.44a101.31,101.31,0,0,0,3.74-9.82L497,61.3A101.69,101.69,0,0,0,497.11,72c.34,3.09,1.86,5.82,5.19,6.76s6-.84,7.82-3.32c2-2.76,3.39-6,5.2-9.28,2.09.72,4.55,1.57,6.65,2.31a97.6,97.6,0,0,0-1.75,10.39c-.22,3.32.83,6.52,4.24,7.94s6.25,0,8.45-2.39A95.82,95.82,0,0,0,539.26,76.05ZM417.15,82.83h9.24c-.49-2.58-1.92-3.93-4.15-4.12C419.73,78.5,418,79.75,417.15,82.83Zm98.71,1.78c-.37-2.8-1.9-4-4.34-4.07s-3.84,1.42-4.07,4.07Zm-52.78-9H472c-.55-2.66-2-3.88-4.34-3.93S463.8,72.84,463.08,75.58ZM507.25,86.4c.92,2.42,2.59,3.55,4.66,3.12,1.47-.29,2.74-1.55,4.09-2.37l-.46-.75Zm-80.9-.93-.48-.73h-8.49c1.1,2.51,2.79,3.61,4.85,3.16C423.71,87.58,425,86.32,426.35,85.47Zm37-8a4.08,4.08,0,0,0,4.29,3.2,3.7,3.7,0,0,0,3.94-3.2Z"/><path d="M372.73,76.79c-1.32-1-2.74-1.84-4-2.94A72,72,0,0,1,363,68.08c-1.82-2.09-3.37-1.59-5.36-.25C346,75.65,336,85.41,326.07,95.22a368.16,368.16,0,0,0-34.45,38.53c-2.44,3.22-2.43,3.48.39,6.35,6.86,7,13.71,14,20.14,21.47-1.37-1.16-2.83-2.23-4.12-3.49-6.07-5.91-12.1-11.88-18.14-17.83-4.34-4.28-8.72-8.52-13-12.89a23.7,23.7,0,0,1-2.65-4.26,42.37,42.37,0,0,1-3.95-2.27,21.89,21.89,0,0,1-2.63-2.56c-3.3-3.28-3.66-4.59-.91-8.26,5.29-7.08,10.69-14.1,16.4-20.85,3.38-4,7.69-7.2,11.14-11.15a224.6,224.6,0,0,1,31.54-29.42c3-2.3,6.3-4.11,9.47-6.13a3.46,3.46,0,0,1,5,.71c1.18,1.34,2.65,2.44,3.73,3.85a37.9,37.9,0,0,1,2.61,4.67c3.28-.66,4.69,2.66,6.66,5.16a18,18,0,0,0,1.25,1.63c1.74,1.76,3.52,3.49,5.3,5.22.51.5,1.12.91,1.61,1.42,3.73,3.91,7.43,7.83,11.14,11.74Zm-62,6.32c-.73,1-1.4,2-2.19,2.88-10,11.49-20.13,22.9-30,34.48-3,3.53-2.52,4.79,1.53,6.89a16.78,16.78,0,0,1,1.32-2.44c3.63-4.69,6.94-9.71,11.05-13.94q19.17-19.77,38.91-39c4.91-4.77,10.49-8.86,15.86-13.15a21.1,21.1,0,0,1,4-2,15.14,15.14,0,0,1-1.19-1.32c-1.73-2.33-3.53-2.62-5.87-.69-2.76,2.28-5.88,4.12-8.57,6.45-7.62,6.6-15.1,13.35-22.63,20l9.38-9.7,2.7-2.78-.73-.67L300.61,91.42l.6.61ZM276.5,106.86l-1.8-4-1,.54c-.53,2.1.92,2.92,2.83,3.42-1.58,2.33-3.19,4.65-4.73,7-2.78,4.26-2.73,4.42,1.42,7.39.65-1.09,1.25-2.24,2-3.28,9.47-13.35,20.75-25.1,32.61-36.28,10.26-9.67,20.91-18.94,31.47-28.29,1.46-1.29,3.4-2,5.09-3-3.46-4.18-3.49-4.21-8-1.12A182.29,182.29,0,0,0,308.86,73C298,84.15,287.28,95.55,276.5,106.86Zm9.87,27.35c9.37-14.36,21-26.58,33.12-38.27s23.82-23.7,38.07-32.8C354.34,59.05,354.31,59,350,62a202.35,202.35,0,0,0-33,29.11c-10.75,11.6-21.15,23.53-31.46,35.52C282.18,130.51,282.53,130.82,286.37,134.21Zm46.77-60-.8-.8-28.57,28.41.45.45ZM315.4,104.23h0L328.82,90.5l.11.1Zm14.83-15.49.54.58,7.09-6.69-.55-.57Z"/><path d="M419.93,170.3a181.91,181.91,0,0,1,37-12c19.92-4.2,39.58-2.28,59.05,2.52,16.81,4.15,33.36,9.39,50.25,13.17A213.83,213.83,0,0,0,628,178.28c.65,0,1.31,0,2.24,0a9,9,0,0,1-1.08,2c-3.17,3.22-3.34,6.78-1.69,10.8a49.21,49.21,0,0,1,1.66,6.47c-11.88-9.62-26.13-10.79-40.21-11.43-23.33-1.06-46.71-1.26-70.06-1.82a12.7,12.7,0,0,1-4-.46l35.41-4c0-.28,0-.57,0-.85C508,159.55,464.61,156.33,419.93,170.3Z"/><path d="M387.34,278.61v18c-5.61,1-11.06,1.82-16.39,3.08a10.46,10.46,0,0,0-4.71,3.15,17.27,17.27,0,0,1-11.83,5.35c-5.18.37-10.45-.32-15.67-.71-1-.07-1.88-.91-3.63-1.83,1.84-.69,2.79-1.16,3.81-1.42,3.17-.83,6.41-1.48,9.56-2.39,6.74-2,9.6-7.29,7.63-14-.64-2.16-1.29-4.31-2-6.44a5.4,5.4,0,0,0-6.2-3.3c-4.08,1-8.07,2.48-12.1,3.76a13.94,13.94,0,0,1-5,.89,23.26,23.26,0,0,1,1.6-2.69,28.52,28.52,0,0,1,16-10.42c5.69-1.42,10.48.2,14.73,4.25,1.53,1.45,3.86,2.09,5.87,3,.26.12.83-.47,1.43-.84C375.27,279.74,381.38,277.73,387.34,278.61Z"/><path d="M595.55,283.23c-1.31-.39-2.62-.76-3.93-1.18-4-1.28-8-2.74-12.08-3.83a6.19,6.19,0,0,0-7.52,4.31,54.13,54.13,0,0,0-1.66,7.68c-.78,5.46,1.81,9.68,7,11.32,3.4,1.06,6.91,1.75,10.37,2.65,1,.27,2.05.66,3.67,1.19-1,.84-1.47,1.5-2.07,1.68-9.09,2.62-18,2.68-26.43-2.29a4.62,4.62,0,0,1-1.51-1.25c-3.15-4.64-8.31-4.63-13-5.61a4.06,4.06,0,0,0-2.56.77c-1.61,1-3.11,2.11-5,3.43V278.52c1,0,2.08-.06,3.15-.15,4-.34,8.07-.57,12.07-1.1A13.8,13.8,0,0,0,565,272.9a11.86,11.86,0,0,1,10.3-3.7c9.1,1,15.82,5.72,20.75,13.12Z"/><path d="M296.88,195.48c7-2.38,13.91-5.06,21-7.08,26.46-7.5,53.27-8.66,80.59-5.54,19.06,2.18,38.32,2.51,57.49,3.65a11.48,11.48,0,0,1,4.25.64c-7.06.32-14.13,1.11-21.16.86q-29.35-1-58.68-2.76c-24.7-1.44-48.84,1.71-72.63,8.14-3.52,1-7,2.06-10.51,3.09Z"/><path d="M390.48,103.23c-2.79,1.35-5.36,2.4-7.73,3.79-1.69,1-2.41-.1-3.31-1Q368.27,94.86,357.1,83.67c-4.09-4.09-6.26-4.2-10.78-.34l-2.73-2.59c4.15-3.36,8.13-6.57,12.09-9.81,1.51-1.24,2.38-.08,3.3.84q10.86,10.89,21.72,21.78C384,96.86,387.35,100.14,390.48,103.23Z"/><path d="M326.55,166.33l-32.94-33.05,10.45-13.11,2.82,2.66c-.52.69-.78,1.08-1.08,1.42-3.27,3.68-3.25,5.61.25,9.13,7.44,7.47,14.85,15,22.41,22.29,2,1.94,2.43,3.41.6,5.7C327.87,162.85,327.29,164.81,326.55,166.33Z"/><path d="M319.54,294.56l-3.32-6.87c10.92-7.47,8.88-14.41,1.43-16.81h18.1a38,38,0,0,0-3.36,3.12c-1.7,2-3.62,3.94-4.72,6.26-.67,1.42-.61,4,.29,5.11s3.33,1.82,4.92,1.57c3.13-.48,6.11-1.83,9.21-2.62a2.83,2.83,0,0,1,2.45.72c2.19,3.5,4.18,7.12,6.4,11-5.11,3.19-11.12,3.15-16.52,5.12C333.81,293.59,329.57,291.67,319.54,294.56Z"/><path d="M448.3,291.27c0,3.08-.09,6.17,0,9.25.07,1.93-1,2.21-2.47,2.09s-3.26.65-3.23-1.87c.08-8.37.11-16.74.32-25.1,0-.66,1.32-1.8,2.07-1.83,3.65-.17,7.33-.14,11,0,3.28.15,5.39,2,5.8,5.1a29.06,29.06,0,0,1,.09,6.46c-.26,3-2.34,4.55-5.16,5.49l6.19,11.2c-4.75,1.36-5.91.95-8.18-2.8-1.32-2.17-2.57-4.37-3.91-6.53a17.78,17.78,0,0,0-1.59-1.9Zm.15-6.2c1.77,0,3.17-.08,4.56,0,2.28.16,3.47-.53,3.49-3.1s-1.27-3.24-3.48-3.16c-1.47.05-2.95,0-4.57,0Z"/><path d="M506,291.18l-3.74-.46v-5.51h9.37c0,4.09,0,8.09,0,12.1a3,3,0,0,1-.42,1.34c-3,5.79-8.41,3.85-13.07,3.76-3.54-.08-5.76-2.38-5.89-6.05a165.32,165.32,0,0,1,.23-16.66c.27-4,2.51-5.73,6.59-5.9,2-.08,4-.09,5.94,0,4.45.19,6.35,2.17,6.59,7-2.17-.23-4.19.92-6.41-1.23-1.13-1.09-4.11-.61-6.13-.23-.58.11-1,2.37-1.05,3.65-.1,3.68.13,7.35.06,11-.05,2.21.83,3.15,3,2.95a6,6,0,0,1,1.41,0c2.78.37,3.83-.91,3.55-3.58C505.9,292.72,506,292.07,506,291.18Z"/><path d="M412.52,285.24c0,3.83.22,7.41-.06,10.95-.32,4.12-2.49,6.07-6.58,6.31a49.35,49.35,0,0,1-6.77-.06c-3.62-.29-5.88-2.3-6-5.91-.2-5.73-.15-11.49.11-17.22.16-3.35,2.36-5.28,5.71-5.51a56.18,56.18,0,0,1,7.34,0c4,.25,5.89,2.42,5.93,6.89-2.18.05-4.11.8-6.34-1.15-1.22-1.07-4.14-.54-6.16-.12-.57.12-.93,2.4-1,3.7-.11,3.67,0,7.34,0,11,0,2.06.83,3,2.87,2.84a8.78,8.78,0,0,1,1.7,0c2.8.34,3.77-1,3.42-3.63a16.72,16.72,0,0,1,0-2.14l-3.79-.42v-5.53Z"/><path d="M438.18,302.22c-4.95,1-5.13.95-6.49-3.48-.44-1.42-1-2.1-2.54-1.93a8.55,8.55,0,0,1-2.26,0c-2.9-.48-4.47.53-5,3.59-.71,3.94-3.78,1.6-6.43,2.35,1.81-6.73,3.45-12.87,5.12-19,.59-2.18,1.46-4.3,1.84-6.51.51-3,2.13-3.66,4.93-3.6,2.34.05,3.56.66,4.18,3,2.06,7.92,4.31,15.79,6.46,23.69A13.35,13.35,0,0,1,438.18,302.22ZM427.42,283l-.7-.09c-.66,2.55-1.31,5.1-2,7.88h4.71C428.69,288,428.06,285.47,427.42,283Z"/><path d="M489.31,302.28c-5.52.87-5.45.84-7.19-3.72a3.46,3.46,0,0,0-2.31-1.66,34.8,34.8,0,0,0-4.22-.09c-1.46-.1-2.12.43-2.56,1.89-1.29,4.34-1.37,4.32-6.72,3.64.65-2.72,1.21-5.43,1.95-8.1,1.68-6.07,3.49-12.1,5.15-18.17.53-2,1.71-2.53,3.54-2.33s4-.77,4.83,2.08C484.22,284.59,486.76,293.33,489.31,302.28Zm-11.37-19.57h-.6l-2,8.05H480C479.26,287.88,478.6,285.29,477.94,282.71Z"/><path d="M374.62,192.9c7.42.39,14.85.74,22.27,1.19,33.65,2.07,67.23,1.18,100.82-1.5,19.08-1.52,38.23-.81,57.32.71,3.44.28,6.88.55,10.31.65-10.17,0-20.34-.28-30.5.06-18.45.64-36.87,1.9-55.32,2.42-16.28.46-32.59.59-48.87.25-14.4-.31-28.78-1.43-43.17-2.29-4.32-.25-8.61-.81-12.92-1.23Z"/><path d="M534.59,278.89H523.22V285H533v6h-9.56v5.91h11.46v5.62H517.39c0-3.81,0-7.45,0-11.1.05-5,.25-10,.19-15,0-2.31.86-2.88,3-2.76,3.29.18,6.59.05,9.88.05C535,273.7,535.07,273.74,534.59,278.89ZM533.44,275v-.44h-10V275Z"/><path d="M348.17,321.38c-.26-9.11-8.12-9.38-15.57-5.26l-4.47-6.46c1.37-1.05,2.57-2,3.73-2.86,1.11,3.59,4.58,4.69,8.1,5.27,7.07,1.16,14.18,2.16,21.18-.6a2.46,2.46,0,0,1,2.11.53c3.64,3.67,7.18,7.43,11.41,11.85-3.55.83-6.64,1.68-9.78,2.19-.76.13-1.79-.74-2.52-1.36-1.43-1.21-2.69-2.62-4.09-3.86-2-1.78-4.2-1.7-6.53-.46A18.36,18.36,0,0,1,348.17,321.38Z"/><path d="M588,286l10.13,1.75c1.4,5,5.71,8,10.82,10.49-1.29,2.25-2.5,4.34-3.47,6.05L588,299.4Z"/><path d="M556.79,322.47c3.68-3.65,6.58-6.58,9.57-9.42a2.86,2.86,0,0,1,2-.6c5.39.34,10.79.76,15.72,1.13-.34,1.45-.83,3.61-1.37,6-5.2-1-8.54,1.44-11.27,5.49-.52.77-2.45,1.16-3.52.9C564.4,325.07,561,323.82,556.79,322.47Z"/><path d="M592.43,271c9.21.14,18.4-2.09,26.71,3.9-.76,2-1.63,4.39-2.58,7-5.39-2.05-10.7-3.53-15.86-.58Z"/><path d="M331.16,162.82c.65,4.24,1.82,8.33-1.67,11.85-2,2.06-3.14,2.13-5.14.09q-4.55-4.63-9-9.33a18.77,18.77,0,0,1-1.5-2l.57-.48c3.49,3.36,6.92,6.77,10.5,10,.79.72,2.31,1.43,3.12,1.13,1.46-.54,2-1.9,1.44-3.73C328.49,166.94,329.07,164.86,331.16,162.82Z"/><path d="M588.29,314.76l6.44,5.17-3.3,4.22C586.34,320.65,586.22,320.33,588.29,314.76Z"/><path d="M458.44,147.8h17.17l.28.5a8.4,8.4,0,0,1-2.52,1.2C465.47,150.24,459.83,149.7,458.44,147.8Z"/><path d="M467.28,138.15c1.61,0,3.21-.08,4.81,0,.46,0,.88.66,1.32,1-.42.29-.83.84-1.25.85q-5.07.09-10.16,0c-.4,0-.79-.59-1.19-.91.46-.32.91-.91,1.39-.94C463.89,138.07,465.59,138.15,467.28,138.15Z"/><path d="M578.85,297c1.5-2,2.84-3.84,4.19-5.65l.76.5c0,.91-.12,1.82-.15,2.73C583.48,298.81,583.29,298.92,578.85,297Z"/><path d="M338.82,90.5l-2.74-2.88,4.21-3.71,2.54,2.42Z"/><path d="M310,120.07l-2.7-2.94c1.32-1.57,2.54-3,3.54-4.19l3.49,2.73Z"/><path d="M471.71,130.93c-2.61,0-5.21,0-7.81,0-.47,0-.93-.6-1.39-.92.46-.33.91-.92,1.39-.94a50.93,50.93,0,0,1,6.42,0c.61,0,1.15.88,1.72,1.35Z"/><path d="M462.37,314.58c8.28-.44,8.28-.44,8.77,2C468.26,315.7,464.84,318.21,462.37,314.58Z"/><path d="M472.51,307.06h-12v-.4h12.11Z"/><path d="M464.89,120.75c1.66-1.75,2.59-1.78,5.21.55l-5.12.38Z"/><path d="M465.3,324.53a14.68,14.68,0,0,1,2.69-.84c.25,0,.62.81.94,1.25l-3.08,1C465.67,325.48,465.48,325,465.3,324.53Z"/><path d="M569.09,194.43l11,.81,0,.37-11-.84Z"/><path d="M589.6,105.9c9.57-.16,15.76,7.45,16,16.15A10.18,10.18,0,0,1,594,132.45c-9.89-1.09-16-8.88-14.77-18.68C579.81,109,584.07,105.8,589.6,105.9Zm1,22.66c-6.46-2.24-9-7.14-8.8-14.23-1.88,3-1,7.06,1.89,10.64,3.54,4.41,7.91,6.37,11.64,5l-2.13-.87c1-.05,1.89,0,2.8-.17,5.16-.73,8.7-6.19,6.75-10.9a15.81,15.81,0,0,0-11-9.73,7.65,7.65,0,0,0-9.42,7.45C582.24,121.85,585.8,125.59,590.62,128.56Z"/><path d="M590.31,134.21c9.91,3.7,18.89-2.42,18.88-12.88,0-11.85-12.67-21.82-23.66-18.64-5.33,1.55-8.33,5.18-9.52,10.82-.66-5.58,4.3-11.21,10.33-12.14,13.29-2.05,25.42,9.65,23.83,23-1.1,9.17-10.43,13.81-18.93,10.78-.38-.14-.62-.64-.92-1Z"/><path d="M590.32,134.21a8.32,8.32,0,0,1-2.19-.12c-6.56-2.09-12.3-10-12.37-17.48,2,8.63,6.17,14.93,14.55,17.6Z"/><path d="M355.88,117.21c0,7.78-9.21,16.12-16.92,15.36a11.09,11.09,0,0,1-10-12.2c.55-6.85,7.56-14,14.41-14.68C350.82,105,355.9,109.63,355.88,117.21Zm-7.73,9.18c1.15-2.37,3.09-5.13,3.87-8.19,1.65-6.42-4.2-11.54-10.54-9.49a13.83,13.83,0,0,0-8.43,7.07c-3.63,7.18.25,13.45,8.51,13.29l-3.58.46c3,1.8,7.33,1,10.36-1.58,4.1-3.53,6.23-8.66,4.67-12.41C353.15,120.66,351.1,124.15,348.15,126.39Z"/><path d="M331.31,107.39a22.57,22.57,0,0,0-5.61,15.06c0,7.34,4.9,12.39,12.28,12.67,3.84.15,5.19-.24,12.69-3.69-5.78,6-16.77,6.37-22.3.65C322,125.47,323.25,114.09,331.31,107.39Z"/><path d="M355.42,104.65a5.74,5.74,0,0,1-1.85-.29c-5.23-2.91-10.57-2.72-16-.72a10.17,10.17,0,0,1-1.26.29c4.07-3.78,12.2-3.93,17.05-.52.65.46,1.38.83,2.08,1.24Z"/><path d="M355.43,104.65a7.28,7.28,0,0,0,.7,1.46c4.34,5.59,4.59,12.2.42,18.21.42-1.33.93-2.64,1.24-4,1.08-4.74.82-9.32-1.77-13.6a8.64,8.64,0,0,1-.6-2.08Z"/><path d="M608.16,167.22c-1.38-2.87-2.43-5.45-3.82-7.81-1-1.7.08-2.41,1-3.31q11.25-11.29,22.53-22.55c3.93-3.94,4-6.11.2-10.49l2.73-2.65c3.09,3.85,6.12,7.66,9.21,11.42.85,1,1.45,1.93.24,3.14C629.5,145.74,618.77,156.54,608.16,167.22Z"/><path d="M545,103.24l33-33,13.06,10.42-2.47,2.63c-.33-.08-.55-.06-.67-.16-5.29-4.22-6.19-4.18-11,.64-7.26,7.25-14.56,14.47-21.74,21.81-1.66,1.7-2.9,1.81-4.81.44A36.69,36.69,0,0,0,545,103.24Z"/><path d="M625.18,118.81l-4.55-3,3.25-2.93,3.59,4.07Z"/><path d="M591.35,86.58l2.89-2.69,4.21,3.57-2.77,3.4Z"/><path d="M194.66,216.76h1.67a1,1,0,0,1,.27.17h7.31l.18.09c-.37.77-.6,1.15-.71,1.15h-1.76a10.4,10.4,0,0,1-1.06,3,.15.15,0,0,1-.17.17.08.08,0,0,0,.09.09,9.19,9.19,0,0,1-1.77,4,.08.08,0,0,0-.09.09h.18v.17a4.4,4.4,0,0,0-1.15.44h-.88c-1.73-.12-2.67-.17-2.82-.17h-14.9c-.07,0-.16-.09-.26-.27v-.26H179v-.09h-2.29l-.35.62h-6.88a.54.54,0,0,1-.09.26l.27.18h.79a2.78,2.78,0,0,0,.44.35h1.06c0-.24.12-.35.26-.35h1.33c.11,0,.17.09.17.17a12.12,12.12,0,0,0-1.23,3,.16.16,0,0,1-.18.18h-6.87c-.12,0-.18.09-.18.17v.27h2.65l.35-.27H172a1.63,1.63,0,0,1,1.06.27h3.17c.12,0,.18.09.18.17l-.09.18h2.2l-.09-.18v-.08q1-.09,1.5-.09h11.2c.47,0,.7.12.7.35h1.42c.11,0,.17.09.17.18s-.12.22-.35.35h-.88c-.11,0-.25.35-.44,1.06a4.14,4.14,0,0,0-.71,2.2v.35c0,.09-.18.33-.53.71v.18h.88a.91.91,0,0,0,.27-.18h1.67l.18.09a12.1,12.1,0,0,1-1.41,2.29h-2.65c-.1.47-.33.71-.7.71h-.18q-1.08,0-2.64-.09a6.38,6.38,0,0,1-1.24.35h-1.23a6.56,6.56,0,0,0-1.59-.35H170a.16.16,0,0,1-.18-.18v-.09l.09-.17h-2l-.18-.09V238c0,.12.35.21,1.06.27v.09c-.34.64-.55,1-.62,1h-.79a.54.54,0,0,1-.09.26l.17.09h8.12v-.44q0-.18,1.05-.27c0-.05,0-.08.09-.08h3a3.85,3.85,0,0,1,1.59.44h4.23c.5,0,1.29,0,2.38.09l.17.35c-.52.07-.79.16-.79.26v1h3.35v.18h-7.76c-.12,0-.17-.12-.17-.35h-2.56a.59.59,0,0,1-.44-.62h-14.2v.09l.45.09h1.67c.12,0,.18.08.18.17a2.52,2.52,0,0,0-.44,1.06l.61.09h.71v.17h-1.5a1.29,1.29,0,0,1-.35.88c-4.59,0-8.17-.08-10.76-.08h-2.82a2.64,2.64,0,0,0-.88-.36.79.79,0,0,1,.44-.7l-.09-.18a7.36,7.36,0,0,0,.35-1h-4.23l-.17-.08c.05-.59.14-.89.26-.89h4.23c.35,0,.59-.32.71-1h.09l-.09-.17v-.09c.11,0,.32-.44.61-1.32a.08.08,0,0,0,.09-.09v-.09h-.61c0,.35-.09.53-.27.53h-3.09c-.35-.19-.52-.4-.52-.62a4.88,4.88,0,0,1,1-1.41h2.21c.12,0,.17.09.17.18v1.06h1.15l1.5-3.62c-.54,0-.87-.06-1-.18-1-.05-1.75-.08-2.29-.08a.24.24,0,0,0-.27-.27v-.17q0-.13.36-.36h1.23c.5,0,1.29,0,2.38-.09.21-.58.35-.88.44-.88h1.23q1.38,0,4.41.09l.09-.18v-.08c0-.08-.09-.16-.26-.27h-5.2l-.18-.09.88-2.11h-3l-.17-.09a4.29,4.29,0,0,1,.88-1.76h3l2.64-6.7a2.87,2.87,0,0,0,.62-1.24,3.66,3.66,0,0,1,2.64-1.32q0-.18.18-.18h3.35c.29,0,.44.08.44.18L169,217h2.29q2.19,0,3.09-.09.47,0,1.5.09,8.73-.09,14.1-.09h4.41Zm-41.44,26.18h13.4l.18.09c-.72,2.17-1.19,3.26-1.41,3.26h-1.33v.09a1,1,0,0,1,.18.44L164,247h-.09l-.18-.09a.16.16,0,0,1-.18.18H159l-.18-.09v.35h5.47c.5,0,1.29,0,2.38.09v.09c0,.08-.09.17-.27.26h-1.58a.69.69,0,0,1,.09.27q-.82,2.44-1.68,2.82a3.8,3.8,0,0,1-2.38.52h-5.55a.91.91,0,0,1-.27.18h-4.58a2,2,0,0,1-1-.7v-.8a19.42,19.42,0,0,1,.88-2.38l-1.32-.26a1.09,1.09,0,0,1,.53-1h1a23.71,23.71,0,0,0,1.41-3.35A3.78,3.78,0,0,0,153.22,242.94Zm4.5-16V228h.17c.08,0,.31-.41.71-1.23l-.18-.09h-.53C157.78,226.75,157.72,226.81,157.72,226.9Zm.52,13.13v.09H162V240Zm1.42,7.94v.09c0,.08.08.17.26.26h1v-.26h-1.06Zm.17-16.31v.08h1.06v-.08Zm5.12,0v.26h3.79v-.26a.16.16,0,0,0-.18-.18h-3.44C165,231.51,165,231.57,165,231.66ZM166.44,246H169v.17h-.7a7.82,7.82,0,0,0-.27,1.06h-1.59a.15.15,0,0,1-.17-.17v-.89C166.3,246.09,166.36,246,166.44,246Zm.36-19v.09a.54.54,0,0,1,.26.09v-.18Zm.61,7.58v.09h.27v-.09Zm2.47-14v.08h4.85v-.08Zm.62,17v.18h.26v-.18Zm.18,4.59h8.9c.09,0,.18.08.27.26v.71c.29,0,.44,0,.44.17v.09h-.44a1.24,1.24,0,0,1-.8.26h-2.73l-.44-.08v-.18h.44a.64.64,0,0,1,.35-.18v-.88h-6Zm1-23.19v.18c0,.11.08.17.17.17h4.76a.71.71,0,0,1,.36.09.68.68,0,0,1,.35-.09h1.32a.66.66,0,0,1,.09-.26h1.85v-.09Zm8.2,8.46h1.23l.26.18h.44v.18h-2.73v-.18h.53Zm-.71,5.82v.44h5.38c.19.08.36.37.53.88h4.23v-.08h-3.79a.91.91,0,0,1-.18-.27v-.09l.09-.61a.08.08,0,0,1-.09-.09.16.16,0,0,0,.18-.18Zm.88-6.43H193.6c.12,0,.18.08.18.17l-.18.09H180Zm.71-5.65v.36h4v-.27Zm.61,20.28H183c.09,0,.17.09.26.27l-.17.08h-1.77l-.44-.08v-.18Zm-.26-16.4v.09h6v-.09Zm12.25-7.4c0,.29-.17.44-.53.44a3,3,0,0,0-.7.53h-6.88a.93.93,0,0,0,.18.26q-.18,0-.18.18h.09q7.23.09,9.17.09V218c0-.12.09-.18.26-.18v-.08Zm-3.79,4.05h-2.11l-.18-.09v.18q0,.18.18.18H194l.44-.09v-.18a.15.15,0,0,0-.17-.17h-1.59Z"/><path d="M233.27,222.49h3.35a6.78,6.78,0,0,1,.62,2.2.08.08,0,0,1,.09.09v.53h.7l.44-.09c0,.18.33.27,1,.27h2.65c.1,0,.22.11.35.35v1.59c0,.11-.06.17-.18.17h-1a6.7,6.7,0,0,0-.7.18h-2.82v.35a7.49,7.49,0,0,1,.44,2.2l.17.09h2.47v.18l-.44.09H238.3c.06.69.08,1.19.08,1.5v.08c.17.36.28.53.36.53h3.61v.27h-3.61l-.18-.09v.09c.09.82.21,1.23.35,1.23h.53v.18h-.53a.16.16,0,0,0-.17.17l.17.27v.62h3.35c.12,0,.18.07.18.17v2a.16.16,0,0,1-.18.18h-2.73c-.12,0-.18.07-.18.17a3.47,3.47,0,0,1,.36,1.24h.08l-.08.44v.17a4.84,4.84,0,0,1,.35,1.41c.06,0,.09.24.09.71l.17-.09h1.94q.18,0,.18.18v.26a.16.16,0,0,1-.18.18h-2.64v.88c0,.12-.35.21-1.06.26a.16.16,0,0,1-.18.18h-4.32l.09.18-.17.26h3.43c.18,0,.27.27.27.71v.17h.09l.26-.17h2.56c.17,0,.41.82.7,2.47-.06,0-.08,0-.08.08l-.18-.08H227.89c-.29,0-.47-.09-.53-.27v-.7H225.6a.93.93,0,0,0-.26-.18H215.2a1.56,1.56,0,0,1-.71.62h-4l-.18-.09-.09.18v.08q.18,0,.18.09c.88-.06,1.52-.09,1.94-.09h11.55c.35,0,.52.12.52.27v.35c0,.12,0,.18-.17.18H209.91q-.78,0-1.41,1.05a.73.73,0,0,1-.53.36v.09H218.9c0-.21.24-.36.71-.45,0-.11.08-.17.17-.17h1.94c.12,0,.18.07.18.17v.71h7a.16.16,0,0,0,.18-.18v-.17c0-.09-.09-.18-.26-.27h-3v-.26l-.09-.44a.56.56,0,0,0,.35-.18h4.76a1.29,1.29,0,0,0,.8.27h.7q3.39,0,6.26-.09c.81.06,1.69.09,2.65.09.16,0,.33.2.52.61v.44a3.23,3.23,0,0,1-1.23,1.68,1,1,0,0,0-.53.26c-.26,0-.91,0-1.94.09a3,3,0,0,1-.79-.09c-.78.06-1.46.09-2,.09q-1.41,0-5.73-.09a.87.87,0,0,1-.18-.61h-1.41c-.17,0-.26-.18-.26-.53h-1.85c-.36,0-.53-.12-.53-.36q-8.55-.08-13.23-.08h-4.14c-.35,0-.53.11-.53.26V251q0,.18.18.18h1.32c.12,0,.18.07.18.18h-3.35l-.27.17h-5.29l-.35-.26H198v.26q-1.2.09-1.77.09h-3.7c-1.06,0-1.59-.29-1.59-.88v-.27a9,9,0,0,1,1.85-2.64h.09q1.53,0,7.32.09a.16.16,0,0,0-.18-.18H196.6a1,1,0,0,0-.27-.17h-3.17v-.09l1.5-1.68c0-.12-.06-.17-.18-.17l-.27.17H194c-.88-.13-1.32-.25-1.32-.35v-.09c0-.12.09-.17.17-.17h2.39a.07.07,0,0,1,.08.08,1.19,1.19,0,0,1,.53-.17h3.35a1.7,1.7,0,0,0,1.06.26h3.26c0-.41.09-.62.27-.62h4.76v-.17c-1.08.06-1.87.09-2.38.09h-5.65l-.35.26h-2.2l-.35-.26h-1.68v-.18c.15,0,.29-.15.44-.44-.18,0-.26-.06-.26-.18v-.17c0-.12.32-.21,1-.27l3.26-3.44h1.14l.45.09a.08.08,0,0,0-.09-.09l.09-.17a.16.16,0,0,0-.18-.18h-.79c-.42-.25-.62-.42-.62-.53V239c0-.08.09-.17.26-.26h.88a14.83,14.83,0,0,0,1.86-1.94v-.09h-.8c-.12,0-.17-.14-.17-.44h-2.12v-.09c0-.11.09-.17.26-.17.53,0,1.71,0,3.53.08l1.32-1.23h1.85l-.17-.26-.18.08h-1.14v-.17c0-.09.17-.33.52-.71v-.7h-7.4v-.27h7.93l.18.09a19.74,19.74,0,0,0,1.68-1.67h3.7l.44-.09v-.71c0-.13.15-.22.44-.26H221v-.09H209.91v-.18a45.16,45.16,0,0,1,3.26-3.43h5.47v-.18c-2.13-.06-3.75-.09-4.85-.09h-.09l-.18-.09c.58-.69,1-1.16,1.15-1.41h-4.23q-.93,0-2.82-.09l-.09-.17v-.53c0-.09.16-.21.44-.35H212q0-.45.18-.45h4.14c.12,0,.21.27.27.8h7c.12,0,.18.09.18.26h4.67v-1.32s.09-.13.27-.26C230.82,222.52,232.35,222.49,233.27,222.49Zm-40.47-1.85h3.09c.12,0,.18.07.18.17a.71.71,0,0,1-.36.09v.71a.15.15,0,0,1-.17.17H192.8a.15.15,0,0,1-.17-.17v-.8C192.66,220.7,192.72,220.64,192.8,220.64Zm0,7.67h2.65c.12,0,.18.07.18.17a.16.16,0,0,1-.18.18H192.8c-.11,0-.17-.06-.17-.18S192.72,228.31,192.8,228.31Zm0,1.94h5c.07,0,.22.17.44.52h2.2V231H195.8a.91.91,0,0,0-.61-.26h-2.3c-.07,0-.16-.09-.26-.27S192.72,230.25,192.8,230.25Zm11.29-10.94h10q.18,0,.18.18v.44a.16.16,0,0,1-.18.18h-2.56a6.7,6.7,0,0,1-.7-.18H205.5a.91.91,0,0,1-.27.18h-4.76c-.07,0-.16-.09-.26-.27s.16-.2.44-.35h3.17A.91.91,0,0,0,204.09,219.31Zm3.35,2.38H212a2.37,2.37,0,0,0,1.15.27v.53c0,.09-.09.17-.27.26h-6.52c-.35,0-.53-.11-.53-.35h-5a.16.16,0,0,1-.18-.18v-.17h.79l.18.09q0-.18.18-.18h3.08c.52,0,1.31,0,2.38-.09Q207.31,221.69,207.44,221.69Zm-5.38,3h1.76q.18,0,.18.18a4.15,4.15,0,0,1-1.32.17l-1.06-.08v-.18Zm-.35,15.52v.09h.18v-.09Zm2.73,2.38v.17h.27v-.17Zm5.82-7.49.09.17-.09.18h2.12v-.27h.52V235h-2.46Zm2.82,3.17v.44h.44v-.44Zm11.2-21.16h8.9c1.55,0,2.49.56,2.82,1.67a1.06,1.06,0,0,1,.09.53h2.38q.18,0,.18.18V220h3.61q.18,0,.18.18v.7a.16.16,0,0,1-.18.18h-5c-.09,0-.21-.12-.35-.36v-1.05h-.27l-.44.09v.08a1.73,1.73,0,0,1,.26,1l-.17.09h-1.06c-.16,0-.28.32-.35,1a.68.68,0,0,0-.44.18h-10v.17h-7.31v-.08q3.86-4.24,4.23-4.24A7.08,7.08,0,0,1,224.28,217.11Zm-6.61,21.6a.76.76,0,0,1-.18.53v.26l.26.36.18-.09h5.64l.18.09.18-.27h-3c-.35,0-.53-.15-.53-.44h-1.68a1.43,1.43,0,0,1-.7-.35A.68.68,0,0,1,217.67,238.71Zm.17-16.05h8.64v.62c0,.07-.14.19-.44.35h-7.85c-.35-.16-.52-.28-.52-.35v-.44C217.69,222.72,217.75,222.66,217.84,222.66ZM219,237.47v.18h4.94c-.25-1.82-.52-2.73-.8-2.73q-.09,0-.09-.18h-1.32a6,6,0,0,0-1.23,1.32C220.34,236.06,219.84,236.54,219,237.47Zm2.2-10.84v.18c0,.12.09.17.18.17h6.7c.09,0,.18-.08.26-.26s-.05-.18-.17-.18C225.12,226.6,222.79,226.63,221.19,226.63Zm1.06,7.58h1.06v-.08l-.09-.62H223C222.88,233.51,222.65,233.74,222.25,234.21Zm3.35-3.44c-.07.42-.16.62-.26.62H224c-.07,0-.16.09-.26.27v.08h2.47v-1l-.18.09h-.26Zm-1.85,7.59v.44H224v-.62h-.08C223.81,238.2,223.75,238.25,223.75,238.36Zm2.56,7.84h1.05c0-.08-.08-.17-.26-.26h-.53C226.5,245.94,226.41,246,226.31,246.2ZM228,233.51V234h3.17v-.27a.15.15,0,0,0-.17-.17h-1.06c-1-.12-1.54-.18-1.67-.18A.6.6,0,0,1,228,233.51Zm3.44-7.67c0,.29-.38.44-1.15.44h-.7v.09h6.87a.16.16,0,0,0,.18-.18V226h-2.56a5.33,5.33,0,0,1-.7-.17Zm1.76,9.08v.18h.09l.44-.09v-.09c0-.12-.06-.18-.17-.18h-.18Q233.18,234.77,233.18,234.92Zm2.3,9.08h1.23c.5,0,1.23,0,2.2.09v.17h-3.43c-.12,0-.18,0-.18-.17Zm.52-2.82v.09h.53v-.09Zm4.85,3.44h1.5v.17h-1.5Z"/><path d="M292.56,216.93a1.6,1.6,0,0,1,1.59.88v.09a.16.16,0,0,1-.18.18h-6.08a3.16,3.16,0,0,0-.18-.79h-.44a3.64,3.64,0,0,0-.53.52H282v.45c0,.11-.12.17-.35.17v.09h1.23a.91.91,0,0,0,.27-.18H294l.26.18h2l.18.09-.09.62v.7c0,.12-.06.18-.17.18h-1.59l-.27.17h-.7a11.55,11.55,0,0,0-.8,2.21c-.6,1.53-1.1,2.29-1.49,2.29l.08.18a3.15,3.15,0,0,1-1.67.79H265.05v.09h3.27l.08.17v.53c0,.09-.11.21-.35.36h-4.67l-.18-.09a1.89,1.89,0,0,1-.35.79,10.86,10.86,0,0,1-.53,1.59v.44c0,.16.35.37,1.06.62h18c1.41,0,2.12.11,2.12.35V231c0,.18-.26.27-.71.27H273c0,.17-.06.26-.18.26h-8.28c-.09,0-.18.09-.27.26v.45h1.94q0-.27.18-.27h6.87c.12,0,.18.07.18.18v.35a.16.16,0,0,1-.18.18h-1l-2.11.17H266.9c-.47,0-.7-.12-.7-.35h-1.94v.44l-.18.27q-4.57.08-7.23.08h-2.73v.27h5l.26.17c0-.11.07-.17.18-.17H261c.12,0,.17-.06.17-.18q4.5-.09,7.06-.09h3.7l.26.18H277a.08.08,0,0,0-.09-.09l.09-.44v-.44c-.24,0-.36-.09-.36-.26a1.8,1.8,0,0,1,1-.36h1.33l.26-.17h7a8.63,8.63,0,0,1,1.5,1.58h4.67a.61.61,0,0,0,.53-.61q0-.36.18-.36h.09c.11,0,.17.08.17.18-.14,1.06-.32,1.59-.53,1.59h-2.11v.61a.16.16,0,0,1-.18.18h-2l-.17.09.09.18v.08l-.44.09H282.6A1.05,1.05,0,0,1,282,235h-2c0,.35-.29.53-.88.53h-1v.08h10.23c.12,0,.17.08.17.18v.44q.18,0,.18.09l.62-.09h3.17c.12,0,.18.07.18.18l-.18.09h-.7c0,.23-.06.35-.18.35h-.79a4.33,4.33,0,0,1-.71.17h-1.76a6.31,6.31,0,0,1-.71,2.74l-1.23,3.08V243h4.32q.18,0,.18.18v.35c0,.17-.77.26-2.3.26h-2.47a16.06,16.06,0,0,0-1.41,1.94,4.33,4.33,0,0,1-1,.88v.09h.36v.18c-.49,0-1.13.44-1.94,1.32l-2,1.24a12.53,12.53,0,0,1-2.47,1.14h-.09l-.17-.09c0,.15-.8.39-2.38.71a.08.08,0,0,1-.09.09c-1.3.06-2.15.08-2.56.08a.16.16,0,0,1-.18.18h-1.67a1.12,1.12,0,0,0-.26-.18h-3.44c-2.27,0-5.41,0-9.44-.08a1.67,1.67,0,0,1-.17-.53.08.08,0,0,0,.09-.09h-7.5c-.09,0-.2-.12-.35-.35v-.62c0-.12.09-.18.26-.18v-.08c-.17,0-.26-.06-.26-.18a.08.08,0,0,0,.09-.09H245l.09.18a.54.54,0,0,0-.09.26l.27.18H247c.12,0,.18.07.18.17v.71l-.09.18c.17,0,.26.05.26.17v.18a.15.15,0,0,1-.17.17h-4.5q-1.5,0-1.5-1.32a2.54,2.54,0,0,1,.35-1.14v-.09h-1.23a.16.16,0,0,1-.18-.18v-1.14q0-.18.18-.18h.62a.16.16,0,0,1,.17.18V248h.8c.33-1,.57-1.56.7-1.59H245l.27-.18h2.38c.12,0,.17.08.17.18v.88l.18-.09h4.94l.17.09a.08.08,0,0,1,.09-.09c0-.06,0-.08-.09-.08l.09-.45v-.7c0-.09.18-.21.53-.35h7.49v-.44h-6.34c-.18-.06-.27-.24-.27-.53v-.09c.05-.35.13-.53.27-.53h.88v-.53h-1.85c0,.24-.06.35-.18.35h-6.17l-.27.18H243.9q-.14,0-.27-.27a2.78,2.78,0,0,1,1.85-1.14h8.2l.35.62c.83,0,1.53.08,2.12.08.09-.23.18-.35.26-.35h1.15c1.22,0,1.9-.12,2-.35h10.22v-.18h-2.46a.6.6,0,0,1-.45-.61H252.36l-2.12.17h-.53a.15.15,0,0,1-.17-.17v-.27c0-.1.11-.22.35-.35h12.43l.44.09v-.44c0-.12.35-.21,1.06-.27a.08.08,0,0,1,.09-.09h3.26a2.51,2.51,0,0,0,1.15.27c0,.06,0,.09.08.09H274l.26.17h.27c.08,0,.17-.09.26-.26V240h-1l-.44-.09.09-.44v-.17h-5.11c0,.17-.06.26-.18.26h-2.56a.15.15,0,0,1-.17-.17v-.36c0-.17.76-.26,2.29-.26h1.14v-.35H256.77c-.9,0-2.13,0-3.71-.09,0-.15-.53-.27-1.58-.36a6,6,0,0,0-1.68-.79c-1.7-1.48-2.56-2.81-2.56-4v-.17c0-.18.68-.27,2-.27h.27v-.26h1a.8.8,0,0,1,.09-.44h2.11V232h-5.29a.16.16,0,0,1-.18-.18v-.7h-.79c0,.23-.17.35-.53.35h-1.23a.16.16,0,0,1-.18-.18l.71-1h2.11c.14,0,.34-.51.62-1.49h-1.67a.16.16,0,0,1-.18-.18l.26-.18H248l.44-.61h2.2v-.62H249.1c-.09,0-.21-.12-.36-.35a9,9,0,0,1,2.3-.18h1.23l.26-.18h1a2.38,2.38,0,0,0,.09-.35l-.17.09h-4l-.35-.27a1.23,1.23,0,0,1,.61-1l.18.09a.16.16,0,0,1,.18-.17h3.26v-.09h-.18v-.09l.09-.18-.44.09h-2.91a.71.71,0,0,0-.35-.62,6.71,6.71,0,0,0,1.67-.35h2.91a1.47,1.47,0,0,1,.71.18,1,1,0,0,0,.17-.27h-4.49v-.08a10.7,10.7,0,0,1,3.35-3.27v-1.23a.16.16,0,0,0-.18-.18h-1.76c-.12,0-.18-.06-.18-.17s.07-.18.18-.18h3.52c.12,0,.18.15.18.44h.18a28.64,28.64,0,0,1,5.2-1.85,11.41,11.41,0,0,1,1.5-.09h25.74Q289.83,217,292.56,216.93Zm-49.11,27.25h3.71c.08,0,.17.08.26.26v.79l-.18.27c1.09-.06,1.89-.09,2.39-.09h.88c.11,0,.17.07.17.18s-.41.2-1.23.35h-4.67c-.5,0-1.3,0-2.38.09,0,.11-.06.17-.18.17h-1.94c-.12,0-.18-.06-.18-.17v-.36c0-.11.08-.17.18-.17h5.38v-.09c-.35,0-.53-.15-.53-.44s-.06-.35-.18-.35h-1.58a.16.16,0,0,1-.18-.18C243.19,244.35,243.28,244.26,243.45,244.18Zm1-4.41h2.74l.35.26h2c.11,0,.17.08.17.18l-.17.09H245C244.63,240.3,244.42,240.12,244.42,239.77Zm4.68-19h1.41c.11,0,.17.08.17.18v.79c0,.12-.06.18-.17.18h-1.68l-.17-.09C248.82,221.17,249,220.81,249.1,220.81Zm4.14,26.72.18.08h2.82v.18h-.8c-.05.71-.14,1.06-.26,1.06h-1.59l-.35-.27h-.09a.93.93,0,0,1-.26.18H251.3c-.5,0-1.23,0-2.2.09v.09a3.74,3.74,0,0,1,1.23.08.64.64,0,0,0,.27-.08c2.6.06,4.62.08,6.08.08h5.64c.21,0,.35.33.44,1,0,.06-.31.09-.79.09v.09h2.91v-.09c-.3,0-.44-.06-.44-.17v-.53a2.24,2.24,0,0,0,.26-.88h-7.23c-.13,0-.22-.39-.26-1.15h-3.79Q253.24,247.37,253.24,247.53Zm-1.06,1.76v.18h.44v-.18Zm1.24-20v.17c0,.12.07.18.17.18a5.73,5.73,0,0,0,1.15-.09,7.72,7.72,0,0,0,1.23.09h.18l.26-.18h1.24v-.17Zm3.52-8.82h-1.58v1.06h.79c.29.15.44.26.44.35v.44c0,.12-.21.18-.62.18l.09.17a.57.57,0,0,0-.09.27l.18.09H257c.59,0,1.47,0,2.65.08,0-.23.11-.35.26-.35h2.29c0-.29.06-.44.18-.44h1v-.26h-5.73a.16.16,0,0,1-.18-.18v-.53c0-.12.08-.17.18-.17h1.76l.44-.09v-.18h-1.32c-.35-.12-.53-.29-.53-.53Zm1.94,23.72-.09.44h2.12c0-.15.18-.24.53-.27v-.09l-.18-.08Zm1.94-18.52v.18h2.56v-.18Zm.53,9.61v.09h.53v-.09Zm.26,12.26V248h5.21c.41,0,.61.26.61.79a.08.08,0,0,1,.09.09.08.08,0,0,0,.09-.09l.53.09h3.53v-.09H268a2.31,2.31,0,0,1-.17-1v-.09l.08-.17Zm5-12.7h-3.79v.27a.17.17,0,0,0,.18.17h4.84c.09,0,.18-.09.27-.26v-.44h-.44A1.63,1.63,0,0,0,266.64,234.83Zm-3.44-16.4.09.18c1.09.06,1.88.09,2.38.09h2a6.19,6.19,0,0,1,1.41-.18v-.09Zm2.65,17.11v.17h1.32v-.17ZM267,229.1h1.33a.87.87,0,0,0,.61.18v.17h-2.64v-.17h.44A.8.8,0,0,0,267,229.1Zm-.53-8.64v.09h.18v-.09Zm.71,8h13.75v.18H267.17Zm.18-7v.17H269v-.08h-1l-.09-.18-.17.09-.27-.18C267.4,221.36,267.35,221.42,267.35,221.52Zm.7,28.83.09.17a.08.08,0,0,0-.09.09h.35l.27-.18h1.67v-.08Zm1.59-14.46V236c0,.07.09.16.26.26h6.7a.16.16,0,0,0,.18-.18v-.26Q271.19,235.89,269.64,235.89Zm7,6.87c-.06.71-.14,1.06-.26,1.06-.71,0-2,0-3.79-.09-.88.06-1.53.09-1.94.09a2.7,2.7,0,0,1-.09.36h1c.09,0,.18.08.26.26v.18l-.08.17h-1.06v.09h2.91l.61-.09a.73.73,0,0,1-.08-.26c.08-.24.17-.35.26-.35h7l.35.26h.09a.68.68,0,0,1,.44-.18v-.08A.16.16,0,0,0,282,244h-1.41c-.12,0-.21-.35-.26-1.06.05,0,.08,0,.08-.09h-1.14C278.66,242.85,277.78,242.82,276.6,242.76Zm5.29-22.3v.44c0,.12-.06.18-.17.18h-7.23a6.05,6.05,0,0,1-1.5.35q0,.09-.18.09v.17h3.62a1.25,1.25,0,0,1,.79-.26h6.08c0-.24.24-.35.71-.35V221c-.41,0-.62-.09-.62-.27h-.62a1.21,1.21,0,0,1-.79-.26Zm0-.26v.17h.18C282.07,220.25,282,220.2,281.89,220.2ZM284,250.52H289v.18h-.8a.08.08,0,0,1-.09-.09l-.17.09H284Zm3.17-23.62h.44l.27.17h.61v.18h-3.79v-.18h2.21Zm-1.06,1.85h6c.12,0,.18.07.18.17l.17-.08h.62c.16.29.28.44.35.44.24,0,.35.06.35.17l-.17.09h-4.76c-.06,0-.21-.18-.44-.53h-1.24c-.38,0-1,0-1.76.09v-.26h.35l.18.08A.16.16,0,0,1,286.12,228.75Zm5.91-2.91h2.56c.12,0,.17.07.17.17-.19.65-.33,1-.44,1h-5.55v-.17l.62-.09h2.47V226A.16.16,0,0,1,292,225.84ZM291,245.23h1.5q.18,0,.18.18v.35a.16.16,0,0,1-.18.18h-1.58l-.27-.18h-1.15v-.17A7.3,7.3,0,0,0,291,245.23Zm-.61,4.59h1.23c.12,0,.18.09.18.26-.15.37-.3.58-.44.62H290c-.06,0-.08,0-.08-.09l-.18.09h-.18v-.18h.62V250A.17.17,0,0,1,290.36,249.82Zm2.11-10.93.09.17v.36c0,.11-.06.17-.18.17l-.17-.26v-.18C292.21,239.06,292.3,239,292.47,238.89Z"/><path d="M317.31,234.48a.83.83,0,0,0,.44.09h.71c.12,0,.17.07.17.17s-.19.31-.52.44l-.18.27v.26q0,.18.18.18L316.87,239a.08.08,0,0,0-.09.09v.36h1.77c.11,0,.17.08.17.26h2.56c.35,0,.53.12.53.26a.16.16,0,0,1-.18.18H320.4c-.5,0-1.29,0-2.38.09a.16.16,0,0,1-.18.18h-1.5a7.49,7.49,0,0,0-.35.88h2.47c.29,0,.44.07.44.17l.18-.09h1.58c.3.15.44.27.44.36v.44l-.08.17c-1.09.06-1.89.09-2.39.09h-1.14a.91.91,0,0,1-.27.18h-.44c-.94,0-1.41.12-1.41.35a1.73,1.73,0,0,1-.26.53c3.41.26,5.11.5,5.11.71v.52h4.85c1.37,0,3.34,0,5.91-.08l.09.17c0,.12-.33.21-1,.27a.08.08,0,0,1-.09.09h-4.85c-.19,0-1.46,0-3.79.17h-2.56c-.5,0-1.29,0-2.38-.09l-.09-.17v-.44h-1.41a6.89,6.89,0,0,0-1.06,2h2.47c0-.29.06-.44.18-.44h2.2q.18,0,.18.36h2.38c.12,0,.18.07.18.17v.44h9.43v.18l-1.06.09h-3.26c0,.23-.06.35-.18.35h-1.23a1,1,0,0,0-.62.27H313.35q-.75,2.64-1.5,2.64c0,.12-.47.38-1.41.79q-8.1.09-11,.09a1.59,1.59,0,0,1-1.5-.88v-.62c.28-1.35.63-2,1.05-2a.08.08,0,0,1,.09-.09h1.41v-1c0-.12.21-.18.62-.18v-.09h-1.76c-.12,0-.18-.06-.18-.17a10.83,10.83,0,0,0,1-2.3A.61.61,0,0,1,300,244h-.7a.16.16,0,0,1-.18-.18v-.61H295a.16.16,0,0,1-.18-.18V241.8c0-.12.07-.18.18-.18h.79v-1.23h-3.7c-.18,0-.27-.21-.27-.62H291c-.18-.06-.26-.24-.26-.53,0-.12.07-.18.17-.18h4.32c.12,0,.18.27.18.8l.17-.09h6l.18.09a2.75,2.75,0,0,0,.52-1.06h-2.55v-.18h2.64c.38-1,.62-1.5.71-1.5h1.32l-.09-.17v-.09l.09-.18h-1c-.12,0-.18-.06-.18-.17a5.4,5.4,0,0,1,.89-1.94h12.6ZM291,245.41h2.47l.27.18h.17c1.53,0,2.29.08,2.29.26a2.36,2.36,0,0,0-1.14.27H291c-.12,0-.17-.06-.17-.18v-.35C290.79,245.47,290.85,245.41,291,245.41Zm.27-9h.17c.3,0,.74,0,1.33.09v.17h-1.5c-.12,0-.18-.06-.18-.17Zm.44-4h1.14c.12,0,.18.07.18.18l-.26.35v.7h8.64l.26.18h.53c.42,0,.66.09.7.27l-.17.08H291.3v-.08Q291.3,232.45,291.66,232.45Zm1.5,16.4c.94,0,1.41.12,1.41.26v.09c0,.1-.27.19-.8.27a.07.07,0,0,1-.08.08h-1.86v-.44C291.83,249,292.27,248.88,293.16,248.85Zm10.31-31.92h1.41l.27.18h13l.26-.18h1.41l.27.18c2.05,0,3.52,0,4.4.09q4.69-.09,9.53-.09h3q1.68,0,1.68,1.23,0,.87-2.12,5.91a3.55,3.55,0,0,1-2.82,1.68h-1.59c-1.58,0-2.79,0-3.61.08s-2.09-.08-3.7-.08h-1.33c-.94,0-1.41.23-1.41.7-.1,0-.25.35-.44,1.06h-.09l.09.18V228a3.27,3.27,0,0,1-.61.8h-2.56c-.12,0-.21.32-.27,1h-4.84c-.12,0-.18.07-.18.17v.18H320c.35,0,.53.12.53.26v.09a10.91,10.91,0,0,0-.88,1.94h2.29c.35,0,.53.12.53.27v.08a.16.16,0,0,1-.18.18h-2.82c-.34.59-.55.88-.62.88h-6.43c-.11,0-.2-.2-.27-.61-2.57.05-4.48.08-5.73.08h-3.44c-.44,0-.67-.08-.7-.26v-.09c0-.18.76-.26,2.29-.26h2.56l.61-.18h2.38v-.09h-1.32c-1.34.06-2.6.09-3.79.09a.71.71,0,0,1-.09-.26,17.62,17.62,0,0,0,1.68-4.15c.05,0,.11-.09.17-.26h-3.88a1.2,1.2,0,0,0-.79-.27h-3.17c-.12,0-.18-.06-.18-.17v-.09h.88l.27-.18h7.05c.18,0,.26-.28.26-.7v-.27h7.32l.35-.35h3.44a8,8,0,0,0,1-.35h.88q0-.36.27-.36h3.7c0-.23.06-.35.18-.35h4a1,1,0,0,0,.27-.17h2.38V224l.09-.18h2.11v-.09h-5.73c-.12,0-.17.08-.17.18l-.44-.09h-4l-.35.26h-5.21c-.11,0-.2.36-.26,1.06a.91.91,0,0,1-.27.18h-7.93c-.54,0-1.31,0-2.29-.09-.59.06-.88.12-.88.18s-.28.26-.71.26h-2.73l-.35.27H299v1c0,.17-.76.26-2.29.26h-4.23a.16.16,0,0,1-.18-.18c.05-.64.14-1,.27-1h2.91v-.7c-.65,0-1-.09-1-.27v-1a17,17,0,0,0,1.32-3.71h-2.91l-.44.09c0-1.11.15-1.67.35-1.67H296c.11,0,.17.11.17.35h.27a3.58,3.58,0,0,1,1.23-1.5,1.87,1.87,0,0,1,1.41-.44h4.15A.93.93,0,0,0,303.47,216.93Zm-6.79,13.23h1.24l.44.09v.17h-1.85v-.09A.16.16,0,0,1,296.68,230.16Zm.8,11.81v.88h3.26a5.88,5.88,0,0,1,.35-1h-3A.94.94,0,0,1,297.48,242Zm4-1.76v.09h.18v-.09Zm.09-19.66v.09c0,.07.09.16.26.26h7.41l.09-.35Zm14.55.62a.72.72,0,0,1,.17.44H319a.78.78,0,0,1,.09-.44Zm4.32,8.37h3.43q2.56,0,7.06.09l.09.18v.08a.16.16,0,0,1-.18.18h-2.82a1.23,1.23,0,0,0-.79.26h-.45c0,.24-.17.36-.52.36h-1.94c-.31,0-.49-.09-.53-.27V230h-3.35c-.12,0-.18-.06-.18-.17v-.09Q320.33,229.54,320.49,229.54Zm2.55-11.9v.26h.44v-.26Zm1.59,2v.09h.44v-.09Zm.44,8h5.82q.18,0,.18.18c0,.11-.06.17-.18.17h-6.26v-.17A.7.7,0,0,0,325.07,227.69ZM324.81,239h2.73l.35.27h2.21v.09c0,.11-.06.17-.18.17h-4.58a1.56,1.56,0,0,0-.53-.35Zm2.38-20v.44c0,.12-.15.18-.44.18v.09h4.32V219Zm5.46,2.47v.18h.88v-.18Z"/><path d="M369.22,215.79h19.13l.44.53a2.36,2.36,0,0,0-.26,1.05,4.06,4.06,0,0,1-1,.18v.09c.41,0,.73.44,1,1.32a3.58,3.58,0,0,1,.61,1.24l-.26.17h-8v.09c.69.06,1.19.09,1.49.09h3.27a.16.16,0,0,1,.17.17v1c0,.12-.06.18-.17.18H381.3v.18h4l.36.44h1.58l1.41-.18h1.06a1,1,0,0,0,.62-.26h3.08a7.22,7.22,0,0,1,.71-.18h1.5a.08.08,0,0,1,.09.09,2.64,2.64,0,0,1,1.32-.35.08.08,0,0,1,.09-.09h1.32c0-.3.26-.44.79-.44a17,17,0,0,0,1-2.38c.81-1.24,1.63-1.85,2.47-1.85,0-.06.21-.12.62-.18q2.73.09,4.32.09h6.08a10.94,10.94,0,0,1,1.24.53,1.52,1.52,0,0,1,.26.7v.18a8.3,8.3,0,0,1-.53,2.38h6.08v.17H420l-.27.18H415c0,.24-.06.35-.17.35h-.62a2.27,2.27,0,0,1-.53,1.33q-8.55.09-13.22.08l-.18.27v.79a.16.16,0,0,1-.18.18h-1.76l-.17-.09.61-1.59H398c0,.3-.06.44-.18.44h-6.17c-.07,0-.16.09-.26.27V224l-.18.26a.08.08,0,0,1,.09.09c1-.06,1.7-.09,2.2-.09H398l.26-.18h1.15l.26.18h4.06c.38,0,1,0,1.76.09v.18h-4.93v.08h9.08a.82.82,0,0,1,.52-.79v-1q0-.18.18-.18h3.18l.17.09-2.56,6.53h.45a6.68,6.68,0,0,1,.7.17h2.12c.29.16.44.28.44.36v.08a.16.16,0,0,1-.18.18h-3.26l-.62-.09c-1.11,2.43-2,4.6-2.73,6.53l.18.08H411c.11,0,.17.09.17.27h2.47c.35,0,.53.13.53.26l-.18.09h-2.46c-.12,0-.18.07-.18.18-1.09.06-1.88.08-2.38.08h-1.41a1.08,1.08,0,0,1-.35.71v.27h1c1.2,0,2.85,0,4.93.08q.36.14.36.27v.44c0,.12-.36.2-1.06.26a.08.08,0,0,1-.09.09h-.44c-.84,0-2,0-3.44.09a1,1,0,0,1-.53.18h-1.06l-.17-.09-.36.62v.08q0,.18.27.18a35.43,35.43,0,0,1,6,.53v.62h4.06c.12,0,.18.07.18.17,0,.33-1,.5-3,.53h-2.74c-1.52,0-2.29-.09-2.29-.26v-.44h-3q-.18,1-.45,1c-4.18.06-6.89.09-8.11.09l-.08.18v.35c0,.12.08.18.17.18h3c.12,0,.18.09.18.26h.17v-.61q0-.18.18-.18h4.41v.18a.93.93,0,0,1-.27.61h3.62l.35-.53h2.11q.18,0,.18.36h2.38c.12,0,.18.07.18.17v.44h1.67l.18.09c-.22.53-.43.83-.62.88H402.9l-.45-.08v.26h-1.67c-.12,0-.18-.15-.18-.44h-.7v.62h4.32c.12,0,.17.07.17.17s-.49,1.46-1.49,4a3.33,3.33,0,0,1-2.47,1.5c0,.12-.5.17-1.5.17h-4.15c-.71,0-1.6,0-2.64-.08a6.57,6.57,0,0,1-1.5.08.16.16,0,0,1-.18.18h-1.58c-.52-.16-.81-.31-.88-.44l.17-.09h3.44v-.17l-.18.08h-3.52q-.56,0-1.5-2.55c-.13,0-.37-.56-.71-1.59a.8.8,0,0,0-.26-.18h-1.23v-.35c0-.12.35-.2,1.05-.26q-1.08-2.81-1.32-2.82h-.7q-1,0-3.27-.09v-.18a7.06,7.06,0,0,1,2.74-.35h1q0-.19-2.21-4.85l-.17-.62.17-.09h2.47v-.17l-2.82-.09a9.26,9.26,0,0,1-1-1.85c0-.18.65-.27,1.94-.27v-.08h-2c0-.09-.09-.18-.26-.27h-.09a.81.81,0,0,1-.44.27q-1.32,0-6.26.08l-.09.18v.09l.18-.09h5.82c.1,0,.22.12.35.35a5.3,5.3,0,0,0-.62,1.59l-.7,1.32-.53.09h-2.56q0,.27-.18.27h-9l.09.17-.18.09h-.53v.18h1.06a1,1,0,0,0,.62-.27h10.84q.18,0,.18.18a4.9,4.9,0,0,1-.62,1.5l.18.09h4a.16.16,0,0,1,.17.17v.27c0,.1-.47.22-1.41.35H376.8a6.69,6.69,0,0,1-.53,1.32,6.9,6.9,0,0,1-.62,1.85l-1.23,3.44H378V248h-3.7a7.17,7.17,0,0,1-1.14,2.38h-4.33v.08c.49,0,.78.06.89.18h.79l.26.18h1.59V251h-1.06l-.44.09.09.18a9.1,9.1,0,0,1-2.29.17h-8q-1.49,0-1.77-1.14l.18-.09h4.41c.08,0,.17.09.26.26l.18-.08h1.32c.53,0,1.12,0,1.76.08h.18v-.08c-.53,0-.79-.06-.79-.18v-.62c0-.17.28-.26.7-.26h1.59v-.18c0-.11-.06-.17-.18-.17h-3.44c0,.35-.05.53-.17.53h-3.44a1.19,1.19,0,0,0-.79.26h-1.24c-.23-.12-.35-.21-.35-.26a22.28,22.28,0,0,1,1.06-2.65l.17.09-.08-.44v-.09a6,6,0,0,1,.79-1.76h1.32v-1.33c0-.08.09-.17.27-.26H369v-.18c-.29,0-.44,0-.44-.17V242c0-.12.09-.17.18-.17h2.82v-.27l-.09-.18-.17.09h-1.86l-.17-.09c0,.18-.27.27-.71.27h-5.9a1,1,0,0,1-.53-.18,10.41,10.41,0,0,1,.44-1.32l-.18-.09h-1.76c-.12,0-.18-.06-.18-.17v-.18c.18-1,.35-1.5.53-1.5h2.47l.62-1.59h-2.47c.6-1.41,1-2.11,1.14-2.11.91,0,2.33,0,4.24-.09V234h-.45c0,.23-.05.35-.17.35h-1.24l-.17-.09q.62-1.28,2.73-6.7l.18-.08h.88c.07,0,.22-.18.44-.53h10.58c.12,0,.18.08.18.26.88-.06,1.52-.09,1.93-.09h10.41q.3,0,1.32,2.82s.13.18.27.53q-.18,0-.18.18c.15.23.7.35,1.67.35.11-.29.25-.44.44-.44v-.09c-.66,0-1-.11-1.14-.35s.35-.21,1.06-.26a9.18,9.18,0,0,0,1-2l.61-.09h2.56a1,1,0,0,1,.88.44h1.85V227c0-.11.27-.17.8-.17a.68.68,0,0,1-.09-.35h-5.91c-.12,0-.17-.06-.17-.18l.61-1.41h-2.47a6.7,6.7,0,0,1-.7-.18h-3.26a7.13,7.13,0,0,0,.88,1.94l-.44.27h-7.41q-2.83,0-7.58-.09c-.29,0-.44-.18-.44-.44H374l.09.17-.18.09h-5.64l-.18-.09.09-.44V226H366.4v-.17H368c.41,0,.62-.3.62-.88l1-1.41a.61.61,0,0,1-.26-.09,1.38,1.38,0,0,1,.26-.71v-.17h-2.12v-.18c.7-.06,1.19-.09,1.5-.09h.8l.7-1.94c-.53,0-.79-.09-.79-.26V220a.6.6,0,0,1,.62-.35h2.82l.17.09c.09-.42.18-.62.27-.62h3c.12,0,.18.07.18.17l6.88-.17v-.09H380.5c-.12,0-.17-.06-.17-.18v-.7l-.44-.09h-1c-.11,0-.2.26-.27.79h-7.32l-.17-.09a3.23,3.23,0,0,1,2.82-1.85h.35a.78.78,0,0,0,.27-.17h3.61a.16.16,0,0,0,.18-.18h-7.32c0,.35-.09.53-.27.53h-2a.16.16,0,0,1-.18-.18C368.89,216.17,369.1,215.79,369.22,215.79Zm-8.91,24.6h.44c.09,0,.18.08.27.26a1,1,0,0,1-.53.18h-.18c-.11,0-.17-.06-.17-.18v-.09C360.17,240.44,360.23,240.39,360.31,240.39Zm7.32-19.14h.27c.11,0,.17.08.17.18l-.17.09h-.27a.16.16,0,0,1-.18-.18Zm10.49-1v.09h.44v-.09Zm2.74,26.81H383c.12,0,.18.07.18.17v.53a.16.16,0,0,1-.18.18h-2.56v-.18h.27v-.53C380.71,247.14,380.77,247.09,380.86,247.09Zm13.31-15.7c.23.56.35.85.35.88h.26c.06,0,.21-.29.45-.88Zm.88,6.17v.27l.44.09h4.41c.12,0,.17-.06.17-.18v-.18l-.17.09h-4.67Zm6.7,4.06v.09l1.06.09.09-.18Zm5.47-24v.09c.63,0,1,.06,1,.17h.36a.15.15,0,0,0,.17-.17l-.26-.18h-.71Zm5.64,9.08H417q2.06,0,5.91.09l.09.17q0,.14-.27.27h-2.29a8.71,8.71,0,0,1-1,.18h-.26c0,.17-.12.32-.36.44h-2.2c-.28-.15-.43-.27-.44-.36v-.44h-3.35c-.12,0-.18-.06-.18-.17S412.77,226.72,412.86,226.72Zm8.46-1.85h2c.12,0,.18.07.18.17l-.18.09h-8.64V225Q419.21,224.87,421.32,224.87Zm-4.14,11.19H419l.18.09c-.11.27-.23.41-.36.44h-1.23c-.21-.23-.35-.35-.44-.35Zm2.55-18.95h3.62q.18,0,.18.18v.88c0,.12-.06.17-.18.17h-3.44c-.09,0-.21-.11-.35-.35v-.7C419.59,217.17,419.65,217.11,419.73,217.11Z"/><path d="M485.61,216.76h1.68a.88.88,0,0,1,.26.17h7.32l.18.09c-.37.77-.61,1.15-.71,1.15h-1.76a10.4,10.4,0,0,1-1.06,3c0,.11-.06.17-.18.17a.08.08,0,0,0,.09.09,9.14,9.14,0,0,1-1.76,4,.08.08,0,0,0-.09.09h.18v.17a4.4,4.4,0,0,0-1.15.44h-.88c-1.73-.12-2.67-.17-2.82-.17H470q-.11,0-.27-.27v-.26h.18v-.09h-2.29l-.35.62H460.4a.54.54,0,0,1-.09.26l.27.18h.79a2.34,2.34,0,0,0,.44.35h1.06c0-.24.12-.35.26-.35h1.33c.11,0,.17.09.17.17a12.12,12.12,0,0,0-1.23,3,.16.16,0,0,1-.18.18h-6.88c-.11,0-.17.09-.17.17v.27h2.64l.36-.27H463a1.58,1.58,0,0,1,1.05.27h3.18c.12,0,.17.09.17.17l-.08.18h2.2l-.09-.18v-.08q1-.09,1.5-.09h11.2c.47,0,.7.12.7.35h1.41q.18,0,.18.18c0,.1-.12.22-.35.35h-.88c-.11,0-.25.35-.45,1.06a4.12,4.12,0,0,0-.7,2.2v.35c0,.09-.18.33-.53.71v.18h.88a.91.91,0,0,0,.27-.18h1.67l.18.09a12.1,12.1,0,0,1-1.41,2.29h-2.65c-.1.47-.34.71-.7.71h-.18q-1.08,0-2.64-.09a6.38,6.38,0,0,1-1.24.35h-1.23a6.56,6.56,0,0,0-1.59-.35h-11.9a.16.16,0,0,1-.18-.18v-.09l.09-.17h-2l-.17-.09V238q0,.18,1.05.27v.09c-.33.64-.54,1-.61,1h-.8a.63.63,0,0,1-.08.26l.17.09h8.11v-.44c0-.12.36-.21,1.06-.27,0-.05,0-.08.09-.08h3a3.72,3.72,0,0,1,1.58.44h4.23c.5,0,1.3,0,2.39.09l.17.35c-.53.07-.79.16-.79.26v1h3.35v.18H473.8c-.12,0-.18-.12-.18-.35h-2.55a.58.58,0,0,1-.44-.62h-14.2v.09l.44.09h1.68c.12,0,.17.08.17.17a2.66,2.66,0,0,0-.44,1.06l.62.09h.71v.17h-1.5a1.26,1.26,0,0,1-.36.88c-4.58,0-8.17-.08-10.75-.08h-2.82a2.64,2.64,0,0,0-.88-.36.79.79,0,0,1,.44-.7l-.09-.18a9.71,9.71,0,0,0,.35-1h-4.23l-.18-.08c.06-.59.15-.89.27-.89h4.23c.35,0,.59-.32.7-1h.09l-.09-.17v-.09c.12,0,.33-.44.62-1.32a.08.08,0,0,0,.09-.09v-.09h-.62c0,.35-.09.53-.26.53h-3.09c-.35-.19-.53-.4-.53-.62a5,5,0,0,1,1.06-1.41h2.21c.11,0,.17.09.17.18v1.06h1.15l1.5-3.62c-.55,0-.87-.06-1-.18-1-.05-1.75-.08-2.3-.08,0-.18-.08-.27-.26-.27v-.17c0-.09.12-.21.35-.36h1.24c.5,0,1.29,0,2.38-.09.2-.58.35-.88.44-.88h1.23q1.37,0,4.41.09l.09-.18v-.08c0-.08-.09-.16-.26-.27h-5.21l-.17-.09.88-2.11h-3l-.17-.09a4.29,4.29,0,0,1,.88-1.76h3l2.65-6.7a2.87,2.87,0,0,0,.62-1.24,3.64,3.64,0,0,1,2.64-1.32q0-.18.18-.18h3.35c.29,0,.44.08.44.18L460,217h2.29c1.46,0,2.48,0,3.09-.09q.46,0,1.5.09c5.81-.06,10.52-.09,14.1-.09h4.41Zm-41.43,26.18h13.4l.17.09c-.72,2.17-1.18,3.26-1.41,3.26H455v.09a1,1,0,0,1,.18.44l-.27.18h-.08l-.18-.09a.16.16,0,0,1-.18.18H450l-.18-.09v.35h5.47c.5,0,1.29,0,2.38.09v.09c0,.08-.09.17-.27.26h-1.58a.83.83,0,0,1,.08.27c-.54,1.63-1.1,2.57-1.67,2.82a3.8,3.8,0,0,1-2.38.52h-5.56a.8.8,0,0,1-.26.18h-4.59a2,2,0,0,1-1-.7v-.8a19.42,19.42,0,0,1,.88-2.38l-1.33-.26a1.11,1.11,0,0,1,.53-1h1.06a23.71,23.71,0,0,0,1.41-3.35A3.83,3.83,0,0,0,444.18,242.94Zm4.49-16V228h.18a4.3,4.3,0,0,0,.71-1.23l-.18-.09h-.53Q448.67,226.77,448.67,226.9ZM449.2,240v.09h3.71V240Zm1.41,7.94v.09c0,.08.09.17.27.26h1v-.26h-1.06Zm.18-16.31v.08h1.06v-.08Zm5.11,0v.26h3.79v-.26c0-.12-.05-.18-.17-.18h-3.44Q455.9,231.52,455.9,231.66ZM457.4,246H460v.17h-.71a8.74,8.74,0,0,0-.26,1.06H457.4a.15.15,0,0,1-.17-.17v-.89C457.26,246.09,457.31,246,457.4,246Zm.35-19v.09a.54.54,0,0,1,.27.09v-.18Zm.62,7.58v.09h.27v-.09Zm2.47-14v.08h4.85v-.08Zm.62,17v.18h.26v-.18Zm.17,4.59h8.91c.09,0,.17.08.26.26v.71c.3,0,.44,0,.44.17v.09h-.44a1.19,1.19,0,0,1-.79.26h-2.73l-.44-.08v-.18h.44a.61.61,0,0,1,.35-.18v-.88h-6Zm1-23.19v.18c0,.11.09.17.18.17h4.76a.68.68,0,0,1,.35.09.71.71,0,0,1,.36-.09h1.32a.66.66,0,0,1,.09-.26h1.85v-.09Zm8.2,8.46H472l.26.18h.44v.18H470v-.18h.53Zm-.7,5.82v.44h5.38c.19.08.36.37.52.88h4.24v-.08h-3.8a1,1,0,0,1-.17-.27v-.09l.09-.61a.08.08,0,0,1-.09-.09c.12,0,.17-.06.17-.18Zm.88-6.43h13.58c.11,0,.17.08.17.17l-.17.09H471Zm.7-5.65v.36h4v-.27Zm.62,20.28H474c.09,0,.17.09.26.27l-.17.08H472.3l-.44-.08v-.18Zm-.26-16.4v.09h6v-.09Zm12.25-7.4c0,.29-.17.44-.53.44a2.8,2.8,0,0,0-.7.53h-6.88a.93.93,0,0,0,.18.26q-.18,0-.18.18h.09q7.23.09,9.17.09V218c0-.12.09-.18.26-.18v-.08Zm-3.79,4.05h-2.12l-.17-.09v.18c0,.12.09.18.17.18h6.53l.44-.09v-.18c0-.11-.06-.17-.18-.17h-1.58Z"/><path d="M531.41,216.91q5.12.09,8,.09h3.35a.68.68,0,0,0,.44.18v.17h-5.29a2,2,0,0,0-1.24.27h-.79l-.18-.09v1.06c0,.11-.29.2-.88.26a.08.08,0,0,1-.09.09H520.48v.7c0,.12-.06.18-.17.18h-1.94a2.81,2.81,0,0,0-.8-.44.68.68,0,0,1-.09-.35h-3.35c-.38,0-.61.32-.7,1a4.92,4.92,0,0,1-.71,1.41h-1.23l-.18-.09a.82.82,0,0,1-.88.62h-3.88c-.12,0-.17.08-.17.17s.17.09.17.18c.88-.06,1.53-.09,1.94-.09H512l.44.09a7.66,7.66,0,0,1-.71,1.85c.24,0,.36.15.36.44h1.23a.9.9,0,0,0,.62.18v.17h-1v.53a.16.16,0,0,1-.18.18H511.4a7.11,7.11,0,0,0-1.14,2.47.63.63,0,0,1-.36.17h-3.52v.09H510v.09c-.13.65-.31,1-.53,1h-1.85v.09c1.29,0,1.94.06,1.94.17-.15.71-.47,1.06-1,1.06h-3.53v.09h3.88a.08.08,0,0,0,.09.09c0,.07-.56,1.31-1.67,3.7h4.84c.36.05.53.13.53.27v.7c0,.12-.06.18-.17.18H512c-.09,0-.41.06-1,.17h-4.59c-.58-.11-.91-.17-1-.17H498v.44h8.55l.18.09c-.38,1-.79,2-1.24,2.91l-.79,2.38V242c0,.32.29.59.88.79h13c.88-.36,1.32-.6,1.32-.7.39-1,.77-1.5,1.15-1.5v-.88l-.53-.09v-.09l.62-.35a7.87,7.87,0,0,1,1.14-2.38h2v-.09a.56.56,0,0,1-.36-.18h-1.41c-.12,0-.18,0-.18-.17l.71-1.85h-4.23q-.22,0-.27-.36h-5.37v-.17h8.55c0-.18.06-.27.17-.27H523a1.83,1.83,0,0,0,.62-1.06,4.07,4.07,0,0,1,.61-1.23h2.21l.09-.35h-1.86c-.08,0-.17-.09-.26-.27a1.45,1.45,0,0,1,.26-.79v-.18h-2.38v1.06c0,.12-.06.18-.17.18h-6c-.07,0-.22.2-.44.62-.76.05-1.38.08-1.85.08h-1.41c-1.53,0-2.29-.08-2.29-.26v-.53c0-.12.07-.18.17-.18h1.77v-.7c0-.12.07-.18.17-.18h4.41c0-.23.18-.35.53-.35h1.59c.26-.35.44-.53.53-.53h3.17c.18,0,.26.18.26.53q2.24.09,3.27.09h1.67l.44-.09v-.09l-.44-.09h-1.59l-1-.35c.32-1,.58-1.59.79-1.68h1.5c.12,0,.17-.05.17-.17h-1.41a.8.8,0,0,0-.26-.18h-.79c-.12,0-.18-.09-.18-.26l-.18.09h-9.25a.16.16,0,0,1-.18-.18V226a.16.16,0,0,1,.18-.17h6.78c.12,0,.18.11.18.35H526a7.94,7.94,0,0,0,1.14-2.56l.88-.09h10.05l-.08-.17c0-.12.07-.18.17-.18h4a2,2,0,0,1-.18.71h1.15v.17h-1.32a8,8,0,0,1-.71,2h1.59q.18,0,.18.18c-.09.23-.18.35-.27.35h-1.76a11.2,11.2,0,0,1-.71,1.94,9.62,9.62,0,0,1-.88,1.85v.35h2.82q.18,0,.18.18v.18c-.06,1.32-.21,2-.44,2h-3.53c-.1,0-.31.31-.62.88v.09q.36,0,.36.18l-.18.09v-.09c-.24.09-.5.5-.79,1.23v.09h3.88v.18h-3.79c-.27.12-.56.85-.89,2.2l.18-.09h2.64a.58.58,0,0,0,.36.18v.18c-1.28,0-3.16,0-5.65.09q-4.42-.09-6.7-.09c0,.58-.17.88-.52.88v.18h2.64l.26-.18h5.82c.09,0,.21.12.36.35-.11,0-.31.47-.62,1.41h4.32c.07,0,.16.09.26.27a5.29,5.29,0,0,0-.7,1.94h-1.32a1.7,1.7,0,0,1-1.06.26h-1.41c-.09,0-.18-.09-.27-.26l.35-.36v-1.23c0-.07-.08-.16-.26-.27a7,7,0,0,0-.88,2.21c.53.07.79.16.79.26s-.06.18-.17.18h-.62c-.35,0-.59.23-.71.7-1.3,1.81-2.19,2.75-2.64,2.83h-7v.08c.59.06,1,.09,1.33.09h3.35c.11,0,.17.09.17.18v.88c0,.12-.06.18-.17.18h-4.15c-.12,0-.17.08-.17.17l.17.09h3.79q.18,0,.18.18a9.43,9.43,0,0,1-4,1.76c-.94.21-1.41.35-1.41.44-1.08.06-1.88.09-2.38.09H495.62a13.54,13.54,0,0,1-2-.35V251h1.77c.07,0,.16-.09.26-.26v-.09l-.44-.09H492.8l-1.06-.35a5.26,5.26,0,0,1-1.85-2.38.08.08,0,0,0,.09-.09c-.65-.18-1-.74-1-1.68v-1.32a.08.08,0,0,1,.09-.09l-.09-.17a35.8,35.8,0,0,0,2.56-6.09v-.08q-.36,0-.36-.18t.27-.27h.09l.17.09c.47-1.09.88-2.17,1.24-3.26a.91.91,0,0,1,1-.79h1.68c.43,0,.66.08.71.26a.08.08,0,0,0-.09.09h4.85a.08.08,0,0,0-.09-.09l.09-.44v-.18h-4.32q0,.27-.18.27h-3l-.17-.09a8.29,8.29,0,0,1,.61-2.2,4.33,4.33,0,0,1,.8-.09h6.08a1.25,1.25,0,0,1,.79.26H502c.07,0,.16-.08.26-.26V231H494.3l-.18-.09c.46-1.68,1-2.73,1.68-3.17h4.58a.16.16,0,0,0,.18-.18l-.18-.09h-4.23c-.12,0-.18-.09-.18-.26,0-.41.19-.62.44-.62h.89v-.09h-1a.08.08,0,0,0-.09-.09,6.34,6.34,0,0,0,.44-1.23q-.18,0-.18-.09l-.17.09h-1.5a.16.16,0,0,1-.18-.18v-.26q0-.18.18-.18h1.58l.44-.09v-.44c-.35,0-.52-.06-.52-.17.52,0,.88-.44,1.05-1.33a6.07,6.07,0,0,1,1.33-2.2h.88c0-.41.09-.62.26-.62h4.76v-.53h-1.32c-.16,0-.25-.14-.26-.44h-2.91c-.09,0-.18-.08-.27-.26v-.35c0-.21.35-.36,1.06-.44v-.09h-.18v-.09c0-.18.36-.32,1.06-.44a.08.08,0,0,1,.09-.09h10.93a1.94,1.94,0,0,1,1.06.88v.62l-.18.26h4.76a1,1,0,0,0,.27-.17h5l.45-.36h5.2A4.47,4.47,0,0,1,531.41,216.91Zm-38.88,6c.94,0,1.41.13,1.41.26v.09c0,.12-.05.18-.17.18h-2.38a.16.16,0,0,1-.18-.18v-.09C491.21,223,491.65,223,492.53,222.91Zm-.08-2.3h1.41l1.05.09v.18h-3.52v-.18Zm2.2,27.16c0,.17-.06.26-.18.26h-1.76v.09c0,.12.07.18.18.18h1.94c.11,0,.17.09.17.26h2V248h-.53c-.12,0-.17-.09-.17-.26Zm1.85-3.18c0,.12.07.18.18.18l-.09.18v.53h5.29l.18.08v-1Zm5.82-9.25-.18-.09c0,.12-.05.18-.17.18h-4c0,.11.07.17.18.17h6.26v-.53c0-.07-.09-.16-.27-.26h-1.5ZM502,249.09v.35l.44.09h1.41c.12,0,.21.3.26.88h4.32q.18,0,.18.27h1.59c.42,0,.66.09.7.26l-.09.18h1.33a1,1,0,0,1,.08-.44c-.41,0-.61-.12-.61-.27v-.88a.16.16,0,0,0-.18-.18h-8.82c-.11,0-.17-.08-.17-.26Zm13.13-3.17a.88.88,0,0,1-.26.17h-3.09v.18h1.06c.44,0,.71.12.8.35,1.48.06,2.57.09,3.26.09H518c.18,0,.27.21.27.62h3.17v-.09c-.29,0-.44-.06-.44-.18v-.61c0-.12.07-.18.18-.18H525a6.7,6.7,0,0,0,.7-.18h.53l.18.09V246c-1.18.05-2.06.08-2.65.08h-.44c-.11,0-.2-.32-.26-1l-.18-.08H521.8c-.16,0-.27.29-.35.88Zm-2.91-19.22h2.12c.07,0,.16.09.26.26v.09c0,.15-.41.24-1.23.26a9.18,9.18,0,0,0-1.23-.08.16.16,0,0,1-.18-.18V227C511.93,226.89,512,226.8,512.19,226.7ZM524.27,222h1.5c.12,0,.18.09.18.18s-.09.18-.27.27h-1c-.31,0-.49-.09-.53-.27S524.17,222,524.27,222Zm.18,20.11v.08h4.41v-.08Zm2.29-4.85v.09c.24,0,.35.2.35.61-.06,0-.08,0-.08.09h4.14v-.18l-.09-.44c.06,0,.09,0,.09-.08h-2.91q-.51,0-1.41-.09Zm.53-5.38v.53l.09.17.17-.08h6.18l.26.17h2.56c.07,0,.16-.09.26-.26l-.09-.44a.08.08,0,0,0,.09-.09ZM535.2,219h1.59c.13,0,.22.35.27,1.06h3.35a1.58,1.58,0,0,0,1.05-.27h1.59l.35.27a7.42,7.42,0,0,1-1,2.46h-14.2a1,1,0,0,1-.53-.17,31.81,31.81,0,0,1,1.33-3h4.58c.18,0,.26.29.26.88a1,1,0,0,0,.27-.17h.88C535,219.38,535.07,219,535.2,219Zm.53,28.56h2.83c.11,0,.17.09.17.18v.7c0,.12-.06.18-.17.18h-1.33v.53a.15.15,0,0,1-.17.17h-3.53c-.12,0-.18,0-.18-.17v-.09q0-.18.18-.18h1.94v-1C535.47,247.78,535.56,247.69,535.73,247.59Zm3.09-28.83h4.94c0,.59-.27.88-.8.88h-3.61c-.44,0-.68-.08-.71-.26v-.44Q538.67,218.76,538.82,218.76Z"/><path d="M563.2,222.11c.58,0,.88.09.88.27v.09h7c.12,0,.18.11.18.35.79-.06,1.38-.09,1.76-.09h8.64c.12,0,.18.12.18.35H588c0-.23.18-.35.53-.35h7.4c.36,0,.53.12.53.35s0,.5-.08,1.24h2v.17c-.79.06-1.38.09-1.76.09h-.26l-.36.35h-2.2q-.13,0-.27.27v.18c0,.11.08.17.18.17h2.12c.11,0,.17.09.17.18-.23.53-.38.79-.44.79h-9.7a.08.08,0,0,0,.09.09l-.09.44v.79h-.26V228l.62.09h1.06l.44-.09v-.18l-.18.09c-.12,0-.18-.06-.18-.17v-.18q0-.11.27-.27h7.32c.11,0,.17.09.17.18v.27c0,.11-.12.17-.35.17v.18h.18a1.92,1.92,0,0,1-.18.61h.18a.91.91,0,0,0,.26-.17h1c.12,0,.18.09.18.17a.16.16,0,0,1-.18.18H595c-.42,0-.72.5-.88,1.5h1.41v.09a1.3,1.3,0,0,1-.44,1.06h-.62a.6.6,0,0,1-.61-.44c-.16,0-.34.32-.53,1l-.18.08h-8.81c-.12,0-.18-.08-.18-.26h-2.65l.09.18-.09.17h5.21v.18h-.8V233h3.26a1,1,0,0,1,.62.26h2.12c.47,0,.7.12.7.35-1,2.12-1.72,3.18-2.2,3.18a.08.08,0,0,1-.09.09h-1.23l.08.17-.17.09h-.62v.79a.16.16,0,0,1-.18.18h-4.76c-.11,0-.17.09-.17.18v.09h5.2c.09,0,.2.11.35.35l-2.11,1.58v.09l.17-.09h1.77c.11,0,.17.09.17.27h2.65c.28.16.42.28.44.35l-.18.09h-1.23c-.52,0-1.31,0-2.38.09,0,.12-.06.17-.18.17h-3a7.55,7.55,0,0,1-2.38.44c-.29,0-.44-.13-.44-.26l-.17.09h-4.24c-.11,0-.17-.15-.17-.44h-5.91v1.32c-.06.18-.23.26-.53.26h-1.06l-.35.62h-.18v.09h3.88c0-.29.06-.44.18-.44h7.14c.06,0,.21-.21.44-.62h2l.26-.17h5.12a6.09,6.09,0,0,0,.7.17h1.41c.36,0,.53.13.53.27v.08c0,.36-.23.53-.7.53a10.63,10.63,0,0,1-1.68.09h-1.23l-.27.18c-1.32.06-2.38.09-3.17.09h-.09v.08a1.13,1.13,0,0,1,.27.71h1.41a20.54,20.54,0,0,0,3.52.35c0,.12.36.21,1.06.27v.61c.35,0,.53.06.53.18V246c0,.08-.09.17-.27.26h-2.73c-.94-.13-1.41-.25-1.41-.35v-.44h-1.41v.26a14,14,0,0,1,.88,1.76h.53c0-.29.06-.44.18-.44h2.11q.27,0,.27.36h1.5l.17.08c-.1.94-.22,1.41-.35,1.41h-3.7a4.5,4.5,0,0,1,.53,1.77q0,.62-1.41,1.32-6.9.09-8.64.09c0,.12-.06.17-.18.17h-1.32l-.27-.17h-.08a.78.78,0,0,1-.27.17h-3a.72.72,0,0,0-.44-.17v-.18h6.88c.07,0,.16-.09.26-.26h-.88l-.18-.09c0,.18,0,.26-.17.26H571c-.32-.07-.79-1.07-1.41-3,0-.06.31-.09.88-.09v-.09c-.88,0-1.32-.35-1.32-1.06a1.28,1.28,0,0,1-.26-.88l.17-.09h.53l.18.09a3.12,3.12,0,0,0,.26-1.15l.18-.08h4.23v-.09a.54.54,0,0,1-.09-.27c.06,0,.09,0,.09-.08h-6c-.12,0-.36-.33-.71-1h-2.64a.16.16,0,0,1-.18-.18v-1.24h-2.73l-.27.18h-1.32c-.65.06-1,.32-1,.79a.76.76,0,0,0-.53.18h-8.46a1,1,0,0,0-.62-.26h-1.85l.09.17c0,.06-.21.18-.62.36l-.44-.09h-.88v.17c1.47-.05,2.64-.08,3.52-.08h9.35c.12,0,.18.08.18.17a20,20,0,0,1-.8,2l.27.18H559l.27-.18h4a5.46,5.46,0,0,0,.71.18c1.53,0,2.29.08,2.29.26s-.06.18-.17.18h-.62l-.18-.09a.15.15,0,0,1-.17.17h-6c-.12,0-.18-.05-.18-.17l-.17.09-.18-.09q-.42,0-1.23,2.73a.69.69,0,0,1,.09.27c-.12,0-.53.35-1.24,1a4.37,4.37,0,0,1-2.55.62h-2.12a1.85,1.85,0,0,1-1.24.35h-1.49c-.09,0-.18-.08-.27-.26l.09-.18h-2.47a2.11,2.11,0,0,0-1.23-.26l-.36.26H543.1c-.09,0-.3-.2-.62-.61v-1a.51.51,0,0,1,.53-.36v-1.05a5.19,5.19,0,0,0,.61-1.68,5.81,5.81,0,0,0,.53-1.41.84.84,0,0,1,.88-.71.67.67,0,0,1,.18-.35,1.25,1.25,0,0,1-.62-.09l.09-.17v-.18H542.3c-.12,0-.17-.06-.17-.18.17-1.05.35-1.58.52-1.58h.62c.12,0,.18.09.18.17v.27h-.62c-.12,0-.18.09-.18.17v1h2.21c.59-1.94,1.06-3,1.41-3.17v-.09H543.8v-.09l2.65-2.2.17.09q.46,0,2-4.5h-1.06a.15.15,0,0,1-.17-.17v-.18c0-.12.07-.18.17-.18h1.15q.3,0,1.32-2.91a1,1,0,0,1,.62-.26h.88c0-.24.23-.35.7-.35v-.18l-.17.09h-.27c-.11,0-.17-.09-.17-.27h-.8c-.14,0-.23-.11-.26-.35a6,6,0,0,1,1-2h11.2v-.17a.16.16,0,0,0-.18-.18h-6.35c-.12,0-.2-.23-.26-.7h-.53c-.24.35-.38.53-.44.53h-4.5a.16.16,0,0,1-.18-.18l.27-.18h.53l.26.18c.34,0,.66-.62,1-1.85a.16.16,0,0,0,.18-.18h-1.41l-.18-.09c.33-.82.56-1.23.71-1.23H553c.23-.47.5-.71.79-.71Zm-15.08,7.41h1.06v.17h-1.06Zm3.53,9.26.09.17V239a.08.08,0,0,1-.09.09l.09.18v.17c0,.18-.28.27-.71.27H549.8l.08.17-.08.18.17.09c6,.06,9.45.08,10.41.08,0,.06,0,.09.08.09,0-.29.11-.44.27-.44h4.58a.61.61,0,0,1,.09-.26l-.26-.18h-1.68c-.12,0-.18-.15-.18-.44H562l-.35-.35h-9.52ZM558.08,217h16.84c.65,0,1,.09,1,.26v.45h11.73c.11,0,.17.08.17.26H593v.18h-1.24l-.35.35h-1.32a6.53,6.53,0,0,0-1.33.18v.17l.44-.09H594c.82,0,1.52.77,2.11,2.3-.34,0-.51.29-.53.88-1.26.06-2.2.08-2.82.08H582.06c-.53,0-.79-.29-.79-.88H580c-.12,0-.18-.06-.18-.17v-.88h-5.55V221a.16.16,0,0,0,.17.17h.89c.11,0,.17.09.17.18v.53c-.06.17-.23.26-.53.26h-9.08c-.47,0-.7-.11-.7-.35h-6.79l-.44-.35h-4.23a1.56,1.56,0,0,1,.35-.88v-.18h-1.59a.16.16,0,0,1-.18-.18v-.08c0-.36.12-.53.27-.53h1.85a2.62,2.62,0,0,1,1-1.59c0-.32.65-.59,1.94-.79h.09l.88.08v-.17l-.18.09h-.17C557.92,217.06,558,217,558.08,217Zm-5.82,34.56h5v.18h-.88a.08.08,0,0,1-.09-.09l-.18.09h-3.88Zm6.35-.71h2.12c.12,0,.17.09.17.18v.53c0,.12,0,.18-.17.18h-2.91v-.18h.62l-.09-.35C558.44,251,558.52,250.85,558.61,250.85Zm-.53-25.65v.18h9.61v-.18Zm1.68,8.11.09.44a.08.08,0,0,0-.09.09h1.41v-.18h-.27a10.55,10.55,0,0,0-1-.35Zm3.26,16.4h.35c.88.14,1.32.26,1.32.35s-.26.21-.79.27c0,0,0,.08-.09.08H562v-.35c0-.12.33-.21,1-.26A.08.08,0,0,1,563,249.71Zm12.7-23.81c0,.36-.06.53-.18.53h-6.26q-.18,0-.18.18v1.15c0,.17-.76.26-2.29.26h-.88l-2.38,5.47c-.47.14-.71.26-.71.35a1.72,1.72,0,0,1,1.06.35h8a1,1,0,0,0,1,.62H573v.09l-.09.17h.53v-.44c0-.12.08-.17.18-.17h11.11c0-.24.12-.36.26-.36h3.62a.84.84,0,0,1,.44-.26v-.09l-.88-.09H580c-.2.3-.4.44-.62.44h-6.17c-.65,0-1-.09-1-.26v-.09l.09-.18c1.07,0,1.86-.08,2.38-.08h2.46a3.79,3.79,0,0,0,1.41-2.38l1.15-2.83h-1.5c0,.12-.14.24-.44.36H573a1.26,1.26,0,0,0-.79-.27H569c-.12,0-.18-.06-.18-.17v-.09h.88l.26-.18h9.79c.24,0,.35-.44.35-1.32a.77.77,0,0,0-.44-.71Zm-11.29,15.34v.44h1.5v-.44Zm1.06-1v.27c0,.12.07.18.17.18H571a.16.16,0,0,0,.18-.18v-.27Zm1.32-9.25h1.24l.44.09v.17h-1.85v-.09A.16.16,0,0,1,566.81,231Zm4.32-5.29h-3.44a3.61,3.61,0,0,0-.79.17V226h.62a4.35,4.35,0,0,1,.7-.17h3.09v-.18Zm15.08-5.91a.7.7,0,0,1-.18.44h.27a.15.15,0,0,0,.17-.17v-.27Zm.17,9.7a.88.88,0,0,1,.09.44H589a.74.74,0,0,1,.17-.44Zm.27-10.32v.09h.7v-.09Zm2.38-2.11h1.41a4.4,4.4,0,0,1,1.41.26v.18H589a.16.16,0,0,1-.18-.18v-.09C588.87,217.15,588.93,217.09,589,217.09Zm4.14,8.81v.36h.44v-.18c0-.12-.06-.18-.17-.18Zm.35,4.94v.09H594v-.09Zm3.88-10h1.77c.11,0,.17.09.17.18v.44c0,.31-.08.48-.26.52h-1.5c-.09,0-.21-.14-.35-.44v-.52C597.24,220.94,597.3,220.88,597.4,220.88Z"/><path d="M595.79,247.44h.53v.17a.64.64,0,0,0-.35.18h-.26a.16.16,0,0,1-.18-.18Zm15.79-30.68h9.34l.27.17h6.43q.18,0,.18.18v.44a.16.16,0,0,1-.18.18h-3.88l-.17-.09v.09c0,.31.08.48.08.53,0,.76-.26,1.14-.79,1.14v.09a.8.8,0,0,1,.44.09l-.44,1.23h2.38v-.44c0-.12.09-.17.18-.17h1.14l.18.08c-.3.83-.5,1.24-.62,1.24h-3.35l-.17-.09-.71,1.94h2.82l1.06.09v.26h-3.7l-.18-.09-.7,1.41h-1v.18h.7c.12,0,.18.07.18.18l-.62,1.41.18.09h2.64v.17h-2.73c-.18,0-.68,1.15-1.5,3.44h3.79c.12,0,.18.07.18.18s-.12.2-.36.35h-2.29a2.54,2.54,0,0,0-1.5-.27h-.08l-1.95,4.68v.09l.18.08H620l.27-.17h.88l.17-.09.09.18a5.78,5.78,0,0,1-1.32,2.2h-4a4.45,4.45,0,0,0-.7,1.5h.79c1,.13,1.45.28,1.5.44v.09l-.18.09h-.09l-.44-.09-.09.17V241h.45v.18h-2.65c-.13,0-.4.67-.79,2a9.72,9.72,0,0,1-1.15,2.46.68.68,0,0,1-.35.09h-1.76c0,.09.08.18.26.27h1.68a.16.16,0,0,1,.17.17,7.94,7.94,0,0,0-.62,1.59h-.17c-1.87,0-5.39,0-10.58.09v.7h3.08q.18,0,.18.18v.79c0,.18-.23.27-.71.27l.09.17v.62h6.26v.09c0,.21-.38.38-1.14.53a.08.08,0,0,1-.09.09c-.9.06-1.69.08-2.38.08-.12,0-.18,0-.18-.08l-.61.08h-6.18l-.26.18H598a2.28,2.28,0,0,1-1.5-1.15v-.08a28.82,28.82,0,0,1,1-3.09h-1.41c-.12,0-.18-.06-.18-.17a8,8,0,0,1,.88-1.06h1.59v-.09h-.26v-.18q.95-2.82,1.23-2.82H604a.16.16,0,0,0,.18-.18v-.17h-4.5c-.07,0-.16-.09-.26-.27l.88-2.11h-1.85a.16.16,0,0,1-.18-.18v-.17q0-.13.27-.27h1.76l.18.09a14.9,14.9,0,0,1,.88-2.12,10.24,10.24,0,0,1,.62-1.41l.26-.53-.18-.08h-2.38l-.17-.09a3.75,3.75,0,0,1,1.06-2.29h.88a6.8,6.8,0,0,0,1-.09c.06,0,.08,0,.08.09l.71-.09c1.73.06,2.88.09,3.44.09V232q0-.18.18-.18h.52v-.35H604l-.17-.09a7.88,7.88,0,0,0,.7-1.76h9.17a.87.87,0,0,1,.53-.79v-1q0-.18.18-.18h4.23v-.09h-5.2a4.18,4.18,0,0,0-2,.27h-2.73l-.27-.18h-2.91l-.17-.09a12.83,12.83,0,0,0,1-2.38l-.44.09h-1.24v-.09c.18-.65.35-1,.53-1h1.32a23.66,23.66,0,0,0,1.77-3.88c.14-.82.35-1.23.61-1.23h.88v-.09h-1c0-.12,0-.18-.17-.18h-1.41l-.18-.09q.09-1.14.27-1.14h2.46a2.78,2.78,0,0,1,1.77-.79A.08.08,0,0,1,611.58,216.76ZM605,248.06h6.79l.18.08a1.22,1.22,0,0,1-.53,1h-6.35c-.07,0-.16-.09-.26-.26v-.62C604.82,248.11,604.88,248.06,605,248.06Zm.89-1.42v.09a5.26,5.26,0,0,1,1,.09l.09-.18Zm5.46-24v.09h.88a.91.91,0,0,1,.27.18h.26a.16.16,0,0,0,.18-.18l-.27-.17h-.7Z"/><path d="M670.18,216.85q5.82,0,7.41,3.7a4.48,4.48,0,0,1,.61,2.38c-.05,1-.14,1.5-.26,1.5v.35c.44,0,.68.09.71.26-.2.83-.34,1.24-.45,1.24h-5.9v.09c.23,0,.35.09.35.26h4.58v.09a9.25,9.25,0,0,1-.61,1.5v.09h1v.08c-.24.77-.41,1.15-.53,1.15H676l-.62,1.68a7.23,7.23,0,0,0-.7,1.76h.62l.17.09a4.14,4.14,0,0,1-.79,1.67h-.88a5.34,5.34,0,0,1-.44,1.24c-.39,1.17-.74,1.76-1.06,1.76h-2.82a1.61,1.61,0,0,1-1-.35h-.18v.44h2.73V238h-.44v.09h1.68c.11,0,.17.09.17.18q-.48,1.08-1.23,3a4.78,4.78,0,0,0-.62,1.41l-.17.08h-8.38l-.26.18h-1.59v.62c0,.09-.18.2-.53.35h-9.87l-.27.18h-8.37l-.09.44v1a.59.59,0,0,1-.62.35H632v.09h.79v.18h3a.81.81,0,0,0,.7,0h1.24l.26-.18h7.85c0-.24.26-.35.79-.35v-.09h-3.17c-.35-.15-.53-.27-.53-.35v-.45a.17.17,0,0,1,.18-.17h8.64v.62c0,.08-.15.2-.44.35h-2.39l.09.44a.08.08,0,0,0-.09.09h4.76c0-.06,0-.09-.08-.09l.08-.44v-.8s.09-.13.27-.26c2.13-.06,3.66-.09,4.58-.09h2.65q1.37,0,4.14.09a.08.08,0,0,0-.09-.09l.09-.44v-.18l-.17-.26c-1.18-.06-2.06-.09-2.65-.09h-.88c-.12,0-.18-.06-.18-.17l.18-.09h2.82q2.67,0,8.55.09s0,.08.09.08c-.06.65-.18,1-.35,1h-.8v.8c0,.12-.05.17-.17.17-1,.06-1.75.09-2.29.09H669c0,.35-.77,1.18-2.3,2.47a4.15,4.15,0,0,1-.79.09h-6.61a5.07,5.07,0,0,1-.71-.18h-1.94c0,.3-.38.44-1.14.44h-.71v.09H666v.09a9.88,9.88,0,0,1-2.38,1.59l-.18-.09a4.94,4.94,0,0,1-1.41.7l-.18-.09a5.54,5.54,0,0,1-1.76.8q-1.93.09-2.91.09c0,.11-.09.17-.26.17q-7.69,0-24.34.09l-.08-.18-.18.09h-2.29l-.27-.17h-.53a7.32,7.32,0,0,1-3.17-1.06,5.52,5.52,0,0,1-2.29-4.14.16.16,0,0,1-.18-.18v-1a9.17,9.17,0,0,0,.44-1.85.08.08,0,0,0,.09-.09v-.53h-2.64a.16.16,0,0,1-.18-.18l.18-.08h2.82a6.8,6.8,0,0,0,.53-1.59v-.09h-3.35c-.12,0-.18-.06-.18-.17s.09-.17.26-.27h2.21c.59-.12.91-.18,1-.18h.44c0-.17.15-.35.44-.52h6.17v-.53H626.1l-.35-.27a8.15,8.15,0,0,0,.79-2.2h4.85a.08.08,0,0,1,.09.09.68.68,0,0,1,.35-.09v-.18l-.18.09h-4.76c-.11,0-.17-.06-.17-.18a43.09,43.09,0,0,1,2.2-5.38h2.56v-1.23c0-.18.5-.26,1.5-.26v-.09h-3.26a.16.16,0,0,1-.18-.18,3.9,3.9,0,0,0,.18-.88h-.62c-.94-.13-1.41-.25-1.41-.35v-.44H625c-.11,0-.17-.06-.17-.18V227a.16.16,0,0,1,.17-.17h2.83v-.53h-1.15a.16.16,0,0,1-.18-.18l.18-.09h2.2a.91.91,0,0,1,.27.18h1.23c.34,0,.58-.32.71-1q.33-1.31,2.82-3.79v-.09l-.18.09h-.26c-.18-.06-.27-.24-.27-.53v-.26h-.79a.16.16,0,0,1-.18-.18v-.79q0-.18.18-.18h3.7a14.16,14.16,0,0,0,2.74-1.23,4.82,4.82,0,0,1,1.32-.45h.17c0-.29,1.12-.58,3.36-.88H658.1Q662.65,216.93,670.18,216.85Zm-47.52,8.28c.94.05,1.41.13,1.41.27v.09a.15.15,0,0,1-.17.17h-2.38c-.12,0-.18-.06-.18-.17v-.09C621.34,225.26,621.78,225.18,622.66,225.13Zm-1.14,24h2.73q.18,0,.18.18v.62c.23,0,.35.06.35.17a.16.16,0,0,1-.18.18h-3.08a.16.16,0,0,1-.18-.18v-.79C621.36,249.17,621.41,249.11,621.52,249.11Zm.7-26.27h1.94l.88.09v.17h-3.26v-.17Zm6.88,24.6v.09H634v-.09Zm1.06-5.38a6.58,6.58,0,0,0,1.76.18c1.34-.06,2.16-.09,2.47-.09v-.27h-4.06C630.21,241.91,630.16,242,630.16,242.06Zm4-8.9h-2c0,.05,0,.08.08.08l-.08.44v.09a.76.76,0,0,1,.17.44l.18-.08h.62l.17.08c.12-.26.24-.41.35-.44h2.83a.15.15,0,0,0,.17-.17v-.09h-1.32c-.1,0-.31-.18-.62-.53h-.26ZM632.62,246v.17h.09V246Zm3.8-11.11h-2.83c-.08,0-.17.09-.26.26h3.35l.26.18h2.12c0-.29.06-.44.18-.44h.88v-.18h-2.29Q636.54,234.92,636.42,234.92Zm-.36-15V220h2v-.09Zm23.19,5.82H647.08c-1.47.57-2.2,1.31-2.2,2.2-.06,0-.24.3-.53.89v.08c.23,0,.35.06.35.18v.18c-.47.26-.7.44-.7.53l-1,2.2.17.09h3.71c0-.24.11-.36.26-.36h1.94a.54.54,0,0,1,.35-.52h3.18c.17,0,.26.17.26.52h.53c.29,0,.74,0,1.32.09V232h-2.29v1.06c0,.11-.06.17-.18.17h-6l-.35.62c-.83.06-1.53.09-2.12.09h-1.67a21.21,21.21,0,0,0-1.06,2.82v.09h1.5c.09,0,.17.09.26.26v.71c0,.17-.76.26-2.29.26l-1.32,3.09a.77.77,0,0,1-.18.53c.21.53.5.79.88.79,0,.06.18.09.53.09h6.26c1.26,0,3,0,5.11-.09l.44.09a11.63,11.63,0,0,1,1.5-.09h1.41a1,1,0,0,1,.62-.26v-.09h-1.23a1,1,0,0,1-.62-.27h-2.91l-.44-.08v-.09q0-.18.18-.18h2.55v-1c.06-.17.24-.26.53-.26h3l1.32-3.53h-.09c-3.82-.06-6.78-.09-8.9-.09h-.35c-.15,0-.24-.12-.27-.35H643.2v-.18h8.56c0-.17,0-.26.17-.26h1.24a.93.93,0,0,0,.26-.18H654a.08.08,0,0,1,.09.09,1,1,0,0,1,.53-.18h1.94c0-.41.17-.61.53-.61H659c0-.53.36-.88,1.06-1.06,0-.18.27-.27.8-.27v-.08a1.48,1.48,0,0,1-1.15-.53V233a9.77,9.77,0,0,1,1-2h10.67v-.09c0-.11-.06-.17-.18-.17H664.8c-.06,0-.17-.27-.35-.8a1.19,1.19,0,0,0-.88.53H661a.15.15,0,0,1-.17-.17,5,5,0,0,0,.44-1.41H660c0,.23-.06.35-.17.35h-.8a.69.69,0,0,1-.26.17h-2.29a5.25,5.25,0,0,1-.71-.17h-.62c-.11,0-.17-.09-.17-.27h-9.61v-.7c0-.12.07-.18.17-.18h6.79c.12,0,.18.12.18.35h8.37c0-.23.21-.35.62-.35.18,0,.38-.41.62-1.23a.68.68,0,0,1-.09-.35l.35-.27h.8q3.43,0,10.49-.09h.09V226l-.44-.08h-6.53l-.35-.36h-6.26C659.65,225.69,659.32,225.75,659.25,225.75Zm-19.31,22.31v.08h1.85q0,.18.18.18h1.94v-.18c-.87,0-1.87,0-3-.08Zm.88-26.72v.09a.69.69,0,0,1,.27.09v-.18Zm7-1h-5.64v.35c2.57-.05,4.48-.08,5.73-.08h.44v-.18l-.09-.18Zm-4.59,1.24.09.17a.57.57,0,0,1-.09.27l.09.53h6.09c.35,0,.52.2.52.61h4.41c.09,0,.21-.11.36-.35h-.89c-.11,0-.17-.12-.17-.35h-9.35c-.12,0-.2-.27-.26-.8.06,0,.09,0,.09-.08Zm3.27,26.89v.17c0,.12.07.18.17.18h6.7q.13,0,.27-.27c0-.11-.06-.17-.18-.17C649.85,248.47,647.52,248.5,646.47,248.5Zm7.14-30.42-.09.18-.44-.09h-5.91v.09h1.24c.23.17.35.32.35.44-.06.61-.09,1-.09,1.06h4.5l-.09-.18v-.27a.16.16,0,0,1,.17-.17H658c.08,0,.17-.09.26-.27v-.53c0-.11-.06-.17-.18-.17h-3.88Zm-6.17,7v.36h1.14v-.36l-.17.09h-.8Zm.61-7.93v.09h.44v-.09Zm5.29,7.32h-3.61v.08h4.58l-.09-.17q0-.18.36-.18a.16.16,0,0,0-.18-.18h-.71Zm8.91-5.38a.8.8,0,0,1-.18.26V220h4.76c.44,0,.68.09.71.26V221h2.73l-.09-.18v-.88c-.23,0-.35-.06-.35-.17l-.18.08h-6.08a1.2,1.2,0,0,1-.71-.7l-.17.09h-.27Zm.44,2.38v.26c.47.11.7.34.7.71v.09c.18,0,.3-.36.36-1.06Zm.09-4.32v.09h1.67v-.09Zm3.08,32.62h4.59l.17.09c-.28.64-.45,1-.53,1h-2.73v.52a.16.16,0,0,1-.18.18h-3.52a.16.16,0,0,1-.18-.18v-.08c0-.12.07-.18.18-.18h1.94v-1.06C665.6,250,665.69,249.92,665.86,249.82Zm.71-30.42v.09h8.55v-.09Zm0,10v.18h8.81v-.09c-1-.06-1.7-.09-2.2-.09Zm5,1.68v.09h1V231Z"/><path d="M720.37,216.91q5.11.09,8,.09h3.35a.7.7,0,0,0,.44.18v.17h-5.29a2,2,0,0,0-1.23.27h-.8l-.17-.09v1.06c0,.11-.3.2-.88.26a.08.08,0,0,1-.09.09H709.44v.7a.16.16,0,0,1-.18.18h-1.94a2.88,2.88,0,0,0-.79-.44.68.68,0,0,1-.09-.35h-3.35c-.38,0-.62.32-.71,1a4.88,4.88,0,0,1-.7,1.41h-1.24l-.17-.09a.82.82,0,0,1-.88.62h-3.88c-.12,0-.18.08-.18.17s.18.09.18.18c.88-.06,1.52-.09,1.94-.09H701l.44.09a7.59,7.59,0,0,1-.7,1.85c.23,0,.35.15.35.44h1.23a.92.92,0,0,0,.62.18v.17h-1v.53c0,.12-.06.18-.17.18h-1.41a7.23,7.23,0,0,0-1.15,2.47.64.64,0,0,1-.35.17h-3.53v.09h3.61v.09c-.13.65-.3,1-.52,1h-1.86v.09c1.3,0,1.94.06,1.94.17-.14.71-.47,1.06-1,1.06H694v.09h3.88a.08.08,0,0,0,.09.09c0,.07-.56,1.31-1.68,3.7h4.85c.35.05.53.13.53.27v.7a.16.16,0,0,1-.18.18H701c-.09,0-.41.06-1,.17h-4.58c-.59-.11-.91-.17-1-.17H687v.44h8.56l.17.09q-.57,1.5-1.23,2.91l-.8,2.38V242c0,.32.3.59.89.79h13c.88-.36,1.32-.6,1.32-.7.38-1,.76-1.5,1.15-1.5v-.88l-.53-.09v-.09l.61-.35a7.79,7.79,0,0,1,1.15-2.38h1.94v-.09a.56.56,0,0,1-.35-.18h-1.41c-.12,0-.18,0-.18-.17l.7-1.85h-4.23c-.14,0-.23-.12-.26-.36H702v-.17h8.55q0-.27.18-.27H712a1.78,1.78,0,0,0,.62-1.06,4,4,0,0,1,.62-1.23h2.2l.09-.35h-1.85q-.13,0-.27-.27a1.39,1.39,0,0,1,.27-.79v-.18h-2.38v1.06a.16.16,0,0,1-.18.18h-6c-.08,0-.22.2-.44.62-.77.05-1.39.08-1.86.08h-1.41c-1.52,0-2.29-.08-2.29-.26v-.53c0-.12.07-.18.18-.18h1.76v-.7q0-.18.18-.18h4.41c0-.23.17-.35.52-.35h1.59c.27-.35.44-.53.53-.53h3.17c.18,0,.27.18.27.53,1.48.06,2.57.09,3.26.09h1.68l.44-.09v-.09l-.44-.09h-1.59L714,229c.32-1,.59-1.59.79-1.68h1.5c.12,0,.18-.05.18-.17h-1.41a.91.91,0,0,0-.27-.18H714c-.12,0-.18-.09-.18-.26l-.17.09h-9.26a.16.16,0,0,1-.18-.18V226c0-.12.08-.17.18-.17h6.79c.12,0,.18.11.18.35H715a8.08,8.08,0,0,0,1.15-2.56l.88-.09h10.05l-.09-.17q0-.18.18-.18h4a2,2,0,0,1-.17.71h1.14v.17h-1.32a7.81,7.81,0,0,1-.7,2h1.58q.18,0,.18.18c-.09.23-.18.35-.26.35H729.8a10.68,10.68,0,0,1-.7,1.94,9.63,9.63,0,0,1-.89,1.85v.35H731c.11,0,.17.09.17.18v.18c-.06,1.32-.2,2-.44,2h-3.53c-.1,0-.3.31-.61.88v.09c.23,0,.35.06.35.18l-.18.09v-.09c-.23.09-.5.5-.79,1.23v.09h3.88v.18H726.1c-.27.12-.56.85-.88,2.2l.17-.09H728a.56.56,0,0,0,.35.18v.18q-1.92,0-5.64.09c-3-.06-5.19-.09-6.7-.09,0,.58-.18.88-.53.88v.18h2.64l.27-.18h5.82c.09,0,.2.12.35.35-.1,0-.31.47-.62,1.41h4.32c.08,0,.16.09.27.27a5.27,5.27,0,0,0-.71,1.94h-1.32a1.7,1.7,0,0,1-1.06.26h-1.41c-.09,0-.17-.09-.26-.26l.35-.36v-1.23c0-.07-.09-.16-.26-.27a7,7,0,0,0-.89,2.21c.53.07.8.16.8.26a.16.16,0,0,1-.18.18H723c-.35,0-.58.23-.7.7-1.31,1.81-2.19,2.75-2.65,2.83h-7v.08q.88.09,1.32.09h3.35q.18,0,.18.18v.88a.16.16,0,0,1-.18.18h-4.14c-.12,0-.18.08-.18.17l.18.09H717c.12,0,.17.09.17.18a9.31,9.31,0,0,1-4,1.76c-.94.21-1.41.35-1.41.44-1.09.06-1.88.09-2.38.09H684.57a13.28,13.28,0,0,1-2-.35V251h1.76c.07,0,.16-.09.26-.26v-.09l-.44-.09h-2.38l-1.06-.35a5.26,5.26,0,0,1-1.85-2.38.08.08,0,0,0,.09-.09c-.65-.18-1-.74-1-1.68v-1.32a.08.08,0,0,1,.09-.09l-.09-.17a35,35,0,0,0,2.56-6.09v-.08c-.24,0-.35-.06-.35-.18s.08-.16.26-.27h.09l.17.09a33.39,33.39,0,0,0,1.24-3.26.92.92,0,0,1,1-.79h1.67c.43,0,.67.08.71.26a.08.08,0,0,0-.09.09H690a.08.08,0,0,0-.09-.09l.09-.44v-.18h-4.32q0,.27-.18.27h-3l-.18-.09a8,8,0,0,1,.62-2.2,4.24,4.24,0,0,1,.79-.09h6.08a1.28,1.28,0,0,1,.8.26h.26c.08,0,.16-.08.27-.26V231h-7.94l-.17-.09c.45-1.68,1-2.73,1.67-3.17h4.58a.16.16,0,0,0,.18-.18l-.18-.09H685.1c-.11,0-.17-.09-.17-.26,0-.41.19-.62.44-.62h.88v-.09h-1a.08.08,0,0,0-.09-.09,6.34,6.34,0,0,0,.44-1.23c-.12,0-.17,0-.17-.09l-.18.09h-1.5a.16.16,0,0,1-.18-.18v-.26q0-.18.18-.18h1.59l.44-.09v-.44c-.35,0-.53-.06-.53-.17.53,0,.88-.44,1.06-1.33a5.91,5.91,0,0,1,1.32-2.2h.88c0-.41.09-.62.27-.62h4.76v-.53h-1.33c-.16,0-.25-.14-.26-.44h-2.91c-.09,0-.18-.08-.26-.26v-.35c0-.21.35-.36,1.05-.44v-.09h-.17v-.09c0-.18.35-.32,1.06-.44,0-.06,0-.09.08-.09h10.94a1.91,1.91,0,0,1,1.05.88v.62l-.17.26h4.76a.88.88,0,0,0,.26-.17h5l.44-.36h5.2A4.49,4.49,0,0,1,720.37,216.91Zm-38.88,6c.94,0,1.41.13,1.41.26v.09a.16.16,0,0,1-.18.18h-2.38c-.11,0-.17-.06-.17-.18v-.09C680.17,223,680.61,223,681.49,222.91Zm-.09-2.3h1.41l1.06.09v.18h-3.53v-.18Zm2.2,27.16c0,.17-.05.26-.17.26h-1.77v.09q0,.18.18.18h1.94c.12,0,.18.09.18.26h2V248h-.52c-.12,0-.18-.09-.18-.26Zm1.86-3.18c0,.12.07.18.17.18l-.09.18v.53h5.29l.18.08v-1Zm5.82-9.25-.18-.09a.16.16,0,0,1-.18.18h-4c0,.11.08.17.18.17h6.26v-.53c0-.07-.09-.16-.26-.26h-1.5Zm-.36,13.75v.35l.44.09h1.41c.12,0,.21.3.27.88h4.32c.12,0,.17.09.17.27h1.59c.43,0,.66.09.71.26l-.09.18h1.32a.88.88,0,0,1,.09-.44c-.41,0-.62-.12-.62-.27v-.88c0-.12-.06-.18-.17-.18h-8.82c-.12,0-.18-.08-.18-.26Zm13.14-3.17a1,1,0,0,1-.27.17h-3.08v.18h1.06c.44,0,.7.12.79.35,1.48.06,2.57.09,3.26.09H707c.17,0,.26.21.26.62h3.18v-.09c-.3,0-.44-.06-.44-.18v-.61c0-.12.07-.18.17-.18h3.79a6.51,6.51,0,0,0,.71-.18h.53l.17.09V246c-1.17.05-2.05.08-2.64.08h-.44c-.12,0-.21-.32-.27-1l-.17-.08h-1.06c-.16,0-.28.29-.35.88Zm-2.91-19.22h2.11c.08,0,.17.09.27.26v.09c0,.15-.41.24-1.24.26a9,9,0,0,0-1.23-.08.16.16,0,0,1-.18-.18V227C700.88,226.89,701,226.8,701.15,226.7ZM713.23,222h1.5c.11,0,.17.09.17.18s-.09.18-.26.27h-1.06c-.31,0-.49-.09-.53-.27S713.12,222,713.23,222Zm.17,20.11v.08h4.41v-.08Zm2.3-4.85v.09c.23,0,.35.2.35.61a.08.08,0,0,0-.09.09h4.14v-.18l-.08-.44a.07.07,0,0,0,.08-.08h-2.91q-.5,0-1.41-.09Zm.52-5.38v.53l.09.17.18-.08h6.17l.27.17h2.55c.08,0,.16-.09.27-.26l-.09-.44a.08.08,0,0,0,.09-.09ZM724.16,219h1.59c.13,0,.22.35.26,1.06h3.35a1.63,1.63,0,0,0,1.06-.27H732l.35.27a7.55,7.55,0,0,1-1.06,2.46H717.11a1,1,0,0,1-.53-.17,30.26,30.26,0,0,1,1.32-3h4.58c.18,0,.27.29.27.88a.88.88,0,0,0,.26-.17h.89C723.94,219.38,724,219,724.16,219Zm.53,28.56h2.82q.18,0,.18.18v.7a.16.16,0,0,1-.18.18h-1.32v.53c0,.12-.06.17-.18.17h-3.53a.15.15,0,0,1-.17-.17v-.09c0-.12.07-.18.17-.18h1.94v-1Q724.42,247.74,724.69,247.59Zm3.08-28.83h4.94c0,.59-.26.88-.79.88H728.3c-.44,0-.67-.08-.7-.26v-.44C727.61,218.82,727.67,218.76,727.77,218.76Z"/><path d="M782.08,216.93a1.6,1.6,0,0,1,1.59.88v.09a.16.16,0,0,1-.18.18h-6.08a3.16,3.16,0,0,0-.18-.79h-.44a3.64,3.64,0,0,0-.53.52H771.5v.45c0,.11-.12.17-.35.17v.09h1.23a.91.91,0,0,0,.27-.18h10.84l.27.18h2l.18.09-.09.62v.7c0,.12-.06.18-.17.18h-1.59l-.26.17h-.71a10.86,10.86,0,0,0-.79,2.21c-.61,1.53-1.11,2.29-1.5,2.29l.09.18a3.2,3.2,0,0,1-1.68.79H754.57v.09h3.27l.09.17v.53q0,.14-.36.36H752.9l-.18-.09a1.76,1.76,0,0,1-.35.79,10.86,10.86,0,0,1-.53,1.59v.44c0,.16.35.37,1.06.62h18c1.41,0,2.11.11,2.11.35V231c0,.18-.26.27-.7.27h-9.79c0,.17-.06.26-.18.26h-8.28c-.09,0-.18.09-.27.26v.45h1.94q0-.27.18-.27h6.87c.12,0,.18.07.18.18v.35a.16.16,0,0,1-.18.18h-1l-2.11.17h-3.26c-.47,0-.71-.12-.71-.35h-1.94v.44l-.17.27q-4.59.08-7.23.08h-2.74v.27h5l.26.17c0-.11.08-.17.18-.17h1.41a.16.16,0,0,0,.18-.18q4.49-.09,7-.09h3.7l.27.18h4.76a.08.08,0,0,0-.09-.09l.09-.44v-.44c-.24,0-.36-.09-.36-.26a1.8,1.8,0,0,1,1-.36h1.33l.26-.17h7.05a8.63,8.63,0,0,1,1.5,1.58h4.68a.61.61,0,0,0,.52-.61q0-.36.18-.36h.09q.18,0,.18.18c-.15,1.06-.33,1.59-.53,1.59h-2.12v.61a.16.16,0,0,1-.18.18h-2l-.18.09.09.18v.08l-.44.09h-5.38a1.05,1.05,0,0,1-.62-.26h-2c0,.35-.29.53-.88.53h-1v.08h10.23q.18,0,.18.18v.44c.11,0,.17,0,.17.09l.62-.09H782c.12,0,.18.07.18.18l-.18.09h-.7c0,.23-.06.35-.18.35h-.79a4.33,4.33,0,0,1-.71.17h-1.76a6.43,6.43,0,0,1-.7,2.74l-1.24,3.08V243h4.32q.18,0,.18.18v.35c0,.17-.77.26-2.3.26h-2.46a14.22,14.22,0,0,0-1.42,1.94,4.71,4.71,0,0,1-1,.88v.09h.35v.18c-.49,0-1.13.44-1.94,1.32l-2,1.24a12.53,12.53,0,0,1-2.47,1.14h-.09l-.17-.09c0,.15-.8.39-2.38.71a.08.08,0,0,1-.09.09c-1.29.06-2.15.08-2.56.08,0,.12-.06.18-.17.18H760a.93.93,0,0,0-.26-.18h-3.44c-2.26,0-5.41,0-9.44-.08a1.67,1.67,0,0,1-.17-.53.08.08,0,0,0,.09-.09h-7.5c-.09,0-.2-.12-.35-.35v-.62c0-.12.09-.18.26-.18v-.08c-.17,0-.26-.06-.26-.18a.08.08,0,0,0,.09-.09h-4.59l.09.18a.54.54,0,0,0-.09.26l.27.18h1.76c.12,0,.18.07.18.17v.71l-.09.18c.18,0,.26.05.26.17v.18c0,.12-.05.17-.17.17h-4.5q-1.5,0-1.5-1.32a2.39,2.39,0,0,1,.36-1.14v-.09H729.8c-.12,0-.17-.06-.17-.18v-1.14c0-.12.07-.18.17-.18h.62q.18,0,.18.18V248h.79c.34-1,.57-1.56.7-1.59h2.38l.27-.18h2.38q.18,0,.18.18v.88l.17-.09h4.94l.18.09c0-.06,0-.09.08-.09s0-.08-.08-.08l.08-.45v-.7c0-.09.18-.21.53-.35h7.5v-.44h-6.35c-.18-.06-.27-.24-.27-.53v-.09c0-.35.14-.53.27-.53h.88v-.53h-1.85c0,.24-.06.35-.18.35H737l-.26.18h-3.35q-.13,0-.27-.27a2.78,2.78,0,0,1,1.85-1.14h8.2l.36.62c.82,0,1.52.08,2.11.08.09-.23.18-.35.27-.35h1.14c1.22,0,1.9-.12,2-.35h10.23v-.18h-2.47a.59.59,0,0,1-.44-.61H741.88l-2.12.17h-.53a.15.15,0,0,1-.17-.17v-.27c0-.1.12-.22.35-.35h12.43l.44.09v-.44c0-.12.36-.21,1.06-.27a.08.08,0,0,1,.09-.09h3.26a2.51,2.51,0,0,0,1.15.27.08.08,0,0,0,.09.09h5.55l.26.17H764c.09,0,.18-.09.26-.26V240h-1l-.44-.09.09-.44v-.17h-5.11c0,.17-.06.26-.18.26H755.1a.15.15,0,0,1-.17-.17v-.36c0-.17.76-.26,2.29-.26h1.15v-.35H746.29c-.9,0-2.13,0-3.7-.09q0-.23-1.59-.36a6,6,0,0,0-1.68-.79c-1.7-1.48-2.55-2.81-2.55-4v-.17c0-.18.67-.27,2-.27h.27v-.26h1a.8.8,0,0,1,.09-.44h2.11V232h-5.29c-.12,0-.17-.06-.17-.18v-.7H736c0,.23-.17.35-.53.35h-1.23a.16.16,0,0,1-.18-.18l.71-1h2.11c.14,0,.34-.51.62-1.49H735.8a.16.16,0,0,1-.18-.18l.26-.18h1.68l.44-.61h2.2v-.62h-1.58c-.09,0-.21-.12-.35-.35a8.88,8.88,0,0,1,2.29-.18h1.23l.27-.18h1a3.42,3.42,0,0,0,.08-.35l-.17.09h-4l-.35-.27a1.23,1.23,0,0,1,.61-1l.18.09c0-.12.07-.17.18-.17h3.26v-.09h-.18v-.09l.09-.18-.44.09h-2.91a.71.71,0,0,0-.35-.62,6.71,6.71,0,0,0,1.67-.35h2.91a1.47,1.47,0,0,1,.71.18.91.91,0,0,0,.18-.27H740v-.08a10.7,10.7,0,0,1,3.35-3.27v-1.23a.16.16,0,0,0-.18-.18h-1.76c-.12,0-.18-.06-.18-.17s.08-.18.18-.18H745c.11,0,.17.15.17.44h.18a28.64,28.64,0,0,1,5.2-1.85A11.52,11.52,0,0,1,752,217h25.74Q779.35,217,782.08,216.93ZM733,244.18h3.7c.09,0,.17.08.26.26v.79l-.17.27c1.08-.06,1.88-.09,2.38-.09H740c.12,0,.17.07.17.18s-.41.2-1.23.35H734.3c-.5,0-1.3,0-2.38.09,0,.11-.06.17-.18.17H729.8a.15.15,0,0,1-.17-.17v-.36a.16.16,0,0,1,.17-.17h5.38v-.09c-.35,0-.53-.15-.53-.44s-.06-.35-.18-.35h-1.58a.16.16,0,0,1-.18-.18C732.71,244.35,732.8,244.26,733,244.18Zm1-4.41h2.74l.35.26h2c.12,0,.17.08.17.18l-.17.09h-4.5C734.15,240.3,733.94,240.12,733.94,239.77Zm4.68-19H740c.12,0,.17.08.17.18v.79c0,.12-.05.18-.17.18h-1.68l-.17-.09C738.34,221.17,738.49,220.81,738.62,220.81Zm4.14,26.72.18.08h2.82v.18H745c-.06.71-.15,1.06-.27,1.06h-1.59l-.35-.27h-.09a.8.8,0,0,1-.26.18h-1.59c-.5,0-1.23,0-2.2.09v.09a3.74,3.74,0,0,1,1.23.08.64.64,0,0,0,.27-.08c2.6.06,4.62.08,6.08.08h5.64c.21,0,.35.33.44,1,0,.06-.31.09-.79.09v.09h2.91v-.09c-.29,0-.44-.06-.44-.17v-.53a2.24,2.24,0,0,0,.26-.88H747c-.13,0-.22-.39-.26-1.15h-3.79Q742.76,247.37,742.76,247.53Zm-1.06,1.76v.18h.44v-.18Zm1.24-20v.17c0,.12.07.18.17.18a5.73,5.73,0,0,0,1.15-.09,7.72,7.72,0,0,0,1.23.09h.18l.27-.18h1.23v-.17Zm3.52-8.82h-1.58v1.06h.79c.29.15.44.26.44.35v.44c0,.12-.2.18-.62.18l.09.17a.57.57,0,0,0-.09.27l.18.09h.88c.59,0,1.47,0,2.65.08,0-.23.12-.35.26-.35h2.29c0-.29.06-.44.18-.44h1v-.26h-5.73a.16.16,0,0,1-.18-.18v-.53c0-.12.08-.17.18-.17h1.76l.44-.09v-.18h-1.32c-.35-.12-.53-.29-.53-.53Zm1.94,23.72-.08.44h2.11c0-.15.18-.24.53-.27v-.09l-.18-.08Zm1.94-18.52v.18h2.56v-.18Zm.53,9.61v.09h.53v-.09Zm.27,12.26V248h5.2c.41,0,.62.26.62.79,0,0,.08,0,.08.09a.08.08,0,0,0,.09-.09l.53.09h3.53v-.09h-3.71a2.31,2.31,0,0,1-.17-1v-.09l.09-.17Zm5-12.7h-3.79v.27c0,.11.07.17.18.17h4.85c.08,0,.17-.09.26-.26v-.44h-.44A1.63,1.63,0,0,0,756.16,234.83Zm-3.44-16.4.09.18c1.09.06,1.88.09,2.38.09h2a6.19,6.19,0,0,1,1.41-.18v-.09Zm2.65,17.11v.17h1.32v-.17Zm1.14-6.44h1.33a.89.89,0,0,0,.61.18v.17h-2.64v-.17h.44A.8.8,0,0,0,756.51,229.1Zm-.52-8.64v.09h.17v-.09Zm.7,8h13.75v.18H756.69Zm.18-7v.17h1.67v-.08h-1l-.09-.18-.17.09-.27-.18C756.93,221.36,756.87,221.42,756.87,221.52Zm.7,28.83.09.17a.08.08,0,0,0-.09.09h.36l.26-.18h1.67v-.08Zm1.59-14.46V236c0,.07.09.16.26.26h6.7a.16.16,0,0,0,.18-.18v-.26Q760.71,235.89,759.16,235.89Zm7,6.87c0,.71-.14,1.06-.26,1.06-.71,0-2,0-3.79-.09-.88.06-1.53.09-1.94.09a2.7,2.7,0,0,1-.09.36h1c.09,0,.18.08.27.26v.18l-.09.17h-1.06v.09H763l.62-.09a.61.61,0,0,1-.09-.26c.09-.24.17-.35.26-.35h7l.35.26h.09a.68.68,0,0,1,.44-.18v-.08a.16.16,0,0,0-.18-.18h-1.41c-.12,0-.2-.35-.26-1.06a.08.08,0,0,0,.09-.09h-1.15C768.18,242.85,767.3,242.82,766.12,242.76Zm5.29-22.3v.44c0,.12,0,.18-.17.18H764a6.05,6.05,0,0,1-1.5.35q0,.09-.18.09v.17H766a1.25,1.25,0,0,1,.79-.26h6.08c0-.24.24-.35.71-.35V221c-.41,0-.62-.09-.62-.27h-.61a1.22,1.22,0,0,1-.8-.26Zm0-.26v.17h.18C771.59,220.25,771.53,220.2,771.41,220.2Zm2.12,30.32h4.94v.18h-.8c-.06,0-.08,0-.08-.09l-.18.09h-3.88Zm3.17-23.62h.45l.26.17H778v.18h-3.8v-.18h2.21Zm-1.05,1.85h6c.12,0,.18.07.18.17l.17-.08h.62c.16.29.28.44.35.44.24,0,.36.06.36.17l-.18.09h-4.76c-.06,0-.21-.18-.44-.53H776.7c-.38,0-1,0-1.76.09v-.26h.35l.18.08A.17.17,0,0,1,775.65,228.75Zm5.9-2.91h2.56c.12,0,.18.07.18.17-.2.65-.34,1-.44,1h-5.56v-.17l.62-.09h2.47V226A.16.16,0,0,1,781.55,225.84Zm-1.06,19.39H782q.18,0,.18.18v.35a.16.16,0,0,1-.18.18h-1.58l-.27-.18H779v-.17A7.32,7.32,0,0,0,780.49,245.23Zm-.61,4.59h1.23c.12,0,.18.09.18.26-.15.37-.3.58-.44.62h-1.32a.08.08,0,0,1-.09-.09l-.18.09h-.18v-.18h.62V250C779.72,249.88,779.78,249.82,779.88,249.82ZM782,238.89l.09.17v.36a.15.15,0,0,1-.17.17l-.18-.26v-.18C781.73,239.06,781.82,239,782,238.89Z"/></g></svg>